<svg width="46" height="66" viewBox="0 0 46 66" fill="none" xmlns="http://www.w3.org/2000/svg">
<g clip-path="url(#clip0_586_194)">
<path d="M21.5614 41.9564C21.3225 42.0319 21.1093 42.1726 20.9459 42.3626C20.7824 42.5527 20.6752 42.7845 20.6362 43.0321C20.3635 44.7621 19.3028 46.9755 18.4429 48.179C18.3401 48.3231 18.2666 48.4861 18.2268 48.6586C18.1869 48.8311 18.1814 49.0098 18.2106 49.1844C18.2398 49.3591 18.303 49.5262 18.3968 49.6764C18.4906 49.8266 18.6131 49.9568 18.7572 50.0597C18.9013 50.1625 19.0643 50.236 19.2368 50.2759C19.4093 50.3157 19.588 50.3212 19.7627 50.2921C19.9373 50.2629 20.1045 50.1996 20.2547 50.1058C20.4048 50.012 20.5351 49.8895 20.6379 49.7454C21.6693 48.3001 22.9425 45.7137 23.3002 43.4512C23.3361 43.2242 23.3134 42.9918 23.2342 42.7762C23.155 42.5605 23.022 42.3686 22.8477 42.2188C22.6735 42.069 22.4638 41.9663 22.2387 41.9203C22.0136 41.8744 21.7804 41.8868 21.5614 41.9564V41.9564Z" fill="#FBB13C"/>
<path d="M22.0121 42.3791C21.7731 42.4546 21.56 42.5953 21.3965 42.7854C21.2331 42.9754 21.1259 43.2072 21.0869 43.4548C20.8142 45.1848 19.7535 47.3982 18.8936 48.6017C18.6859 48.8928 18.6023 49.2544 18.6613 49.6071C18.7202 49.9598 18.9168 50.2747 19.2079 50.4824C19.499 50.6901 19.8606 50.7737 20.2133 50.7148C20.566 50.6558 20.8809 50.4592 21.0886 50.1681C22.12 48.7228 23.3932 46.1365 23.7509 43.8739C23.7868 43.6469 23.7641 43.4146 23.6849 43.1989C23.6057 42.9832 23.4726 42.7913 23.2984 42.6415C23.1242 42.4917 22.9145 42.389 22.6894 42.3431C22.4642 42.2971 22.2311 42.3095 22.0121 42.3791V42.3791Z" fill="#FBD87F"/>
<path d="M25.0087 39.4482C24.7865 39.5185 24.5863 39.6453 24.4277 39.8161C24.2691 39.9869 24.1575 40.1959 24.1038 40.4227C23.4654 43.111 22.4565 45.0463 19.9509 48.3886C19.7512 48.6754 19.6707 49.0285 19.7262 49.3736C19.7817 49.7186 19.969 50.0286 20.2486 50.2383C20.5282 50.4479 20.8782 50.5409 21.225 50.4976C21.5717 50.4543 21.8882 50.2781 22.1076 50.0061C24.8339 46.3696 25.9997 44.1087 26.7268 41.045C26.7819 40.813 26.7745 40.5705 26.7053 40.3424C26.6361 40.1142 26.5076 39.9084 26.333 39.7461C26.1583 39.5837 25.9437 39.4706 25.7111 39.4183C25.4785 39.366 25.2361 39.3763 25.0087 39.4482V39.4482Z" fill="#FBB13C"/>
<path d="M25.4594 39.8709C25.2372 39.9412 25.037 40.068 24.8784 40.2388C24.7198 40.4096 24.6082 40.6186 24.5545 40.8454C23.9161 43.5337 22.9072 45.469 20.4016 48.8114C20.2019 49.0982 20.1213 49.4513 20.1769 49.7963C20.2324 50.1413 20.4197 50.4513 20.6993 50.661C20.9788 50.8707 21.3289 50.9636 21.6757 50.9203C22.0224 50.877 22.3389 50.7008 22.5583 50.4288C25.2846 46.7923 26.4504 44.5314 27.1775 41.4677C27.2326 41.2357 27.2252 40.9933 27.156 40.7651C27.0868 40.5369 26.9583 40.3311 26.7837 40.1688C26.609 40.0065 26.3944 39.8934 26.1618 39.841C25.9291 39.7887 25.6868 39.799 25.4594 39.8709V39.8709Z" fill="#FBD87F"/>
<path d="M28.9644 38.5472C28.7956 38.6006 28.6389 38.6867 28.5035 38.8008C28.3681 38.9149 28.2566 39.0547 28.1754 39.212C26.9655 41.5456 25.4845 43.816 23.0615 47.0487C22.8537 47.3351 22.7668 47.6917 22.8196 48.0416C22.8724 48.3915 23.0607 48.7066 23.3438 48.9189C23.6269 49.1312 23.9821 49.2237 24.3327 49.1764C24.6834 49.1291 25.0014 48.9459 25.2182 48.6662C27.736 45.3065 29.287 42.9269 30.5691 40.453C30.6919 40.2163 30.7418 39.9484 30.7124 39.6833C30.6829 39.4182 30.5755 39.1678 30.4037 38.9638C30.2319 38.7598 30.0035 38.6113 29.7473 38.5371C29.4911 38.463 29.2186 38.4665 28.9644 38.5472Z" fill="#FBB13C"/>
<path d="M29.4151 38.9692C29.2462 39.0226 29.0896 39.1087 28.9542 39.2228C28.8188 39.3369 28.7073 39.4767 28.6261 39.634C27.4162 41.9676 25.9352 44.238 23.5121 47.4707C23.3043 47.7571 23.2175 48.1137 23.2703 48.4636C23.3231 48.8135 23.5114 49.1286 23.7945 49.3409C24.0775 49.5532 24.4327 49.6457 24.7834 49.5984C25.1341 49.5511 25.4521 49.3678 25.6689 49.0882C28.1867 45.7285 29.7377 43.3489 31.0198 40.875C31.1426 40.6383 31.1925 40.3704 31.1631 40.1053C31.1336 39.8402 31.0262 39.5898 30.8544 39.3858C30.6826 39.1818 30.4542 39.0333 30.198 38.9591C29.9417 38.885 29.6693 38.8885 29.4151 38.9692Z" fill="#FBD87F"/>
<path d="M18.9133 42.1249L18.5824 43.7008C18.5375 43.9098 18.5373 44.126 18.5817 44.3352C18.6261 44.5444 18.7142 44.7418 18.8403 44.9145L13.2729 54.9572L11.3325 48.842L11.497 48.741C12.6613 48.0236 13.5673 46.9545 14.084 45.6883L16.1881 40.4431L16.2787 38.3417C16.2749 38.1045 16.4324 37.8566 16.6864 37.7144C17.5062 37.2803 18.5779 37.3929 18.9448 37.9652C19.5909 39.1455 19.3453 40.7071 18.9133 42.1249V42.1249Z" fill="#FBB13C"/>
<path d="M13.7222 56.3724L16.617 53.8733C17.2733 53.3072 18.0185 52.8544 18.8243 52.5343L24.7994 50.1574C25.8531 49.7382 26.8021 49.0941 27.5806 48.2693L30.2409 45.45C30.8506 44.8039 31.5664 44.2671 32.3573 43.8626L33.7118 43.1705C34.0375 43.0034 34.2885 42.7202 34.4152 42.3768C34.542 42.0335 34.5351 41.6551 34.396 41.3165C34.2569 40.978 33.9957 40.704 33.6642 40.5489C33.3327 40.3938 32.9551 40.3689 32.606 40.4791C30.9825 40.9943 29.4879 41.8511 28.2234 42.9921L26.6438 44.4169C25.8409 45.1411 24.8957 45.6898 23.8686 46.028C22.8416 46.3662 21.7552 46.4864 20.6791 46.381C20.4662 46.3605 20.26 46.2951 20.0742 46.1892C19.8884 46.0832 19.7271 45.9391 19.601 45.7664C19.4749 45.5936 19.3868 45.3961 19.3426 45.1868C19.2983 44.9776 19.2989 44.7613 19.3442 44.5523L19.6823 42.9812C19.9705 41.6408 19.764 40.2414 19.1011 39.0414C19.0155 38.8865 18.8995 38.7506 18.7599 38.6418C18.6204 38.5329 18.4603 38.4535 18.2893 38.4082C18.1183 38.3629 17.9398 38.3527 17.7647 38.3782C17.5897 38.4037 17.4215 38.4643 17.2705 38.5565C17.0744 38.676 16.9683 38.9035 16.9746 39.1327L17.0332 41.1783L14.8449 46.5415C14.3282 47.8077 13.4223 48.8768 12.258 49.5942L11.6835 49.9476L13.7222 56.3724V56.3724Z" fill="#FBD87F"/>
<path d="M32.6057 40.48C30.9822 40.9952 29.4876 41.8521 28.2231 42.993L26.6435 44.4178C25.8406 45.142 24.8954 45.6907 23.8683 46.0289C22.8413 46.3671 21.755 46.4874 20.6788 46.382C20.3485 46.3488 20.0382 46.208 19.7957 45.9812L19.8001 45.9819C20.8763 46.0873 21.9626 45.9671 22.9896 45.6289C24.0167 45.2906 24.9619 44.7419 25.7649 44.0177L27.3451 42.5927C28.6098 41.4517 30.1042 40.5949 31.7277 40.0798C32.252 39.9134 32.7968 40.0637 33.1699 40.417C32.9795 40.4011 32.7879 40.4225 32.6057 40.48V40.48Z" fill="#FBB13C"/>
</g>
<mask id="path-10-inside-1_586_194" fill="white">
<path d="M19.0062 36H26.9375C27.3875 33.5812 28.9062 31.2187 30.4812 28.7437C32.3375 25.875 34.25 22.8938 34.25 20.025C34.25 14.5688 29.1875 10.125 23 10.125C16.8125 10.125 11.75 14.5688 11.75 20.025C11.75 22.8938 13.6625 25.875 15.4625 28.7437C17.0375 31.2187 18.5562 33.5812 19.0062 36"/>
</mask>
<path d="M19.0062 36H26.9375C27.3875 33.5812 28.9062 31.2187 30.4812 28.7437C32.3375 25.875 34.25 22.8938 34.25 20.025C34.25 14.5688 29.1875 10.125 23 10.125C16.8125 10.125 11.75 14.5688 11.75 20.025C11.75 22.8938 13.6625 25.875 15.4625 28.7437C17.0375 31.2187 18.5562 33.5812 19.0062 36" fill="#FFCE31"/>
<path d="M26.9375 36V36.3H27.1868L27.2324 36.0549L26.9375 36ZM30.4812 28.7437L30.2294 28.5808L30.2282 28.5827L30.4812 28.7437ZM15.4625 28.7437L15.2084 28.9032L15.2094 28.9048L15.4625 28.7437ZM19.0062 36.3H26.9375V35.7H19.0062V36.3ZM27.2324 36.0549C27.6696 33.7052 29.1494 31.3954 30.7343 28.9048L30.2282 28.5827C28.6631 31.0421 27.1054 33.4573 26.6426 35.9451L27.2324 36.0549ZM30.7331 28.9067C31.6594 27.4751 32.612 25.9973 33.3316 24.5154C34.051 23.0338 34.55 21.5239 34.55 20.025H33.95C33.95 21.3948 33.4927 22.81 32.7919 24.2533C32.0911 25.6965 31.1593 27.1436 30.2294 28.5808L30.7331 28.9067ZM34.55 20.025C34.55 14.368 29.3158 9.825 23 9.825V10.425C29.0592 10.425 33.95 14.7695 33.95 20.025H34.55ZM23 9.825C16.6842 9.825 11.45 14.368 11.45 20.025H12.05C12.05 14.7695 16.9408 10.425 23 10.425V9.825ZM11.45 20.025C11.45 21.5238 11.9489 23.0334 12.6609 24.5144C13.3728 25.9952 14.3111 27.4732 15.2084 28.9032L15.7166 28.5843C14.8139 27.1455 13.8959 25.6985 13.2016 24.2544C12.5074 22.8103 12.05 21.395 12.05 20.025H11.45ZM15.2094 28.9048C16.7943 31.3954 18.2742 33.7052 18.7113 36.0549L19.3012 35.9451C18.8383 33.4573 17.2807 31.0421 15.7156 28.5827L15.2094 28.9048Z" fill="black" mask="url(#path-10-inside-1_586_194)"/>
<path d="M19.0061 26.0721V26.075H19.1186H19.1289L19.1362 26.0823L19.1362 26.0823L19.1363 26.0823L19.1363 26.0823L19.1363 26.0823L19.1363 26.0824L19.1366 26.0827L19.1382 26.0842L19.1445 26.0898C19.1501 26.0946 19.1581 26.101 19.1676 26.1073C19.1875 26.1206 19.2105 26.1313 19.2311 26.1313H19.2414L19.2488 26.1386C19.3356 26.2254 19.4213 26.3544 19.4991 26.4958C19.5769 26.6372 19.6474 26.7924 19.7039 26.9335C19.704 26.9339 19.7042 26.9342 19.7043 26.9345L19.6811 26.9438C19.7092 27 19.7233 27.0563 19.7373 27.1125C19.749 27.1591 19.7606 27.2056 19.7802 27.2522L19.0061 26.0721ZM19.0061 26.0721L18.9949 26.0777C18.9376 26.1063 18.8915 26.1364 18.86 26.1758C18.8277 26.2161 18.8123 26.2641 18.8123 26.325C18.8123 26.6094 18.9254 26.9008 19.16 27.0205L19.0061 26.0721ZM19.8745 27.8959L19.8715 27.8779L19.8534 27.8753C19.4625 27.8194 19.0746 27.7082 18.7426 27.4323C18.4657 27.0994 18.3015 26.7137 18.3556 26.2743C18.4117 26.1067 18.5213 25.838 18.8452 25.73L18.8453 25.7302L18.8485 25.7286C18.953 25.6764 19.1143 25.675 19.2794 25.73C19.4414 25.784 19.55 25.8918 19.6064 25.9481C19.8837 26.2813 19.9949 26.6144 20.1074 26.9517L20.2761 27.4579L20.2818 27.475L20.2998 27.475V27.45L20.2999 27.475H20.2999L20.3001 27.475L20.3005 27.475L20.3018 27.475L20.3068 27.4748C20.3111 27.4747 20.3174 27.4743 20.3256 27.4736C20.3422 27.4722 20.3666 27.4695 20.3989 27.4641C20.4635 27.4534 20.5597 27.432 20.6874 27.3894C20.9429 27.3042 21.3246 27.1344 21.8325 26.7958L21.8325 26.7958L21.8329 26.7955C22.2603 26.4964 22.4634 26.2599 22.6086 26.0909C22.6553 26.0366 22.696 25.9892 22.7363 25.949L22.7566 25.9286L22.7336 25.9113C22.5125 25.7455 22.3465 25.5243 22.2356 25.247L22.2361 25.2468L22.2331 25.2424C22.1228 25.0769 22.0686 24.9129 22.0686 24.75C22.0686 24.5796 22.0693 24.3627 22.1769 24.2014C22.2873 24.0357 22.453 23.8702 22.6735 23.7599C22.78 23.7066 22.8867 23.7063 22.9998 23.7063C23.113 23.7063 23.2197 23.7066 23.3262 23.7599L23.3261 23.76L23.3281 23.7607C23.6018 23.8702 23.7108 24.0333 23.8228 24.2014C23.9297 24.3618 23.9311 24.577 23.9311 24.7469C23.8942 24.894 23.8577 24.9911 23.8208 25.0896C23.8022 25.1391 23.7835 25.189 23.7645 25.2458C23.6534 25.4306 23.5433 25.5651 23.4319 25.7011C23.3754 25.7702 23.3186 25.8396 23.2611 25.9163L23.2481 25.9336L23.2634 25.949C23.3037 25.9892 23.3444 26.0366 23.3911 26.0909C23.5363 26.2599 23.7394 26.4964 24.1668 26.7955L24.167 26.7957C24.7029 27.1623 25.0848 27.3323 25.3337 27.4106C25.4583 27.4497 25.5495 27.4659 25.6102 27.4723C25.6406 27.4754 25.6633 27.4761 25.6786 27.476C25.6863 27.476 25.6921 27.4757 25.6962 27.4754L25.7009 27.4751L25.7022 27.4749L25.7027 27.4749L25.7028 27.4748L25.7029 27.4748L25.6998 27.45L25.7029 27.4748L25.7186 27.4729L25.7236 27.4579L25.8923 26.9517C26.0047 26.6144 26.1159 26.2813 26.3933 25.9481C26.4496 25.8918 26.5583 25.784 26.7202 25.73C26.803 25.7024 26.8706 25.6891 26.9373 25.6891C27.0041 25.6891 27.0717 25.7024 27.1544 25.73L27.1543 25.7303L27.1582 25.7309C27.4795 25.7845 27.5884 26.051 27.6443 26.2748C27.7541 26.7138 27.5905 27.099 27.2572 27.4323C26.982 27.7075 26.5952 27.8192 26.1467 27.8752L26.1282 27.8775L26.1252 27.8959C26.0972 28.0635 26.0553 28.2313 26.0131 28.4002L26.013 28.4007C25.971 28.5687 25.9287 28.7378 25.9004 28.9072C25.7318 29.5251 25.563 30.1442 25.4504 30.7072C25.1974 31.7755 24.9444 32.7595 24.7124 33.6523C24.6799 33.7773 24.6478 33.9004 24.6163 34.0218C24.4242 34.7598 24.2494 35.4312 24.1051 36.0313H23.8178C24.0986 34.6289 24.4903 32.7841 24.9929 30.662L24.9929 30.662L24.9931 30.6612C25.0418 30.4175 25.1012 30.1632 25.162 29.9025C25.1712 29.8628 25.1805 29.823 25.1898 29.783C25.2599 29.4815 25.3302 29.1724 25.3865 28.8632C25.4994 28.5801 25.5559 28.2972 25.612 27.9604L25.6158 27.9376L25.5934 27.932C25.1465 27.8203 24.0828 27.4847 23.0184 26.3083L22.9998 26.2878L22.9813 26.3083C21.9169 27.4847 20.8531 27.8203 20.4063 27.932L20.3785 27.939L20.3891 27.9656C20.4849 28.205 20.5396 28.4858 20.5889 28.7395C20.597 28.7808 20.6049 28.8214 20.6128 28.861C20.6691 29.1709 20.7396 29.4807 20.8099 29.783C20.8192 29.823 20.8284 29.8628 20.8377 29.9024C20.8985 30.1632 20.9578 30.4175 21.0066 30.6612L21.0066 30.6612L21.0068 30.662C21.5094 32.7841 21.901 34.6289 22.1818 36.0313H21.8938C21.5014 34.6282 21.0532 32.8349 20.5492 30.7068L20.5492 30.7068L20.549 30.7059C20.4647 30.397 20.3945 30.1021 20.3242 29.8067L20.3241 29.8066C20.2539 29.5117 20.1836 29.2165 20.0993 28.9072C20.071 28.7378 20.0287 28.5687 19.9867 28.4007L19.9866 28.4002C19.9444 28.2313 19.9024 28.0635 19.8745 27.8959ZM27.2428 26.4315L27.2429 26.4314L27.2423 26.4296C27.2138 26.3441 27.1846 26.2847 27.1537 26.2461C27.1225 26.207 27.0878 26.1875 27.0498 26.1875H26.9373V26.2125L26.9373 26.1875L26.9373 26.1875H26.9372L26.9371 26.1875L26.9368 26.1875L26.9359 26.1876L26.9332 26.1877C26.9318 26.1878 26.9301 26.1879 26.9281 26.1881C26.9269 26.1883 26.9256 26.1884 26.9241 26.1887C26.9167 26.1897 26.9064 26.1918 26.8943 26.1958C26.8703 26.2038 26.8392 26.2195 26.8084 26.2498C26.6921 26.3376 26.606 26.4678 26.5353 26.6092C26.4799 26.72 26.433 26.8398 26.3885 26.9534C26.3762 26.9849 26.3641 27.0158 26.352 27.046C26.2936 27.1635 26.2936 27.2812 26.2936 27.4461V27.45V27.482L26.3247 27.4743C26.5531 27.4172 26.7807 27.3033 26.9512 27.1896L26.9512 27.1896L26.9523 27.1888C27.0694 27.1009 27.1564 26.97 27.2069 26.8329C27.2573 26.6959 27.2725 26.5501 27.2428 26.4315ZM22.6447 24.3386L22.6437 24.3376L22.64 24.3451C22.523 24.5791 22.5813 24.8126 22.6959 24.9861C22.7251 25.0723 22.7684 25.144 22.8176 25.2144C22.8384 25.244 22.8596 25.2727 22.8813 25.302C22.9129 25.3446 22.9455 25.3886 22.979 25.4389L22.996 25.4643L23.0175 25.4427C23.1321 25.3282 23.2464 25.1569 23.3042 24.9846C23.4164 24.7599 23.4788 24.5234 23.3581 24.3424C23.2425 24.1689 23.1231 24.1063 22.9998 24.1063C22.9354 24.1063 22.8738 24.1383 22.8161 24.1816C22.7584 24.2248 22.7011 24.2821 22.6455 24.3378L22.6447 24.3386Z" fill="#C79127" stroke="black" stroke-width="0.05"/>
<path d="M23 43.85C21.7847 43.85 20.7887 42.8623 20.7751 41.65H25.2249C25.2113 42.8623 24.2153 43.85 23 43.85Z" fill="#616466" stroke="black" stroke-width="0.05"/>
<path d="M19.0313 37.15H27.0251V38.1125H19.0313V37.15ZM19.5938 39.175H26.4626V40.1375H19.5938V39.175Z" fill="#94989B" stroke="black" stroke-width="0.05"/>
<path d="M19.5938 38.1625H26.4626V39.125H19.5938V38.1625Z" fill="#616466" stroke="black" stroke-width="0.05"/>
<path d="M27.0251 38.0949L19.5938 40.1143V39.1223L27.0251 37.1575V38.0949ZM20.1563 41.161H25.9001V42.1H20.1563V41.161Z" fill="#94989B" stroke="black" stroke-width="0.05"/>
<path d="M20.1563 40.175H25.9001V41.285H20.1563V40.175Z" fill="#616466" stroke="black" stroke-width="0.05"/>
<path d="M20.1563 42.0861V41.1308L26.4626 39.1839V40.1393L20.1563 42.0861Z" fill="#94989B" stroke="black" stroke-width="0.05"/>
<path d="M22.0779 6.89858L21.3607 2.30875C21.1712 1.0958 22.1091 0 23.3368 0H23.5716C24.83 0 25.7757 1.14831 25.5345 2.38338L24.6431 6.94718C24.5237 7.55871 23.9879 8 23.3648 8C22.7231 8 22.177 7.5326 22.0779 6.89858Z" fill="#FBD87F"/>
<path d="M14.6402 9.65136L10.8876 6.91297C9.89592 6.1893 9.78425 4.75127 10.6523 3.88318L10.8184 3.71714C11.7082 2.8273 13.1889 2.97055 13.8917 4.01446L16.4885 7.87184C16.8364 8.38871 16.7696 9.07963 16.329 9.52022C15.8752 9.97398 15.1586 10.0296 14.6402 9.65136Z" fill="#FBD87F"/>
<path d="M29.5409 7.64022L32.2793 3.88762C33.003 2.89592 34.441 2.78425 35.3091 3.65234L35.4751 3.81839C36.365 4.70822 36.2217 6.18892 35.1778 6.89168L31.3204 9.48848C30.8035 9.83644 30.1126 9.7696 29.672 9.32901C29.2183 8.87525 29.1626 8.1586 29.5409 7.64022Z" fill="#FBD87F"/>
<path d="M10.2396 15.5564L6.0505 13.1128C5.43247 12.7523 5.13754 12.0186 5.33411 11.3306C5.64637 10.2377 6.98266 9.83148 7.85037 10.5657L11.5526 13.6984C12.0626 14.1299 12.0949 14.9051 11.6225 15.3775C11.2557 15.7443 10.6877 15.8178 10.2396 15.5564Z" fill="#FBD87F"/>
<path d="M36.2604 15.5564L40.4495 13.1128C41.0675 12.7523 41.3625 12.0186 41.1659 11.3306C40.8536 10.2377 39.5173 9.83148 38.6496 10.5657L34.9474 13.6984C34.4374 14.1299 34.4051 14.9051 34.8775 15.3775C35.2443 15.7443 35.8123 15.8178 36.2604 15.5564Z" fill="#FBD87F"/>
<defs>
<clipPath id="clip0_586_194">
<rect width="24.2658" height="24.2658" fill="white" transform="matrix(0.953163 -0.302458 -0.302458 -0.953163 15.3394 61.4686)"/>
</clipPath>
</defs>
</svg>
