<svg width="59" height="59" viewBox="0 0 59 59" fill="none" xmlns="http://www.w3.org/2000/svg">
<path d="M5.49629 56.3023C-4.40759 31.8487 10.4959 22.4453 1.55279 6.164C0.887491 4.95281 1.49147 3.37229 2.84247 3.0818C23.6936 -1.40145 25.932 7.86452 51.9923 2.34495C52.9031 2.15204 53.8659 2.60761 54.2378 3.46119C63.1983 24.0318 44.3412 29.1383 56.964 53.9932C57.6018 55.2489 56.8316 56.7919 55.4328 56.9552C31.6468 59.7324 32.8994 51.5599 7.82167 57.4726C6.87233 57.6964 5.86243 57.2064 5.49629 56.3023Z" fill="#B1CC33" stroke="black" stroke-width="2" stroke-linecap="round" stroke-dasharray="4 4"/>
<path d="M19.219 39.5645L23.9097 43.8014C27.6854 47.2119 25.7841 53.478 20.7499 54.2153C20.4613 54.2576 20.17 54.2788 19.8783 54.2788H11.2788C9.06332 54.2788 7.06038 52.9602 6.18462 50.9251C5.62951 49.6352 5.58443 48.1827 6.05847 46.8608L7.63202 42.473C8.56886 39.8606 10.9256 38.0207 13.6872 37.7456C15.7051 37.5447 17.7141 38.2052 19.219 39.5645Z" fill="#5C9E31"/>
<path d="M38.3369 52.0374L37.6309 51.7562C35.5628 50.9323 34.9336 48.3093 36.4029 46.6369C37.6681 45.1969 37.4036 42.9774 35.8355 41.875L35.1723 41.4088C33.5073 40.2383 33.0045 37.9942 34.0111 36.2252L34.5066 35.3543C36.4161 31.9985 41.2317 31.9385 43.2241 35.2457L43.6089 35.8843C44.2138 36.8884 44.4814 38.0598 44.3723 39.2269L43.4692 48.8958C43.2359 51.3936 40.6674 52.9658 38.3369 52.0374Z" fill="#5C9E31"/>
<path d="M49.5389 8.71059C46.8005 11.8573 47.0625 15.4637 47.8593 18.0817C48.3565 19.7153 47.2157 21.7301 45.508 21.7301C44.3365 21.7301 43.3868 20.7804 43.3868 19.6089V18.9003C43.3868 16.7382 41.0604 15.3748 39.1741 16.4315L38.4742 16.8236C37.683 17.2668 36.7491 17.3138 35.848 17.2125C33.7436 16.976 32.5042 18.0442 31.0807 20.027C30.3131 21.0964 29.2114 21.9263 27.904 22.0804C25.4908 22.365 23.8852 21.9453 22.1527 20.4597C21.4191 19.8307 21.0164 18.9197 20.7602 17.9879C20.5212 17.1184 20.2262 16.3774 19.8598 15.7108C18.3493 12.9628 17.7544 9.1965 20.6252 7.93513C21.8373 7.40256 23.1874 7.06402 24.9027 6.89733C25.8389 6.80633 26.7024 7.37789 27.0531 8.25081C27.9564 10.4999 31.812 9.89683 32.6228 7.61273C33.3063 5.68735 34.2884 4.49919 35.6968 5.26427C37.437 6.20958 39.7291 7.42313 42.6189 7.56396C43.3764 7.60087 44.1093 7.35398 44.8089 7.06117C48.1233 5.67383 51.956 5.93305 49.5389 8.71059Z" fill="#5C9E31"/>
<path d="M10.0086 31.4468L7.23686 28.095C6.49562 27.1986 6.09009 26.0719 6.09009 24.9087V17.7802C6.09009 16.4805 6.92259 15.327 8.15607 14.9175C9.03632 14.6253 10.0021 14.7543 10.7748 15.2673L13.2278 16.896C13.8447 17.3055 14.3629 17.847 14.745 18.4812L15.6767 20.0278C16.1947 20.8875 16.9594 21.5714 17.8713 21.9906L20.9844 23.4215C21.3074 23.57 21.6452 23.6835 21.9922 23.7603L26.8288 24.8307C27.8422 25.055 28.9012 24.9395 29.8425 24.5021L31.393 23.7815C32.9174 23.073 34.7272 23.7414 35.4252 25.2706C35.8363 26.1714 35.7812 27.2163 35.2777 28.0688L32.4443 32.8658C32.3059 33.1002 32.1485 33.3229 31.9738 33.5316L30.2718 35.5656C29.1835 36.8663 29.1835 38.7598 30.2718 40.0605C31.3969 41.405 31.3544 43.3742 30.1725 44.669L29.8057 45.0708C28.9169 46.0445 27.6163 46.5346 26.3059 46.3896L25.1905 46.2662C22.9851 46.0221 21.2043 44.3538 20.8171 42.1689L20.4868 40.3046C20.3744 39.6707 20.1408 39.0644 19.7985 38.5191L17.9071 35.5052C17.0139 34.0819 15.4516 33.218 13.7714 33.218C12.3158 33.218 10.9361 32.5686 10.0086 31.4468Z" fill="#92D3F5"/>
<path d="M10.9433 36.6516L13.874 45.4077C14.4766 47.208 16.0468 48.5118 17.9273 48.7731L29.7518 50.4163C31.8575 50.7089 33.8036 49.2444 34.1055 47.14V47.14C34.4792 44.5347 37.2928 43.0586 39.6489 44.2318L40.8862 44.8479C44.117 46.4567 47.9123 44.1068 47.9123 40.4975V36.1258C47.9123 34.5485 47.1681 33.0637 45.9044 32.1199L42.6411 29.6824C40.668 28.2086 40.0618 25.5176 41.2125 23.3402L44.6712 16.7958C46.2657 13.7786 44.4358 10.0858 41.0692 9.52704L31.5642 7.94937C30.33 7.74451 29.0772 8.03436 27.9823 8.63979C24.8424 10.3761 22.4021 10.6044 18.8575 8.88863C17.3979 8.18215 15.6947 7.98324 14.307 8.82215C11.829 10.3202 8.72777 12.9916 12.6832 15.4275C18.5872 19.0634 20.1201 9.82227 28.7754 22.7909" stroke="#F25757" stroke-width="1.5" stroke-linecap="round" stroke-dasharray="4 4"/>
<path d="M41.5713 30.6794C44.9226 25.5898 43.3819 18.8317 38.1297 15.5841C32.8775 12.3372 25.9041 13.8304 22.552 18.9193C19.2015 24.0089 20.743 30.7669 25.9944 34.0146C31.2466 37.2615 38.22 35.7682 41.5721 30.6794H41.5713Z" stroke="black" stroke-width="4" stroke-miterlimit="10" stroke-linecap="round" stroke-linejoin="round"/>
<path d="M22.6239 35.6211L26.0195 37.7203L17.9303 50.005C17.3522 50.883 16.1236 51.124 15.1867 50.5444C14.2491 49.9647 13.9573 48.7838 14.5347 47.9058L22.6239 35.6211Z" fill="#9E9E9E"/>
<path d="M22.6239 35.6211L26.0195 37.7203L17.9303 50.005M22.6239 35.6211L14.5347 47.9058C13.9573 48.7838 14.2491 49.9647 15.1867 50.5444C16.1236 51.124 17.3522 50.883 17.9303 50.005M22.6239 35.6211L26.018 37.7203L17.9303 50.005" stroke="black" stroke-width="2" stroke-miterlimit="10" stroke-linecap="round" stroke-linejoin="round"/>
<path d="M38.1064 15.5722C43.3504 18.7978 44.8896 25.5103 41.5433 30.5652C38.1961 35.62 31.2326 37.1032 25.9866 33.8776C20.7426 30.652 19.2034 23.9404 22.5497 18.8856C25.8969 13.8308 32.8604 12.3476 38.1064 15.5722Z" stroke="#9E9E9E" stroke-width="1.5" stroke-miterlimit="10" stroke-linecap="round" stroke-linejoin="round"/>
<path d="M25.731 25.3899C25.731 25.3899 30.5151 24.0904 35.8697 24.812M30.0802 20.0933C31.1761 22.8919 31.4179 26.6892 31.4179 30.1544" stroke="black" stroke-width="1.5" stroke-linecap="square"/>
</svg>
