<svg width="58" height="62" viewBox="0 0 58 62" fill="none" xmlns="http://www.w3.org/2000/svg">
<path d="M28.8984 15.5004L31.1777 9.85107L33.457 15.5004L39.4402 18.0426L33.457 20.5848L31.1777 26.2341L28.8984 20.5848L23.2002 18.0426L28.8984 15.5004Z" fill="#FBB13C"/>
<path d="M31.1777 9.85107L31.6414 9.66399L31.1777 8.51474L30.7141 9.66399L31.1777 9.85107ZM28.8984 15.5004L29.1022 15.957L29.2866 15.8747L29.3621 15.6875L28.8984 15.5004ZM23.2002 18.0426L22.9965 17.5859L21.973 18.0426L22.9965 18.4992L23.2002 18.0426ZM28.8984 20.5848L29.3621 20.3977L29.2866 20.2104L29.1022 20.1281L28.8984 20.5848ZM31.1777 26.2341L30.7141 26.4211L31.1777 27.5704L31.6414 26.4211L31.1777 26.2341ZM33.457 15.5004L32.9934 15.6875L33.0709 15.8796L33.2615 15.9606L33.457 15.5004ZM39.4402 18.0426L39.6357 18.5027L40.7188 18.0426L39.6357 17.5824L39.4402 18.0426ZM33.457 20.5848L33.2615 20.1246L33.0709 20.2056L32.9934 20.3977L33.457 20.5848ZM30.7141 9.66399L28.4348 15.3133L29.3621 15.6875L31.6414 10.0382L30.7141 9.66399ZM28.6947 15.0438L22.9965 17.5859L23.4039 18.4992L29.1022 15.957L28.6947 15.0438ZM22.9965 18.4992L28.6947 21.0414L29.1022 20.1281L23.4039 17.5859L22.9965 18.4992ZM28.4348 20.7718L30.7141 26.4211L31.6414 26.047L29.3621 20.3977L28.4348 20.7718ZM30.7141 10.0382L32.9934 15.6875L33.9207 15.3133L31.6414 9.66399L30.7141 10.0382ZM33.2615 15.9606L39.2447 18.5027L39.6357 17.5824L33.6526 15.0402L33.2615 15.9606ZM39.2447 17.5824L33.2615 20.1246L33.6526 21.0449L39.6357 18.5027L39.2447 17.5824ZM32.9934 20.3977L30.7141 26.047L31.6414 26.4211L33.9207 20.7718L32.9934 20.3977Z" fill="#FBD87F"/>
<path d="M22.508 11.8687L23.1592 9.85107L23.8104 11.8687L25.5199 12.7766L23.8104 13.6845L23.1592 15.7021L22.508 13.6845L20.8799 12.7766L22.508 11.8687Z" fill="#FBB13C"/>
<path d="M23.1592 9.85107L23.635 9.69749L23.1592 8.2233L22.6834 9.69749L23.1592 9.85107ZM22.508 11.8687L22.7515 12.3054L22.9233 12.2095L22.9838 12.0223L22.508 11.8687ZM20.8799 12.7766L20.6364 12.3399L19.8533 12.7766L20.6364 13.2133L20.8799 12.7766ZM22.508 13.6845L22.9838 13.5309L22.9233 13.3437L22.7515 13.2478L22.508 13.6845ZM23.1592 15.7021L22.6834 15.8557L23.1592 17.3299L23.635 15.8557L23.1592 15.7021ZM23.8104 11.8687L23.3346 12.0223L23.3968 12.2152L23.5759 12.3103L23.8104 11.8687ZM25.5199 12.7766L25.7544 13.2182L26.5858 12.7766L25.7544 12.335L25.5199 12.7766ZM23.8104 13.6845L23.5759 13.2429L23.3968 13.338L23.3346 13.5309L23.8104 13.6845ZM22.6834 9.69749L22.0321 11.7151L22.9838 12.0223L23.635 10.0047L22.6834 9.69749ZM22.2644 11.432L20.6364 12.3399L21.1234 13.2133L22.7515 12.3054L22.2644 11.432ZM20.6364 13.2133L22.2644 14.1212L22.7515 13.2478L21.1234 12.3399L20.6364 13.2133ZM22.0321 13.8381L22.6834 15.8557L23.635 15.5486L22.9838 13.5309L22.0321 13.8381ZM22.6834 10.0047L23.3346 12.0223L24.2862 11.7151L23.635 9.69749L22.6834 10.0047ZM23.5759 12.3103L25.2854 13.2182L25.7544 12.335L24.0449 11.4271L23.5759 12.3103ZM25.2854 12.335L23.5759 13.2429L24.0449 14.1261L25.7544 13.2182L25.2854 12.335ZM23.3346 13.5309L22.6834 15.5486L23.635 15.8557L24.2862 13.8381L23.3346 13.5309Z" fill="#FBD87F"/>
<path d="M24.4821 22.8041L25.459 20.3829L26.4358 22.8041L29 23.8936L26.4358 24.9831L25.459 27.4042L24.4821 24.9831L22.04 23.8936L24.4821 22.8041Z" fill="#FBB13C"/>
<path d="M25.459 20.3829L25.9227 20.1959L25.459 19.0466L24.9953 20.1959L25.459 20.3829ZM24.4821 22.8041L24.6859 23.2607L24.8703 23.1784L24.9458 22.9911L24.4821 22.8041ZM22.04 23.8936L21.8363 23.437L20.8128 23.8936L21.8363 24.3502L22.04 23.8936ZM24.4821 24.9831L24.9458 24.796L24.8703 24.6087L24.6859 24.5265L24.4821 24.9831ZM25.459 27.4042L24.9953 27.5913L25.459 28.7405L25.9227 27.5913L25.459 27.4042ZM26.4358 22.8041L25.9721 22.9911L26.0497 23.1832L26.2403 23.2642L26.4358 22.8041ZM29 23.8936L29.1956 24.3538L30.2786 23.8936L29.1956 23.4334L29 23.8936ZM26.4358 24.9831L26.2403 24.5229L26.0497 24.6039L25.9721 24.796L26.4358 24.9831ZM24.9953 20.1959L24.0185 22.617L24.9458 22.9911L25.9227 20.57L24.9953 20.1959ZM24.2784 22.3474L21.8363 23.437L22.2438 24.3502L24.6859 23.2607L24.2784 22.3474ZM21.8363 24.3502L24.2784 25.4397L24.6859 24.5265L22.2438 23.437L21.8363 24.3502ZM24.0185 25.1702L24.9953 27.5913L25.9227 27.2171L24.9458 24.796L24.0185 25.1702ZM24.9953 20.57L25.9721 22.9911L26.8995 22.617L25.9227 20.1959L24.9953 20.57ZM26.2403 23.2642L28.8045 24.3538L29.1956 23.4334L26.6314 22.3439L26.2403 23.2642ZM28.8045 23.4334L26.2403 24.5229L26.6314 25.4433L29.1956 24.3538L28.8045 23.4334ZM25.9721 24.796L24.9953 27.2171L25.9227 27.5913L26.8995 25.1702L25.9721 24.796Z" fill="#FBD87F"/>
<path d="M38.5894 33.005C38.9719 32.1786 40.0321 31.4132 40.9463 31.3107C41.8606 31.2082 42.6938 30.3819 42.7975 29.4787C42.9078 28.5819 43.6794 27.5313 44.5126 27.1502C44.9323 26.9392 45.2739 26.6026 45.4887 26.1886C45.7036 25.7745 45.7806 25.304 45.7089 24.8442C45.5208 23.9538 45.9293 22.7207 46.6037 22.1089C46.9381 21.7793 47.1581 21.3534 47.2321 20.8924C47.3061 20.4314 47.2302 19.9592 47.0154 19.5435C46.7931 19.0965 46.6775 18.605 46.6775 18.107C46.6775 17.6089 46.7931 17.1175 47.0154 16.6705C47.2307 16.255 47.3069 15.7826 47.2329 15.3215C47.1589 14.8604 46.9386 14.4345 46.6037 14.1051C45.9293 13.4869 45.5241 12.257 45.7089 11.3698C45.7815 10.909 45.705 10.4373 45.4901 10.022C45.2753 9.60678 44.9332 9.26916 44.5126 9.05739C44.0671 8.82261 43.6814 8.4911 43.3843 8.08779C43.0872 7.68449 42.8866 7.21988 42.7975 6.72893C42.7236 6.26987 42.5048 5.84559 42.1724 5.51661C41.84 5.18763 41.4109 4.97075 40.9463 4.89691C40.4492 4.8106 39.9785 4.61343 39.5701 4.32039C39.1616 4.02735 38.8262 3.64617 38.5894 3.20582C38.3755 2.79043 38.0334 2.45299 37.6126 2.24227C37.1919 2.03155 36.7142 1.95847 36.2486 2.03358C35.749 2.10277 35.2399 2.05854 34.7602 1.90425C34.2804 1.74997 33.8426 1.48969 33.4799 1.14319C32.8542 0.470599 31.687 0.29124 30.8863 0.736434C30.0855 1.18163 28.7724 1.18163 27.9749 0.736434C27.5554 0.52094 27.0771 0.443556 26.61 0.51558C26.1428 0.587605 25.7111 0.805265 25.378 1.13679C25.0156 1.48369 24.5778 1.74423 24.098 1.89853C23.6181 2.05284 23.109 2.09684 22.6093 2.02718C22.1443 1.95327 21.6676 2.02731 21.248 2.2386C20.8284 2.44989 20.4877 2.78749 20.275 3.20262C19.8892 4.02254 18.8291 4.78802 17.9148 4.89051C17.4494 4.96438 17.0195 5.1816 16.6865 5.51117C16.3535 5.84075 16.1343 6.26582 16.0604 6.72573C15.9724 7.21668 15.7722 7.68132 15.475 8.08427C15.1778 8.48723 14.7915 8.81786 14.3453 9.05099C13.9262 9.26383 13.5858 9.602 13.3727 10.0173C13.1597 10.4325 13.0848 10.9036 13.1588 11.3634C13.3371 12.2506 12.9318 13.4837 12.2575 14.0987C11.5831 14.7136 11.3951 15.8666 11.8457 16.6641C12.2964 17.452 12.2964 18.7492 11.8457 19.5371C11.6307 19.9532 11.5547 20.426 11.6286 20.8876C11.7026 21.3491 11.9228 21.7756 12.2575 22.1057C12.9351 22.7143 13.3371 23.9474 13.1588 24.841C13.0847 25.2999 13.1596 25.7702 13.3728 26.1844C13.5859 26.5987 13.9264 26.9357 14.3453 27.147C15.1818 27.5281 15.9502 28.5787 16.0571 29.4755C16.1674 30.3787 16.9973 31.205 17.9116 31.3075C18.8258 31.41 19.886 32.1786 20.2718 33.0018C20.4861 33.4153 20.8273 33.7514 21.2465 33.9619C21.6657 34.1724 22.1416 34.2467 22.6061 34.174C23.5074 33.9979 24.7555 34.395 25.3748 35.0644C25.7087 35.3943 26.1399 35.6114 26.6063 35.6845C27.0728 35.7575 27.5508 35.6829 27.9717 35.4712C28.7692 35.026 30.0822 35.026 30.883 35.4712C31.6838 35.9164 32.8509 35.7306 33.4767 35.0644C34.1024 34.3918 35.3441 33.9979 36.2454 34.174C36.7109 34.2481 37.1883 34.1749 37.6092 33.965C38.0302 33.755 38.3732 33.419 38.5894 33.005ZM29.4306 28.9886C26.5071 28.9886 23.7034 27.8413 21.6362 25.7991C19.569 23.7569 18.4076 20.9871 18.4076 18.099C18.4076 15.2109 19.569 12.4411 21.6362 10.3989C23.7034 8.35666 26.5071 7.20936 29.4306 7.20936C32.354 7.20936 35.1578 8.35666 37.225 10.3989C39.2922 12.4411 40.4535 15.2109 40.4535 18.099C40.4535 20.9871 39.2922 23.7569 37.225 25.7991C35.1578 27.8413 32.354 28.9886 29.4306 28.9886ZM16.3813 35.4263L12.3515 58.0031L22.4926 56.517L31.5087 61.3404L35.5224 38.8534C32.2816 39.7895 28.8647 39.9672 25.5423 39.3723C22.22 38.7775 19.0835 37.4265 16.3813 35.4263ZM42.2723 35.5801C41.2598 36.307 40.186 36.9468 39.0627 37.4921L36.6376 51.0594L47.5601 45.2046L42.2723 35.5801Z" fill="#FBB13C"/>
</svg>
