<svg width="87" height="57" viewBox="0 0 87 57" fill="none" xmlns="http://www.w3.org/2000/svg">
<path d="M9.72842 51.5823C9.72842 52.4076 9.28467 53.1924 8.49266 53.7879C7.70045 54.3836 6.58325 54.7667 5.32807 54.7667C4.0729 54.7667 2.9557 54.3836 2.16349 53.7879C1.37148 53.1924 0.927734 52.4076 0.927734 51.5823C0.927734 50.757 1.37148 49.9721 2.16349 49.3766C2.9557 48.781 4.0729 48.3978 5.32807 48.3978C6.58325 48.3978 7.70045 48.781 8.49266 49.3766C9.28467 49.9721 9.72842 50.757 9.72842 51.5823Z" fill="white" stroke="#5B55B0"/>
<path d="M24.4292 42.3712C24.4292 43.6816 23.6445 44.926 22.2569 45.865C20.8721 46.8021 18.9308 47.3978 16.762 47.3978C14.5931 47.3978 12.6519 46.8021 11.2671 45.865C9.87944 44.926 9.09473 43.6816 9.09473 42.3712C9.09473 41.0607 9.87944 39.8163 11.2671 38.8773C12.6519 37.9402 14.5931 37.3445 16.762 37.3445C18.9308 37.3445 20.8721 37.9402 22.2569 38.8773C23.6445 39.8163 24.4292 41.0607 24.4292 42.3712Z" fill="white" stroke="#5B55B0"/>
<path d="M86.5 24.1165C86.5 30.5784 82.927 36.4709 77.0658 40.7662C71.205 45.0613 63.0841 47.733 54.0918 47.733C45.0995 47.733 36.9786 45.0613 31.1177 40.7662C25.2566 36.4709 21.6836 30.5784 21.6836 24.1165C21.6836 17.6546 25.2566 11.7622 31.1177 7.46686C36.9786 3.17179 45.0995 0.5 54.0918 0.5C63.0841 0.5 71.205 3.17179 77.0658 7.46686C82.927 11.7622 86.5 17.6546 86.5 24.1165Z" fill="white" stroke="#5B55B0"/>
<path fill-rule="evenodd" clip-rule="evenodd" d="M53.2689 5.56825C46.6556 6.0323 43.1997 10.2561 42.8979 17.8942H49.5693C49.6528 15.2484 50.9622 13.2704 53.4002 12.9788C55.7933 12.6923 58.0637 13.3352 58.7513 15.1804C59.4941 17.1738 57.8267 19.4901 57.0339 20.4624C55.5666 22.2654 53.1831 23.5806 51.9476 25.5258C50.7366 27.432 50.5212 29.94 50.428 33.0095H56.3076C56.39 31.0469 56.506 29.167 57.2976 27.9473C58.5854 25.9655 60.5085 25.0368 62.1202 23.4716C63.6598 21.9757 65.2794 20.1727 65.5545 17.3821C66.3802 9.02997 60.3352 5.07089 53.2689 5.56825Z" fill="#5B55B0"/>
<path d="M53.4197 43.9829C55.4698 43.9829 57.1318 42.1369 57.1318 39.8597C57.1318 37.5826 55.4698 35.7366 53.4197 35.7366C51.3695 35.7366 49.7075 37.5826 49.7075 39.8597C49.7075 42.1369 51.3695 43.9829 53.4197 43.9829Z" fill="#5B55B0"/>
</svg>
