<svg width="61" height="64" viewBox="0 0 61 64" fill="none" xmlns="http://www.w3.org/2000/svg">
<path d="M14.8971 38.9192C14.1913 38.8586 13.1465 38.2432 13.3411 37.556L16.6257 25.9579C17.0954 24.2996 19.1248 23.7112 20.3954 24.8649C21.1044 25.5087 21.3488 26.5263 21.0036 27.4235C19.7261 30.7437 18.7491 33.165 18.1375 36.9585C17.9687 38.0053 15.9446 39.0091 14.8971 38.9192Z" fill="#FBB13C"/>
<path d="M47.1032 38.9192C47.8091 38.8586 48.8538 38.2432 48.6592 37.556L45.3746 25.9579C44.905 24.2996 42.8756 23.7112 41.6049 24.8649C40.8959 25.5087 40.6515 26.5263 40.9967 27.4235C42.2742 30.7437 43.2512 33.165 43.8629 36.9585C44.0317 38.0053 46.0557 39.0091 47.1032 38.9192Z" fill="#FBB13C"/>
<path d="M22.7502 62C25.0532 45.7208 24.3591 37.2093 21.8335 23.6666H40.1668C38.2014 38.4553 37.4851 46.8679 39.2502 62H22.7502Z" fill="#FBB13C"/>
<path d="M40.9967 27.4235L40.5301 27.603L40.5301 27.603L40.9967 27.4235ZM41.6049 24.8649L41.2688 24.4947L41.6049 24.8649ZM47.1032 38.9192L47.0604 38.421L47.0604 38.421L47.1032 38.9192ZM43.8629 36.9585L44.3565 36.8789L44.3565 36.8789L43.8629 36.9585ZM48.6592 37.556L48.1781 37.6922L48.1781 37.6922L48.6592 37.556ZM45.3746 25.9579L45.8557 25.8216L45.8557 25.8216L45.3746 25.9579ZM21.0036 27.4235L21.4703 27.603L21.4703 27.603L21.0036 27.4235ZM20.3954 24.8649L20.7315 24.4947L20.3954 24.8649ZM14.8971 38.9192L14.9399 38.421L14.9399 38.421L14.8971 38.9192ZM18.1375 36.9585L17.6438 36.8789L18.1375 36.9585ZM13.3411 37.556L13.8222 37.6922L13.3411 37.556ZM16.6257 25.9579L16.1447 25.8216L16.6257 25.9579ZM21.8335 23.6666V23.1666H21.2316L21.342 23.7583L21.8335 23.6666ZM22.7502 62L22.2551 61.9299L22.1744 62.5H22.7502V62ZM39.2502 62V62.5H39.8119L39.7468 61.942L39.2502 62ZM40.1668 23.6666L40.6625 23.7325L40.7377 23.1666H40.1668V23.6666ZM16.1447 25.8216L12.8601 37.4197L13.8222 37.6922L17.1068 26.0941L16.1447 25.8216ZM18.6311 37.0381C19.2333 33.303 20.1912 30.9274 21.4703 27.603L20.537 27.2439C19.261 30.5601 18.2649 33.027 17.6438 36.8789L18.6311 37.0381ZM44.8935 26.0941L48.1781 37.6922L49.1403 37.4197L45.8557 25.8216L44.8935 26.0941ZM44.3565 36.8789C43.7354 33.027 42.7393 30.5601 41.4633 27.2439L40.5301 27.603C41.8092 30.9274 42.767 33.303 43.3692 37.0381L44.3565 36.8789ZM41.4633 27.2439C41.1925 26.5401 41.3843 25.7406 41.941 25.2351L41.2688 24.4947C40.4075 25.2768 40.1105 26.5126 40.5301 27.603L41.4633 27.2439ZM47.0604 38.421C46.6782 38.4538 46.0143 38.276 45.3989 37.9294C45.1008 37.7616 44.8418 37.5691 44.6541 37.3732C44.4619 37.1726 44.3764 37.0023 44.3565 36.8789L43.3692 37.0381C43.4337 37.4381 43.6646 37.7859 43.932 38.065C44.2041 38.349 44.5482 38.5981 44.9082 38.8008C45.6089 39.1954 46.4807 39.4745 47.146 39.4173L47.0604 38.421ZM48.1781 37.6922C48.1882 37.7279 48.1932 37.8638 47.9161 38.0746C47.6612 38.2686 47.3126 38.3994 47.0604 38.421L47.146 39.4173C47.5997 39.3784 48.1264 39.1712 48.5216 38.8705C48.8947 38.5866 49.3248 38.0712 49.1403 37.4197L48.1781 37.6922ZM45.8557 25.8216C45.2861 23.8104 42.8174 23.0886 41.2688 24.4947L41.941 25.2351C42.9337 24.3338 44.5238 24.7888 44.8935 26.0941L45.8557 25.8216ZM21.4703 27.603C21.8898 26.5126 21.5928 25.2768 20.7315 24.4947L20.0593 25.2351C20.6161 25.7406 20.8078 26.5401 20.537 27.2439L21.4703 27.603ZM14.8544 39.4173C15.5196 39.4745 16.3914 39.1954 17.0921 38.8008C17.4521 38.5981 17.7962 38.349 18.0683 38.065C18.3358 37.7859 18.5666 37.4381 18.6311 37.0381L17.6438 36.8789C17.6239 37.0023 17.5385 37.1726 17.3462 37.3732C17.1586 37.5691 16.8995 37.7616 16.6015 37.9294C15.986 38.276 15.3221 38.4538 14.9399 38.421L14.8544 39.4173ZM12.8601 37.4197C12.6756 38.0712 13.1056 38.5866 13.4787 38.8705C13.874 39.1712 14.4007 39.3784 14.8544 39.4173L14.9399 38.421C14.6877 38.3994 14.3391 38.2686 14.0842 38.0746C13.8071 37.8638 13.8121 37.7279 13.8222 37.6922L12.8601 37.4197ZM17.1068 26.0941C17.4765 24.7888 19.0666 24.3338 20.0593 25.2351L20.7315 24.4947C19.1829 23.0886 16.7143 23.8104 16.1447 25.8216L17.1068 26.0941ZM21.342 23.7583C23.8593 37.2562 24.5494 45.7125 22.2551 61.9299L23.2452 62.07C25.557 45.7291 24.859 37.1624 22.325 23.575L21.342 23.7583ZM22.7502 62.5H39.2502V61.5H22.7502V62.5ZM39.7468 61.942C37.9884 46.8671 38.6999 38.5 40.6625 23.7325L39.6712 23.6008C37.7029 38.4107 36.9818 46.8686 38.7535 62.0579L39.7468 61.942ZM40.1668 23.1666H21.8335V24.1666H40.1668V23.1666Z" fill="black"/>
<path d="M35.9307 2.02669C40.1973 4.50929 41.4496 9.67563 38.727 13.5661C36.0036 17.4566 30.338 18.5981 26.0697 16.1155C21.803 13.6329 20.5507 8.46733 23.2733 4.57685C25.9967 0.686378 31.6624 -0.45514 35.9307 2.02669Z" fill="#FBB13C" stroke="black" stroke-miterlimit="10" stroke-linecap="round" stroke-linejoin="round"/>
</svg>
