<svg width="40" height="40" viewBox="0 0 40 40" fill="none" xmlns="http://www.w3.org/2000/svg">
<path d="M38.2112 0.000724279C38.1465 0.00277147 38.0818 0.00843907 38.0177 0.0177005H27.8147C27.5843 0.0144427 27.3556 0.057 27.1418 0.142899C26.9281 0.228798 26.7335 0.356325 26.5694 0.51807C26.4054 0.679815 26.2751 0.872552 26.1862 1.08508C26.0973 1.29761 26.0515 1.52568 26.0515 1.75606C26.0515 1.98644 26.0973 2.21452 26.1862 2.42704C26.2751 2.63957 26.4054 2.83231 26.5694 2.99405C26.7335 3.1558 26.9281 3.28332 27.1418 3.36922C27.3556 3.45512 27.5843 3.49768 27.8147 3.49442H34.0485L16.1551 21.3873C15.9882 21.5475 15.855 21.7394 15.7632 21.9517C15.6715 22.164 15.623 22.3924 15.6207 22.6237C15.6183 22.855 15.6621 23.0844 15.7495 23.2985C15.837 23.5127 15.9662 23.7072 16.1298 23.8707C16.2933 24.0343 16.4879 24.1636 16.702 24.251C16.9161 24.3384 17.1456 24.3822 17.3768 24.3799C17.6081 24.3775 17.8366 24.329 18.0489 24.2373C18.2612 24.1455 18.4531 24.0123 18.6133 23.8455L36.5068 5.95257V12.1862C36.5035 12.4166 36.5461 12.6453 36.632 12.859C36.7179 13.0728 36.8454 13.2674 37.0072 13.4314C37.1689 13.5955 37.3616 13.7257 37.5742 13.8146C37.7867 13.9036 38.0148 13.9493 38.2452 13.9493C38.4756 13.9493 38.7037 13.9036 38.9162 13.8146C39.1287 13.7257 39.3215 13.5955 39.4832 13.4314C39.645 13.2674 39.7725 13.0728 39.8584 12.859C39.9443 12.6453 39.9869 12.4166 39.9836 12.1862V1.97675C40.0182 1.72647 39.9979 1.47165 39.924 1.23004C39.8501 0.988425 39.7244 0.765822 39.5557 0.57773C39.387 0.389638 39.1793 0.240577 38.9471 0.140927C38.7149 0.0412769 38.4638 -0.00656783 38.2112 0.000724279V0.000724279ZM3.47683 6.97114C1.57664 6.97114 0 8.54773 0 10.4479V36.5233C0 38.4234 1.57664 40 3.47683 40H29.5531C31.4533 40 33.0299 38.4234 33.0299 36.5233V19.1397V14.658L29.5531 18.1347V22.6164V36.5233H3.47683V10.4479H17.3842H20.861H21.866L25.3429 6.97114H20.861H17.3842H3.47683Z" fill="#137872"/>
</svg>
