<svg width="88" height="72" viewBox="0 0 88 72" fill="none" xmlns="http://www.w3.org/2000/svg">
<path d="M87.3336 9.12329C84.1436 10.54 80.7169 11.4933 77.1202 11.9233C80.7936 9.72329 83.6102 6.23996 84.9369 2.08662C81.5036 4.12329 77.6969 5.60329 73.6436 6.40329C70.4002 2.94662 65.7802 0.786621 60.6669 0.786621C50.8469 0.786621 42.8869 8.74996 42.8869 18.5666C42.8869 19.96 43.0469 21.32 43.3469 22.6166C28.5702 21.8766 15.4702 14.7966 6.69691 4.03662C5.17024 6.66329 4.29357 9.71662 4.29357 12.98C4.29357 19.1466 7.43024 24.59 12.2002 27.7766C9.28691 27.6833 6.54357 26.8833 4.14691 25.5533C4.14691 25.63 4.14691 25.7 4.14691 25.7766C4.14691 34.3933 10.2736 41.58 18.4102 43.2099C16.9202 43.6166 15.3469 43.8333 13.7236 43.8333C12.5802 43.8333 11.4636 43.7199 10.3802 43.5166C12.6436 50.5799 19.2102 55.7233 26.9902 55.8666C20.9069 60.6366 13.2402 63.4799 4.90691 63.4799C3.47357 63.4799 2.05691 63.3966 0.663574 63.23C8.53357 68.2733 17.8769 71.2166 27.9202 71.2166C60.6269 71.2166 78.5069 44.1233 78.5069 20.6266C78.5069 19.8566 78.4902 19.09 78.4569 18.3266C81.9336 15.8166 84.9502 12.6866 87.3336 9.12329Z" fill="black"/>
</svg>
