<svg width="36" height="40" viewBox="0 0 36 40" fill="none" xmlns="http://www.w3.org/2000/svg">
<path d="M17.8506 2.03125C8.68254 2.03125 9.25498 5.93529 9.25498 5.93529L9.26516 9.98H18.0141V11.1943H5.79023C5.79023 11.1943 -0.076416 10.541 -0.076416 19.6245C-0.076416 28.7083 5.04413 28.3861 5.04413 28.3861H8.10006V24.1709C8.10006 24.1709 7.93531 19.1428 13.1389 19.1428H21.8162C21.8162 19.1428 26.6914 19.2201 26.6914 14.5161V6.73832C26.6914 6.73832 27.4319 2.03125 17.8506 2.03125ZM13.0264 4.75123C13.2332 4.75105 13.4379 4.7909 13.629 4.86851C13.82 4.94611 13.9936 5.05995 14.1398 5.2035C14.286 5.34705 14.4019 5.51749 14.4809 5.70509C14.56 5.89268 14.6006 6.09373 14.6004 6.29674C14.6006 6.49975 14.56 6.70081 14.4809 6.8884C14.4019 7.07599 14.286 7.24644 14.1398 7.38999C13.9936 7.53354 13.82 7.64738 13.629 7.72498C13.4379 7.80258 13.2332 7.84244 13.0264 7.84225C12.8197 7.84244 12.615 7.80258 12.4239 7.72498C12.2329 7.64738 12.0593 7.53354 11.9131 7.38999C11.7669 7.24644 11.651 7.07599 11.572 6.8884C11.4929 6.70081 11.4523 6.49975 11.4525 6.29674C11.4523 6.09373 11.4929 5.89268 11.572 5.70509C11.651 5.51749 11.7669 5.34705 11.9131 5.2035C12.0593 5.05995 12.2329 4.94611 12.4239 4.86851C12.615 4.7909 12.8197 4.75105 13.0264 4.75123Z" fill="url(#paint0_linear_245_329)"/>
<path d="M18.1111 37.3092C27.2791 37.3092 26.7067 33.4051 26.7067 33.4051L26.6965 29.3606H17.9475V28.1462H30.1713C30.1713 28.1462 36.0379 28.7996 36.0379 19.7158C36.0379 10.6321 30.9174 10.9543 30.9174 10.9543H27.8615V15.1694C27.8615 15.1694 28.0262 20.1975 22.8227 20.1975H14.1453C14.1453 20.1975 9.2701 20.1201 9.2701 24.8243V32.6022C9.2701 32.6022 8.5298 37.3092 18.1109 37.3092H18.1111ZM22.9352 34.5895C22.7285 34.5897 22.5237 34.5498 22.3327 34.4722C22.1416 34.3946 21.9681 34.2808 21.8219 34.1372C21.6757 33.9937 21.5598 33.8232 21.4807 33.6356C21.4017 33.448 21.3611 33.247 21.3613 33.044C21.3611 32.8409 21.4017 32.6399 21.4807 32.4523C21.5597 32.2647 21.6756 32.0942 21.8218 31.9506C21.968 31.8071 22.1416 31.6932 22.3327 31.6156C22.5237 31.538 22.7285 31.4981 22.9352 31.4983C23.142 31.4981 23.3467 31.538 23.5378 31.6156C23.7288 31.6932 23.9024 31.807 24.0486 31.9506C24.1948 32.0941 24.3107 32.2646 24.3897 32.4522C24.4687 32.6398 24.5093 32.8408 24.5091 33.0438C24.5093 33.2468 24.4687 33.4479 24.3897 33.6355C24.3107 33.8231 24.1948 33.9935 24.0486 34.1371C23.9024 34.2806 23.7288 34.3945 23.5378 34.4721C23.3467 34.5497 23.142 34.5895 22.9352 34.5893V34.5895Z" fill="url(#paint1_linear_245_329)"/>
<defs>
<linearGradient id="paint0_linear_245_329" x1="3.39415" y1="5.20428" x2="20.9685" y2="22.9231" gradientUnits="userSpaceOnUse">
<stop stop-color="#387EB8"/>
<stop offset="1" stop-color="#366994"/>
</linearGradient>
<linearGradient id="paint1_linear_245_329" x1="14.3795" y1="16.3767" x2="33.2682" y2="34.5611" gradientUnits="userSpaceOnUse">
<stop stop-color="#FFE052"/>
<stop offset="1" stop-color="#FFC331"/>
</linearGradient>
</defs>
</svg>
