<svg width="36" height="40" viewBox="0 0 36 40" fill="none" xmlns="http://www.w3.org/2000/svg">
<path d="M29.5992 14.4281C29.2161 14.2941 28.8297 14.17 28.4404 14.0558C28.5058 13.7835 28.566 13.5144 28.6194 13.25C29.4967 8.90915 28.9232 5.41204 26.9644 4.26063C25.0864 3.15681 22.015 4.30779 18.9131 7.05975C18.6074 7.33145 18.3084 7.61098 18.0166 7.89808C17.8212 7.70717 17.6224 7.51997 17.4202 7.33656C14.1692 4.39409 10.9107 3.15394 8.95402 4.30865C7.07766 5.41591 6.52205 8.70344 7.3118 12.8174C7.39037 13.2248 7.47908 13.6302 7.57786 14.033C7.11661 14.1666 6.67153 14.3088 6.24558 14.4602C2.43408 15.8149 0 17.9378 0 20.1399C0 22.4142 2.61309 24.6954 6.58294 26.0786C6.90478 26.1903 7.2293 26.2938 7.5562 26.389C7.45003 26.8228 7.35578 27.2597 7.27355 27.6989C6.52064 31.7415 7.10859 34.9513 8.97989 36.0516C10.9126 37.1878 14.1566 36.02 17.3152 33.2053C17.5713 32.9764 17.8218 32.7411 18.0664 32.4995C18.3824 32.8104 18.7069 33.1122 19.0395 33.4047C22.0992 36.0885 25.121 37.1723 26.9904 36.069C28.9214 34.9295 29.549 31.4813 28.7342 27.2861C28.67 26.9574 28.598 26.6304 28.5183 26.3052C28.7461 26.2364 28.9697 26.1656 29.1877 26.0919C33.3148 24.6981 36 22.4446 36 20.1399C36 17.9298 33.4873 15.7926 29.5992 14.4281ZM28.7041 24.6039C28.5072 24.6703 28.3053 24.7344 28.0994 24.7967C27.6438 23.3264 27.029 21.7629 26.2765 20.1475C26.9945 18.5706 27.5857 17.0271 28.0285 15.5663C28.3968 15.675 28.7542 15.7895 29.0987 15.9104C32.4301 17.0796 34.4621 18.808 34.4621 20.1399C34.4621 21.5585 32.2675 23.4002 28.7041 24.6039ZM27.2256 27.5905C27.5858 29.4455 27.6372 31.1228 27.3985 32.434C27.1842 33.6123 26.7531 34.3977 26.2198 34.7123C25.0854 35.3818 22.6592 34.5117 20.0426 32.2163C19.7333 31.9444 19.4314 31.6638 19.1374 31.3748C20.1518 30.2439 21.1656 28.9292 22.155 27.469C23.8954 27.3116 25.5396 27.0541 27.0307 26.7028C27.1025 26.9971 27.1675 27.2931 27.2256 27.5905ZM12.2732 34.5967C11.1648 34.9956 10.2819 35.0071 9.74827 34.6934C8.61272 34.0258 8.14064 31.4485 8.78456 27.9914C8.86111 27.5828 8.94875 27.1766 9.04739 26.773C10.522 27.1056 12.1542 27.3447 13.8987 27.4889C14.8949 28.9177 15.9379 30.231 16.989 31.381C16.7657 31.6013 16.537 31.816 16.3032 32.0249C14.9064 33.2695 13.5068 34.1525 12.2732 34.5967ZM7.08047 24.5952C5.32505 23.9835 3.87534 23.1886 2.88169 22.3212C1.98872 21.5417 1.53802 20.7678 1.53802 20.1399C1.53802 18.8035 3.49228 17.0991 6.75183 15.9406C7.14741 15.8002 7.56141 15.6675 7.99102 15.5431C8.44158 17.0369 9.03249 18.5987 9.74559 20.178C9.0232 21.7807 8.42386 23.3675 7.96894 24.8789C7.67055 24.7917 7.3743 24.6971 7.08047 24.5952ZM8.82113 12.5162C8.14458 8.99158 8.59387 6.3328 9.72464 5.66549C10.929 4.95475 13.5921 5.96811 16.3991 8.50891C16.5822 8.67497 16.7622 8.84439 16.9393 9.0171C15.8933 10.1621 14.8598 11.4656 13.8725 12.8859C12.1794 13.0459 10.5587 13.3028 9.06862 13.647C8.97682 13.2723 8.89429 12.8953 8.82113 12.5164V12.5162ZM24.3499 16.4252C23.998 15.8054 23.633 15.1935 23.2552 14.5898C24.4038 14.7379 25.5043 14.9344 26.5378 15.1747C26.2275 16.1885 25.8408 17.2483 25.3856 18.3349C25.0529 17.6914 24.7076 17.0547 24.3499 16.4252ZM18.0173 10.1375C18.7266 10.921 19.437 11.7956 20.1358 12.7446C18.7183 12.6763 17.2984 12.676 15.8809 12.7437C16.5804 11.8035 17.2969 10.93 18.0173 10.1375ZM11.644 16.4359C11.2908 17.0603 10.952 17.6931 10.6277 18.3336C10.18 17.2509 9.79678 16.1862 9.48389 15.1581C10.511 14.9238 11.6063 14.7323 12.7477 14.587C12.3656 15.1943 11.9977 15.8108 11.644 16.4358V16.4359ZM12.7804 25.8044C11.6013 25.6702 10.4895 25.4886 9.46266 25.2606C9.78047 24.2141 10.1721 23.1268 10.6296 22.0208C10.9551 22.6619 11.2954 23.295 11.6501 23.9197C12.0149 24.5619 12.3926 25.191 12.7804 25.8044ZM18.0598 30.2526C17.3308 29.451 16.6037 28.5641 15.8937 27.6102C16.5831 27.6377 17.2858 27.6518 18 27.6518C18.7338 27.6518 19.4591 27.635 20.1731 27.6026C19.4721 28.5737 18.7643 29.4619 18.0598 30.2526ZM25.4001 21.9643C25.8813 23.0825 26.2869 24.1641 26.6089 25.1927C25.5652 25.4355 24.4382 25.631 23.2508 25.7763C23.6313 25.1614 23.9998 24.5388 24.356 23.9089C24.7181 23.2687 25.0663 22.6204 25.4001 21.9643ZM23.0238 23.1257C22.4785 24.0913 21.9025 25.0387 21.2968 25.9662C20.1996 26.0454 19.1 26.0848 18 26.0842C16.8796 26.0842 15.7899 26.0486 14.7406 25.9793C14.1191 25.0539 13.5321 24.1049 12.981 23.1343H12.9811C12.4325 22.1688 11.9202 21.1824 11.445 20.1773C11.9189 19.172 12.4298 18.1851 12.9765 17.2189L12.9763 17.2191C13.5228 16.2526 14.1051 15.3077 14.7219 14.3863C15.7925 14.3037 16.8903 14.2607 17.9999 14.2607H18C19.1146 14.2607 20.2139 14.3041 21.2842 14.3873C21.8948 15.3073 22.4733 16.249 23.0188 17.2106C23.5673 18.1747 24.0848 19.1567 24.5707 20.1551C24.0898 21.1637 23.5739 22.1545 23.0238 23.1257ZM26.1963 5.61876C27.4018 6.3275 27.8706 9.18554 27.1132 12.9335C27.0648 13.1726 27.0105 13.4162 26.9515 13.6632C25.4578 13.3117 23.8359 13.0503 22.1379 12.8879C21.1487 11.452 20.1237 10.1464 19.0948 9.01624C19.3644 8.75125 19.6405 8.49313 19.9228 8.24213C22.5806 5.88439 25.0646 4.95346 26.1963 5.61876ZM18 16.8628C19.7754 16.8628 21.2147 18.3301 21.2147 20.1399C21.2147 21.9497 19.7754 23.417 18 23.417C16.2246 23.417 14.7853 21.9497 14.7853 20.1399C14.7853 18.3301 16.2246 16.8628 18 16.8628Z" fill="#00D8FF"/>
</svg>
