<svg width="36" height="40" viewBox="0 0 36 40" fill="none" xmlns="http://www.w3.org/2000/svg">
<path d="M18 0.217163C17.3873 0.217163 16.7779 0.369498 16.2288 0.674166L1.7913 8.6982C0.693081 9.31084 0 10.4533 0 11.6919V27.74C0 28.9818 0.693081 30.1243 1.7913 30.737L16.2288 38.7577C17.327 39.3703 18.673 39.3703 19.7712 38.7577L34.2087 30.737C35.3103 30.1243 36 28.9785 36 27.74V11.6919C36 10.4533 35.3069 9.31084 34.2087 8.6982L19.7712 0.674166C19.2221 0.369498 18.6127 0.217163 18 0.217163ZM18 1.91271C18.3214 1.91271 18.6462 1.99219 18.9342 2.15114L33.3717 10.1752C33.9442 10.4964 34.2857 11.0726 34.2857 11.6919V18.8681H32.5714V17.1726H30.8571V18.8681H29.1429V20.5637H30.8571V22.2592H32.5714V20.5637H34.2857V27.74C34.2857 28.3592 33.9442 28.9354 33.3683 29.2567L18.9342 37.2807C18.3583 37.5986 17.6417 37.5986 17.0658 37.2807L2.6317 29.2567C2.0558 28.9354 1.71429 28.3625 1.71429 27.74V11.6919C1.71429 11.0726 2.0558 10.4964 2.6317 10.1752L17.0658 2.15114C17.3538 1.99219 17.6786 1.91271 18 1.91271ZM18 8.69488C11.8627 8.69488 6.85714 13.6457 6.85714 19.7159C6.85714 25.7861 11.8627 30.737 18 30.737C21.5056 30.737 24.76 29.1209 26.8627 26.3822L27.4487 25.6172L22.2589 22.6434L21.7902 23.1467C20.8225 24.1932 19.4498 24.8026 18 24.8026C15.1574 24.8026 12.8571 22.5275 12.8571 19.7159C12.8571 16.9044 15.1574 14.6293 18 14.6293C19.4498 14.6293 20.8225 15.2386 21.7902 16.2851L22.2589 16.7885L27.4487 13.8146L26.8627 13.0497C24.76 10.3109 21.5056 8.69488 18 8.69488ZM18 10.3904C20.635 10.3904 23.0458 11.5064 24.8103 13.3676L22.4598 14.7121C21.221 13.6391 19.6808 12.9337 18 12.9337C14.2266 12.9337 11.1429 15.9837 11.1429 19.7159C11.1429 23.4481 14.2266 26.4981 18 26.4981C19.6808 26.4981 21.221 25.7927 22.4598 24.7198L24.8103 26.0643C23.0458 27.9254 20.635 29.0414 18 29.0414C12.7935 29.0414 8.57143 24.8655 8.57143 19.7159C8.57143 14.5664 12.7935 10.3904 18 10.3904ZM24.8571 17.1726V18.8681H23.1429V20.5637H24.8571V22.2592H26.5714V20.5637H28.2857V18.8681H26.5714V17.1726H24.8571Z" fill="#ADD8E6"/>
</svg>
