<svg width="74" height="74" viewBox="0 0 74 74" fill="none" xmlns="http://www.w3.org/2000/svg">
<path d="M67.0002 0.333374H7.00016C3.31683 0.333374 0.333496 3.31671 0.333496 7.00004V67C0.333496 70.6834 3.31683 73.6667 7.00016 73.6667H67.0002C70.6835 73.6667 73.6668 70.6834 73.6668 67V7.00004C73.6668 3.31671 70.6835 0.333374 67.0002 0.333374ZM23.5135 60.3334H13.6802V28.6934H23.5135V60.3334ZM18.4968 24.17C15.3268 24.17 12.7635 21.6 12.7635 18.4367C12.7635 15.2734 15.3302 12.7067 18.4968 12.7067C21.6568 12.7067 24.2268 15.2767 24.2268 18.4367C24.2268 21.6 21.6568 24.17 18.4968 24.17ZM60.3468 60.3334H50.5202V44.9467C50.5202 41.2767 50.4535 36.5567 45.4102 36.5567C40.2935 36.5567 39.5068 40.5534 39.5068 44.68V60.3334H29.6802V28.6934H39.1135V33.0167H39.2468C40.5602 30.53 43.7668 27.9067 48.5502 27.9067C58.5068 27.9067 60.3468 34.46 60.3468 42.98V60.3334Z" fill="black"/>
</svg>
