<svg width="36" height="40" viewBox="0 0 36 40" fill="none" xmlns="http://www.w3.org/2000/svg">
<mask id="path-1-inside-1_245_51" fill="white">
<path d="M15.7501 2.04151C12.1259 1.90537 8.76056 3.12265 6.32075 5.79883C4.36733 7.93729 3.28423 10.7212 2.97798 13.7763H2.35086C1.72853 13.7769 1.13178 14.0259 0.691194 14.4688C0.250612 14.9117 0.00208408 15.5124 0 16.1394L0 23.3126C0.000294368 23.9399 0.24726 24.5414 0.686819 24.9856C1.12638 25.4298 1.72271 25.6804 2.34523 25.6825H5.48309C6.51832 27.7041 7.81626 29.5777 9.34265 31.2538C16.0338 38.5813 25.3855 40.3783 31.1849 35.8155H34.3341C35.2021 35.8155 35.9114 35.0939 35.9114 34.2261V29.8959C35.9114 29.5181 35.7707 29.1641 35.5241 28.8851C36.8133 23.6904 35.46 17.3272 31.7468 11.9215C31.7468 11.8977 31.7591 11.875 31.7591 11.85V8.80628C31.7591 8.12674 31.2142 7.57199 30.5398 7.56632H27.9829C24.2123 4.10395 19.8258 2.19466 15.7501 2.04264V2.04151ZM18.3712 5.33824C21.0463 5.32009 23.9139 6.27757 26.5102 8.13241C26.3727 8.33004 26.2956 8.5639 26.2884 8.80515V11.8489C26.2884 12.5284 26.839 13.0889 27.5134 13.0889H30.5398C30.7436 13.0843 30.9496 13.0197 31.1253 12.9119C34.4973 17.9046 35.2314 23.9797 32.9852 28.2985H30.041C29.173 28.2985 28.4637 29.0201 28.4637 29.8879V32.6004C23.9725 34.5687 17.9557 32.9373 13.5163 28.0807C12.6326 27.1077 11.8522 26.0442 11.188 24.9076C11.5753 24.489 11.8095 23.9275 11.8095 23.3115V16.1383C11.8086 15.5118 11.5612 14.9113 11.1216 14.4683C10.682 14.0254 10.086 13.7761 9.46424 13.7752H8.84838C9.20529 11.7116 10.0204 9.82729 11.3805 8.33888C13.2168 6.32976 15.7028 5.34845 18.37 5.33824H18.3712ZM27.5134 8.37405H30.5398C30.7796 8.37405 30.962 8.5567 30.962 8.80515V11.8489C30.962 12.0973 30.7807 12.28 30.5398 12.28H27.5134C27.4568 12.2816 27.4005 12.2715 27.3479 12.2504C27.2953 12.2293 27.2475 12.1976 27.2074 12.1572C27.1674 12.1169 27.1359 12.0687 27.115 12.0157C27.094 11.9627 27.084 11.9059 27.0856 11.8489V8.80515C27.084 8.74811 27.094 8.69135 27.115 8.63834C27.1359 8.58533 27.1674 8.53718 27.2074 8.49684C27.2475 8.45649 27.2953 8.42479 27.3479 8.40368C27.4005 8.38257 27.4568 8.37249 27.5134 8.37405ZM2.34523 14.5795H9.46537C10.3334 14.5795 11.0135 15.2704 11.0135 16.1394V23.3126C11.0135 24.1827 10.3334 24.8736 9.46537 24.8736H2.35086C2.14679 24.8751 1.94444 24.8358 1.75556 24.7579C1.56667 24.6801 1.395 24.5652 1.25048 24.42C1.10596 24.2748 0.991479 24.1022 0.913659 23.9121C0.83584 23.722 0.796232 23.5182 0.797131 23.3126V16.1394C0.797131 15.2716 1.4828 14.5863 2.34523 14.5863V14.5795ZM30.0422 29.1074H34.3341C34.7743 29.1074 35.1211 29.4512 35.1211 29.8879V34.2181C35.1215 34.3221 35.1014 34.4251 35.0619 34.5211C35.0225 34.6172 34.9644 34.7043 34.8912 34.7775C34.8179 34.8507 34.7309 34.9084 34.6353 34.9474C34.5396 34.9863 34.4372 35.0057 34.3341 35.0043H30.0422C29.9393 35.0059 29.8371 34.9866 29.7418 34.9476C29.6464 34.9086 29.5598 34.8508 29.4871 34.7775C29.4143 34.7042 29.3569 34.6169 29.3182 34.5208C29.2795 34.4247 29.2604 34.3218 29.2619 34.2181V29.8936C29.2604 29.7899 29.2795 29.687 29.3182 29.5909C29.3569 29.4949 29.4143 29.4076 29.4871 29.3343C29.5598 29.261 29.6464 29.2031 29.7418 29.1641C29.8371 29.1252 29.9393 29.1059 30.0422 29.1074Z"/>
</mask>
<path d="M15.7501 2.04151C12.1259 1.90537 8.76056 3.12265 6.32075 5.79883C4.36733 7.93729 3.28423 10.7212 2.97798 13.7763H2.35086C1.72853 13.7769 1.13178 14.0259 0.691194 14.4688C0.250612 14.9117 0.00208408 15.5124 0 16.1394L0 23.3126C0.000294368 23.9399 0.24726 24.5414 0.686819 24.9856C1.12638 25.4298 1.72271 25.6804 2.34523 25.6825H5.48309C6.51832 27.7041 7.81626 29.5777 9.34265 31.2538C16.0338 38.5813 25.3855 40.3783 31.1849 35.8155H34.3341C35.2021 35.8155 35.9114 35.0939 35.9114 34.2261V29.8959C35.9114 29.5181 35.7707 29.1641 35.5241 28.8851C36.8133 23.6904 35.46 17.3272 31.7468 11.9215C31.7468 11.8977 31.7591 11.875 31.7591 11.85V8.80628C31.7591 8.12674 31.2142 7.57199 30.5398 7.56632H27.9829C24.2123 4.10395 19.8258 2.19466 15.7501 2.04264V2.04151ZM18.3712 5.33824C21.0463 5.32009 23.9139 6.27757 26.5102 8.13241C26.3727 8.33004 26.2956 8.5639 26.2884 8.80515V11.8489C26.2884 12.5284 26.839 13.0889 27.5134 13.0889H30.5398C30.7436 13.0843 30.9496 13.0197 31.1253 12.9119C34.4973 17.9046 35.2314 23.9797 32.9852 28.2985H30.041C29.173 28.2985 28.4637 29.0201 28.4637 29.8879V32.6004C23.9725 34.5687 17.9557 32.9373 13.5163 28.0807C12.6326 27.1077 11.8522 26.0442 11.188 24.9076C11.5753 24.489 11.8095 23.9275 11.8095 23.3115V16.1383C11.8086 15.5118 11.5612 14.9113 11.1216 14.4683C10.682 14.0254 10.086 13.7761 9.46424 13.7752H8.84838C9.20529 11.7116 10.0204 9.82729 11.3805 8.33888C13.2168 6.32976 15.7028 5.34845 18.37 5.33824H18.3712ZM27.5134 8.37405H30.5398C30.7796 8.37405 30.962 8.5567 30.962 8.80515V11.8489C30.962 12.0973 30.7807 12.28 30.5398 12.28H27.5134C27.4568 12.2816 27.4005 12.2715 27.3479 12.2504C27.2953 12.2293 27.2475 12.1976 27.2074 12.1572C27.1674 12.1169 27.1359 12.0687 27.115 12.0157C27.094 11.9627 27.084 11.9059 27.0856 11.8489V8.80515C27.084 8.74811 27.094 8.69135 27.115 8.63834C27.1359 8.58533 27.1674 8.53718 27.2074 8.49684C27.2475 8.45649 27.2953 8.42479 27.3479 8.40368C27.4005 8.38257 27.4568 8.37249 27.5134 8.37405ZM2.34523 14.5795H9.46537C10.3334 14.5795 11.0135 15.2704 11.0135 16.1394V23.3126C11.0135 24.1827 10.3334 24.8736 9.46537 24.8736H2.35086C2.14679 24.8751 1.94444 24.8358 1.75556 24.7579C1.56667 24.6801 1.395 24.5652 1.25048 24.42C1.10596 24.2748 0.991479 24.1022 0.913659 23.9121C0.83584 23.722 0.796232 23.5182 0.797131 23.3126V16.1394C0.797131 15.2716 1.4828 14.5863 2.34523 14.5863V14.5795ZM30.0422 29.1074H34.3341C34.7743 29.1074 35.1211 29.4512 35.1211 29.8879V34.2181C35.1215 34.3221 35.1014 34.4251 35.0619 34.5211C35.0225 34.6172 34.9644 34.7043 34.8912 34.7775C34.8179 34.8507 34.7309 34.9084 34.6353 34.9474C34.5396 34.9863 34.4372 35.0057 34.3341 35.0043H30.0422C29.9393 35.0059 29.8371 34.9866 29.7418 34.9476C29.6464 34.9086 29.5598 34.8508 29.4871 34.7775C29.4143 34.7042 29.3569 34.6169 29.3182 34.5208C29.2795 34.4247 29.2604 34.3218 29.2619 34.2181V29.8936C29.2604 29.7899 29.2795 29.687 29.3182 29.5909C29.3569 29.4949 29.4143 29.4076 29.4871 29.3343C29.5598 29.261 29.6464 29.2031 29.7418 29.1641C29.8371 29.1252 29.9393 29.1059 30.0422 29.1074Z" fill="#137872"/>
<path d="M15.7501 2.04151H16.7501V1.07836L15.7876 1.04221L15.7501 2.04151ZM6.32075 5.79883L7.05908 6.47328L7.05974 6.47255L6.32075 5.79883ZM2.97798 13.7763V14.7763H3.88275L3.973 13.8761L2.97798 13.7763ZM2.35086 13.7763V12.7763L2.3499 12.7763L2.35086 13.7763ZM0 16.1394L-1 16.1361V16.1394H0ZM0 23.3126H-1L-1 23.3131L0 23.3126ZM2.34523 25.6825L2.34186 26.6825H2.34523V25.6825ZM5.48309 25.6825L6.37317 25.2267L6.0945 24.6825H5.48309V25.6825ZM9.34265 31.2538L8.60328 31.9271L8.60421 31.9281L9.34265 31.2538ZM31.1849 35.8155V34.8155H30.8387L30.5666 35.0295L31.1849 35.8155ZM35.5241 28.8851L34.5536 28.6442L34.4271 29.1537L34.7747 29.5472L35.5241 28.8851ZM31.7468 11.9215H30.7468V12.2319L30.9225 12.4877L31.7468 11.9215ZM30.5398 7.56632L30.5482 6.56632H30.5398V7.56632ZM27.9829 7.56632L27.3065 8.30289L27.5934 8.56632H27.9829V7.56632ZM15.7501 2.04264H14.7501V3.00604L15.7128 3.04195L15.7501 2.04264ZM18.3712 5.33824V6.33827L18.378 6.33822L18.3712 5.33824ZM26.5102 8.13241L27.3311 8.70355L27.8952 7.89285L27.0915 7.31873L26.5102 8.13241ZM26.2884 8.80515L25.2889 8.77535L25.2884 8.79025V8.80515H26.2884ZM30.5398 13.0889V14.0889H30.5509L30.5621 14.0886L30.5398 13.0889ZM31.1253 12.9119L31.954 12.3522L31.4182 11.5589L30.6023 12.0596L31.1253 12.9119ZM32.9852 28.2985V29.2985H33.5923L33.8724 28.7599L32.9852 28.2985ZM28.4637 32.6004L28.8651 33.5163L29.4637 33.254V32.6004H28.4637ZM13.5163 28.0807L12.7761 28.753L12.7782 28.7554L13.5163 28.0807ZM11.188 24.9076L10.454 24.2285L9.95071 24.7725L10.3246 25.4122L11.188 24.9076ZM11.8095 16.1383H12.8095L12.8095 16.1369L11.8095 16.1383ZM9.46424 13.7752L9.46569 12.7752H9.46424V13.7752ZM8.84838 13.7752L7.86301 13.6048L7.66058 14.7752H8.84838V13.7752ZM11.3805 8.33888L10.6424 7.66423L10.6423 7.66432L11.3805 8.33888ZM18.37 5.33824V4.33823L18.3662 4.33825L18.37 5.33824ZM27.5134 8.37405L27.4858 9.37367L27.4996 9.37405H27.5134V8.37405ZM27.5134 12.28V11.28H27.4996L27.4858 11.2804L27.5134 12.28ZM27.0856 11.8489L28.0852 11.8761L28.0856 11.8625V11.8489H27.0856ZM27.0856 8.80515H28.0856V8.79155L28.0852 8.77795L27.0856 8.80515ZM2.34523 14.5795V13.5795H1.34523V14.5795H2.34523ZM2.35086 24.8736V23.8736L2.3435 23.8736L2.35086 24.8736ZM0.797131 23.3126L1.79713 23.317V23.3126H0.797131ZM2.34523 14.5863V15.5863H3.34523V14.5863H2.34523ZM30.0422 29.1074L30.0273 30.1073L30.0347 30.1074H30.0422V29.1074ZM35.1211 34.2181H34.121L34.1211 34.2225L35.1211 34.2181ZM34.3341 35.0043L34.3472 34.0043H34.3341V35.0043ZM30.0422 35.0043V34.0043H30.0347L30.0273 34.0044L30.0422 35.0043ZM29.2619 34.2181L30.2618 34.2328L30.2619 34.2255V34.2181H29.2619ZM29.2619 29.8936H30.2619V29.8863L30.2618 29.879L29.2619 29.8936ZM15.7876 1.04221C11.9088 0.896514 8.24509 2.20376 5.58176 5.12512L7.05974 6.47255C9.27603 4.04153 12.3429 2.91423 15.7126 3.0408L15.7876 1.04221ZM5.58243 5.12439C3.45679 7.45137 2.30631 10.4509 1.98297 13.6766L3.973 13.8761C4.26214 10.9916 5.27787 8.4232 7.05908 6.47327L5.58243 5.12439ZM2.97798 12.7763H2.35086V14.7763H2.97798V12.7763ZM2.3499 12.7763C1.46065 12.7772 0.609484 13.133 -0.0177432 13.7635L1.40013 15.1741C1.65407 14.9188 1.99641 14.7767 2.35182 14.7763L2.3499 12.7763ZM-0.0177432 13.7635C-0.644719 14.3937 -0.997039 15.247 -0.999994 16.1361L0.999994 16.1427C1.00121 15.7777 1.14594 15.4296 1.40013 15.1741L-0.0177432 13.7635ZM-1 16.1394V23.3126H1V16.1394H-1ZM-1 23.3131C-0.999583 24.2025 -0.649482 25.0569 -0.0239746 25.689L1.39761 24.2822C1.144 24.026 1.00017 23.6773 1 23.3121L-1 23.3131ZM-0.0239746 25.689C0.601784 26.3214 1.45233 26.6795 2.34186 26.6825L2.34861 24.6825C1.99308 24.6813 1.65097 24.5382 1.39761 24.2822L-0.0239746 25.689ZM2.34523 26.6825H5.48309V24.6825H2.34523V26.6825ZM4.59301 26.1383C5.66854 28.2386 7.01713 30.1853 8.60328 31.9271L10.082 30.5805C8.61539 28.97 7.3681 27.1696 6.37317 25.2267L4.59301 26.1383ZM8.60421 31.9281C15.4935 39.4726 25.4332 41.6131 31.8033 36.6014L30.5666 35.0295C25.3378 39.1434 16.5741 37.69 10.0811 30.5795L8.60421 31.9281ZM31.1849 36.8155H34.3341V34.8155H31.1849V36.8155ZM34.3341 36.8155C35.7643 36.8155 36.9114 35.6363 36.9114 34.2261H34.9114C34.9114 34.5516 34.6399 34.8155 34.3341 34.8155V36.8155ZM36.9114 34.2261V29.8959H34.9114V34.2261H36.9114ZM36.9114 29.8959C36.9114 29.2638 36.6746 28.6768 36.2735 28.2229L34.7747 29.5472C34.8668 29.6514 34.9114 29.7723 34.9114 29.8959H36.9114ZM36.4947 29.1259C37.8653 23.6031 36.4141 16.9501 32.571 11.3553L30.9225 12.4877C34.5058 17.7043 35.7613 23.7776 34.5536 28.6442L36.4947 29.1259ZM32.7468 11.9215C32.7468 12.0011 32.7365 12.0636 32.7297 12.0979C32.7262 12.1154 32.723 12.1288 32.7214 12.1353C32.72 12.1408 32.7188 12.1454 32.7201 12.1406C32.7207 12.1383 32.7235 12.1274 32.7266 12.1149C32.7299 12.1016 32.7345 12.0819 32.7391 12.0581C32.7482 12.0107 32.7591 11.9384 32.7591 11.85H30.7591C30.7591 11.7742 30.7685 11.714 30.7754 11.6787C30.7788 11.6609 30.7821 11.6471 30.7839 11.6398C30.7855 11.6332 30.7868 11.6282 30.7858 11.6318C30.7856 11.6328 30.7828 11.6433 30.78 11.6547C30.7769 11.6671 30.7723 11.6863 30.7677 11.7097C30.7586 11.7558 30.7468 11.83 30.7468 11.9215H32.7468ZM32.7591 11.85V8.80628H30.7591V11.85H32.7591ZM32.7591 8.80628C32.7591 7.58592 31.7798 6.57671 30.5482 6.56635L30.5314 8.56628C30.6487 8.56727 30.7591 8.66756 30.7591 8.80628H32.7591ZM30.5398 6.56632H27.9829V8.56632H30.5398V6.56632ZM28.6593 6.82975C24.7469 3.23719 20.1421 1.20576 15.7874 1.04334L15.7128 3.04195C19.5095 3.18356 23.6777 4.97072 27.3065 8.30289L28.6593 6.82975ZM16.7501 2.04264V2.04151H14.7501V2.04264H16.7501ZM18.378 6.33822C20.8129 6.3217 23.4785 7.19549 25.9289 8.9461L27.0915 7.31873C24.3493 5.35966 21.2797 4.31848 18.3644 4.33827L18.378 6.33822ZM25.6894 7.56127C25.4408 7.91861 25.3018 8.34066 25.2889 8.77535L27.288 8.83494C27.2894 8.78714 27.3047 8.74147 27.3311 8.70355L25.6894 7.56127ZM25.2884 8.80515V11.8489H27.2884V8.80515H25.2884ZM25.2884 11.8489C25.2884 13.0676 26.2737 14.0889 27.5134 14.0889V12.0889C27.4043 12.0889 27.2884 11.9893 27.2884 11.8489H25.2884ZM27.5134 14.0889H30.5398V12.0889H27.5134V14.0889ZM30.5621 14.0886C30.9564 14.0798 31.3337 13.9572 31.6483 13.7642L30.6023 12.0596C30.5656 12.0821 30.5308 12.0888 30.5175 12.0891L30.5621 14.0886ZM30.2966 13.4716C33.521 18.2458 34.1323 23.9258 32.0981 27.8371L33.8724 28.7599C36.3305 24.0336 35.4736 17.5635 31.954 12.3522L30.2966 13.4716ZM32.9852 27.2985H30.041V29.2985H32.9852V27.2985ZM30.041 27.2985C28.6108 27.2985 27.4637 28.4777 27.4637 29.8879H29.4637C29.4637 29.5624 29.7352 29.2985 30.041 29.2985V27.2985ZM27.4637 29.8879V32.6004H29.4637V29.8879H27.4637ZM28.0623 31.6845C24.0724 33.4331 18.4943 32.0444 14.2544 27.406L12.7782 28.7554C17.4171 33.8303 23.8725 35.7043 28.8651 33.5163L28.0623 31.6845ZM14.2566 27.4084C13.4197 26.4869 12.6806 25.4797 12.0513 24.4031L10.3246 25.4122C11.0239 26.6087 11.8455 27.7284 12.7761 28.753L14.2566 27.4084ZM11.922 25.5868C12.4761 24.9878 12.8095 24.1853 12.8095 23.3115H10.8095C10.8095 23.6696 10.6744 23.9902 10.454 24.2285L11.922 25.5868ZM12.8095 23.3115V16.1383H10.8095V23.3115H12.8095ZM12.8095 16.1369C12.8082 15.2481 12.4573 14.3946 11.8314 13.7639L10.4118 15.1728C10.6651 15.428 10.809 15.7756 10.8095 16.1397L12.8095 16.1369ZM11.8314 13.7639C11.2052 13.1329 10.3546 12.7765 9.46569 12.7752L9.4628 14.7752C9.81735 14.7757 10.1588 14.9178 10.4118 15.1728L11.8314 13.7639ZM9.46424 12.7752H8.84838V14.7752H9.46424V12.7752ZM9.83375 13.9456C10.1648 12.0316 10.9116 10.3345 12.1187 9.01345L10.6423 7.66432C9.12928 9.3201 8.24579 11.3916 7.86301 13.6048L9.83375 13.9456ZM12.1186 9.01354C13.7479 7.23092 15.9575 6.34748 18.3739 6.33823L18.3662 4.33825C15.4481 4.34942 12.6857 5.42859 10.6424 7.66423L12.1186 9.01354ZM18.37 6.33824H18.3712V4.33824H18.37V6.33824ZM27.5134 9.37405H30.5398V7.37405H27.5134V9.37405ZM30.5398 9.37405C30.3985 9.37405 30.2454 9.31693 30.1285 9.19822C30.0116 9.07964 29.962 8.93179 29.962 8.80515H31.962C31.962 8.0186 31.346 7.37405 30.5398 7.37405V9.37405ZM29.962 8.80515V11.8489H31.962V8.80515H29.962ZM29.962 11.8489C29.962 11.724 30.0107 11.576 30.1282 11.4565C30.2462 11.3365 30.3999 11.28 30.5398 11.28V13.28C31.3489 13.28 31.962 12.6337 31.962 11.8489H29.962ZM30.5398 11.28H27.5134V13.28H30.5398V11.28ZM27.4858 11.2804C27.5662 11.2782 27.646 11.2925 27.7203 11.3223L26.9754 13.1784C27.155 13.2505 27.3474 13.285 27.541 13.2796L27.4858 11.2804ZM27.7203 11.3223C27.7946 11.3521 27.8615 11.3967 27.9172 11.4528L26.4976 12.8616C26.6334 12.9985 26.7959 13.1064 26.9754 13.1784L27.7203 11.3223ZM27.9172 11.4528C27.9729 11.5089 28.0162 11.5755 28.045 11.6481L26.185 12.3833C26.2556 12.562 26.3619 12.7248 26.4976 12.8616L27.9172 11.4528ZM28.045 11.6481C28.0737 11.7208 28.0873 11.7983 28.0852 11.8761L26.0859 11.8217C26.0807 12.0136 26.1144 12.2046 26.185 12.3833L28.045 11.6481ZM28.0856 11.8489V8.80515H26.0856V11.8489H28.0856ZM28.0852 8.77795C28.0873 8.85573 28.0737 8.93327 28.045 9.00591L26.185 8.27077C26.1144 8.44943 26.0807 8.64049 26.0859 8.83234L28.0852 8.77795ZM28.045 9.00591C28.0162 9.0786 27.9729 9.14514 27.9172 9.20126L26.4976 7.79241C26.3619 7.92923 26.2556 8.09207 26.185 8.27077L28.045 9.00591ZM27.9172 9.20126C27.8615 9.25739 27.7946 9.30194 27.7203 9.33175L26.9754 7.47562C26.7959 7.54765 26.6334 7.65559 26.4976 7.79241L27.9172 9.20126ZM27.7203 9.33175C27.646 9.36156 27.5662 9.37589 27.4858 9.37367L27.541 7.37443C27.3474 7.36909 27.155 7.40358 26.9754 7.47562L27.7203 9.33175ZM2.34523 15.5795H9.46537V13.5795H2.34523V15.5795ZM9.46537 15.5795C9.77164 15.5795 10.0135 15.8132 10.0135 16.1394H12.0135C12.0135 14.7277 10.8952 13.5795 9.46537 13.5795V15.5795ZM10.0135 16.1394V23.3126H12.0135V16.1394H10.0135ZM10.0135 23.3126C10.0135 23.6405 9.77117 23.8736 9.46537 23.8736V25.8736C10.8957 25.8736 12.0135 24.725 12.0135 23.3126H10.0135ZM9.46537 23.8736H2.35086V25.8736H9.46537V23.8736ZM2.3435 23.8736C2.27279 23.8742 2.20251 23.8605 2.13665 23.8334L1.37446 25.6825C1.68638 25.811 2.02078 25.8761 2.35823 25.8736L2.3435 23.8736ZM2.13665 23.8334C2.07078 23.8062 2.01041 23.766 1.95924 23.7146L0.541721 25.1255C0.779585 25.3645 1.06256 25.5539 1.37446 25.6825L2.13665 23.8334ZM1.95924 23.7146C1.90805 23.6632 1.86709 23.6016 1.83912 23.5332L-0.0117976 24.2909C0.115864 24.6028 0.303875 24.8865 0.541721 25.1255L1.95924 23.7146ZM1.83912 23.5332C1.81113 23.4649 1.7968 23.3914 1.79712 23.317L-0.202859 23.3082C-0.204332 23.6451 -0.139455 23.9791 -0.0117976 24.2909L1.83912 23.5332ZM1.79713 23.3126V16.1394H-0.202869V23.3126H1.79713ZM1.79713 16.1394C1.79713 15.8219 2.03699 15.5863 2.34523 15.5863V13.5863C0.928611 13.5863 -0.202869 14.7212 -0.202869 16.1394H1.79713ZM3.34523 14.5863V14.5795H1.34523V14.5863H3.34523ZM30.0422 30.1074H34.3341V28.1074H30.0422V30.1074ZM34.3341 30.1074C34.2881 30.1074 34.2325 30.0875 34.1885 30.044C34.1443 30.0001 34.1211 29.941 34.1211 29.8879H36.1211C36.1211 28.8909 35.3186 28.1074 34.3341 28.1074V30.1074ZM34.1211 29.8879V34.2181H36.1211V29.8879H34.1211ZM34.1211 34.2225C34.1209 34.1948 34.1263 34.167 34.137 34.141L35.9869 34.9013C36.0765 34.6831 36.1221 34.4494 36.121 34.2137L34.1211 34.2225ZM34.137 34.141C34.1478 34.1149 34.1637 34.0907 34.1844 34.07L35.5979 35.485C35.7651 35.318 35.8972 35.1195 35.9869 34.9013L34.137 34.141ZM34.1844 34.07C34.2051 34.0493 34.2301 34.0326 34.2582 34.0212L35.0123 35.8736C35.2317 35.7843 35.4307 35.652 35.5979 35.485L34.1844 34.07ZM34.2582 34.0212C34.2862 34.0098 34.3165 34.004 34.3472 34.0044L34.3209 36.0042C34.5579 36.0074 34.793 35.9629 35.0123 35.8736L34.2582 34.0212ZM34.3341 34.0043H30.0422V36.0043H34.3341V34.0043ZM30.0273 34.0044C30.0593 34.004 30.0909 34.01 30.1201 34.0219L29.3635 35.8733C29.5834 35.9632 29.8193 36.0077 30.057 36.0042L30.0273 34.0044ZM30.1201 34.0219C30.1493 34.0339 30.1753 34.0514 30.1968 34.073L28.7773 35.4819C28.9443 35.6502 29.1436 35.7834 29.3635 35.8733L30.1201 34.0219ZM30.1968 34.073C30.2183 34.0947 30.2349 34.12 30.2459 34.1474L28.3906 34.8942C28.4789 35.1137 28.6103 35.3136 28.7773 35.4819L30.1968 34.073ZM30.2459 34.1474C30.2569 34.1747 30.2622 34.2037 30.2618 34.2328L28.262 34.2035C28.2586 34.4399 28.3022 34.6747 28.3906 34.8942L30.2459 34.1474ZM30.2619 34.2181V29.8936H28.2619V34.2181H30.2619ZM30.2618 29.879C30.2622 29.908 30.2569 29.937 30.2459 29.9643L28.3906 29.2175C28.3022 29.437 28.2586 29.6719 28.262 29.9082L30.2618 29.879ZM30.2459 29.9643C30.2349 29.9917 30.2183 30.017 30.1968 30.0387L28.7773 28.6299C28.6103 28.7981 28.4789 28.998 28.3906 29.2175L30.2459 29.9643ZM30.1968 30.0387C30.1753 30.0604 30.1493 30.0779 30.1201 30.0898L29.3635 28.2385C29.1436 28.3283 28.9443 28.4616 28.7773 28.6299L30.1968 30.0387ZM30.1201 30.0898C30.0909 30.1018 30.0593 30.1078 30.0273 30.1073L30.057 28.1075C29.8193 28.104 29.5834 28.1486 29.3635 28.2385L30.1201 30.0898Z" fill="#137872" mask="url(#path-1-inside-1_245_51)"/>
<rect x="0.719727" y="14.4568" width="10.35" height="10.6116" rx="2" fill="#F36216"/>
<rect x="29.0698" y="28.9685" width="6.3" height="6.34884" rx="1" fill="#F36216"/>
<rect x="27" y="8.19873" width="4.05" height="4.0814" rx="0.5" fill="#F36216"/>
</svg>
