<?xml version="1.0" standalone="no"?>
<!DOCTYPE svg PUBLIC "-//W3C//DTD SVG 1.1//EN" "http://www.w3.org/Graphics/SVG/1.1/DTD/svg11.dtd" >
<svg xmlns="http://www.w3.org/2000/svg" xmlns:xlink="http://www.w3.org/1999/xlink" version="1.1">
<metadata>
Created by FontForge 20170731 at Sun Apr 12 04:15:58 2020
 By Aleksey,,,
</metadata>
<defs>
<font id="PapernotesRegular" horiz-adv-x="0" >
  <font-face 
    font-family="Papernotes"
    font-weight="400"
    font-stretch="normal"
    units-per-em="1000"
    panose-1="0 0 0 0 0 0 0 0 0 0"
    ascent="800"
    descent="-200"
    x-height="466"
    cap-height="698"
    bbox="-154 -274.045 732 884.091"
    underline-thickness="0"
    underline-position="0"
    unicode-range="U+000A-00AD"
  />
<missing-glyph horiz-adv-x="527" 
d="M50 700h427v-700h-427v700zM78 680l185 -309l186 309h-371zM251 350l-180 300v-601zM264 329l-185 -308h370zM276 350l181 -303v605z" />
    <glyph glyph-name=".notdef" horiz-adv-x="527" 
d="M50 700h427v-700h-427v700zM78 680l185 -309l186 309h-371zM251 350l-180 300v-601zM264 329l-185 -308h370zM276 350l181 -303v605z" />
    <glyph glyph-name=".null" 
 />
    <glyph glyph-name=".null" 
 />
    <glyph glyph-name="nonmarkingreturn" horiz-adv-x="333" 
 />
    <glyph glyph-name="controlLF" unicode="&#xa;" 
 />
    <glyph glyph-name="controlCR" unicode="&#xd;" 
 />
    <glyph glyph-name="space" unicode=" " horiz-adv-x="274" 
 />
    <glyph glyph-name="exclam" unicode="!" horiz-adv-x="208" 
d="M132 709q11 -2 19 -8.5t12.5 -16.5t4.5 -22q0 -1 -6 -58q-14 -164 -15 -177q0 -17 -3 -225q-1 -26 -1 -28q-2 -18 -15.5 -30t-31.5 -13q-12 0 -22.5 4.5t-18 14t-9.5 21.5q-2 10 -2 23v126h-2h-1q12 182 14 198q1 13 22 143q2 9 4 17q6 17 20 25.5t31 5.5zM107 88
q18 0 31 -13.5t13 -31.5q-1 -18 -14 -31t-31.5 -12t-31 14t-11.5 32q1 17 14 29.5t30 12.5z" />
    <glyph glyph-name="quotedbl" unicode="&#x22;" horiz-adv-x="321" 
d="M51 540q7 33 32 42t44 -14q14 -18 15 -50q-15 -134 -17 -146q-3 -27 -19.5 -41.5t-37.5 -9.5q-20 4 -32 24t-8 45q11 88 23 150zM279 568q14 -18 14 -50q-14 -134 -16 -146q-3 -27 -19.5 -41.5t-37.5 -9.5q-20 4 -32 24t-9 45q12 88 24 150q7 33 32 42t44 -14z" />
    <glyph glyph-name="quotedbl" unicode="&#x201d;" horiz-adv-x="321" 
d="M51 540q7 33 32 42t44 -14q14 -18 15 -50q-15 -134 -17 -146q-3 -27 -19.5 -41.5t-37.5 -9.5q-20 4 -32 24t-8 45q11 88 23 150zM279 568q14 -18 14 -50q-14 -134 -16 -146q-3 -27 -19.5 -41.5t-37.5 -9.5q-20 4 -32 24t-9 45q12 88 24 150q7 33 32 42t44 -14z" />
    <glyph glyph-name="quotedbl" unicode="&#x201c;" horiz-adv-x="321" 
d="M51 540q7 33 32 42t44 -14q14 -18 15 -50q-15 -134 -17 -146q-3 -27 -19.5 -41.5t-37.5 -9.5q-20 4 -32 24t-8 45q11 88 23 150zM279 568q14 -18 14 -50q-14 -134 -16 -146q-3 -27 -19.5 -41.5t-37.5 -9.5q-20 4 -32 24t-9 45q12 88 24 150q7 33 32 42t44 -14z" />
    <glyph glyph-name="numbersign" unicode="#" horiz-adv-x="609" 
d="M533 360q28 -1 42 -22t4 -45q-12 -26 -42 -33q-9 -2 -32 -3q-11 -1 -96 -4q-15 -55 -16 -59q-3 -12 -10 -41t-12 -44q-2 -11 -8 -20q-9 -16 -25 -22.5t-33 -1.5q-18 6 -28 20.5t-9 33.5q1 3 6 25q3 11 25 100q-7 -1 -36 -4.5t-44 -5.5q-12 -61 -18 -93q0 -1 -1.5 -7.5
t-2.5 -10.5q-6 -21 -22 -31.5t-37 -7.5q-20 4 -32 20t-10 38q0 1 10 56q0 1 2 16q-28 -3 -29 -3q-10 -1 -18 1.5t-14.5 7t-11 11t-6.5 14.5q-4 18 4.5 33t25.5 21q19 6 58 15q16 3 20 19q1 5 13 50h-48h-15q-21 2 -33.5 14.5t-13 31t12.5 31.5t34 15q12 2 79 12q1 0 10 3
q14 50 20 71q0 1 1.5 6.5t2.5 8.5q6 16 20 24t30 5q10 -1 18.5 -7t13.5 -15t6 -20q0 -7 -3 -30q0 -2 -5 -29q7 -2 15.5 -2t18.5 1t15 1q4 0 53 2q14 41 15 45q10 26 15 34q9 15 25.5 20t31.5 -2t22 -21t3 -32q0 -2 -10 -39q20 -1 21 -2q24 -2 28 -3q20 -5 30.5 -20.5
t8.5 -34.5q-1 -13 -7.5 -23t-17 -16t-23.5 -7q-4 -1 -24 -0.5t-24 0.5q-1 0 -24 -1q-9 -29 -11 -32q0 -1 -2 -13h18q73 1 76 1zM327 352q11 36 15 49q-45 -3 -82 -6q-6 -26 -13 -52q15 2 41 5t39 4z" />
    <glyph glyph-name="dollar" unicode="$" horiz-adv-x="460" 
d="M369 325q69 -56 58 -159q-5 -32 -26 -60t-45 -43t-47 -22v-14.5t-0.5 -16.5t-1.5 -15q0 -6 0.5 -20.5t0.5 -20.5q-1 -24 -15 -38.5t-35 -14.5q-22 0 -36 15.5t-13 39.5q0 7 3 59q0 2 1 20l-15 3q-33 1 -79 19q-47 20 -69 61.5t-10 91.5q5 20 18 38q20 26 51.5 15.5
t34.5 -43.5q0 -10 -2 -26q0 -25 15.5 -42t38 -22.5t45.5 -3.5t39 11q11 6 27 23t17 27q3 36 -16 53q-9 9 -53.5 37t-65.5 39q-49 26 -82 58q-40 39 -57 87.5t-1 95.5q13 37 47.5 67t76.5 39q2 62 2 83q1 33 30 44q17 7 34 0t24 -24q5 -14 7 -43q1 -3 1 -42q40 -11 43 -12
q34 -13 55.5 -46.5t18.5 -70.5q-2 -24 -14 -36q-15 -15 -36.5 -13t-33.5 20q0 1 -3 8.5t-7 15t-10 16t-16.5 13.5t-22.5 5q-29 0 -54.5 -17t-33 -45.5t18.5 -65.5q30 -25 56 -42q9 -6 28 -15.5t28 -14.5q58 -37 81 -56z" />
    <glyph glyph-name="percent" unicode="%" horiz-adv-x="618" 
d="M536 588q-3 -6 -12 -19q-41 -58 -112 -159.5t-130.5 -185.5t-111.5 -159q-21 -30 -51 -29q-21 1 -33.5 20t-4.5 41q4 8 12 20q152 217 357 509q8 10 13 15q12 11 28 12.5t29 -7.5q14 -10 18.5 -26t-2.5 -32zM249 417q-35 -35 -79.5 -39.5t-81.5 20t-53 70.5
q-11 38 -6.5 74.5t25 68.5t52.5 50q31 18 61 15q5 -1 10.5 -1h10t10 -0.5t10.5 -2t9 -3.5q60 -28 77 -97q0 -2 4 -33q-3 -76 -49 -122zM127 491q8 -16 22 -19.5t28 6.5q20 14 26 42t-7 48q-19 30 -47 11q-27 -20 -30 -60q7 -27 8 -28zM590 190v-12q-1 -79 -56 -124
q-35 -29 -75.5 -30.5t-73 23t-44.5 68.5q-23 85 36 152q56 62 129 39q69 -21 83 -104q1 -5 1 -12zM472 123q16 12 23 36t-2 42q-6 14 -16.5 17t-22.5 -7q-23 -18 -26 -56q5 -20 5 -21q6 -14 16.5 -16.5t22.5 5.5z" />
    <glyph glyph-name="ampersand" unicode="&#x26;" horiz-adv-x="399" 
d="M196 155q0 3 -2 35q-39 8 -40 9q-67 17 -103 70q-30 44 -15 96q16 59 65 105q1 1 21 15q-10 6 -11 6q-41 18 -54.5 57t0.5 76q18 58 81 97q1 1 21 12q3 82 4 95q1 12 2 19q4 18 16.5 28t29.5 9q16 -1 27.5 -12t13.5 -28q0 -10 0.5 -21t0.5 -24.5v-21.5q0 -1 2 -26
q19 -5 21 -5q31 -11 38 -15q13 -8 17.5 -23t-1.5 -29q-5 -14 -18 -21.5t-29 -5.5q-3 1 -14 4q-34 8 -69 -4.5t-47 -41.5q-1 -1 -2 -5.5t-1 -11t2 -12.5t7 -10.5t14 -5.5q14 -3 44 -2t44 -1q17 -2 25 -5q23 -9 30 -32t-7 -44q-15 -22 -49 -30q-38 -1 -65 -15t-38.5 -32.5
t-16 -38.5t-3 -34.5t6.5 -18.5q25 -21 58 -21t57 21l10 10l11.5 11.5l9.5 9.5q21 18 46 11.5t33 -31.5q10 -29 -10 -50q-34 -35 -59 -53q-16 -12 -14 -29q1 -9 3.5 -28.5t3.5 -29.5q4 -23 -7 -39.5t-32 -19.5q-13 -2 -24.5 2.5t-19.5 15t-11 24.5q-1 7 -3 39z" />
    <glyph glyph-name="quotesingle" unicode="'" horiz-adv-x="158" 
d="M123 768q14 -18 15 -50q-15 -134 -17 -146q-3 -27 -19.5 -41.5t-37.5 -9.5q-20 4 -32 24t-8 45q11 88 23 150q7 33 32 42t44 -14z" />
    <glyph glyph-name="quotesingle" unicode="&#x2019;" horiz-adv-x="158" 
d="M123 768q14 -18 15 -50q-15 -134 -17 -146q-3 -27 -19.5 -41.5t-37.5 -9.5q-20 4 -32 24t-8 45q11 88 23 150q7 33 32 42t44 -14z" />
    <glyph glyph-name="quotesingle" unicode="&#x2018;" horiz-adv-x="158" 
d="M123 768q14 -18 15 -50q-15 -134 -17 -146q-3 -27 -19.5 -41.5t-37.5 -9.5q-20 4 -32 24t-8 45q11 88 23 150q7 33 32 42t44 -14z" />
    <glyph glyph-name="parenleft" unicode="(" horiz-adv-x="276" 
d="M244 66q13 -18 11.5 -38t-16.5 -33q-15 -14 -35.5 -13.5t-35.5 15.5q-59 57 -79 117q-38 117 -47 184q0 4 -5 66q4 177 77 309q9 17 21 33q12 17 34 23q30 8 48 -16q21 -27 3 -51q-42 -58 -64 -171q-21 -106 -12 -171q5 -33 15 -73q7 -27 25 -89q11 -39 40 -69
q14 -15 20 -23z" />
    <glyph glyph-name="parenright" unicode=")" horiz-adv-x="255" 
d="M215 412v-70q-3 -144 -67 -283q-11 -23 -31 -44q-15 -16 -34.5 -17t-34.5 12q-16 13 -19 32t9 37q43 65 61 165q28 157 -6 330q-11 55 -50 90q-28 26 -10 58q9 15 25 20t32 -2q20 -8 34 -23q54 -58 71 -131q19 -79 20 -174z" />
    <glyph glyph-name="asterisk" unicode="*" horiz-adv-x="399" 
d="M374 529q3 -12 -2 -23.5t-15 -16.5q-9 -4 -26 -6q-1 0 -43 -1q-1 0 -11 -1l4 -11q3 -4 12 -21t14 -27q8 -16 11 -28q3 -13 -3 -24.5t-18 -17.5q-13 -5 -26 -1.5t-21 15.5l-2 4t-2 4.5t-2 4.5q-24 44 -34 63l-6 8q-33 -47 -36 -52l-4 -6l-4 -6l-4 -6l-4 -6
q-10 -14 -25 -17.5t-28 5t-16 23.5t6 30l32 48q0 1 6 10q-34 4 -54 -1q-2 0 -4.5 -0.5t-4.5 -1.5t-4 -1q-24 -3 -34 19q-11 23 8 38q14 11 28 14q5 1 52 6l11 1q-34 51 -40 59q-1 2 -3 4.5t-3 3.5q-16 23 3 42q8 9 19.5 10.5t22.5 -5.5q10 -7 25 -26q8 -9 22 -26.5t17 -21.5
l11 -11q49 66 58 77q10 14 15 19q22 21 45 3q10 -8 12 -20.5t-6 -25.5l-13 -19.5t-15 -23t-13 -19.5l-5 -9h11h53q27 -2 33 -29z" />
    <glyph glyph-name="plus" unicode="+" horiz-adv-x="442" 
d="M373 436q23 -3 36.5 -17.5t12.5 -34.5q0 -21 -14.5 -35.5t-37.5 -15.5h-68h-31v-23v-83q-2 -27 -22.5 -41.5t-45.5 -5.5q-32 11 -34 45q-1 10 -2 68v40h-56h-39q-23 1 -38 15.5t-15 35.5t14 36t37 16q1 0 76 1q1 0 20 1v54q1 26 3 35t6.5 16.5t10.5 12.5t14 8t17 3
q18 0 32.5 -10.5t18.5 -29.5q2 -8 2 -24v-67h73h30z" />
    <glyph glyph-name="comma" unicode="," horiz-adv-x="160" 
d="M121 176q14 -18 15 -50q-15 -134 -17 -146q-3 -27 -19.5 -41t-37.5 -10q-20 4 -32 24t-8 46q11 87 23 150q7 33 32 42t44 -15z" />
    <glyph glyph-name="hyphen" unicode="-" horiz-adv-x="360" 
d="M288 422q24 -2 39.5 -17t15.5 -36q-1 -20 -16.5 -34t-38.5 -15q-35 -2 -203 0q-13 0 -19 1q-22 3 -35.5 17.5t-13.5 34t14 33.5t35 16q14 2 56 2q29 -1 149 -2h17z" />
    <glyph glyph-name="period" unicode="." horiz-adv-x="199" 
d="M102 195q32 -1 54 -23.5t22 -54.5q0 -33 -23.5 -56.5t-56 -23.5t-55.5 24t-22 57t24.5 55t56.5 22z" />
    <glyph glyph-name="slash" unicode="/" horiz-adv-x="318" 
d="M250 699q22 3 37.5 -11.5t14.5 -36.5q-1 -6 -3 -13q-14 -46 -42.5 -142.5t-51 -172t-42.5 -143.5q-1 -3 -38 -148q-7 -27 -9 -31q-8 -18 -24 -26t-34 -3q-18 4 -29 18.5t-11 37.5q12 57 13 58q8 38 20.5 84t21.5 75t26 85.5t24 77.5q28 93 64 201q7 21 28 64q11 23 35 26
z" />
    <glyph glyph-name="zero" unicode="0" horiz-adv-x="501" 
d="M44 259q0 6 -9 94q5 101 31 176q28 81 99 142q44 38 108 32q66 -7 106 -46.5t67 -106.5q2 -6 3.5 -13t2.5 -12.5t2 -13t2 -12.5q18 -92 -6 -226q-17 -94 -40 -146q-28 -66 -87 -107q-61 -44 -130 -10q-52 26 -87 78q-44 65 -62 171zM175 523q-33 -72 -34 -166
q-2 -82 26 -161q21 -62 62 -87q15 -10 23 -9t21 12q40 35 53 84q45 172 29 285q-9 64 -54 104q-25 23 -55 12q-43 -15 -56 -45q-3 -5 -8 -15z" />
    <glyph glyph-name="one" unicode="1" horiz-adv-x="345" 
d="M218 241q-1 -8 -8 -131q41 2 44 2q25 0 39 -3q19 -4 29 -18t8 -32q-1 -17 -14.5 -29t-32.5 -13q-3 -1 -9 -0.5t-9 0.5q-39 -3 -67 -5q-27 -2 -65 -6q-7 0 -19.5 -1.5t-17.5 -2.5q-23 -2 -28 -2q-19 1 -31 11t-15 25q-2 17 7.5 29.5t28.5 17.5q3 1 45 10q19 206 33 481
q-17 -10 -18 -11q-16 -9 -33 -7t-28.5 14t-11 27.5t13.5 29.5q19 19 54 52q30 28 74 14q45 -15 48 -55q3 -33 2 -66q-3 -102 -7 -167q-2 -31 -6.5 -88t-5.5 -76z" />
    <glyph glyph-name="two" unicode="2" horiz-adv-x="486" 
d="M220 112q2 -3 3 -6q118 9 132 9q31 2 51 -1q19 -2 31 -16.5t10.5 -33.5t-14.5 -31.5t-33 -13.5q-199 -10 -229 -12q-14 -1 -42 -3.5t-31 -3.5q-31 -2 -50 14q-21 18 -21 40t20 40q15 13 82 67q85 69 131 132q70 95 87 170q9 35 4 63q-5 37 -33.5 58t-65.5 17
q-51 -6 -82.5 -39.5t-39.5 -84.5q0 -2 -0.5 -4t-0.5 -4t-0.5 -4t-0.5 -4q-2 -10 -7.5 -18t-14 -12.5t-17.5 -4.5q-16 -1 -27.5 7t-15.5 23t-3 29q8 84 56 142q22 26 55 43.5t71.5 24.5t80 -2t76.5 -34q57 -42 66 -122q10 -86 -35 -179q-64 -133 -177 -233z" />
    <glyph glyph-name="three" unicode="3" horiz-adv-x="548" 
d="M430 390q-1 -1 -19 -14q13 -8 13 -9q49 -25 72 -77.5t11 -112.5q-9 -46 -42 -103q-17 -30 -52 -49q-96 -52 -195 -47q-85 4 -138 61t-53 129q0 29 13 48q11 15 29 22t35 2q18 -5 25.5 -19t3.5 -32q-13 -49 16.5 -87.5t80.5 -38.5q62 1 122 30q24 11 32 31q23 59 25 70
q5 23 -2 54q-7 28 -32 45t-54 14q-13 -1 -35.5 -6t-31.5 -6q-25 -4 -41 -3q-16 2 -27 13t-12 26q0 9 3.5 18t11.5 15.5t19 9.5q6 2 14.5 3.5t17 3.5t15.5 4q72 18 125 92q32 44 9 96q-13 28 -40 34q-26 5 -37 4q-83 -4 -137 -60q-15 -15 -18 -34q-3 -18 -17 -28t-32 -7
q-38 5 -38 45q0 30 23 62q54 76 157 101q67 16 128 -1q67 -18 100 -78.5t11 -127.5q-16 -52 -59 -93z" />
    <glyph glyph-name="four" unicode="4" horiz-adv-x="475" 
d="M133 336l-3 -12q68 1 169 25q1 15 1 16q8 167 8 174q1 24 18.5 36.5t38.5 5.5q23 -9 27 -32q3 -13 3 -40v-158q1 0 6 -1.5t6.5 -2t5.5 -1.5t6 -2t5.5 -2.5t5 -3t4 -3.5t4 -4.5t3.5 -4.5q7 -16 7 -29q-1 -19 -13.5 -29.5t-42.5 -17.5q-6 -92 -7 -98q-1 -14 -2 -32
t-2 -36.5t-1 -32.5q-2 -23 -15.5 -37t-34.5 -14q-19 0 -32.5 13t-14.5 33q-1 21 2 61q2 25 5.5 71.5t4.5 57.5l-1 13q-14 -2 -16 -3q-112 -16 -122 -17q-2 -1 -54 -7q-2 0 -4 -0.5t-4 -0.5t-4 -1q-37 -2 -56.5 20t-11.5 58q18 78 46 134q49 98 120 236q10 20 26 27t33 -1
q37 -18 18 -63q-41 -104 -87 -193q-6 -11 -45 -102z" />
    <glyph glyph-name="five" unicode="5" horiz-adv-x="522" 
d="M145 575q-5 -50 0 -113q15 5 16 5q41 17 101 26q82 13 144 -34.5t78 -116.5q31 -138 -54 -234q-99 -112 -240 -98q-81 8 -124 38q-15 10 -21 16q-11 12 -12 28.5t9.5 29t26 15.5t29.5 -6q32 -23 98 -32q32 -5 67 5q108 30 134 126q24 91 -31 147q-35 34 -86 30
q-53 -5 -119 -36q-23 -12 -38 -17q-28 -10 -50 5t-20 44q1 17 2 65.5t4.5 81.5t12.5 64q0 1 1 17q1 28 25 37q17 7 32 8q52 6 85 8q22 1 153 5h11q18 -3 29 -15t11 -29t-11.5 -29.5t-29.5 -13.5q-32 -2 -113 -4q-16 -1 -48 -1t-48 -1q-10 0 -14.5 -2t-6.5 -6t-3 -13z" />
    <glyph glyph-name="six" unicode="6" horiz-adv-x="461" 
d="M158 439q-1 -3 -14 -46l19 10q7 3 21.5 9.5t25.5 11t21 7.5q48 12 91 -5.5t71 -57.5q58 -80 36 -174q-8 -39 -12 -51q-23 -71 -79.5 -104.5t-125.5 -29.5q-67 4 -110 61q-42 56 -58 135q-29 141 27 287q38 102 108 164q36 33 69 40q22 5 42 -3q13 -6 20.5 -17.5
t6.5 -24.5q-2 -14 -11 -24.5t-23 -12.5q-21 -2 -41 -25q-54 -60 -84 -150zM315 157q4 11 8 24.5t7.5 28t4.5 19.5q-2 51 -21 80q-28 43 -76 24q-57 -22 -76 -82q-21 -62 21 -124q16 -25 49 -23q63 5 83 53z" />
    <glyph glyph-name="seven" unicode="7" horiz-adv-x="455" 
d="M269 493q3 6 47 98q-33 -2 -128 -1.5t-106 -0.5q-7 0 -17 2q-14 3 -23 8t-16.5 18.5t-7.5 35.5q0 16 14.5 29t31.5 16q14 2 147.5 -0.5t153.5 -1.5q21 2 28 2q35 -2 51 -28t1 -56q-27 -52 -78.5 -149.5t-74.5 -141.5q-11 -21 -30 -60t-28 -57q-10 -19 -18 -34.5
t-16.5 -32.5l-17.5 -35q-2 -4 -33 -71q-14 -30 -43 -33q-28 -2 -44.5 18.5t-7.5 46.5q11 33 32 75q8 17 39 79t52 103q16 29 46.5 86t45.5 85z" />
    <glyph glyph-name="eight" unicode="8" horiz-adv-x="482" 
d="M423 475q-10 -46 -43 -83q22 -27 23 -29q34 -49 37 -106q5 -89 -11 -139q-18 -58 -68 -94t-110 -33q-95 3 -165 67q-63 57 -54 150q7 64 36 118q19 36 54 65q1 1 17 14q-12 16 -12 17q-53 79 -31 170q21 88 120 120q87 28 163 -36q37 -31 47 -90q9 -54 -3 -111zM337 152
q1 5 9 74h-2q-4 39 -5 41q-8 39 -37 57q-30 18 -63 23q-20 2 -35 -9q-36 -28 -50 -62.5t-16 -85.5q0 -14 4 -27.5t14.5 -30t33.5 -28.5t56 -15q31 -4 57.5 14t33.5 49zM325 491q1 4 8 55h-2v10q-1 35 -23.5 52t-54.5 11q-2 -1 -11.5 -3t-14.5 -3q-20 -2 -31 -26
q-11 -26 -6 -65q10 -65 76 -77q17 -3 33 7q22 15 26 39z" />
    <glyph glyph-name="nine" unicode="9" horiz-adv-x="430" 
d="M229 252q2 3 19 48q-9 0 -27 -2t-25.5 -2.5t-24.5 -0.5q-87 9 -118 81q-61 145 20 255q72 98 181 85q78 -10 115 -76t30 -150q-8 -85 -47 -190q-51 -137 -75 -186q-24 -50 -71 -112q-8 -11 -20 -18q-14 -9 -29.5 -7t-25.5 14q-11 11 -12 25.5t8 27.5q3 5 7.5 11.5
t8.5 12.5t7 11q9 13 17 27.5t14 28t13 29.5t12 29t11.5 30t11.5 29zM285 458q15 28 19 62q-13 54 -14 58q-10 29 -36 38t-47 -1q-43 -18 -60 -48q-38 -69 -4 -150q5 -13 20 -20t31 -4q1 1 31 12q38 14 60 53z" />
    <glyph glyph-name="colon" unicode=":" horiz-adv-x="221" 
d="M117 178q32 -1 54 -23.5t22 -54.5q0 -33 -23.5 -56.5t-56 -23t-55.5 24t-22 56.5t24.5 55.5t56.5 21.5zM105.5 312q-32.5 0 -55.5 23.5t-22 56.5t24.5 55.5t56.5 21.5q32 -1 54 -23.5t22 -54.5q0 -33 -23.5 -56t-56 -23z" />
    <glyph glyph-name="semicolon" unicode=";" horiz-adv-x="212" 
d="M60 132q6 33 31 42t44 -14q15 -18 15 -50q-2 -15 -5 -46t-5.5 -55t-5.5 -45q-4 -27 -20.5 -41.5t-37.5 -10.5q-20 5 -31.5 25t-8.5 45q11 88 24 150zM110 469q21 0 38.5 -10.5t27.5 -28.5t10 -39q0 -33 -23.5 -56t-56 -23t-55.5 23.5t-22 56.5t24.5 55.5t56.5 21.5z" />
    <glyph glyph-name="less" unicode="&#x3c;" horiz-adv-x="311" 
d="M273 181q11 -10 12.5 -24t-7.5 -25t-22 -14t-26 4q-4 3 -10 8q-123 92 -179 133q-19 15 -21 36t15 39q5 5 58 57l121 121q8 7 12 10q11 7 24 6t22 -10q10 -9 11.5 -22.5t-6.5 -24.5q-3 -5 -12 -14q-21 -21 -45.5 -45t-53 -52.5t-45.5 -44.5l-13 -13q45 -34 47 -35
q18 -13 53.5 -40t53.5 -41q8 -6 11 -9z" />
    <glyph glyph-name="equal" unicode="=" horiz-adv-x="418" 
d="M56 396q-8 2 -14.5 7t-10.5 11t-6 13.5t-1 15.5q2 16 13.5 27.5t28.5 13.5h6.5h6.5q14 1 39 2.5t46 3t39 2.5q42 3 96 4q10 1 39 0q12 -1 22 -4.5t17 -10t11 -15.5t4 -19q1 -22 -13 -37t-38 -17q-6 -1 -28 -1h-105v-1h-122q-15 0 -30 5zM345 306q29 -3 41.5 -28t-2.5 -49
q-12 -20 -34 -24q-9 -2 -18 -2q-35 1 -170 4v0.5v1.5q-66 2 -72 2q-16 0 -22 1q-10 2 -18.5 8.5t-13.5 15.5t-5 19q0 16 8.5 28.5t24.5 17.5q11 3 22 3q120 3 174 4q55 1 85 -2z" />
    <glyph glyph-name="greater" unicode="&#x3e;" horiz-adv-x="314" 
d="M293 356q1 -18 -12 -34q-6 -8 -85 -106q-46 -58 -65 -80q-7 -9 -11 -13q-10 -8 -23.5 -8t-23.5 8t-12.5 20t2.5 24q3 6 13 18q6 8 120 150q1 1 10 13q-12 9 -13 10q-22 15 -71.5 49.5t-75.5 53.5q-10 7 -14 10q-10 10 -11.5 23.5t6.5 25t21 14.5t26 -3q4 -2 11 -7
q170 -119 185 -129q21 -15 23 -39z" />
    <glyph glyph-name="question" unicode="?" horiz-adv-x="395" 
d="M322 645q51 -57 51 -129q0 -54 -30 -100q-6 -10 -68 -96q-49 -69 -50 -72q-7 -10 -20 -39q-10 -24 3 -42q8 -13 5.5 -28.5t-13.5 -26.5q-25 -24 -55 -5q-33 19 -37 69q-3 30 13 70q20 50 76 123q30 40 64 88q8 12 14 31q19 56 -25 99q-27 28 -66 14q-17 -6 -26 -16
q-44 -47 -42 -105q1 -27 20 -40q13 -9 16 -24t-5 -28q-7 -13 -21 -18t-29 0q-27 9 -46 38q-23 36 -24 78q-2 103 75 172q28 25 65 35t80 -1t75 -47zM164 78q16 0 28 -11.5t13 -27.5q0 -17 -11.5 -29t-28.5 -12.5t-29 11.5t-12 28.5t12 28.5t28 12z" />
    <glyph glyph-name="at" unicode="@" horiz-adv-x="761" 
d="M660 711q96 -116 64 -257q-26 -116 -103 -186q-32 -28 -63 -30q-59 -4 -93 50q-1 1 -11 21q-33 -23 -34 -24q-26 -20 -57.5 -24.5t-59 5.5t-48 36t-25.5 63q-9 63 12.5 118t76.5 85q30 14 60 14t57 -12q5 11 12 13h1q13 2 21.5 2.5t23.5 -3.5t24 -15.5t14 -37.5t2 -64
q1 -48 3 -81q1 -26 12 -45l7 4q50 44 68 115.5t-5 132.5q-18 48 -66 84q-83 62 -200 32q-46 -12 -92 -37q-14 -7 -25 -18q-118 -111 -103 -266q10 -100 94 -168q31 -25 87 -30q13 -1 37 -1h30q22 -1 30 -3q16 -4 25 -16.5t10 -28.5q0 -11 -4 -20.5t-11.5 -16.5t-17.5 -10
q-8 -3 -13 -3q-123 -8 -199 29q-23 12 -35 22q-146 123 -132 306q8 95 41 156q35 64 94 122q37 37 115 65q108 38 198 23q27 -4 55 -17q85 -38 123 -84zM425 377q3 5 3.5 31t-0.5 40q-1 2 -1 5q-1 9 -2 12l-2.5 7.5t-3.5 7t-6 4.5q-24 10 -45.5 -7.5t-31.5 -46t-8 -52.5
q1 -10 5.5 -19t13 -15t18.5 -6q41 0 60 39z" />
    <glyph glyph-name="A" unicode="A" horiz-adv-x="458" 
d="M345 66q-2 7 -18 74q-91 -3 -100 -3h-98q-27 -60 -39 -92q-6 -17 -6 -19q-8 -15 -21.5 -22t-28.5 -2q-15 4 -24 18t-7 32q3 19 9 36q42 116 56 150q72 176 121 338q11 38 26 66q10 21 31 43q14 15 33 12.5t31 -20.5q5 -9 7 -18l13.5 -54t16 -66t10.5 -54q41 -239 84 -405
q3 -11 4 -17q3 -18 -6.5 -34.5t-25.5 -22.5q-17 -6 -33 1t-24 24q-4 9 -11 35zM302 244q-16 93 -41 230q-14 -37 -29 -78t-32.5 -89.5t-27.5 -76.5q48 5 130 14z" />
    <glyph glyph-name="A" unicode="&#xc5;" horiz-adv-x="458" 
d="M345 66q-2 7 -18 74q-91 -3 -100 -3h-98q-27 -60 -39 -92q-6 -17 -6 -19q-8 -15 -21.5 -22t-28.5 -2q-15 4 -24 18t-7 32q3 19 9 36q42 116 56 150q72 176 121 338q11 38 26 66q10 21 31 43q14 15 33 12.5t31 -20.5q5 -9 7 -18l13.5 -54t16 -66t10.5 -54q41 -239 84 -405
q3 -11 4 -17q3 -18 -6.5 -34.5t-25.5 -22.5q-17 -6 -33 1t-24 24q-4 9 -11 35zM302 244q-16 93 -41 230q-14 -37 -29 -78t-32.5 -89.5t-27.5 -76.5q48 5 130 14z" />
    <glyph glyph-name="A" unicode="&#xc4;" horiz-adv-x="458" 
d="M345 66q-2 7 -18 74q-91 -3 -100 -3h-98q-27 -60 -39 -92q-6 -17 -6 -19q-8 -15 -21.5 -22t-28.5 -2q-15 4 -24 18t-7 32q3 19 9 36q42 116 56 150q72 176 121 338q11 38 26 66q10 21 31 43q14 15 33 12.5t31 -20.5q5 -9 7 -18l13.5 -54t16 -66t10.5 -54q41 -239 84 -405
q3 -11 4 -17q3 -18 -6.5 -34.5t-25.5 -22.5q-17 -6 -33 1t-24 24q-4 9 -11 35zM302 244q-16 93 -41 230q-14 -37 -29 -78t-32.5 -89.5t-27.5 -76.5q48 5 130 14z" />
    <glyph glyph-name="A" unicode="&#xc3;" horiz-adv-x="458" 
d="M345 66q-2 7 -18 74q-91 -3 -100 -3h-98q-27 -60 -39 -92q-6 -17 -6 -19q-8 -15 -21.5 -22t-28.5 -2q-15 4 -24 18t-7 32q3 19 9 36q42 116 56 150q72 176 121 338q11 38 26 66q10 21 31 43q14 15 33 12.5t31 -20.5q5 -9 7 -18l13.5 -54t16 -66t10.5 -54q41 -239 84 -405
q3 -11 4 -17q3 -18 -6.5 -34.5t-25.5 -22.5q-17 -6 -33 1t-24 24q-4 9 -11 35zM302 244q-16 93 -41 230q-14 -37 -29 -78t-32.5 -89.5t-27.5 -76.5q48 5 130 14z" />
    <glyph glyph-name="A" unicode="&#xc2;" horiz-adv-x="458" 
d="M345 66q-2 7 -18 74q-91 -3 -100 -3h-98q-27 -60 -39 -92q-6 -17 -6 -19q-8 -15 -21.5 -22t-28.5 -2q-15 4 -24 18t-7 32q3 19 9 36q42 116 56 150q72 176 121 338q11 38 26 66q10 21 31 43q14 15 33 12.5t31 -20.5q5 -9 7 -18l13.5 -54t16 -66t10.5 -54q41 -239 84 -405
q3 -11 4 -17q3 -18 -6.5 -34.5t-25.5 -22.5q-17 -6 -33 1t-24 24q-4 9 -11 35zM302 244q-16 93 -41 230q-14 -37 -29 -78t-32.5 -89.5t-27.5 -76.5q48 5 130 14z" />
    <glyph glyph-name="A" unicode="&#xc1;" horiz-adv-x="458" 
d="M345 66q-2 7 -18 74q-91 -3 -100 -3h-98q-27 -60 -39 -92q-6 -17 -6 -19q-8 -15 -21.5 -22t-28.5 -2q-15 4 -24 18t-7 32q3 19 9 36q42 116 56 150q72 176 121 338q11 38 26 66q10 21 31 43q14 15 33 12.5t31 -20.5q5 -9 7 -18l13.5 -54t16 -66t10.5 -54q41 -239 84 -405
q3 -11 4 -17q3 -18 -6.5 -34.5t-25.5 -22.5q-17 -6 -33 1t-24 24q-4 9 -11 35zM302 244q-16 93 -41 230q-14 -37 -29 -78t-32.5 -89.5t-27.5 -76.5q48 5 130 14z" />
    <glyph glyph-name="A" unicode="&#xc0;" horiz-adv-x="458" 
d="M345 66q-2 7 -18 74q-91 -3 -100 -3h-98q-27 -60 -39 -92q-6 -17 -6 -19q-8 -15 -21.5 -22t-28.5 -2q-15 4 -24 18t-7 32q3 19 9 36q42 116 56 150q72 176 121 338q11 38 26 66q10 21 31 43q14 15 33 12.5t31 -20.5q5 -9 7 -18l13.5 -54t16 -66t10.5 -54q41 -239 84 -405
q3 -11 4 -17q3 -18 -6.5 -34.5t-25.5 -22.5q-17 -6 -33 1t-24 24q-4 9 -11 35zM302 244q-16 93 -41 230q-14 -37 -29 -78t-32.5 -89.5t-27.5 -76.5q48 5 130 14z" />
    <glyph glyph-name="B" unicode="B" horiz-adv-x="427" 
d="M306 369l-1 -3q13 -8 14 -9q56 -37 76 -98q15 -48 3 -97q-18 -68 -67 -114t-112 -48q-15 0 -104 5q-9 0 -21 4q-24 8 -30 38q-2 12 -3 14q-11 14 -12 47q-1 47 -5 335q-2 113 -2 152q0 15 1 24q3 17 12.5 26.5t23.5 9.5q11 1 24 9q73 46 146 29q49 -12 85 -56
q50 -62 30 -156q-12 -55 -48 -99q-4 -4 -10 -13zM127 268v-86.5v-87.5q9 0 33 -2t40 -2t31 3q63 14 88 85q9 26 2 49t-27 40t-41 18q-43 3 -126 -17zM124 376l1 -15q12 3 13 3q48 16 86 47q18 14 35 34q28 33 32 77q2 33 -13 52q-20 24 -44 30q-46 10 -91 -11
q-23 -10 -22 -40q0 -12 3 -177z" />
    <glyph glyph-name="C" unicode="C" horiz-adv-x="457" 
d="M155 420q0 -17 -3.5 -58.5t-4.5 -58.5v-100q1 -41 25 -78q12 -17 37 -31q20 -11 36 1q27 20 38 32q26 31 34 80v3.5t1 3.5q3 22 19.5 36t39.5 13q16 -1 29 -8t20 -19.5t6 -27.5q-16 -145 -138 -206q-69 -34 -141 3q-103 52 -117 165q-4 36 -3 157q1 46 11 134
q10 90 58 175q23 41 70 61t99 11q82 -13 127 -79q6 -8 7 -16l15 -100v-5q1 -23 -12.5 -37t-35.5 -15t-40.5 13.5t-20.5 34.5q-1 8 -1.5 16.5t-0.5 18t-1 15.5q0 7 -2 15q-3 20 -14 29.5t-33 11.5q-43 5 -59 -28q-43 -88 -45 -162z" />
    <glyph glyph-name="C" unicode="&#xc7;" horiz-adv-x="457" 
d="M155 420q0 -17 -3.5 -58.5t-4.5 -58.5v-100q1 -41 25 -78q12 -17 37 -31q20 -11 36 1q27 20 38 32q26 31 34 80v3.5t1 3.5q3 22 19.5 36t39.5 13q16 -1 29 -8t20 -19.5t6 -27.5q-16 -145 -138 -206q-69 -34 -141 3q-103 52 -117 165q-4 36 -3 157q1 46 11 134
q10 90 58 175q23 41 70 61t99 11q82 -13 127 -79q6 -8 7 -16l15 -100v-5q1 -23 -12.5 -37t-35.5 -15t-40.5 13.5t-20.5 34.5q-1 8 -1.5 16.5t-0.5 18t-1 15.5q0 7 -2 15q-3 20 -14 29.5t-33 11.5q-43 5 -59 -28q-43 -88 -45 -162z" />
    <glyph glyph-name="D" unicode="D" horiz-adv-x="463" 
d="M47 249q0 14 0.5 35.5t0.5 37v35.5t-2 36q-6 83 0 231q1 14 2 20q6 30 34 32q9 0 19 4q72 22 123 17q43 -4 93 -38q94 -62 119 -198q18 -98 -17 -200q-40 -118 -128 -192q-35 -30 -76 -41q-61 -17 -95 -13q-19 1 -30 12q-5 4 -12 7q-27 11 -28 44q-2 41 -3 76v95z
M138 136v-37q36 3 58.5 13t49.5 35q55 52 83 119q47 115 12 222q-25 75 -99 111q-35 18 -93 10q-5 -1 -9.5 -4.5t-10.5 -4.5q13 -268 9 -464z" />
    <glyph glyph-name="E" unicode="E" horiz-adv-x="432" 
d="M348 601q-132 6 -205 -4q-1 -40 -3.5 -116t-2.5 -86q62 6 65 7q59 4 108 6q13 0 31 -3q19 -4 30 -18.5t9 -32.5t-15 -30t-32 -12q-13 0 -39.5 0.5t-40.5 0.5q-10 0 -114 -3l-4 -5q-1 -119 15 -182q4 -15 7 -18t18 -3q19 -1 53 -2t41 -1q40 -1 50 -3q16 -2 30 -8
q15 -8 21.5 -23t2.5 -31q-4 -15 -17 -25t-29 -9q-26 1 -89.5 -1t-89.5 1q-64 5 -86 67q-14 42 -20 144q-6 120 5 287q1 28 12 111q1 8 8 35t37 36q7 2 9 2q137 23 255 13q9 -1 17 -3q17 -5 26.5 -19t7.5 -31q-2 -18 -14 -29.5t-29 -12.5q-3 0 -28 1z" />
    <glyph glyph-name="E" unicode="&#xcb;" horiz-adv-x="432" 
d="M348 601q-132 6 -205 -4q-1 -40 -3.5 -116t-2.5 -86q62 6 65 7q59 4 108 6q13 0 31 -3q19 -4 30 -18.5t9 -32.5t-15 -30t-32 -12q-13 0 -39.5 0.5t-40.5 0.5q-10 0 -114 -3l-4 -5q-1 -119 15 -182q4 -15 7 -18t18 -3q19 -1 53 -2t41 -1q40 -1 50 -3q16 -2 30 -8
q15 -8 21.5 -23t2.5 -31q-4 -15 -17 -25t-29 -9q-26 1 -89.5 -1t-89.5 1q-64 5 -86 67q-14 42 -20 144q-6 120 5 287q1 28 12 111q1 8 8 35t37 36q7 2 9 2q137 23 255 13q9 -1 17 -3q17 -5 26.5 -19t7.5 -31q-2 -18 -14 -29.5t-29 -12.5q-3 0 -28 1z" />
    <glyph glyph-name="E" unicode="&#xca;" horiz-adv-x="432" 
d="M348 601q-132 6 -205 -4q-1 -40 -3.5 -116t-2.5 -86q62 6 65 7q59 4 108 6q13 0 31 -3q19 -4 30 -18.5t9 -32.5t-15 -30t-32 -12q-13 0 -39.5 0.5t-40.5 0.5q-10 0 -114 -3l-4 -5q-1 -119 15 -182q4 -15 7 -18t18 -3q19 -1 53 -2t41 -1q40 -1 50 -3q16 -2 30 -8
q15 -8 21.5 -23t2.5 -31q-4 -15 -17 -25t-29 -9q-26 1 -89.5 -1t-89.5 1q-64 5 -86 67q-14 42 -20 144q-6 120 5 287q1 28 12 111q1 8 8 35t37 36q7 2 9 2q137 23 255 13q9 -1 17 -3q17 -5 26.5 -19t7.5 -31q-2 -18 -14 -29.5t-29 -12.5q-3 0 -28 1z" />
    <glyph glyph-name="E" unicode="&#xc9;" horiz-adv-x="432" 
d="M348 601q-132 6 -205 -4q-1 -40 -3.5 -116t-2.5 -86q62 6 65 7q59 4 108 6q13 0 31 -3q19 -4 30 -18.5t9 -32.5t-15 -30t-32 -12q-13 0 -39.5 0.5t-40.5 0.5q-10 0 -114 -3l-4 -5q-1 -119 15 -182q4 -15 7 -18t18 -3q19 -1 53 -2t41 -1q40 -1 50 -3q16 -2 30 -8
q15 -8 21.5 -23t2.5 -31q-4 -15 -17 -25t-29 -9q-26 1 -89.5 -1t-89.5 1q-64 5 -86 67q-14 42 -20 144q-6 120 5 287q1 28 12 111q1 8 8 35t37 36q7 2 9 2q137 23 255 13q9 -1 17 -3q17 -5 26.5 -19t7.5 -31q-2 -18 -14 -29.5t-29 -12.5q-3 0 -28 1z" />
    <glyph glyph-name="E" unicode="&#xc8;" horiz-adv-x="432" 
d="M348 601q-132 6 -205 -4q-1 -40 -3.5 -116t-2.5 -86q62 6 65 7q59 4 108 6q13 0 31 -3q19 -4 30 -18.5t9 -32.5t-15 -30t-32 -12q-13 0 -39.5 0.5t-40.5 0.5q-10 0 -114 -3l-4 -5q-1 -119 15 -182q4 -15 7 -18t18 -3q19 -1 53 -2t41 -1q40 -1 50 -3q16 -2 30 -8
q15 -8 21.5 -23t2.5 -31q-4 -15 -17 -25t-29 -9q-26 1 -89.5 -1t-89.5 1q-64 5 -86 67q-14 42 -20 144q-6 120 5 287q1 28 12 111q1 8 8 35t37 36q7 2 9 2q137 23 255 13q9 -1 17 -3q17 -5 26.5 -19t7.5 -31q-2 -18 -14 -29.5t-29 -12.5q-3 0 -28 1z" />
    <glyph glyph-name="F" unicode="F" horiz-adv-x="453" 
d="M153 598l-8 -1q0 -36 -0.5 -100.5t-0.5 -87.5q52 7 55 7q42 1 111 2q10 0 24 -5q16 -5 25 -19.5t7 -30.5q-2 -17 -14 -29t-29 -13q-8 0 -24 1q-72 8 -142 0l-15 -4v-7.5v-9v-7.5q-1 -181 -2 -237q0 -9 -1 -16q-3 -18 -16.5 -29t-31.5 -11t-30.5 11.5t-14.5 29.5
q-2 16 -2 48q0 38 1.5 108t2 127t0.5 107q0 109 10 196q2 19 4 26q9 27 38 29q16 2 44 4.5t52 5t45 3.5q21 2 78 1q22 0 75 -2q11 0 20 -2q18 -3 29 -17t10 -32q-1 -9 -4.5 -17t-9.5 -14t-14 -9.5t-17 -3.5q-13 -1 -38.5 0t-36.5 1q-43 -1 -180 -3z" />
    <glyph glyph-name="G" unicode="G" horiz-adv-x="488" 
d="M336 8v8q-47 -12 -49 -13q-53 -13 -106.5 3.5t-93 59.5t-48.5 102q-23 168 4 277q16 67 30 110q11 31 31 64q51 83 148 79q90 -4 147 -62q31 -32 26 -73q-3 -26 -20.5 -38.5t-43.5 -6.5q-35 8 -34 43q1 17 -14 28q-30 22 -77 19q-16 -1 -25 -17q-25 -40 -31 -55
q-65 -173 -31 -362q8 -48 47 -73q30 -19 63 -12l2 0.5t3 0.5q56 7 72 69t14 109q0 1 -1 9q-51 2 -56 3q-23 2 -35 6q-23 9 -23 33q1 24 23 32q20 8 43 9q39 2 73 0q23 -2 44 -10q32 -14 38 -52q4 -33 3 -62q-2 -28 -4 -59.5t-3.5 -55t-3.5 -55t-4 -59.5q-1 -26 -23 -38
q-30 -16 -59 -1q-26 13 -26 40z" />
    <glyph glyph-name="H" unicode="H" horiz-adv-x="533" 
d="M383 309l-1 10q-24 -2 -73 -7.5t-88 -8t-75 -0.5q-2 -25 -2 -26q0 -139 1 -216q0 -26 -13 -42t-36 -16q-19 0 -32.5 11t-16.5 30q-4 24 -5 50q-2 218 8 354q5 80 14 194q1 16 6 29q6 14 19 21t27 5q16 -2 26 -13t12 -27v-21q-1 -31 -2 -115t-2 -114l1 -13q41 2 120 13.5
t118 13.5q2 26 5 116q0 10 2 31.5t2 31.5t-2 32q-2 8 3 25q8 28 35 32q32 5 45 -21q11 -21 12 -40q2 -92 -1 -161q-1 -49 -5.5 -139.5t-5.5 -118.5t-2.5 -80t-2.5 -68q0 -10 -3 -21q-4 -19 -19 -29.5t-34 -9.5q-19 2 -31.5 15.5t-13.5 32.5q0 35 2 102q1 28 2.5 53t3 51
t2.5 54z" />
    <glyph glyph-name="I" unicode="I" horiz-adv-x="256" 
d="M178 596q-1 -98 -7 -495l19 -7q16 -7 24 -22t6 -31q-4 -17 -16 -28t-29 -12q-7 -1 -44 -1h-48q-42 -1 -55 21q-9 14 -6.5 29.5t14.5 27.5q2 2 32 22q1 84 3.5 249.5t3.5 250.5l-18 11q-27 19 -17 50q4 14 15.5 22.5t24.5 8.5q12 -1 25.5 0t29.5 3t25 3q21 1 42 -6
q18 -5 27.5 -19.5t7.5 -31.5q-1 -18 -13.5 -29.5t-32.5 -14.5z" />
    <glyph glyph-name="I" unicode="&#xcf;" horiz-adv-x="256" 
d="M178 596q-1 -98 -7 -495l19 -7q16 -7 24 -22t6 -31q-4 -17 -16 -28t-29 -12q-7 -1 -44 -1h-48q-42 -1 -55 21q-9 14 -6.5 29.5t14.5 27.5q2 2 32 22q1 84 3.5 249.5t3.5 250.5l-18 11q-27 19 -17 50q4 14 15.5 22.5t24.5 8.5q12 -1 25.5 0t29.5 3t25 3q21 1 42 -6
q18 -5 27.5 -19.5t7.5 -31.5q-1 -18 -13.5 -29.5t-32.5 -14.5z" />
    <glyph glyph-name="I" unicode="&#xce;" horiz-adv-x="256" 
d="M178 596q-1 -98 -7 -495l19 -7q16 -7 24 -22t6 -31q-4 -17 -16 -28t-29 -12q-7 -1 -44 -1h-48q-42 -1 -55 21q-9 14 -6.5 29.5t14.5 27.5q2 2 32 22q1 84 3.5 249.5t3.5 250.5l-18 11q-27 19 -17 50q4 14 15.5 22.5t24.5 8.5q12 -1 25.5 0t29.5 3t25 3q21 1 42 -6
q18 -5 27.5 -19.5t7.5 -31.5q-1 -18 -13.5 -29.5t-32.5 -14.5z" />
    <glyph glyph-name="I" unicode="&#xcd;" horiz-adv-x="256" 
d="M178 596q-1 -98 -7 -495l19 -7q16 -7 24 -22t6 -31q-4 -17 -16 -28t-29 -12q-7 -1 -44 -1h-48q-42 -1 -55 21q-9 14 -6.5 29.5t14.5 27.5q2 2 32 22q1 84 3.5 249.5t3.5 250.5l-18 11q-27 19 -17 50q4 14 15.5 22.5t24.5 8.5q12 -1 25.5 0t29.5 3t25 3q21 1 42 -6
q18 -5 27.5 -19.5t7.5 -31.5q-1 -18 -13.5 -29.5t-32.5 -14.5z" />
    <glyph glyph-name="I" unicode="&#xcc;" horiz-adv-x="256" 
d="M178 596q-1 -98 -7 -495l19 -7q16 -7 24 -22t6 -31q-4 -17 -16 -28t-29 -12q-7 -1 -44 -1h-48q-42 -1 -55 21q-9 14 -6.5 29.5t14.5 27.5q2 2 32 22q1 84 3.5 249.5t3.5 250.5l-18 11q-27 19 -17 50q4 14 15.5 22.5t24.5 8.5q12 -1 25.5 0t29.5 3t25 3q21 1 42 -6
q18 -5 27.5 -19.5t7.5 -31.5q-1 -18 -13.5 -29.5t-32.5 -14.5z" />
    <glyph glyph-name="J" unicode="J" horiz-adv-x="489" 
d="M439 596q-2 0 -40 -3q-3 -37 -3 -38q1 -34 3.5 -136.5t3.5 -158.5q1 -61 -16 -146q-11 -53 -44 -87t-74.5 -44t-85.5 -2q-91 18 -132 101q-22 45 -34 90q-18 75 17 133q15 25 41 30q24 6 41 -7.5t17 -37.5q0 -19 -8 -34q-16 -30 -6 -65q11 -34 23 -62q14 -30 42 -41
t57 -4q35 9 41 41q13 65 15 97q2 3 1.5 57.5t-0.5 58.5q0 44 1.5 126.5t1.5 98.5v35h-27q-90 4 -105 5q-22 2 -34.5 15.5t-11.5 33t15.5 31.5t37.5 12q16 1 70.5 3t84.5 2q45 1 103 -3q20 -1 33 -15t14.5 -33.5t-10.5 -34t-32 -18.5z" />
    <glyph glyph-name="K" unicode="K" horiz-adv-x="448" 
d="M150 399q1 -1 2.5 -1.5t2.5 -0.5q15 23 16 24q140 213 156 237q9 13 16 20q12 12 29 13t31 -8q15 -10 20.5 -26.5t-1.5 -33.5q-4 -8 -15 -25q-7 -10 -177 -269q-1 -1 -15 -24q14 -11 15 -12q28 -29 58.5 -63.5t58.5 -65.5t58 -62q16 -14 21 -20q13 -15 12.5 -32.5
t-12.5 -31.5q-12 -15 -30 -17.5t-35 8.5q-6 4 -23 18q-32 28 -57 55.5t-59.5 68.5t-54.5 65q-1 0 -19 15q-2 -18 -2 -19q0 -12 -1.5 -64t-1.5 -80q-1 -18 -5 -29q-3 -10 -10 -17.5t-16.5 -11.5t-20.5 -4q-16 1 -28.5 10t-17.5 25q-3 12 -3 29q1 26 10 463q1 13 1.5 48
t0.5 54q1 16 4 27q4 16 17 26t30 10q16 0 29.5 -10.5t18.5 -26.5q2 -12 2 -30q0 -31 -5 -216v-16z" />
    <glyph glyph-name="L" unicode="L" horiz-adv-x="416" 
d="M148 144v-45q29 -3 93.5 -1.5t112.5 5.5q8 1 18 0q22 -3 35 -17.5t13 -35.5q0 -20 -14 -34t-36 -16q-22 -3 -120 -2t-141 8q-29 5 -40 15.5t-22 43.5q-3 10 -3 24q0 6 1 77q0 20 1 67t1 67t-1 67q-5 113 8 222q5 51 6 56q4 18 12 33q7 14 22 19.5t30 0.5t24 -18.5
t8 -29.5q-7 -79 -7.5 -160.5t1.5 -161.5q1 -6 -2 -184z" />
    <glyph glyph-name="M" unicode="M" horiz-adv-x="649" 
d="M338 321h2.5h2.5q31 78 33 83q54 140 102 231q4 9 24 37q4 6 12 12q28 23 53 13q31 -12 35 -47q4 -32 4 -59q-1 -63 -4 -182t-5 -174v-75v-75q0 -34 -1 -42q-2 -20 -15 -31.5t-31 -11.5q-19 0 -31.5 13t-12.5 33q-4 125 2 248q1 14 7 194q-1 0 -2 0.5t-2 1.5l-7 -14
q-4 -10 -38 -93t-52 -126q-11 -26 -29 -61q-6 -12 -17 -23q-17 -16 -38.5 -13.5t-33.5 23.5q-9 14 -22 47q-13 34 -132 278q-3 6 -10 10v-14q0 -20 2.5 -72t2.5 -63q1 -16 1.5 -35.5t1 -35t1.5 -35.5t2 -35q4 -127 5 -180q0 -14 -5.5 -24.5t-15.5 -16.5t-22 -7
q-18 -1 -31 10.5t-16 31.5q-1 3 -2 26q-1 33 -4 110.5t-5 118.5q0 2 -0.5 8t-0.5 9q1 47 -0.5 171t0.5 171q0 14 11.5 25.5t27 16t34.5 -4.5t32 -31q17 -26 71 -126t60 -108q35 -49 52 -96q0 -1 4 -11z" />
    <glyph glyph-name="N" unicode="N" horiz-adv-x="539" 
d="M392 223q0 -1 7 -10q2 26 2 27q7 253 7 256q2 40 9 160q1 18 10.5 29.5t24.5 12.5q8 0 15 -2t12 -7t9 -12.5t5 -16.5q3 -15 3 -28q-3 -228 -5 -296q-1 -46 -4 -138t-4 -138q-1 -41 -33 -55q-39 -17 -60 22q-5 11 -12.5 25.5t-14.5 28t-12 24.5q-24 45 -78.5 149
t-84.5 160q-2 4 -46 93l-3 -16q0 -13 -0.5 -34.5t-0.5 -39.5t-1 -34q-2 -48 -5.5 -137.5t-4.5 -111.5q0 -6 -1 -53v-9.5v-9.5v-9q-2 -22 -14.5 -34.5t-30.5 -12.5q-18 1 -29.5 14.5t-11.5 33.5q-1 32 -1 59q1 14 2.5 40t1.5 39q1 22 1.5 48t1.5 49t1.5 47.5t1.5 49.5t2 48
q0 14 8 182q0 1 0.5 3t0.5 3v3v3q-3 27 23 57q11 12 25 12.5t26 -10.5q11 -10 21 -27q88 -155 119 -217q10 -19 118 -220z" />
    <glyph glyph-name="N" unicode="&#xd1;" horiz-adv-x="539" 
d="M392 223q0 -1 7 -10q2 26 2 27q7 253 7 256q2 40 9 160q1 18 10.5 29.5t24.5 12.5q8 0 15 -2t12 -7t9 -12.5t5 -16.5q3 -15 3 -28q-3 -228 -5 -296q-1 -46 -4 -138t-4 -138q-1 -41 -33 -55q-39 -17 -60 22q-5 11 -12.5 25.5t-14.5 28t-12 24.5q-24 45 -78.5 149
t-84.5 160q-2 4 -46 93l-3 -16q0 -13 -0.5 -34.5t-0.5 -39.5t-1 -34q-2 -48 -5.5 -137.5t-4.5 -111.5q0 -6 -1 -53v-9.5v-9.5v-9q-2 -22 -14.5 -34.5t-30.5 -12.5q-18 1 -29.5 14.5t-11.5 33.5q-1 32 -1 59q1 14 2.5 40t1.5 39q1 22 1.5 48t1.5 49t1.5 47.5t1.5 49.5t2 48
q0 14 8 182q0 1 0.5 3t0.5 3v3v3q-3 27 23 57q11 12 25 12.5t26 -10.5q11 -10 21 -27q88 -155 119 -217q10 -19 118 -220z" />
    <glyph glyph-name="O" unicode="O" horiz-adv-x="559" 
d="M93 64q-47 62 -57 153q-12 162 8 271q12 70 45 134q48 93 166 101q25 2 82 -2q58 -5 100 -44q73 -67 87 -167q20 -153 -25 -315q-19 -68 -53 -118q-69 -103 -184 -98q-107 5 -169 85zM152 460q-14 -81 -6 -216q5 -65 32 -109q26 -41 90 -53q7 -1 20 2q46 11 66 51
q28 57 39 94q37 130 20 265q-8 60 -48 102q-21 21 -49 22q-45 2 -59 2q-10 0 -25 -7q-42 -17 -62 -76q-10 -27 -18 -77z" />
    <glyph glyph-name="O" unicode="&#xd8;" horiz-adv-x="559" 
d="M93 64q-47 62 -57 153q-12 162 8 271q12 70 45 134q48 93 166 101q25 2 82 -2q58 -5 100 -44q73 -67 87 -167q20 -153 -25 -315q-19 -68 -53 -118q-69 -103 -184 -98q-107 5 -169 85zM152 460q-14 -81 -6 -216q5 -65 32 -109q26 -41 90 -53q7 -1 20 2q46 11 66 51
q28 57 39 94q37 130 20 265q-8 60 -48 102q-21 21 -49 22q-45 2 -59 2q-10 0 -25 -7q-42 -17 -62 -76q-10 -27 -18 -77z" />
    <glyph glyph-name="O" unicode="&#xd6;" horiz-adv-x="559" 
d="M93 64q-47 62 -57 153q-12 162 8 271q12 70 45 134q48 93 166 101q25 2 82 -2q58 -5 100 -44q73 -67 87 -167q20 -153 -25 -315q-19 -68 -53 -118q-69 -103 -184 -98q-107 5 -169 85zM152 460q-14 -81 -6 -216q5 -65 32 -109q26 -41 90 -53q7 -1 20 2q46 11 66 51
q28 57 39 94q37 130 20 265q-8 60 -48 102q-21 21 -49 22q-45 2 -59 2q-10 0 -25 -7q-42 -17 -62 -76q-10 -27 -18 -77z" />
    <glyph glyph-name="O" unicode="&#xd5;" horiz-adv-x="559" 
d="M93 64q-47 62 -57 153q-12 162 8 271q12 70 45 134q48 93 166 101q25 2 82 -2q58 -5 100 -44q73 -67 87 -167q20 -153 -25 -315q-19 -68 -53 -118q-69 -103 -184 -98q-107 5 -169 85zM152 460q-14 -81 -6 -216q5 -65 32 -109q26 -41 90 -53q7 -1 20 2q46 11 66 51
q28 57 39 94q37 130 20 265q-8 60 -48 102q-21 21 -49 22q-45 2 -59 2q-10 0 -25 -7q-42 -17 -62 -76q-10 -27 -18 -77z" />
    <glyph glyph-name="O" unicode="&#xd4;" horiz-adv-x="559" 
d="M93 64q-47 62 -57 153q-12 162 8 271q12 70 45 134q48 93 166 101q25 2 82 -2q58 -5 100 -44q73 -67 87 -167q20 -153 -25 -315q-19 -68 -53 -118q-69 -103 -184 -98q-107 5 -169 85zM152 460q-14 -81 -6 -216q5 -65 32 -109q26 -41 90 -53q7 -1 20 2q46 11 66 51
q28 57 39 94q37 130 20 265q-8 60 -48 102q-21 21 -49 22q-45 2 -59 2q-10 0 -25 -7q-42 -17 -62 -76q-10 -27 -18 -77z" />
    <glyph glyph-name="O" unicode="&#xd3;" horiz-adv-x="559" 
d="M93 64q-47 62 -57 153q-12 162 8 271q12 70 45 134q48 93 166 101q25 2 82 -2q58 -5 100 -44q73 -67 87 -167q20 -153 -25 -315q-19 -68 -53 -118q-69 -103 -184 -98q-107 5 -169 85zM152 460q-14 -81 -6 -216q5 -65 32 -109q26 -41 90 -53q7 -1 20 2q46 11 66 51
q28 57 39 94q37 130 20 265q-8 60 -48 102q-21 21 -49 22q-45 2 -59 2q-10 0 -25 -7q-42 -17 -62 -76q-10 -27 -18 -77z" />
    <glyph glyph-name="O" unicode="&#xd2;" horiz-adv-x="559" 
d="M93 64q-47 62 -57 153q-12 162 8 271q12 70 45 134q48 93 166 101q25 2 82 -2q58 -5 100 -44q73 -67 87 -167q20 -153 -25 -315q-19 -68 -53 -118q-69 -103 -184 -98q-107 5 -169 85zM152 460q-14 -81 -6 -216q5 -65 32 -109q26 -41 90 -53q7 -1 20 2q46 11 66 51
q28 57 39 94q37 130 20 265q-8 60 -48 102q-21 21 -49 22q-45 2 -59 2q-10 0 -25 -7q-42 -17 -62 -76q-10 -27 -18 -77z" />
    <glyph glyph-name="P" unicode="P" horiz-adv-x="451" 
d="M138 681q0 -1 4 -17q22 28 85 31.5t95 -18.5q64 -41 93.5 -107.5t17.5 -141.5q-7 -44 -14.5 -63.5t-31.5 -56.5q-55 -84 -194 -86q-2 0 -41 4l-2 -16q0 -16 -2 -74.5t-2 -75.5q0 -11 -1 -17q-2 -19 -16 -31t-32.5 -12t-32.5 12.5t-17 31.5q-1 14 -1 42q1 159 5 569v15
q2 17 13 29t27 14q10 1 19.5 -3t16.5 -11.5t11 -17.5zM150 529v-56t0.5 -60t0.5 -51v-29q35 -17 84 -3t72 50q42 60 32 120t-67 91q-9 6 -30.5 8.5t-48.5 -6.5t-39 -31q-4 -3 -4 -33z" />
    <glyph glyph-name="Q" unicode="Q" horiz-adv-x="603" 
d="M516 176q0 -1 -10 -22q47 -60 54 -69q9 -12 14 -21q9 -19 5.5 -38t-18.5 -31q-15 -13 -34 -12t-34 16q-6 6 -16.5 20t-11.5 15.5t-23 27.5q-16 -15 -18 -17q-62 -55 -129 -66q-104 -16 -181 65q-63 66 -81 167q-38 217 86 386q59 81 144 106q118 34 208 -60
q66 -68 84 -183q22 -144 -39 -284zM377 279q4 -3 50 -43l6 14q34 91 20 190q-9 67 -44 113q-27 36 -63 45t-76 -10q-37 -17 -65 -53q-84 -108 -77 -256q4 -74 38 -129q30 -49 74 -60t91 19q29 19 38 36l-6 8q-8 8 -36.5 36t-43.5 43.5t-17.5 34t8.5 34.5q12 17 30 19t37 -11
q7 -5 36 -30z" />
    <glyph glyph-name="R" unicode="R" horiz-adv-x="459" 
d="M387 308q-33 -50 -95 -71q69 -104 94 -144q9 -13 13 -30q4 -18 -4.5 -34.5t-25.5 -24.5q-17 -7 -35 -1.5t-28 21.5q-25 40 -90 150l-27 48q-7 0 -21 2t-16 2q-2 -15 -2 -16q0 -16 -2 -74.5t-2 -75.5q0 -11 -1 -17q-2 -19 -16 -31t-32.5 -12t-32.5 12.5t-17 31.5
q-1 14 -1 42q1 159 5 569v15q2 17 13 29t27 14q16 1 28.5 -7.5t18.5 -24.5q0 -1 4 -17q22 28 85 31.5t96 -18.5q63 -41 92.5 -107.5t17.5 -141.5q-5 -31 -9.5 -47t-12 -31.5t-24.5 -41.5zM307 380q42 60 32 120t-67 91q-9 6 -30.5 8.5t-48.5 -6.5t-39 -31q-4 -3 -4 -33v-56
t0.5 -60t0.5 -51v-29q35 -17 84 -3t72 50z" />
    <glyph glyph-name="S" unicode="S" horiz-adv-x="451" 
d="M419 573q0 -9 1.5 -23t-5 -42t-20.5 -55q-7 -19 -24 -28.5t-38 -5.5q-19 5 -29 19.5t-7 34.5q10 16 13.5 34t2 33t-5.5 26t-9 16q-13 20 -38 25t-48 -6q-43 -21 -59.5 -68t6.5 -86q42 -71 101 -105q36 -22 78 -51q59 -42 76 -103q34 -119 -82 -190q-70 -43 -150.5 -27.5
t-124.5 80.5q-30 43 -25 102q3 31 33 49q25 15 51.5 3.5t29.5 -38.5q1 -8 0 -22q-3 -48 45 -68q45 -18 87 13q23 16 28 38.5t-7.5 46t-41.5 41.5q-8 5 -23 14.5t-27.5 17.5t-23.5 16q-106 70 -145 179q-10 27 -11 54t6.5 49.5t17.5 41t25 35.5t24.5 26.5t20.5 18.5
q52 42 115.5 44t113.5 -37q58 -45 69 -102z" />
    <glyph glyph-name="T" unicode="T" horiz-adv-x="489" 
d="M307 592l-18 -2q-3 -89 -3 -92q-2 -57 -5.5 -179.5t-5.5 -186.5q-2 -68 -4 -87q-2 -24 -21 -37t-42 -5q-27 9 -32 37q-1 8 0 27q2 97 7.5 279t6.5 219v19l-17 1q-17 -1 -37 -2t-40.5 -2t-36.5 -1q-12 -1 -18 0q-9 1 -17 5t-14 10t-9.5 14t-3.5 17q-1 18 10.5 31.5
t28.5 17.5q9 2 25 2q52 3 109 6q9 0 62.5 3t60.5 3q31 2 70 5t69 5q16 1 28 -3q15 -5 24 -17.5t9 -28t-9 -28t-24 -17.5q-10 -3 -24 -4q-28 -1 -63.5 -4t-65.5 -5z" />
    <glyph glyph-name="U" unicode="U" horiz-adv-x="549" 
d="M150 577q-1 -9 -7 -103q-3 -51 -3 -117t10 -116q8 -37 24 -79q19 -48 75 -54q54 -5 81 39q15 24 20 40q42 129 52 200q13 93 12 244q0 17 2 25q3 17 15.5 28.5t30.5 13.5t33 -7.5t21 -27.5q4 -11 4 -26q10 -259 -66 -478q-5 -14 -19 -43q-25 -53 -68.5 -81t-103.5 -34
q-11 -2 -18 0q-115 17 -162 106q-35 64 -45 166q-14 140 11 302q2 12 4 33t3 27q3 20 5 27q5 17 18.5 26t31.5 7q16 -2 27.5 -13.5t12.5 -28.5q1 -23 -1 -76z" />
    <glyph glyph-name="U" unicode="&#xdc;" horiz-adv-x="549" 
d="M150 577q-1 -9 -7 -103q-3 -51 -3 -117t10 -116q8 -37 24 -79q19 -48 75 -54q54 -5 81 39q15 24 20 40q42 129 52 200q13 93 12 244q0 17 2 25q3 17 15.5 28.5t30.5 13.5t33 -7.5t21 -27.5q4 -11 4 -26q10 -259 -66 -478q-5 -14 -19 -43q-25 -53 -68.5 -81t-103.5 -34
q-11 -2 -18 0q-115 17 -162 106q-35 64 -45 166q-14 140 11 302q2 12 4 33t3 27q3 20 5 27q5 17 18.5 26t31.5 7q16 -2 27.5 -13.5t12.5 -28.5q1 -23 -1 -76z" />
    <glyph glyph-name="U" unicode="&#xdb;" horiz-adv-x="549" 
d="M150 577q-1 -9 -7 -103q-3 -51 -3 -117t10 -116q8 -37 24 -79q19 -48 75 -54q54 -5 81 39q15 24 20 40q42 129 52 200q13 93 12 244q0 17 2 25q3 17 15.5 28.5t30.5 13.5t33 -7.5t21 -27.5q4 -11 4 -26q10 -259 -66 -478q-5 -14 -19 -43q-25 -53 -68.5 -81t-103.5 -34
q-11 -2 -18 0q-115 17 -162 106q-35 64 -45 166q-14 140 11 302q2 12 4 33t3 27q3 20 5 27q5 17 18.5 26t31.5 7q16 -2 27.5 -13.5t12.5 -28.5q1 -23 -1 -76z" />
    <glyph glyph-name="U" unicode="&#xda;" horiz-adv-x="549" 
d="M150 577q-1 -9 -7 -103q-3 -51 -3 -117t10 -116q8 -37 24 -79q19 -48 75 -54q54 -5 81 39q15 24 20 40q42 129 52 200q13 93 12 244q0 17 2 25q3 17 15.5 28.5t30.5 13.5t33 -7.5t21 -27.5q4 -11 4 -26q10 -259 -66 -478q-5 -14 -19 -43q-25 -53 -68.5 -81t-103.5 -34
q-11 -2 -18 0q-115 17 -162 106q-35 64 -45 166q-14 140 11 302q2 12 4 33t3 27q3 20 5 27q5 17 18.5 26t31.5 7q16 -2 27.5 -13.5t12.5 -28.5q1 -23 -1 -76z" />
    <glyph glyph-name="U" unicode="&#xd9;" horiz-adv-x="549" 
d="M150 577q-1 -9 -7 -103q-3 -51 -3 -117t10 -116q8 -37 24 -79q19 -48 75 -54q54 -5 81 39q15 24 20 40q42 129 52 200q13 93 12 244q0 17 2 25q3 17 15.5 28.5t30.5 13.5t33 -7.5t21 -27.5q4 -11 4 -26q10 -259 -66 -478q-5 -14 -19 -43q-25 -53 -68.5 -81t-103.5 -34
q-11 -2 -18 0q-115 17 -162 106q-35 64 -45 166q-14 140 11 302q2 12 4 33t3 27q3 20 5 27q5 17 18.5 26t31.5 7q16 -2 27.5 -13.5t12.5 -28.5q1 -23 -1 -76z" />
    <glyph glyph-name="V" unicode="V" horiz-adv-x="564" 
d="M268 166q1 -3 29 -58q11 21 12 22q28 57 54 162q12 50 89 356q4 13 6 18q7 19 24 27t36 3t29 -22t6 -36q-3 -15 -10.5 -43t-8.5 -33q-86 -342 -89 -355q-18 -71 -53 -134q-17 -33 -37 -54q-22 -25 -51 -26.5t-55 19.5q-14 12 -26 28q-35 50 -51 95q-52 150 -79 228
q-5 14 -17 47t-19 51q-25 74 -48 149q-4 15 -2 31q3 26 31 34q28 7 45 -16q6 -7 11 -20q95 -250 123 -327q10 -25 26.5 -74t24.5 -72z" />
    <glyph glyph-name="W" unicode="W" horiz-adv-x="640" 
d="M448 277q1 -1 6 -22q25 116 26 123q2 11 37 225q7 44 9 55q5 20 20.5 31t35.5 8q19 -3 30.5 -18t8.5 -36q-1 -14 -5.5 -41.5t-5.5 -38.5q-11 -81 -53 -292q-4 -22 -8 -49t-8 -56t-8 -50q-4 -25 -19 -77q-6 -22 -33 -34q-19 -9 -37 -2.5t-27 24.5q-2 5 -10 29
q-42 130 -70 286q-2 11 -17 86q-1 5 -7 9q-20 -69 -21 -73q-29 -136 -86 -311q-10 -31 -32 -42q-23 -13 -44 -5t-29 33q-10 35 -16 77q-4 33 -8.5 72t-8.5 70t-8.5 72t-8.5 70q-2 18 -8.5 68.5t-9.5 77.5q-5 49 -7 96q-1 22 15 35.5t38 7.5q25 -6 30 -32q2 -8 9 -52
q22 -132 24 -147q0 -5 20 -171q1 -12 6 -19q21 84 22 89q20 73 42 147q15 53 35 113q15 45 62 43q29 -1 40 -27q5 -11 9 -27q33 -144 45 -195l6.5 -32.5t6 -32t6.5 -33.5t6 -32z" />
    <glyph glyph-name="X" unicode="X" horiz-adv-x="545" 
d="M274 252l-5 6q-14 -19 -15 -20q-21 -30 -67.5 -95t-71.5 -99q-11 -14 -16 -20q-14 -15 -33 -17.5t-35.5 8t-21 29t5.5 36.5q4 8 19 28q33 46 93.5 130t75.5 105q1 1 8 12q-74 122 -80 132q-13 22 -41.5 67t-42.5 69q-9 14 -13 29q-4 16 3.5 30t22.5 20q15 7 30.5 3
t25.5 -18q12 -19 66.5 -95t77.5 -121q1 0 16 -25q15 18 15 19q20 28 45 62.5t51 70.5t45 62q10 15 14 19q14 15 33.5 17.5t36 -8.5t20.5 -29t-6 -36q-3 -6 -14 -21q-134 -186 -169 -234q-12 -17 -1 -35q31 -53 143 -248q6 -10 9 -17q7 -18 0 -35.5t-23 -26.5
q-18 -9 -36.5 -5t-30.5 20q-1 2 -14 24q-7 12 -51.5 89t-68.5 118z" />
    <glyph glyph-name="Y" unicode="Y" horiz-adv-x="484" 
d="M223 346q1 0 7 -14q10 17 11 18q26 56 30 66q24 65 88 180q12 22 35 71q13 28 39 31q13 1 24.5 -4.5t18.5 -16t7 -23.5t-4 -24q-15 -42 -26 -67q-8 -16 -41.5 -87.5t-49.5 -110.5q-9 -21 -20.5 -44t-26 -50t-22.5 -43q-7 -14 -8 -27q-2 -24 -4.5 -50.5t-5 -59.5t-3.5 -51
q-1 -10 -4 -19q-4 -20 -19.5 -31.5t-34.5 -9.5q-20 2 -33.5 16.5t-12.5 33.5q0 12 6 87q0 10 1.5 26t2.5 29.5t2 25.5q0 3 -30.5 78.5t-70.5 173.5t-55 140q-6 16 -16 35q-16 30 3 53q21 26 54 13q25 -10 36 -36q58 -141 70 -170q0 -1 52 -139z" />
    <glyph glyph-name="Y" unicode="&#x178;" horiz-adv-x="484" 
d="M223 346q1 0 7 -14q10 17 11 18q26 56 30 66q24 65 88 180q12 22 35 71q13 28 39 31q13 1 24.5 -4.5t18.5 -16t7 -23.5t-4 -24q-15 -42 -26 -67q-8 -16 -41.5 -87.5t-49.5 -110.5q-9 -21 -20.5 -44t-26 -50t-22.5 -43q-7 -14 -8 -27q-2 -24 -4.5 -50.5t-5 -59.5t-3.5 -51
q-1 -10 -4 -19q-4 -20 -19.5 -31.5t-34.5 -9.5q-20 2 -33.5 16.5t-12.5 33.5q0 12 6 87q0 10 1.5 26t2.5 29.5t2 25.5q0 3 -30.5 78.5t-70.5 173.5t-55 140q-6 16 -16 35q-16 30 3 53q21 26 54 13q25 -10 36 -36q58 -141 70 -170q0 -1 52 -139z" />
    <glyph glyph-name="Y" unicode="&#xdd;" horiz-adv-x="484" 
d="M223 346q1 0 7 -14q10 17 11 18q26 56 30 66q24 65 88 180q12 22 35 71q13 28 39 31q13 1 24.5 -4.5t18.5 -16t7 -23.5t-4 -24q-15 -42 -26 -67q-8 -16 -41.5 -87.5t-49.5 -110.5q-9 -21 -20.5 -44t-26 -50t-22.5 -43q-7 -14 -8 -27q-2 -24 -4.5 -50.5t-5 -59.5t-3.5 -51
q-1 -10 -4 -19q-4 -20 -19.5 -31.5t-34.5 -9.5q-20 2 -33.5 16.5t-12.5 33.5q0 12 6 87q0 10 1.5 26t2.5 29.5t2 25.5q0 3 -30.5 78.5t-70.5 173.5t-55 140q-6 16 -16 35q-16 30 3 53q21 26 54 13q25 -10 36 -36q58 -141 70 -170q0 -1 52 -139z" />
    <glyph glyph-name="Z" unicode="Z" horiz-adv-x="541" 
d="M154 112q-1 -1 -9 -13q51 2 53 2q163 14 272 5q18 -2 30 -7q15 -7 22.5 -21.5t5.5 -32.5q-3 -16 -14 -27.5t-28 -14.5q-10 -2 -19 -1q-60 3 -81.5 3t-92.5 -2t-81 -3q-30 0 -46 1q-13 0 -45.5 2.5t-50.5 3.5q-32 1 -49 32q-24 43 6 81q3 4 28 37q93 123 100 132
q15 19 42 53.5t32 41.5q14 18 43 54t55 68t47 58.5t23 29.5l-19 1h-52.5t-67 -0.5t-67 -1.5t-56.5 -1.5t-31 -0.5q-19 -2 -32 0q-13 1 -22.5 7.5t-15 16t-5.5 21.5q0 19 14 40t32 22q92 5 370 -2q29 -1 67 -29q13 -11 15.5 -27t-6.5 -31q-9 -14 -22.5 -36t-20 -32.5t-19 -28
t-27.5 -36.5q-89 -111 -154 -195q-14 -17 -37 -50t-29 -40q-8 -12 -18 -25.5t-22 -29t-18 -24.5z" />
    <glyph glyph-name="bracketleft" unicode="[" horiz-adv-x="304" 
d="M285 50q1 -18 -10.5 -31.5t-30.5 -17.5q-8 -1 -21 -1h-91q-35 1 -55 20.5t-20 54.5q-2 63 -10 500q0 1 -0.5 18.5t-0.5 27.5v18q5 48 51 53q57 5 112 8q22 1 37 -12t16 -34t-12 -35t-36 -17q-4 0 -70 -5q2 -98 6 -280.5t4 -218.5h25q56 -1 62 -1q12 -1 22 -7.5t16 -16.5
t6 -23z" />
    <glyph glyph-name="bracketright" unicode="]" horiz-adv-x="279" 
d="M232 659v-8q-5 -355 -6 -415q-1 -68 -3 -178q-1 -48 -46 -53q-48 -6 -101 -9q-22 -1 -36.5 11.5t-16.5 32.5q-1 20 12 34.5t35 16.5q3 1 58 6q4 243 7 509h-49q-19 0 -26 3q-16 4 -25 16.5t-9.5 28t9 28t24.5 17.5q3 1 4 1q114 4 127 4q12 -1 21 -7t14.5 -16t6.5 -22z
" />
    <glyph glyph-name="underscore" unicode="_" horiz-adv-x="448" 
d="M390 112q19 -4 30 -18t11 -32q0 -19 -12.5 -33t-30.5 -17q-6 -1 -22 -1q-28 -1 -151.5 0t-131.5 1q-15 0 -26 2q-18 4 -29 18t-11 33t12.5 33t30.5 17q6 1 20 1q181 -1 284 -1q15 0 26 -3z" />
    <glyph glyph-name="a" unicode="a" horiz-adv-x="475" 
d="M146 436q23 16 55.5 25t72 1.5t63.5 -38.5q11 23 11 24q9 15 24 21t30.5 1t24 -18.5t6.5 -31.5q1 -218 -3 -362q1 -12 -1 -22q-2 -19 -15.5 -31.5t-32.5 -13.5q-45 -2 -52 32q-49 -23 -122 -25q-23 -1 -46.5 3.5t-50.5 20.5t-46.5 42t-31 72.5t-8.5 107.5q10 66 38 108.5
t84 83.5zM312 140q3 15 5 56.5t2.5 86t0.5 48.5q-1 22 -21.5 34t-45.5 11t-42 -12q-80 -55 -79 -163q-1 -95 88 -110q32 -5 56 9.5t36 39.5z" />
    <glyph glyph-name="a" unicode="&#xe5;" horiz-adv-x="475" 
d="M146 436q23 16 55.5 25t72 1.5t63.5 -38.5q11 23 11 24q9 15 24 21t30.5 1t24 -18.5t6.5 -31.5q1 -218 -3 -362q1 -12 -1 -22q-2 -19 -15.5 -31.5t-32.5 -13.5q-45 -2 -52 32q-49 -23 -122 -25q-23 -1 -46.5 3.5t-50.5 20.5t-46.5 42t-31 72.5t-8.5 107.5q10 66 38 108.5
t84 83.5zM312 140q3 15 5 56.5t2.5 86t0.5 48.5q-1 22 -21.5 34t-45.5 11t-42 -12q-80 -55 -79 -163q-1 -95 88 -110q32 -5 56 9.5t36 39.5z" />
    <glyph glyph-name="a" unicode="&#xe4;" horiz-adv-x="475" 
d="M146 436q23 16 55.5 25t72 1.5t63.5 -38.5q11 23 11 24q9 15 24 21t30.5 1t24 -18.5t6.5 -31.5q1 -218 -3 -362q1 -12 -1 -22q-2 -19 -15.5 -31.5t-32.5 -13.5q-45 -2 -52 32q-49 -23 -122 -25q-23 -1 -46.5 3.5t-50.5 20.5t-46.5 42t-31 72.5t-8.5 107.5q10 66 38 108.5
t84 83.5zM312 140q3 15 5 56.5t2.5 86t0.5 48.5q-1 22 -21.5 34t-45.5 11t-42 -12q-80 -55 -79 -163q-1 -95 88 -110q32 -5 56 9.5t36 39.5z" />
    <glyph glyph-name="a" unicode="&#xe3;" horiz-adv-x="475" 
d="M146 436q23 16 55.5 25t72 1.5t63.5 -38.5q11 23 11 24q9 15 24 21t30.5 1t24 -18.5t6.5 -31.5q1 -218 -3 -362q1 -12 -1 -22q-2 -19 -15.5 -31.5t-32.5 -13.5q-45 -2 -52 32q-49 -23 -122 -25q-23 -1 -46.5 3.5t-50.5 20.5t-46.5 42t-31 72.5t-8.5 107.5q10 66 38 108.5
t84 83.5zM312 140q3 15 5 56.5t2.5 86t0.5 48.5q-1 22 -21.5 34t-45.5 11t-42 -12q-80 -55 -79 -163q-1 -95 88 -110q32 -5 56 9.5t36 39.5z" />
    <glyph glyph-name="a" unicode="&#xe2;" horiz-adv-x="475" 
d="M146 436q23 16 55.5 25t72 1.5t63.5 -38.5q11 23 11 24q9 15 24 21t30.5 1t24 -18.5t6.5 -31.5q1 -218 -3 -362q1 -12 -1 -22q-2 -19 -15.5 -31.5t-32.5 -13.5q-45 -2 -52 32q-49 -23 -122 -25q-23 -1 -46.5 3.5t-50.5 20.5t-46.5 42t-31 72.5t-8.5 107.5q10 66 38 108.5
t84 83.5zM312 140q3 15 5 56.5t2.5 86t0.5 48.5q-1 22 -21.5 34t-45.5 11t-42 -12q-80 -55 -79 -163q-1 -95 88 -110q32 -5 56 9.5t36 39.5z" />
    <glyph glyph-name="a" unicode="&#xe1;" horiz-adv-x="475" 
d="M146 436q23 16 55.5 25t72 1.5t63.5 -38.5q11 23 11 24q9 15 24 21t30.5 1t24 -18.5t6.5 -31.5q1 -218 -3 -362q1 -12 -1 -22q-2 -19 -15.5 -31.5t-32.5 -13.5q-45 -2 -52 32q-49 -23 -122 -25q-23 -1 -46.5 3.5t-50.5 20.5t-46.5 42t-31 72.5t-8.5 107.5q10 66 38 108.5
t84 83.5zM312 140q3 15 5 56.5t2.5 86t0.5 48.5q-1 22 -21.5 34t-45.5 11t-42 -12q-80 -55 -79 -163q-1 -95 88 -110q32 -5 56 9.5t36 39.5z" />
    <glyph glyph-name="a" unicode="&#xe0;" horiz-adv-x="475" 
d="M146 436q23 16 55.5 25t72 1.5t63.5 -38.5q11 23 11 24q9 15 24 21t30.5 1t24 -18.5t6.5 -31.5q1 -218 -3 -362q1 -12 -1 -22q-2 -19 -15.5 -31.5t-32.5 -13.5q-45 -2 -52 32q-49 -23 -122 -25q-23 -1 -46.5 3.5t-50.5 20.5t-46.5 42t-31 72.5t-8.5 107.5q10 66 38 108.5
t84 83.5zM312 140q3 15 5 56.5t2.5 86t0.5 48.5q-1 22 -21.5 34t-45.5 11t-42 -12q-80 -55 -79 -163q-1 -95 88 -110q32 -5 56 9.5t36 39.5z" />
    <glyph glyph-name="b" unicode="b" horiz-adv-x="461" 
d="M155 387q0 12 14 33q33 48 108 48q12 1 22.5 1.5t32 -3.5t37 -13.5t33 -31t25.5 -53t7 -83.5t-14 -119q-14 -66 -77 -118.5t-131 -63.5q-38 -6 -72 13q-11 6 -40 3q-18 -3 -31.5 10.5t-15.5 35.5q-2 18 -10 167q-9 161 -1 304q1 19 4.5 46t4.5 43q1 9 1 24t1 20
q0 15 9 26t21.5 16.5t26.5 5.5q34 0 38 -37q3 -16 2 -46q0 -59 2.5 -125.5t2.5 -102.5zM164 210q-2 -8 0 -58.5t0 -61.5q26 -4 32 -3q45 6 71 32q41 43 56.5 125t-15.5 116q-12 12 -30 13t-37.5 -10.5t-36.5 -31.5t-28.5 -52t-11.5 -69z" />
    <glyph glyph-name="c" unicode="c" horiz-adv-x="417" 
d="M29 226h-2h-1q7 72 8 75q21 118 124 173q41 23 97.5 18t88.5 -39q21 -20 24 -40q5 -34 -23 -51q-15 -6 -23 -4t-22 13q-12 15 -48 14.5t-55 -16.5q-46 -37 -53 -87q-12 -73 3 -125q4 -14 20 -42q5 -8 19 -15t33 -9t42.5 9t42.5 36q8 11 18.5 18.5t25 11.5t27.5 -6
q16 -12 22.5 -30.5t-1.5 -38.5q-17 -35 -34 -50t-59 -40q-38 -23 -109 -13.5t-103 44.5q-54 58 -62 153v41z" />
    <glyph glyph-name="c" unicode="&#xe7;" horiz-adv-x="417" 
d="M29 226h-2h-1q7 72 8 75q21 118 124 173q41 23 97.5 18t88.5 -39q21 -20 24 -40q5 -34 -23 -51q-15 -6 -23 -4t-22 13q-12 15 -48 14.5t-55 -16.5q-46 -37 -53 -87q-12 -73 3 -125q4 -14 20 -42q5 -8 19 -15t33 -9t42.5 9t42.5 36q8 11 18.5 18.5t25 11.5t27.5 -6
q16 -12 22.5 -30.5t-1.5 -38.5q-17 -35 -34 -50t-59 -40q-38 -23 -109 -13.5t-103 44.5q-54 58 -62 153v41z" />
    <glyph glyph-name="d" unicode="d" horiz-adv-x="471" 
d="M145 433q21 14 55.5 21t73.5 -0.5t62 -32.5q2 4 4.5 57t4.5 104.5t2 57.5q0 29 11 42t38 13q26 0 38.5 -13.5t12.5 -43.5q0 -75 -8.5 -313.5t-9.5 -269.5q1 -12 -1 -22q-1 -13 -8 -23t-17 -15.5t-23 -6.5q-45 -2 -52 32q-49 -23 -122 -26q-23 -1 -46.5 4t-50.5 21
t-46.5 42t-31 72.5t-8.5 107.5q10 66 38 108.5t84 83.5zM311 137q3 15 5 56.5t2.5 86t0.5 48.5q-1 22 -21.5 34t-45.5 11t-42 -12q-80 -55 -79 -163q-1 -95 88 -110q32 -5 56 9.5t36 39.5z" />
    <glyph glyph-name="e" unicode="e" horiz-adv-x="432" 
d="M240 158q-10 -2 -50.5 -6.5t-42.5 -4.5q-2 -24 8.5 -40.5t28 -24t38 -10t38.5 -1t29 6.5q55 18 76.5 16t31.5 -21q15 -30 -18 -57q-42 -39 -174 -38q-68 2 -109.5 45.5t-56.5 106.5q-24 94 -6 174t84 145q2 3 19 16q23 17 56.5 24t69 2.5t67 -17.5t52.5 -37.5t23 -55.5
q6 -79 -33 -140q-41 -66 -131 -83zM297 375q-10 14 -29.5 18.5t-42 -3t-43 -24t-32.5 -47.5t-10 -71q17 -1 50 4.5t47 10.5q32 12 48.5 41.5t11.5 70.5z" />
    <glyph glyph-name="e" unicode="&#xeb;" horiz-adv-x="432" 
d="M240 158q-10 -2 -50.5 -6.5t-42.5 -4.5q-2 -24 8.5 -40.5t28 -24t38 -10t38.5 -1t29 6.5q55 18 76.5 16t31.5 -21q15 -30 -18 -57q-42 -39 -174 -38q-68 2 -109.5 45.5t-56.5 106.5q-24 94 -6 174t84 145q2 3 19 16q23 17 56.5 24t69 2.5t67 -17.5t52.5 -37.5t23 -55.5
q6 -79 -33 -140q-41 -66 -131 -83zM297 375q-10 14 -29.5 18.5t-42 -3t-43 -24t-32.5 -47.5t-10 -71q17 -1 50 4.5t47 10.5q32 12 48.5 41.5t11.5 70.5z" />
    <glyph glyph-name="e" unicode="&#xea;" horiz-adv-x="432" 
d="M240 158q-10 -2 -50.5 -6.5t-42.5 -4.5q-2 -24 8.5 -40.5t28 -24t38 -10t38.5 -1t29 6.5q55 18 76.5 16t31.5 -21q15 -30 -18 -57q-42 -39 -174 -38q-68 2 -109.5 45.5t-56.5 106.5q-24 94 -6 174t84 145q2 3 19 16q23 17 56.5 24t69 2.5t67 -17.5t52.5 -37.5t23 -55.5
q6 -79 -33 -140q-41 -66 -131 -83zM297 375q-10 14 -29.5 18.5t-42 -3t-43 -24t-32.5 -47.5t-10 -71q17 -1 50 4.5t47 10.5q32 12 48.5 41.5t11.5 70.5z" />
    <glyph glyph-name="e" unicode="&#xe9;" horiz-adv-x="432" 
d="M240 158q-10 -2 -50.5 -6.5t-42.5 -4.5q-2 -24 8.5 -40.5t28 -24t38 -10t38.5 -1t29 6.5q55 18 76.5 16t31.5 -21q15 -30 -18 -57q-42 -39 -174 -38q-68 2 -109.5 45.5t-56.5 106.5q-24 94 -6 174t84 145q2 3 19 16q23 17 56.5 24t69 2.5t67 -17.5t52.5 -37.5t23 -55.5
q6 -79 -33 -140q-41 -66 -131 -83zM297 375q-10 14 -29.5 18.5t-42 -3t-43 -24t-32.5 -47.5t-10 -71q17 -1 50 4.5t47 10.5q32 12 48.5 41.5t11.5 70.5z" />
    <glyph glyph-name="e" unicode="&#xe8;" horiz-adv-x="432" 
d="M240 158q-10 -2 -50.5 -6.5t-42.5 -4.5q-2 -24 8.5 -40.5t28 -24t38 -10t38.5 -1t29 6.5q55 18 76.5 16t31.5 -21q15 -30 -18 -57q-42 -39 -174 -38q-68 2 -109.5 45.5t-56.5 106.5q-24 94 -6 174t84 145q2 3 19 16q23 17 56.5 24t69 2.5t67 -17.5t52.5 -37.5t23 -55.5
q6 -79 -33 -140q-41 -66 -131 -83zM297 375q-10 14 -29.5 18.5t-42 -3t-43 -24t-32.5 -47.5t-10 -71q17 -1 50 4.5t47 10.5q32 12 48.5 41.5t11.5 70.5z" />
    <glyph glyph-name="f" unicode="f" horiz-adv-x="358" 
d="M278 584q-9 -8 -16 -18q-5 -6 -10.5 -16.5t-10.5 -22t-9 -24t-7 -24.5t-4 -22h25h44q16 -1 36 -10q27 -12 26 -44t-30 -43q-13 -4 -40 -6q-16 0 -24 -1t-14.5 -1t-23.5 -1l-16 -3q-11 -108 0 -192q4 -30 11 -107q1 -13 -2 -24t-10 -20t-17.5 -13.5t-21.5 -4.5
q-18 0 -31.5 10t-17.5 27q-2 8 -6 45q-11 100 -12 118q0 9 -1 109v33q-35 -4 -38 -4q-34 -1 -46 29.5t13 53.5q13 12 28 17q5 2 56 17q9 41 10 43q22 72 32 93q32 76 104 104q44 18 84 -2q24 -12 35 -33q17 -32 -7.5 -56t-56.5 -5q-12 7 -16.5 6.5t-15.5 -8.5z" />
    <glyph glyph-name="g" unicode="g" horiz-adv-x="454" 
d="M413 433q1 -21 0 -83.5t-2.5 -147t-1.5 -98.5q3 -111 -20 -191q-14 -49 -39 -85q-74 -108 -214 -96q-55 4 -94 51q-13 15 -19 33.5t1 35.5t24 26q16 8 33.5 4.5t29.5 -18.5q1 -1 7 -9q16 -24 44 -22q80 6 110 67q28 56 31 129l-16 -8q-82 -40 -156 -7t-99 122
q-26 93 17 188t129 133q77 34 149 -1q12 11 29 12q20 1 39 -8t18 -27zM308 158q2 15 4 182q-6 4 -13 10q-31 30 -73 14q-20 -7 -32 -18q-80 -68 -65 -171q1 -7 2 -11q12 -37 40.5 -52t58 -9t52.5 21.5t26 33.5z" />
    <glyph glyph-name="h" unicode="h" horiz-adv-x="444" 
d="M404 340q0 -8 -1 -135t1 -142q1 -32 -20 -50t-49 -11q-31 8 -39 37q-4 16 -5 38q-2 100 3 232q2 47 -32 61q-34 13 -65 -22q-30 -34 -32 -99q-1 -24 -1 -72.5t-0.5 -85t-1.5 -41.5q-4 -21 -11 -33q-8 -16 -23.5 -23.5t-31.5 -4.5q-18 2 -30.5 14t-16.5 30q-2 9 -3 26
q-15 190 1 365q3 27 26 220q2 9 6 20q7 19 23 28t35 4q12 -2 20.5 -9.5t13 -18.5t3.5 -24q-2 -43 -5 -124t-1 -97q18 19 43 33q31 19 84.5 13t75.5 -33q33 -39 33 -96z" />
    <glyph glyph-name="i" unicode="i" horiz-adv-x="186" 
d="M139 230q5 -100 8 -158q1 -24 1 -26q-1 -18 -14.5 -31t-31.5 -14q-19 -2 -34 8t-20 28q-3 10 -4 26q-4 69 -7 128q-4 70 8 180q1 7 2 17t2 20.5t2 17.5q2 18 13.5 29.5t29.5 12.5t31 -8.5t16 -27.5q3 -14 3 -41q-1 -19 -5 -161zM152 629q8 -15 8 -28q0 -20 -6 -29
q-7 -13 -21 -21q-7 -4 -29 -4q-13 0 -27 8q-13 8 -20 19.5t-7 26.5q0 24 3 29q4 7 23 18q17 10 28 10q12 0 27 -9q13 -8 21 -20z" />
    <glyph glyph-name="i" unicode="&#xef;" horiz-adv-x="186" 
d="M139 230q5 -100 8 -158q1 -24 1 -26q-1 -18 -14.5 -31t-31.5 -14q-19 -2 -34 8t-20 28q-3 10 -4 26q-4 69 -7 128q-4 70 8 180q1 7 2 17t2 20.5t2 17.5q2 18 13.5 29.5t29.5 12.5t31 -8.5t16 -27.5q3 -14 3 -41q-1 -19 -5 -161zM152 629q8 -15 8 -28q0 -20 -6 -29
q-7 -13 -21 -21q-7 -4 -29 -4q-13 0 -27 8q-13 8 -20 19.5t-7 26.5q0 24 3 29q4 7 23 18q17 10 28 10q12 0 27 -9q13 -8 21 -20z" />
    <glyph glyph-name="i" unicode="&#xee;" horiz-adv-x="186" 
d="M139 230q5 -100 8 -158q1 -24 1 -26q-1 -18 -14.5 -31t-31.5 -14q-19 -2 -34 8t-20 28q-3 10 -4 26q-4 69 -7 128q-4 70 8 180q1 7 2 17t2 20.5t2 17.5q2 18 13.5 29.5t29.5 12.5t31 -8.5t16 -27.5q3 -14 3 -41q-1 -19 -5 -161zM152 629q8 -15 8 -28q0 -20 -6 -29
q-7 -13 -21 -21q-7 -4 -29 -4q-13 0 -27 8q-13 8 -20 19.5t-7 26.5q0 24 3 29q4 7 23 18q17 10 28 10q12 0 27 -9q13 -8 21 -20z" />
    <glyph glyph-name="i" unicode="&#xed;" horiz-adv-x="186" 
d="M139 230q5 -100 8 -158q1 -24 1 -26q-1 -18 -14.5 -31t-31.5 -14q-19 -2 -34 8t-20 28q-3 10 -4 26q-4 69 -7 128q-4 70 8 180q1 7 2 17t2 20.5t2 17.5q2 18 13.5 29.5t29.5 12.5t31 -8.5t16 -27.5q3 -14 3 -41q-1 -19 -5 -161zM152 629q8 -15 8 -28q0 -20 -6 -29
q-7 -13 -21 -21q-7 -4 -29 -4q-13 0 -27 8q-13 8 -20 19.5t-7 26.5q0 24 3 29q4 7 23 18q17 10 28 10q12 0 27 -9q13 -8 21 -20z" />
    <glyph glyph-name="i" unicode="&#xec;" horiz-adv-x="186" 
d="M139 230q5 -100 8 -158q1 -24 1 -26q-1 -18 -14.5 -31t-31.5 -14q-19 -2 -34 8t-20 28q-3 10 -4 26q-4 69 -7 128q-4 70 8 180q1 7 2 17t2 20.5t2 17.5q2 18 13.5 29.5t29.5 12.5t31 -8.5t16 -27.5q3 -14 3 -41q-1 -19 -5 -161zM152 629q8 -15 8 -28q0 -20 -6 -29
q-7 -13 -21 -21q-7 -4 -29 -4q-13 0 -27 8q-13 8 -20 19.5t-7 26.5q0 24 3 29q4 7 23 18q17 10 28 10q12 0 27 -9q13 -8 21 -20z" />
    <glyph glyph-name="j" unicode="j" horiz-adv-x="187" 
d="M144 223q0 -18 1 -55.5t2 -66t1 -55.5q2 -74 -15 -154q-12 -57 -41 -98q-25 -35 -63 -51.5t-86 -2.5q-30 9 -54 23q-41 23 -43 74q0 13 4.5 24t13.5 18t22 10q18 4 35 -4t23 -26q4 -12 12 -16.5t23 -6.5q18 -3 29 18q18 36 21 51q14 72 15 114q0 35 -1.5 98.5t-1.5 88.5
q0 56 4 217q0 14 5 25q11 25 39.5 25.5t40.5 -23.5q6 -11 6 -23q2 -40 9 -204h-1zM144 633q9 -18 8 -28q-1 -13 -11 -27q-9 -13 -22 -19q-15 -7 -28 -6q-20 1 -29 8q-12 8 -19 23q-3 7 -2 29q1 13 10 26t21 18.5t27 4.5q25 -2 29 -5q7 -5 16 -24z" />
    <glyph glyph-name="k" unicode="k" horiz-adv-x="364" 
d="M348 63q4 -16 -2.5 -31.5t-21.5 -24.5q-14 -9 -31 -7t-29 14q-29 28 -107 119l-9 8q-2 -1 -5 -2q2 -18 2 -36t-1 -32t-1 -15q0 -22 -13 -38t-32 -18q-20 -2 -36 10.5t-20 33.5q-5 29 -2 180t10 251q1 13 3 84t3 84q1 17 1 20q3 14 14 24t25.5 12t28 -5t18.5 -21
q8 -22 8 -44q-1 -138 -5 -296v-2.5v-5v-6.5q14 15 14 16q13 17 36 49.5t33 46.5q13 19 19 24q12 12 27.5 13t28.5 -8t17.5 -24t-0.5 -31q-2 -5 -8 -15q-54 -98 -99 -155q0 -1 -8 -11q20 -21 21 -21q21 -20 53.5 -55.5t56.5 -60.5q8 -14 11 -24z" />
    <glyph glyph-name="l" unicode="l" horiz-adv-x="191" 
d="M151 447q0 -14 -6 -320q0 -30 -3 -72q-1 -23 -14.5 -38.5t-33.5 -16.5t-35 12.5t-18 36.5q-2 13 -2 32q9 427 11 462q1 36 9 108q3 22 17 35t33 12q18 -2 30.5 -17t10.5 -36q-1 -23 -1 -50.5v-47.5t1 -51.5t1 -48.5z" />
    <glyph glyph-name="m" unicode="m" horiz-adv-x="713" 
d="M327 238q-3 86 -40 112t-75 -2.5t-46 -75.5q-5 -33 -5 -103.5t-3 -105.5q-3 -26 -22 -42.5t-41 -17.5q-20 0 -30.5 10.5t-16.5 31.5q-7 33 -9 65q-7 127 10 280q1 10 3 41q1 20 12.5 33t30.5 14q18 1 32 -10t17 -30q0 -6 1 -55q7 25 36.5 53.5t47.5 34.5q18 5 40 6
t45.5 -3t45.5 -17.5t35 -34.5q1 -2 13 -23q5 5 22 21.5t25 22.5q44 35 101.5 30.5t89.5 -49.5q8 -11 13 -23.5t7.5 -28.5t4 -27.5t2 -30.5t1.5 -27q0 -19 1.5 -71.5t0.5 -88.5t-5 -71q-1 -11 -4 -19q-5 -18 -20.5 -28t-32.5 -8q-13 1 -23.5 7.5t-16.5 17t-6 22.5
q0 13 2.5 36.5t2.5 33.5q1 8 1.5 31.5t1 33t0.5 29.5t-0.5 32.5t-1.5 30t-3 33.5q-4 27 -32.5 34.5t-58.5 -10t-35 -51.5q-5 -16 -9 -58t-7 -96t-4 -66q-2 -21 -5 -28q-6 -19 -23.5 -26.5t-36.5 0.5q-39 17 -40 57q0 6 2 54q0 13 1.5 37.5t2.5 44.5t1 38z" />
    <glyph glyph-name="n" unicode="n" horiz-adv-x="468" 
d="M150 437q1 -7 0 -20t-1.5 -23t0.5 -10q23 40 73 68q49 27 93.5 17t76.5 -55q40 -55 40 -132q1 -63 -3 -125q-2 -22 0 -53t0 -54q-4 -41 -40 -48q-26 -6 -44.5 10t-18.5 42q0 9 1.5 25.5t2.5 20.5q5 75 -2 183q-2 33 -10.5 53t-15.5 24q-38 22 -88.5 -9t-59.5 -92
q-2 -22 -2 -74.5t-1 -95t-6 -54.5q-13 -39 -61 -36q-19 2 -29.5 17t-12.5 35q-3 25 -3 42q0 21 -1 88.5t1 88.5q1 30 13 151q0 8 4 17q5 16 19 27t30 9q11 -1 16 -2t13 -5t11.5 -11t4.5 -19z" />
    <glyph glyph-name="n" unicode="&#xf1;" horiz-adv-x="468" 
d="M150 437q1 -7 0 -20t-1.5 -23t0.5 -10q23 40 73 68q49 27 93.5 17t76.5 -55q40 -55 40 -132q1 -63 -3 -125q-2 -22 0 -53t0 -54q-4 -41 -40 -48q-26 -6 -44.5 10t-18.5 42q0 9 1.5 25.5t2.5 20.5q5 75 -2 183q-2 33 -10.5 53t-15.5 24q-38 22 -88.5 -9t-59.5 -92
q-2 -22 -2 -74.5t-1 -95t-6 -54.5q-13 -39 -61 -36q-19 2 -29.5 17t-12.5 35q-3 25 -3 42q0 21 -1 88.5t1 88.5q1 30 13 151q0 8 4 17q5 16 19 27t30 9q11 -1 16 -2t13 -5t11.5 -11t4.5 -19z" />
    <glyph glyph-name="o" unicode="o" horiz-adv-x="414" 
d="M381 313q22 -120 -30 -226q-26 -53 -69 -85q-48 -36 -103 -29t-94 55q-48 57 -58 156q-8 110 45 201q25 43 61 69q48 35 101.5 28t93.5 -53q40 -47 53 -116zM266 118q39 68 31 157q-4 26 -4 28q-11 43 -33 67q-33 36 -73 10q-23 -14 -38 -40q-47 -81 -30 -178
q8 -49 34 -77q33 -36 74 -10q22 14 39 43z" />
    <glyph glyph-name="o" unicode="&#xf8;" horiz-adv-x="414" 
d="M381 313q22 -120 -30 -226q-26 -53 -69 -85q-48 -36 -103 -29t-94 55q-48 57 -58 156q-8 110 45 201q25 43 61 69q48 35 101.5 28t93.5 -53q40 -47 53 -116zM266 118q39 68 31 157q-4 26 -4 28q-11 43 -33 67q-33 36 -73 10q-23 -14 -38 -40q-47 -81 -30 -178
q8 -49 34 -77q33 -36 74 -10q22 14 39 43z" />
    <glyph glyph-name="o" unicode="&#xf6;" horiz-adv-x="414" 
d="M381 313q22 -120 -30 -226q-26 -53 -69 -85q-48 -36 -103 -29t-94 55q-48 57 -58 156q-8 110 45 201q25 43 61 69q48 35 101.5 28t93.5 -53q40 -47 53 -116zM266 118q39 68 31 157q-4 26 -4 28q-11 43 -33 67q-33 36 -73 10q-23 -14 -38 -40q-47 -81 -30 -178
q8 -49 34 -77q33 -36 74 -10q22 14 39 43z" />
    <glyph glyph-name="o" unicode="&#xf5;" horiz-adv-x="414" 
d="M381 313q22 -120 -30 -226q-26 -53 -69 -85q-48 -36 -103 -29t-94 55q-48 57 -58 156q-8 110 45 201q25 43 61 69q48 35 101.5 28t93.5 -53q40 -47 53 -116zM266 118q39 68 31 157q-4 26 -4 28q-11 43 -33 67q-33 36 -73 10q-23 -14 -38 -40q-47 -81 -30 -178
q8 -49 34 -77q33 -36 74 -10q22 14 39 43z" />
    <glyph glyph-name="o" unicode="&#xf4;" horiz-adv-x="414" 
d="M381 313q22 -120 -30 -226q-26 -53 -69 -85q-48 -36 -103 -29t-94 55q-48 57 -58 156q-8 110 45 201q25 43 61 69q48 35 101.5 28t93.5 -53q40 -47 53 -116zM266 118q39 68 31 157q-4 26 -4 28q-11 43 -33 67q-33 36 -73 10q-23 -14 -38 -40q-47 -81 -30 -178
q8 -49 34 -77q33 -36 74 -10q22 14 39 43z" />
    <glyph glyph-name="o" unicode="&#xf3;" horiz-adv-x="414" 
d="M381 313q22 -120 -30 -226q-26 -53 -69 -85q-48 -36 -103 -29t-94 55q-48 57 -58 156q-8 110 45 201q25 43 61 69q48 35 101.5 28t93.5 -53q40 -47 53 -116zM266 118q39 68 31 157q-4 26 -4 28q-11 43 -33 67q-33 36 -73 10q-23 -14 -38 -40q-47 -81 -30 -178
q8 -49 34 -77q33 -36 74 -10q22 14 39 43z" />
    <glyph glyph-name="o" unicode="&#xf2;" horiz-adv-x="414" 
d="M381 313q22 -120 -30 -226q-26 -53 -69 -85q-48 -36 -103 -29t-94 55q-48 57 -58 156q-8 110 45 201q25 43 61 69q48 35 101.5 28t93.5 -53q40 -47 53 -116zM266 118q39 68 31 157q-4 26 -4 28q-11 43 -33 67q-33 36 -73 10q-23 -14 -38 -40q-47 -81 -30 -178
q8 -49 34 -77q33 -36 74 -10q22 14 39 43z" />
    <glyph glyph-name="p" unicode="p" horiz-adv-x="463" 
d="M387 414q10 -13 19.5 -28.5t20 -45t13 -61.5t-7 -76.5t-33.5 -89.5q-52 -100 -175 -106q-3 -1 -74 -1q1 -12 -1 -66.5t-1 -67.5q5 -78 5 -83q1 -21 -10 -39q-13 -23 -38 -24t-41 20q-11 15 -14 43q-20 206 -5 505q3 54 9 127q1 16 7 29q6 15 20 22.5t30 4.5q10 -2 18 -8
t13 -15.5t5 -20.5q1 -4 0 -12.5t-1 -11.5v-21l6 11t19.5 27.5t30.5 24.5q52 27 99.5 17.5t85.5 -54.5zM295 134q19 17 28 78.5t-8 102.5q-6 13 -25 30q-10 6 -26 7.5t-33.5 -2t-33 -10.5t-26.5 -21t-13 -32q-1 -13 -3.5 -26t-3 -18.5t-1.5 -22.5t0 -39v-28q0 -17 9 -29.5
t25 -13.5q78 -6 111 24z" />
    <glyph glyph-name="q" unicode="q" horiz-adv-x="476" 
d="M146 436q23 16 55.5 25t72 1.5t63.5 -38.5q11 23 11 24q9 15 24 21t30.5 1t24 -18.5t6.5 -31.5q1 -93 -1 -364t-3 -277q0 -15 -3 -24t-12 -12.5t-14 -4t-19 -1.5h-14t-13 2.5t-11 6.5t-8.5 12.5t-4.5 20.5l-0.5 121.5t-0.5 122.5q-49 -23 -122 -25q-23 -1 -46.5 3.5
t-50.5 20.5t-46.5 42t-31 72.5t-8.5 107.5q10 66 38 108.5t84 83.5zM312 140q3 15 5 56.5t2.5 86t0.5 48.5q-1 22 -21.5 34t-45.5 11.5t-42 -12.5q-80 -55 -79 -163q-1 -95 88 -110q32 -5 56 9.5t36 39.5z" />
    <glyph glyph-name="r" unicode="r" horiz-adv-x="360" 
d="M332 460q27 -22 22 -49q-7 -34 -38 -39q-36 5 -81 -26t-75 -95q-6 -19 -7.5 -89t-6.5 -104q-3 -16 -9 -29q-5 -11 -13.5 -18t-19 -9.5t-21.5 -0.5q-17 2 -28 13.5t-15 28.5q0 5 -1 13q-2 168 3 240q1 7 6 122q0 1 0.5 6t0.5 7q2 20 14.5 32t31 12t31 -12t14.5 -32
q1 -6 1 -13v-15.5t1 -12.5q0 -1 1 -21q0 -1 1.5 -1t2.5 -1q16 22 17 23q25 34 65 60q32 21 66 21q22 0 37 -11z" />
    <glyph glyph-name="s" unicode="s" horiz-adv-x="363" 
d="M330 171q0 -2 8 -33q2 -30 -7 -56t-28 -46.5t-48 -34.5q-67 -31 -122 -20q-46 9 -74.5 41t-30.5 77q-1 31 25 49q23 16 46.5 6.5t27.5 -34.5q1 -3 1 -9v-9q2 -11 15 -20.5t35 -8.5t43 18q13 9 14.5 32.5t-19.5 43.5q-7 5 -60 40q-8 5 -24 15.5t-29 18.5t-24 17
q-25 20 -37 50t-11 58.5t13 53.5q17 35 52.5 55t71.5 23t68 -3t47 -18q20 -13 31.5 -36t8.5 -45q-1 -9 -5.5 -16t-11.5 -12t-16 -7q-29 -6 -46 17q-4 6 -5 9q-3 14 -22 21.5t-34 7.5q-16 0 -29 -10t-19 -24q-6 -15 -3 -30.5t16 -24.5q14 -11 56 -37q6 -4 25 -14.5t28 -17.5
q57 -40 73 -87z" />
    <glyph glyph-name="t" unicode="t" horiz-adv-x="189" 
d="M207 601q19 0 32.5 -14t13.5 -33.5t-13.5 -33t-32.5 -13.5h-65v-39q0 -43 4 -198t4 -199q0 -18 -1 -26q-3 -20 -17.5 -32.5t-34 -12t-33.5 13.5t-17 33v24q0 41 -4.5 165.5t-4.5 166.5v104h-57q-20 0 -33.5 13.5t-13.5 33t13.5 33.5t33.5 14h57v2v27v16q2 22 16 37t35 15
q22 1 37 -14t16 -39v-44h65z" />
    <glyph glyph-name="u" unicode="u" horiz-adv-x="414" 
d="M385 427q7 -33 -2 -135t-32 -157q-19 -61 -72 -111q-34 -33 -78 -34t-81 30q-65 52 -80 148q-22 148 1 247q3 16 13 30q9 16 25 21t32 -2q10 -4 17 -12.5t9 -19t-1 -22.5q-4 -17 -5.5 -38t-2 -35.5t2.5 -44t3.5 -37.5t5 -42t5.5 -35q6 -46 35 -73q24 -22 45 1
q30 14 51 128.5t9 169.5q-5 22 5.5 39.5t31.5 22.5q14 4 27.5 0t23 -14t12.5 -25z" />
    <glyph glyph-name="u" unicode="&#xfc;" horiz-adv-x="414" 
d="M385 427q7 -33 -2 -135t-32 -157q-19 -61 -72 -111q-34 -33 -78 -34t-81 30q-65 52 -80 148q-22 148 1 247q3 16 13 30q9 16 25 21t32 -2q10 -4 17 -12.5t9 -19t-1 -22.5q-4 -17 -5.5 -38t-2 -35.5t2.5 -44t3.5 -37.5t5 -42t5.5 -35q6 -46 35 -73q24 -22 45 1
q30 14 51 128.5t9 169.5q-5 22 5.5 39.5t31.5 22.5q14 4 27.5 0t23 -14t12.5 -25z" />
    <glyph glyph-name="u" unicode="&#xfb;" horiz-adv-x="414" 
d="M385 427q7 -33 -2 -135t-32 -157q-19 -61 -72 -111q-34 -33 -78 -34t-81 30q-65 52 -80 148q-22 148 1 247q3 16 13 30q9 16 25 21t32 -2q10 -4 17 -12.5t9 -19t-1 -22.5q-4 -17 -5.5 -38t-2 -35.5t2.5 -44t3.5 -37.5t5 -42t5.5 -35q6 -46 35 -73q24 -22 45 1
q30 14 51 128.5t9 169.5q-5 22 5.5 39.5t31.5 22.5q14 4 27.5 0t23 -14t12.5 -25z" />
    <glyph glyph-name="u" unicode="&#xfa;" horiz-adv-x="414" 
d="M385 427q7 -33 -2 -135t-32 -157q-19 -61 -72 -111q-34 -33 -78 -34t-81 30q-65 52 -80 148q-22 148 1 247q3 16 13 30q9 16 25 21t32 -2q10 -4 17 -12.5t9 -19t-1 -22.5q-4 -17 -5.5 -38t-2 -35.5t2.5 -44t3.5 -37.5t5 -42t5.5 -35q6 -46 35 -73q24 -22 45 1
q30 14 51 128.5t9 169.5q-5 22 5.5 39.5t31.5 22.5q14 4 27.5 0t23 -14t12.5 -25z" />
    <glyph glyph-name="u" unicode="&#xf9;" horiz-adv-x="414" 
d="M385 427q7 -33 -2 -135t-32 -157q-19 -61 -72 -111q-34 -33 -78 -34t-81 30q-65 52 -80 148q-22 148 1 247q3 16 13 30q9 16 25 21t32 -2q10 -4 17 -12.5t9 -19t-1 -22.5q-4 -17 -5.5 -38t-2 -35.5t2.5 -44t3.5 -37.5t5 -42t5.5 -35q6 -46 35 -73q24 -22 45 1
q30 14 51 128.5t9 169.5q-5 22 5.5 39.5t31.5 22.5q14 4 27.5 0t23 -14t12.5 -25z" />
    <glyph glyph-name="v" unicode="v" horiz-adv-x="411" 
d="M370 469q17 -6 26 -22t5 -34q-1 -6 -3 -11q-6 -15 -15 -37t-16 -38.5t-15 -37.5t-15 -38q-5 -13 -19.5 -50t-22.5 -57q-17 -39 -41 -89q-9 -18 -21 -31q-18 -21 -44 -22t-45 18q-21 22 -32 47q-35 84 -58 160.5t-31 152.5q-1 6 -3 17t-3 16q-2 19 7 32.5t27 18.5
q16 4 31.5 -3.5t22.5 -24.5q5 -12 15 -53q35 -142 60 -207q1 -1 9 -19q17 42 18 44q41 102 48 120t20 52.5t20 50.5q6 14 12 25q11 16 28.5 21.5t34.5 -1.5z" />
    <glyph glyph-name="w" unicode="w" horiz-adv-x="600" 
d="M567 389q11 -153 -22 -258q-24 -75 -83 -127q-45 -39 -94.5 -28.5t-75.5 65.5q-1 1 -10 23q-14 -16 -15 -17q-27 -29 -59 -41q-59 -22 -108.5 19.5t-59.5 122.5q-12 89 -2 223q2 28 5 51q4 21 18 33.5t34 9.5q19 -2 30.5 -17t9.5 -37t-2.5 -46t0.5 -49.5t2 -45t3 -49
t3 -46.5q1 -19 9 -43q2 -6 14 -11.5t28 -2t25 20.5q9 16 15 40t8.5 49t4 49t3.5 47t5 37q3 13 6 21q7 17 21.5 25.5t31.5 6.5q16 -2 28.5 -13t15.5 -28q4 -16 3 -35q-2 -36 4 -118t14 -108q0 -3 2.5 -6t6.5 -5.5t8.5 -4t10 0.5t11 6.5t11.5 14.5t11 26q21 67 24 96t3 129
q0 11 -7 35q-6 22 2 40.5t27 26.5t38 0.5t28 -27.5q13 -29 14 -55z" />
    <glyph glyph-name="x" unicode="x" horiz-adv-x="386" 
d="M271 205q36 -55 80 -135q11 -20 7 -38.5t-21 -28.5q-15 -9 -33.5 -4t-30.5 23q-17 26 -77 113q-19 -31 -30 -47q-16 -26 -40 -61q-13 -19 -32.5 -25t-37.5 4t-23.5 29t3.5 41q5 12 15 27q30 47 81 124q-44 64 -63 92q-17 25 -40 61q-12 20 -9.5 40t18 32.5t35.5 10
t36 -19.5q9 -9 20 -25q21 -31 65 -97q11 18 24 37q20 30 65 87q14 18 32.5 22t33.5 -7q15 -12 17.5 -30.5t-9.5 -36.5q-22 -33 -102 -163z" />
    <glyph glyph-name="y" unicode="y" horiz-adv-x="443" 
d="M398 471q18 -4 27 -20t5 -36q-3 -18 -8.5 -37.5t-14.5 -44t-13.5 -37.5t-16.5 -43t-15 -36q-25 -67 -76 -203.5t-75 -196.5q-2 -6 -5 -15.5t-6 -18.5t-6 -16q-8 -18 -26 -25.5t-36 -1.5q-19 6 -29 23t-6 37q2 9 6 19q7 19 27 80t31 89q4 12 3.5 20.5t-6.5 25.5
q-1 0 -8.5 16t-18 40t-24.5 55.5t-28 66t-27 68.5t-23 66.5t-15 56.5q-3 15 -2 28q1 15 10.5 26t23.5 15q16 3 29.5 -2.5t20.5 -19.5q3 -5 8 -21q5 -15 52.5 -122t56.5 -133q0 -1 11 -26q41 104 43 111q10 25 36.5 86.5t37.5 91.5q8 20 23 29.5t34 4.5z" />
    <glyph glyph-name="y" unicode="&#xff;" horiz-adv-x="443" 
d="M398 471q18 -4 27 -20t5 -36q-3 -18 -8.5 -37.5t-14.5 -44t-13.5 -37.5t-16.5 -43t-15 -36q-25 -67 -76 -203.5t-75 -196.5q-2 -6 -5 -15.5t-6 -18.5t-6 -16q-8 -18 -26 -25.5t-36 -1.5q-19 6 -29 23t-6 37q2 9 6 19q7 19 27 80t31 89q4 12 3.5 20.5t-6.5 25.5
q-1 0 -8.5 16t-18 40t-24.5 55.5t-28 66t-27 68.5t-23 66.5t-15 56.5q-3 15 -2 28q1 15 10.5 26t23.5 15q16 3 29.5 -2.5t20.5 -19.5q3 -5 8 -21q5 -15 52.5 -122t56.5 -133q0 -1 11 -26q41 104 43 111q10 25 36.5 86.5t37.5 91.5q8 20 23 29.5t34 4.5z" />
    <glyph glyph-name="y" unicode="&#xfd;" horiz-adv-x="443" 
d="M398 471q18 -4 27 -20t5 -36q-3 -18 -8.5 -37.5t-14.5 -44t-13.5 -37.5t-16.5 -43t-15 -36q-25 -67 -76 -203.5t-75 -196.5q-2 -6 -5 -15.5t-6 -18.5t-6 -16q-8 -18 -26 -25.5t-36 -1.5q-19 6 -29 23t-6 37q2 9 6 19q7 19 27 80t31 89q4 12 3.5 20.5t-6.5 25.5
q-1 0 -8.5 16t-18 40t-24.5 55.5t-28 66t-27 68.5t-23 66.5t-15 56.5q-3 15 -2 28q1 15 10.5 26t23.5 15q16 3 29.5 -2.5t20.5 -19.5q3 -5 8 -21q5 -15 52.5 -122t56.5 -133q0 -1 11 -26q41 104 43 111q10 25 36.5 86.5t37.5 91.5q8 20 23 29.5t34 4.5z" />
    <glyph glyph-name="z" unicode="z" horiz-adv-x="390" 
d="M324 319q-24 -31 -73 -98t-77 -101q-2 -2 -3.5 -5t-4.5 -6.5t-5 -6.5q44 -4 95 -2q25 1 41 -1q22 -3 34.5 -16.5t12.5 -33.5q0 -13 -5.5 -23.5t-15.5 -17.5t-24 -9q-20 -2 -120 -1.5t-111 2.5q-35 5 -48 33t6 57q8 11 47 61.5t92.5 119.5t71.5 93l3 8q-8 0 -21 -0.5
t-24 -0.5t-20 -1q-75 -1 -87 -1q-20 0 -33 11t-15 28q-3 18 7 32.5t29 19.5q8 2 20 3q36 3 118.5 4.5t107.5 -0.5q34 -3 47.5 -28.5t-2.5 -55.5q-17 -31 -43 -64z" />
    <glyph glyph-name="asciitilde" unicode="~" horiz-adv-x="633" 
d="M603 430q17 -23 4 -50q-7 -12 -17 -22q-64 -64 -147 -49q-12 2 -85 21q-5 1 -24.5 6t-26 6.5t-23.5 5.5t-26.5 5.5t-24 3.5t-27 2.5t-25.5 -0.5q-16 0 -45 -5q-21 -3 -35 -20q-13 -15 -29.5 -17.5t-31.5 7.5t-19 27t5 35q15 31 53 50t91 24q4 0 62 2q77 -10 182 -40
q17 -5 41 -10q35 -7 60 17q17 17 40 21q31 4 48 -20z" />
    <glyph glyph-name="nonbreakingspace" unicode="&#xa0;" horiz-adv-x="274" 
 />
    <glyph glyph-name="softhyphen" unicode="&#xad;" 
 />
    </font>
</defs>
</svg>
