<?xml version="1.0" standalone="no"?>
<!DOCTYPE svg PUBLIC "-//W3C//DTD SVG 1.1//EN" "http://www.w3.org/Graphics/SVG/1.1/DTD/svg11.dtd" >
<svg xmlns="http://www.w3.org/2000/svg" xmlns:xlink="http://www.w3.org/1999/xlink" version="1.1">
<metadata>
Created by FontForge 20170731 at Fri Apr 22 03:37:06 2022
 By Aleksey,,,
</metadata>
<defs>
<font id="TheWinterSoldierRegular" horiz-adv-x="471" >
  <font-face 
    font-family="The Winter Soldier"
    font-weight="400"
    font-stretch="normal"
    units-per-em="2048"
    panose-1="0 0 0 0 0 0 0 0 0 0"
    ascent="1638"
    descent="-410"
    x-height="1430"
    cap-height="1449"
    bbox="-73.3846 -175.667 977 1586.64"
    underline-thickness="102"
    underline-position="-307"
    unicode-range="U+000A-2122"
  />
<missing-glyph horiz-adv-x="1079" 
d="M102 1434h875v-1434h-875v1434zM160 1393l379 -633l381 633h-760zM514 717l-369 614v-1231zM541 674l-379 -631h758zM565 717l371 -621v1239z" />
    <glyph glyph-name=".notdef" horiz-adv-x="1079" 
d="M102 1434h875v-1434h-875v1434zM160 1393l379 -633l381 633h-760zM514 717l-369 614v-1231zM541 674l-379 -631h758zM565 717l371 -621v1239z" />
    <glyph glyph-name=".null" horiz-adv-x="0" 
 />
    <glyph glyph-name=".null" horiz-adv-x="0" 
 />
    <glyph glyph-name="nonmarkingreturn" horiz-adv-x="682" 
 />
    <glyph glyph-name="controlLF" unicode="&#xa;" horiz-adv-x="0" 
 />
    <glyph glyph-name="controlCR" unicode="&#xd;" horiz-adv-x="0" 
 />
    <glyph glyph-name="space" unicode=" " horiz-adv-x="288" 
 />
    <glyph glyph-name="exclam" unicode="!" horiz-adv-x="288" 
d="M112 217q-1 9 -1 28q-1 15 -3 44.5t-2 44.5v30.5t-1 30.5q-1 24 -2 72.5t-2 72.5q0 6 0.5 20t0.5 20q0 18 -2 54l-3 54v55q0 4 1 17.5t0 22.5t-4 18q-1 3 -1 10q1 8 0 46t-1 46q0 17 -2 48t-2 41v37l-3 114q0 7 -2 19q-2 8 -2 12q3 21 0.5 64.5t-0.5 64.5q0 1 0.5 4
t0.5 5q0 25 22 34q6 3 28 13q6 -4 16 -11.5t15 -11.5q14 -60 9 -91q-2 -11 3 -45q2 -10 0.5 -37.5t-1.5 -36.5q6 -112 8 -172q0 -6 1 -19t1.5 -20.5t-0.5 -18t-4 -19.5q2 -8 2 -24t1 -22q2 -19 2 -53.5t1 -47.5q1 -14 1 -47t2 -51q1 -11 1 -36t2 -38q1 -10 1 -88
q0 -33 2 -49q3 -23 1 -68q0 -7 2 -21q0 -2 1 -6t1 -6q1 -31 1 -93q0 -27 -17 -45q-14 -14 -30 -7q-4 2 -12 4q-27 7 -30 38zM209 77q5 -12 1 -29t-16 -26q-30 -20 -56 -5q-23 13 -27.5 37.5t12.5 44.5q4 5 12 12t10 9q26 2 33 -5l8.5 -8.5l9 -9t7.5 -9t6 -11.5z" />
    <glyph glyph-name="numbersign" unicode="#" horiz-adv-x="684" 
d="M654 997q3 -21 -19 -36q-23 -16 -52 -13q-21 3 -64 5q-4 0 -19 -5q-8 -66 -14 -90q-3 -11 -13 -85q-3 -27 -10 -48q-5 -16 -3 -21q4 -13 -2 -36q-1 -5 -1.5 -21.5t-5.5 -23.5q-5 -8 -7 -23.5t-3 -18.5q-2 -8 -4 -28q-1 -5 -2 -16t-2.5 -19.5t-5.5 -15.5q-1 -2 -1 -19
q11 -4 14 -5q42 -7 55 -7q20 0 31 -22q9 -17 3 -31.5t-24 -22.5q-21 -8 -39 -7q-33 2 -50 -5q-13 -25 -14 -51q-1 -15 -5 -40q-14 -83 -15 -88q-2 -21 -7 -32q-4 -7 -4 -18q-1 -20 -16 -112q-7 -41 -37 -62q-28 2 -51 37q-3 4 -3 11q1 9 0.5 17t0 17t3.5 15q5 12 8 35.5
t6 33.5q11 35 11 70l6 36q3 19 9 56.5t9 56.5q1 9 0 18q-3 18 -21 15q-19 -4 -43 3q-6 2 -29 4q-10 -7 -14 -27q-1 -3 -6 -34.5t-9 -47.5q-9 -37 -7 -52q1 -4 -2 -11t-3 -9q-9 -51 -9 -52q0 -19 -7 -45q-6 -26 -7 -39q-3 -36 -19 -77q-1 -3 -12 -19q-5 -8 -18 -8h-4
q-4 1 -10.5 1.5t-11.5 2t-9 5.5q-17 21 -17 52q0 4 2.5 12.5t2.5 11.5q5 25 14.5 76t13.5 76q2 9 8.5 48t11.5 60q2 9 10 67q2 11 -12 16q-14 4 -20 7q-1 1 -21 13q-3 20 -2 25q3 35 39 42q3 1 9 1q18 0 22.5 3.5t8.5 25.5q14 76 19 115q3 26 9 51v6q9 25 15 73.5t11 68.5
q5 17 9 55q1 16 8 36q6 19 -1 43q-35 4 -44 5q-12 1 -48 12q-11 3 -17 20q-1 2 -1 6t-1 6q-3 19 1 26.5t20 14.5q20 9 42 8q7 -1 20.5 -2t19.5 -2q23 -2 32 4q4 21 10.5 61t9.5 59q1 5 2.5 14t2.5 13q2 8 4 24t3 22q8 38 8 45q1 22 22 47q11 15 30.5 12.5t30.5 -18.5
q16 -24 8 -52q-5 -19 -17 -93q-3 -20 -10.5 -62t-10.5 -63q-1 -3 -1 -9t-1 -9q5 -5 8 -5q38 -6 61 -8q11 -1 27 9q16 82 23 123q2 9 4 27q4 48 18 116q5 26 18 41q12 14 29 14.5t29 -14.5q17 -20 13 -43v-7.5t-1 -7.5q-6 -18 -6 -37q0 -4 -5 -27q-1 -4 -5 -19t-5 -23
q-5 -70 -17 -125q-1 -5 -1.5 -15t-0.5 -13q12 -12 37 -12q40 0 72 -14q23 -10 25 -29zM406 911q5 37 -1 50q-48 6 -72 8q-18 1 -22 -17q-1 -5 -3 -15.5t-3 -15.5q-3 -19 -10 -57.5t-11 -57.5q-2 -13 -6 -39.5t-7 -39.5q-1 -5 -4 -17.5t-3.5 -18t0.5 -18.5q0 -4 -1 -6
q-21 -79 -19 -115q0 -2 -1.5 -6t-1.5 -5q-8 -30 -12 -46q4 0 11 -2t11 -2q6 0 18 -0.5t22 -1t18 -1.5q20 -2 27 3.5t8 25.5q5 59 8 74q8 44 11 82q1 9 5.5 22.5t5.5 18.5q2 8 2.5 22t1.5 20t2.5 13t3.5 15.5t3 13.5q7 37 19 113z" />
    <glyph glyph-name="dollar" unicode="$" horiz-adv-x="462" 
d="M310 1085q-5 27 -3 46q5 38 -19 66q-14 17 -31 10q-23 -7 -36 -27q-38 -59 -43 -110q-5 -54 3 -78q1 -4 5.5 -11t5.5 -11q8 -25 36 -59q19 -23 36 -37q27 -23 37 -39q4 -7 14 -19.5t13 -17.5q13 -20 28 -73q17 -64 20 -79q4 -28 6 -57q2 -28 4 -84q0 -34 -2 -43
q-1 -6 -1.5 -13.5t-1 -16t-0.5 -13.5q-1 -9 -3.5 -26.5t-3.5 -22.5q-4 -26 -4 -40q0 -4 -1 -9t-2.5 -11t-2.5 -9q-9 -50 -20 -84q-24 -74 -78 -104q-11 -7 -11 -20q0 -9 -0.5 -28.5t-0.5 -28.5q0 -21 -16 -40q-9 -10 -24 -9q-2 0 -4 1t-4 1q-24 3 -29 30q-1 7 -1 60
q0 11 -2 13.5t-12 4.5q-22 5 -36 19q-8 8 -12 11q-43 30 -49 87q0 2 -0.5 5.5t-1 6.5t-1.5 6q-6 16 -3 32q1 3 -1 9.5t-1 9.5q0 6 1 12t2.5 13t2.5 11q21 17 35 18q30 2 33 -27q8 -61 8 -67q0 -25 22 -52q9 -11 29 -13q5 -1 14.5 0t12.5 1q11 0 23 14q25 28 33 65
q5 22 13 66q0 1 0.5 5t1.5 6q8 12 10 55q2 56 7 100q2 17 -3 100q-2 22 -3 32q-9 71 -32 120q-12 26 -43 63q-4 5 -10 10t-13.5 10.5t-11.5 8.5q-74 65 -89 161q-7 44 -2 76l3 21t3.5 22.5t5 20.5t7.5 21q8 16 13 24q9 14 26.5 41.5t25.5 39.5q-5 52 -5 71q0 56 5 73
q20 13 23 14q13 6 25 1t17 -19q9 -22 9 -53q0 -9 1.5 -27t1.5 -22q20 -8 24 -8q22 -3 51 -28q37 -33 43 -68q0 -4 1 -5q6 -7 8.5 -16.5t3 -16t-0.5 -18.5t-1 -17q0 -18 -11 -44q-10 -25 -43 -18q-21 5 -24 25z" />
    <glyph glyph-name="percent" unicode="%" horiz-adv-x="669" 
d="M396 691q-7 -25 -32 -107q-5 -16 -14.5 -47t-14.5 -46q-1 -2 -5 -18.5t-7 -24.5q-10 -30 -21 -56q-13 -30 -13 -50q0 -19 -4 -26q-8 -15 -33 -95q-27 -87 -30 -97q-4 -13 -14.5 -42t-14.5 -46q-11 -50 -74 -53l-9 9t-8 9q-17 21 -14 48q3 25 29 104q3 8 33 107
q5 15 17 52.5t18 57.5q3 10 20 60.5t21 79.5q3 22 19 57q8 17 27 85q3 11 10 31.5t8 24.5q49 162 64 211q3 11 14.5 44.5t16.5 51.5q3 12 11.5 33.5t13.5 39.5t6 35v3q28 82 38 106q13 29 14 50q3 40 30 75q19 25 46.5 22t41.5 -31q4 -8 6 -14q-10 -77 -42 -146
q-4 -9 -6 -18q-4 -24 -12 -49.5t-20 -58.5t-17 -48q-9 -27 -9 -28q0 -29 -15 -61q-7 -14 -16 -48t-19 -50q-2 -21 -9 -44t-17 -50t-14 -42zM611 213q1 -6 5 -22.5t4.5 -23t-0.5 -23.5q0 -2 -1.5 -10t-3.5 -11q-9 -10 -19.5 -37.5t-22.5 -37.5q-18 -16 -28 -24q-8 -6 -13 -7
q-46 -13 -88 -7q-17 3 -38 15q-27 15 -51 58q-29 50 -12 101q19 58 41 87q31 39 84 42q2 0 4.5 -0.5t7 -1t8.5 -0.5h17q21 -3 22 -4q5 -4 25 -18t28 -21t18 -22t13 -33zM506 143q3 10 1 22q-4 24 -17 37q-19 3 -31 -16q-13 -23 -10 -39q2 -11 11.5 -19.5t19.5 -8.5
q8 0 15.5 6.5t10.5 17.5zM154 1100q-47 10 -61 32q-4 6 -17 19t-18 23q-32 65 10 151q21 41 63 47q10 2 30.5 6t31.5 5q16 2 29 -4q47 -21 65 -48q32 -47 29 -93q1 -35 -16 -61.5t-49 -57.5q-3 -3 -9.5 -7t-9.5 -6q-22 -18 -49 -10q-5 1 -14.5 2t-14.5 2zM165 1263
q-11 -11 -9 -26.5t16 -24.5q13 -9 23 3q13 14 8 35q-1 7 -10 13.5t-16 6.5q-1 0 -5.5 -2.5t-6.5 -4.5z" />
    <glyph glyph-name="ampersand" unicode="&#x26;" horiz-adv-x="530" 
d="M477 -20q6 -31 -17 -56q-7 -8 -20 -8q-10 0 -25 8t-19 17q-5 10 -28 58l-8 16q-3 4 -10 11h-7q-27 -19 -79 -23q-56 -3 -94 31q-1 0 -16 13.5t-22 21.5q-13 18 -21 34q-22 44 -30 125q4 16 4 51.5t5 52.5q3 10 5 30t3 24q0 4 1 6q5 10 9 28.5t6 24.5l6 24t7 24
q9 27 16 46q7 16 0 36q-2 5 -15 53q-11 37 -11 42q-2 21 -21 105v1l-1 2q2 17 -4.5 50t-5.5 50l-3 25q0 2 -1 5t-1.5 5.5t-0.5 4.5q3 8 1 35t-2 35t-0.5 35.5t1.5 34.5q2 12 4 34.5t3.5 37t6 33.5t10.5 35q18 46 27 58q41 58 85 66q20 4 27 2q6 -2 19 -2q22 0 45 -18
q35 -26 56 -56q3 -5 19 -39q2 -5 5.5 -15.5t5.5 -15.5q5 -13 8.5 -27.5t6 -35.5t3.5 -28q2 -5 0 -9q-6 -13 -5.5 -38.5t-3.5 -39.5q-2 -6 -3.5 -19.5t-3.5 -19.5q-3 -10 -7.5 -28.5t-8 -30t-9 -27t-12.5 -28.5q-12 -23 -19 -56q-2 -10 -10 -27t-9 -21q-7 -21 -17 -46
q-4 -10 -12 -29.5t-12 -29.5q-1 -3 -4 -8.5t-4 -8.5t-5.5 -10.5t-5.5 -11t0 -12.5q1 -1 -1 -5q-18 -32 4 -89q5 -13 15.5 -38.5t14.5 -38.5q1 -3 9.5 -30.5t16.5 -40.5l3 -6q-1 -14 8.5 -38t10.5 -27q0 -2 23 -47q15 9 15 31q0 36 1 55q1 33 35 46q22 9 46 -10
q18 -15 11 -39l-3 -24q-5 -71 -23 -114q-3 -9 -9.5 -31t-11.5 -33q-5 -10 4 -26q4 -8 36 -68q12 -25 13 -34zM172 917q0 -2 -1 -9.5t0 -11.5q2 -11 5.5 -45t10.5 -52q1 -3 1 -7.5v-7.5q0 -1 3.5 -25.5t8.5 -35.5q3 -8 8 -6q12 11 21 36q2 7 21 58q18 46 26 69q2 6 7.5 24.5
t9.5 28.5q14 36 15 56l3 12l3 18q4 26 5 39q2 18 1 28q-8 68 -29 103q-9 15 -24 31q-11 13 -37 13q-4 0 -7 -2.5t-4 -4.5t-3 -7t-3 -6q-1 -3 -5 -7q-5 -7 -15.5 -32t-11.5 -32l-9 -45q-7 -43 -4 -70q4 -25 1 -43q-3 -21 1 -39q2 -9 2 -28zM303 109q5 5 5 14q0 2 -5 12
q-6 14 -17.5 42.5t-17.5 42.5q-3 8 -9.5 23t-9.5 22q-6 17 -17.5 51t-17.5 51q-3 7 -11 21q-2 3 -6.5 2t-6.5 -5q0 -1 -1.5 -3.5t-1.5 -4.5q-1 -10 -6 -40.5t-6 -47.5q-3 -52 -1 -61v-9l-1 -1v-11t2 -13q3 -7 11 -25t11 -28q5 -17 31 -37q17 -13 39 -11t36 16z" />
    <glyph glyph-name="quotesingle" unicode="'" horiz-adv-x="163" 
d="M129 1342q2 -10 2 -21.5t-1 -25t-1 -20.5q0 -27 -29 -34q-2 -1 -8 -2t-8 -1q-22 -5 -30 15q-15 36 -15 53q0 8 -2.5 26t-1.5 28q1 8 -2 49q-2 32 -4 46q-4 27 -2 65q0 18 21 32q15 9 26 3q2 -1 8 -3.5t9 -4.5q23 -13 24 -37q1 -14 2.5 -41t2.5 -41q9 -85 9 -86z" />
    <glyph glyph-name="quotesingle" unicode="&#x2019;" horiz-adv-x="163" 
d="M129 1342q2 -10 2 -21.5t-1 -25t-1 -20.5q0 -27 -29 -34q-2 -1 -8 -2t-8 -1q-22 -5 -30 15q-15 36 -15 53q0 8 -2.5 26t-1.5 28q1 8 -2 49q-2 32 -4 46q-4 27 -2 65q0 18 21 32q15 9 26 3q2 -1 8 -3.5t9 -4.5q23 -13 24 -37q1 -14 2.5 -41t2.5 -41q9 -85 9 -86z" />
    <glyph glyph-name="quotesingle" unicode="&#x2018;" horiz-adv-x="163" 
d="M129 1342q2 -10 2 -21.5t-1 -25t-1 -20.5q0 -27 -29 -34q-2 -1 -8 -2t-8 -1q-22 -5 -30 15q-15 36 -15 53q0 8 -2.5 26t-1.5 28q1 8 -2 49q-2 32 -4 46q-4 27 -2 65q0 18 21 32q15 9 26 3q2 -1 8 -3.5t9 -4.5q23 -13 24 -37q1 -14 2.5 -41t2.5 -41q9 -85 9 -86z" />
    <glyph glyph-name="parenleft" unicode="(" 
d="M425 1388q12 -11 13 -25.5t-10 -25.5q-13 -13 -25 -17q-6 -2 -17 -8t-16 -8q-27 -10 -53 -54q-3 -5 -10 -17.5t-10 -17.5q-14 -26 -23 -50q-3 -7 -14 -30q-1 -2 -12 -38q-1 -5 -4.5 -14.5t-5.5 -14.5q-9 -30 -19 -71q-5 -18 -16 -70q-14 -58 -16 -87q-1 -13 -10 -55
q-6 -26 -4 -58q2 -39 -6 -67q-2 -3 -1.5 -15t0.5 -15q-3 -22 -4 -49t-0.5 -49t-0.5 -49q0 -2 0.5 -4.5t1.5 -5.5t1 -5l3 -18q-3 -23 2 -65.5t5 -57.5q0 -46 17 -102q22 -74 37 -97q7 -10 32 -38q12 -11 25 -4q6 3 16 9.5t16 9.5l18 12q14 7 32 0t24 -21q2 -4 2 -12
q-4 -35 -24 -52q-37 -31 -79 -39q-8 -2 -21 0t-18 2q-16 -1 -32 15q-2 2 -8.5 6t-9.5 7q-38 34 -64 89q-6 13 -11 28t-10.5 33.5t-8.5 28.5q-6 18 -20 90q-1 2 1 17q0 5 -1 10q-9 33 -8 64v19q-5 18 -6.5 40.5t-0.5 41t0 41.5q-1 22 0 61.5t1 52.5q0 6 2 18q3 27 3 28
q-1 35 8 73q5 18 6.5 52t4.5 49q1 5 3 13.5t3.5 15.5t2.5 13q4 23 13.5 65t11.5 52q10 44 19 65q2 5 3.5 16t3.5 16q18 50 28 75q25 63 45 94q35 56 67 84q32 27 65 35q34 9 63 -15z" />
    <glyph glyph-name="parenright" unicode=")" horiz-adv-x="444" 
d="M366 827q0 -2 1 -9t0 -9q-4 -15 -2 -55q1 -6 -2 -39q-1 -8 -1 -24.5v-24.5q-2 -22 -3 -66t-2 -66q-1 -13 -4.5 -36.5t-4.5 -33.5q-6 -70 -14 -97q-2 -7 -3 -14.5t-1.5 -16.5t-1.5 -14q-7 -47 -26 -98q-10 -30 -10 -35q0 -18 -12 -35q-11 -16 -20 -44q-8 -20 -16 -29
q-9 -10 -25.5 -27t-21.5 -22q-4 -5 -18 -11q-47 -17 -92 24q-5 5 -14 16t-14 16q-9 9 -21 48q-6 16 6 26q7 7 8 9q15 32 48 5q5 -4 21 -25q1 -1 4 -6t5 -7q8 -7 12 -9.5t10 -3.5t11 3.5t11 14.5q33 58 38 100q1 5 4 14t4 13l12 51q3 16 8.5 47t8.5 46q4 19 11 95q1 12 2 32
t3 36.5t6 31.5q2 7 2 21q2 18 -0.5 69.5t2.5 69.5q1 5 1 31q-1 40 -5 125q-1 16 -5 43q-2 10 -2 16q1 23 -5 65t-7 54q-1 16 -13 72q-3 14 -9.5 44t-10.5 44q-1 4 -8 20q-1 2 -4.5 9.5t-4.5 12.5q-2 15 -22 44q-13 18 -31 15h-12q-41 6 -35 47q5 38 45 47q45 10 81 -28
q6 -7 39 -47q6 -8 9 -16q33 -82 36 -92q5 -14 10.5 -41.5t6.5 -33.5q4 -16 8.5 -50.5t9.5 -52.5q2 -6 1 -9q-2 -20 -1.5 -27.5t4 -26.5t4.5 -27q2 -17 3 -49.5t2 -42.5q1 -13 3 -38.5t3 -38.5z" />
    <glyph glyph-name="asterisk" unicode="*" 
d="M426 1333q10 -13 7 -27.5t-17 -22.5q-22 -12 -40 -13q-13 -1 -37.5 -6t-30.5 -6q-4 -12 9 -27l33 -39q1 -2 5 -6.5t5 -6.5q9 -11 13 -40q1 -7 -2 -12t-12 -10.5t-10 -6.5q-2 -2 -4.5 -4t-3.5 -3q-25 -8 -54 12q-18 -31 -20 -34q-5 -8 -18 -10q-18 -2 -33 7.5t-19 26.5
q-1 5 -1.5 14.5t-0.5 12.5q0 4 -0.5 11.5t-1.5 11.5q-9 4 -15 -4q-4 -4 -5 -8q-17 -34 -70 -26q-13 1 -18 15q-11 31 6 49q9 10 25 32q3 5 10 15t10 15q-1 12 -15 12q-9 0 -18 -3q-22 -6 -53 19q-11 9 -11 25.5t11 26.5q29 25 53 20q1 0 3 0.5t3 0.5t3 2q7 12 -8 24
q-8 7 -20 24.5t-21 24.5q-12 8 -16 33q-4 24 11 38t39 8q29 -7 39 -26q6 -11 31 -38h2t3.5 0.5t4.5 0.5q-4 50 -5 74q0 23 3 46q2 6 9 12q26 19 52 7q26 -13 26 -48q0 -61 10 -81q7 -3 13 5q3 4 8 11t9 12.5t7 11.5q7 16 35 39q15 12 42 16q20 3 27 -21q11 -45 -18 -73
q-25 -25 -42 -49q-13 -19 -13 -36q13 -8 32 -2q19 7 39 -11l6 -6q6 -5 9 -9z" />
    <glyph glyph-name="plus" unicode="+" horiz-adv-x="452" 
d="M419 811q2 -17 -10 -24q-18 -13 -33 -15q-57 -7 -80 -4q-12 1 -17.5 -5.5t-4.5 -19.5q4 -42 4 -64q0 -16 -6 -48q-1 -5 -11 -15l-10 -5q-30 -15 -53 7q-11 11 -11 24q0 4 -2 38t1 39q3 23 -6 46q-12 0 -34 0.5t-34 1.5h-25q-20 -1 -41 18q-13 13 -11 40q0 2 8 13
q20 21 58 21q13 0 38 -0.5t38 -0.5q4 7 7 41v18.5t1 18.5q1 6 11 31q8 22 35 20q30 -2 36 -24q1 -3 2.5 -8.5t2.5 -10t1 -8.5q1 -8 1 -26t1 -27q1 -15 6 -20t20 -5q11 0 32.5 0.5t32.5 0.5q22 0 36.5 -13t16.5 -35z" />
    <glyph glyph-name="comma" unicode="," horiz-adv-x="155" 
d="M124 46q9 -19 8 -42q1 -13 -12 -76q-5 -25 -32 -73q-11 -19 -32 -28q-20 -8 -32 8q-9 12 -20 33q-4 7 2 21q19 43 32 77q9 22 -1 51q-2 6 -6 19t-6 19q-6 19 4 30.5t28 14.5q42 6 58 -31q6 -16 9 -23z" />
    <glyph glyph-name="hyphen" unicode="-" horiz-adv-x="346" 
d="M320 812q7 -17 -9 -33q-25 -25 -57 -20q-7 3 -38 2t-39 -1q-54 1 -110 6q-16 1 -37 20q-5 5 -7 16q-1 16 10 29q14 14 24 23q35 -1 111 -3q12 -1 36 -2t35 -1q41 -2 52 -5q4 -1 25 -14q1 -3 2 -8.5t2 -8.5z" />
    <glyph glyph-name="period" unicode="." horiz-adv-x="167" 
d="M81 111q23 1 42 -16.5t20 -39.5q1 -25 -17 -43.5t-42 -20.5q-20 -1 -39.5 20t-19.5 44q0 17 20 43q11 13 36 13z" />
    <glyph glyph-name="slash" unicode="/" horiz-adv-x="487" 
d="M426 1444q29 -21 22 -56q-5 -28 -8 -33q-4 -7 -4 -18q-2 -35 -25 -111q-3 -10 -5.5 -28.5t-4.5 -25.5q-4 -18 -7 -27q-13 -35 -22 -92q-4 -35 -13 -47q-4 -7 -6 -18q-3 -24 -16 -62q-1 -2 -1 -6q3 -23 -10 -63q-2 -5 -4 -14t-3 -13q-14 -44 -14 -60q0 -3 -8 -32
q-29 -113 -30 -119q-1 -8 -11.5 -45.5t-9.5 -59.5v-3q-9 -15 -14.5 -45t-9.5 -40l-3 -9q0 -15 -4 -31t-10 -36t-9 -31q-1 -6 -3 -17t-4 -20t-5 -17q-5 -12 -10 -38.5t-11 -38.5q-3 -6 -3 -14q1 -15 -13 -63q-8 -26 -9 -39q-1 -5 -6.5 -23t-3.5 -28q-19 -25 -21 -26
q-3 -2 -7 -3t-10 -1t-9 -1q-25 0 -36 13q-8 10 -8 20q0 8 1 12l18 84q2 8 17 64t20 86q1 8 23 98q24 96 26 108q3 15 12 48.5t12 52.5q1 8 7 24q0 1 3 8.5t3 11.5q-1 13 5 35.5t7 31.5q1 12 7 33t8 29q2 12 10 34.5t10 30.5l12 63q10 48 16 72q1 7 4.5 22t5.5 23q1 5 3.5 14
t3.5 13l6 21q2 16 6.5 34t11 39.5t9.5 33.5q3 11 6.5 31t4.5 26q4 22 12 47q7 25 6 33q0 3 0.5 6t1.5 6.5t1 5.5q2 10 10.5 40t11.5 47q7 32 37 54q15 11 31 -1z" />
    <glyph glyph-name="zero" unicode="0" horiz-adv-x="624" 
d="M297 1431h26q39 4 76 -30q11 -10 20.5 -22.5t20.5 -28.5t17 -24q4 -5 4 -14q0 -8 8 -19.5t9 -16.5q0 -2 1.5 -17t6.5 -22q5 -9 10 -22q6 -17 9 -33q6 -36 8 -54q0 -4 1 -6q11 -28 17 -97q0 -2 1 -5t1 -4q0 -5 5 -20t3 -25q-2 -7 -0.5 -22.5t0.5 -22.5l3 -52q5 -55 4 -64
q-2 -13 0.5 -48t-2.5 -47v-12q-1 -51 -5 -148q0 -10 -2 -15q-4 -10 -9 -61q-2 -30 -4 -36q-2 -9 -6 -37t-9 -42q1 -19 -10 -50.5t-13 -40.5l-6 -27q0 -1 -0.5 -5.5t-1.5 -6.5q-9 -12 -17.5 -44t-20.5 -46q-3 -3 -6 -10.5t-3 -8.5q-25 -47 -61 -80q-17 -16 -77 -29q-4 0 -6 1
q-4 2 -19 7.5t-21.5 9t-16.5 10.5t-17 15q-3 4 -13 14.5t-15 17.5q-2 3 -21 41q-18 37 -20 45q-5 13 -11.5 39t-8.5 32q0 1 -1 4t-1 5q-7 13 -12 39.5t-8 34.5q-1 4 -1.5 11.5t-0.5 9.5q0 1 -1 9.5t-2 12.5q-10 41 -9 72q1 11 -3 33t-4 25q-2 12 -1 18q3 18 -4 33q-2 6 -2 9
v129q0 20 3 63t2 66q0 51 5 70q1 5 1.5 14.5t0.5 12.5q3 25 8.5 74t8.5 73q1 5 3.5 13t3.5 11q2 6 4 17t3 16q9 34 16 59l11 33t11 37q3 14 39 90q21 17 46 57q2 4 14 11q2 2 8 3.5t9 3.5q3 1 11 7t13 7zM167 758q-1 -12 -1.5 -34.5t-0.5 -35.5q0 -54 1 -84q1 -37 6 -77
q7 -71 10 -88q2 -11 4 -42t7 -47q1 -6 2 -12.5t2 -14.5t2 -12q1 -3 6 -14q11 -23 13 -50q2 -29 16 -46q10 -12 13 -27q3 -20 24 -42q30 -34 62 0q4 4 8 10q28 50 29 53q26 59 45 141l12 54q1 4 1 12l3 27q1 10 4 30.5t5 30.5q6 52 9 79q5 50 3 61q-1 4 1 13q4 28 4 104
q0 74 -1 111q-2 46 -4 68q-4 37 -14 125q-3 29 -9 55q-9 40 -29 120q-13 52 -47 96q-14 18 -32.5 17t-31.5 -19q-5 -7 -37 -71q-19 -37 -37 -107q-15 -60 -27 -148q-18 -130 -18 -156q0 -14 -1 -40.5t-2 -39.5z" />
    <glyph glyph-name="one" unicode="1" horiz-adv-x="339" 
d="M160 1123q-1 18 0.5 58.5t-0.5 61.5q-10 -6 -25 -28q-8 -13 -10 -15q-15 -16 -36 -10q-5 2 -14.5 6t-13.5 5q-1 3 -3.5 11t-2.5 12q0 17 3 24q16 42 24 53q9 14 22.5 42t20.5 40q6 10 10 18q16 38 54 37h3q36 8 54 -23q7 -29 3 -55q-1 -6 1 -19q4 -38 -1 -86v-52v-49
q3 -21 1 -46q-2 -28 0 -55v-70q0 -70 -2 -83q-2 -17 -1 -53.5t-3 -53.5v-9l3 -102q0 -8 -1.5 -25.5t-1.5 -26.5q1 -44 -1 -132q0 -13 -1 -39.5t-1 -39.5q0 -16 0.5 -48t0.5 -48t-1 -24q0 -2 -1.5 -7t-0.5 -8q4 -9 2.5 -40t-0.5 -40q2 -24 -1 -43q-3 -30 -1 -52q3 -20 -1 -48
q-2 -20 -31 -49q-8 -8 -20 -3q-32 11 -39 55q-1 6 -1 19q0 57 1 64q2 13 0.5 41.5t1.5 41.5q3 15 1 45q-1 19 1 52.5t2 48.5q0 16 -1 49t-1 50q0 10 -1 41.5t0 52.5t4 41q2 14 1 21q-1 12 -1 145q0 6 -0.5 20t-0.5 20q0 7 2 19q0 1 1.5 4t1.5 4q0 12 -0.5 35.5t-0.5 35.5
q0 11 -1.5 38t-0.5 42q0 9 2.5 56.5t1.5 72.5z" />
    <glyph glyph-name="two" unicode="2" 
d="M212 104v-25q36 -6 50 -6q72 0 108 -2q6 0 41 -13q1 -2 4.5 -10t4.5 -13q5 -19 -5.5 -35t-29.5 -16q-6 0 -17.5 -1.5t-20.5 -1.5t-17 3q-15 -4 -49 -1.5t-49 0.5q-19 -4 -67 3q-29 3 -37 33q-3 9 -5 27q-2 40 -2 62q-1 22 -1 66t-1 66q0 6 1 25.5t0 29.5q-1 16 -0.5 66
t-3.5 66q-2 8 -2 13q0 17 1 49t2 49v13q-4 32 -4 83v83l1 43q0 43 -4 43q-2 15 0 22q6 25 0 64q-5 38 12 97q7 24 40 41t65 51q37 40 46 53q5 7 19 38q25 56 27 79q4 41 0 61q-2 10 -4 15q-10 23 -23 31.5t-39 8.5q-46 0 -73 -34q-5 -6 -33 -47q-19 -29 -50 -12
q-30 16 -24 51q5 36 41 70q18 18 53 42q7 5 34 14q44 14 79 7q30 -6 56 -23q8 -6 55 -50q2 -8 8.5 -22t9.5 -26t2 -24q-1 -9 0.5 -25t1.5 -21q-2 -39 -11 -57l-3 -9q-2 -14 -7.5 -29.5t-10.5 -25t-16 -27.5t-14 -24q-4 -8 -14.5 -23t-13.5 -21l-9 -12q-6 -4 -10.5 -8
t-11 -13t-7.5 -10q-21 -23 -41 -33q-10 -5 -19 -11q-19 -15 -23 -22t-4 -31q0 -19 2 -55q0 -6 2 -17t2 -17q0 -1 1 -5.5t0 -6.5q-4 -8 -2.5 -41t0.5 -41q-1 -16 0 -50.5t-1 -50.5l3 -37q3 -49 1 -110q0 -27 4 -33q3 -4 1 -12q-3 -2 -2.5 -21.5t0.5 -21.5q-4 -63 3 -101
q0 -1 0.5 -3t0.5 -3q-2 -37 -2.5 -52t1.5 -52.5t2 -52.5q0 -3 -1 -10t-1 -11z" />
    <glyph glyph-name="three" unicode="3" horiz-adv-x="448" 
d="M269 1089q-10 -4 -31 -32q15 -17 22 -26q48 -64 52 -105q0 -2 5 -15q8 -22 7 -32t3 -28q1 -5 4 -15.5t4.5 -15.5t3 -15.5t-0.5 -16.5v-3q10 -29 16 -91q6 -71 6 -73q1 -18 1.5 -38.5t1 -45.5t0.5 -39q1 -8 2 -24.5t1 -24.5q2 -44 -1 -67q-1 -15 -0.5 -23t2 -24t1.5 -24
v-34v-74q0 -18 -2 -27q-7 -38 -16 -63q-4 -11 -28 -54q-14 -24 -45 -45q-45 -30 -109 -40q-7 -1 -21 3q-36 10 -59 27q-29 21 -28 51q2 38 35 53q4 -2 12 -6.5t11 -5.5q1 0 2 -1t2.5 -2t2.5 -2q4 -2 13.5 -10t18 -11.5t17.5 -1.5q45 8 72 39q25 28 30 80q2 24 2 74l-2 55
q-2 55 2 55q-3 17 -3 83v71q-1 59 -6 117q-1 14 -6.5 48t-6.5 53q0 11 -5.5 36.5t-4.5 39.5q0 7 -10 45q-6 20 -8 48q-1 9 -18 36q-2 4 -7.5 10t-7.5 9q-24 35 -74 35q-5 0 -15.5 1t-15.5 1q-18 0 -27 17q-1 2 -2.5 5.5t-2.5 5.5q-6 16 -4 24t14 20q21 21 24 23q24 17 34 18
q49 6 91 43q36 33 33 79q-1 22 -7 64q-1 13 -8 26q-16 37 -54 27q-15 -4 -24 -9q-8 -6 -25.5 -10t-23.5 -7q-11 -5 -26 6q-18 14 -18.5 37.5t19.5 36.5q64 41 121 40q53 -2 83 -33q31 -33 37 -73q4 -24 9 -35q5 -9 6.5 -21t0.5 -21t0 -21q0 -4 -1.5 -18.5t1.5 -18.5
q1 -2 -1 -8q-10 -32 -17 -47q-3 -7 -7.5 -14.5t-10.5 -16.5t-9 -14q-8 -13 -26 -20z" />
    <glyph glyph-name="four" unicode="4" horiz-adv-x="477" 
d="M294 563q0 11 -2 33t-2 31q-29 10 -50 2q-8 -2 -12 -2q-17 2 -50.5 -0.5t-50.5 -0.5q-7 1 -24.5 1t-26.5 2q-19 4 -27 26q-12 39 1 75q5 14 13.5 41t13.5 41q11 29 27 83.5t20 66.5v3t1 3q10 20 21.5 60.5t20.5 58.5q4 8 7 23.5t4 18.5q3 12 17 53q1 5 4 14.5t5 14.5
q8 30 21 61q3 9 10 29t11 29q5 15 13 44t10 36q15 49 18 58q6 18 38 34q4 3 12 1q19 -4 29.5 -22t5.5 -38q-1 -6 -4 -17.5t-5 -17.5q-5 -23 2 -43q3 -9 3 -18l4 -51q4 -50 -1 -50q-2 -17 3 -43t-1 -55q-3 -16 -2 -18q7 -20 3 -73v-22q3 -19 -1 -58q-2 -14 3 -55q4 -43 1 -61
q-1 -6 1 -18q3 -20 0 -40l3 -55q1 -6 1 -18v-18q1 -16 0 -48t0 -49q2 -22 1.5 -60t0.5 -60q1 -20 1 -60t1 -60q6 -169 4 -234v-34q1 -13 -6 -64q-3 -20 -19 -31q-17 -12 -36 1q-27 19 -27 53q0 11 -3 58.5t2 58.5q-6 20 -3.5 57.5t-0.5 58.5q-2 12 0 49q1 8 -2 65
q-2 53 -1 67q2 11 1 41.5t-1 41.5zM226 719q38 2 59 3q4 19 5 25q3 14 0.5 43t-0.5 43q-5 27 -4 70.5t0 70.5q-1 21 -1 129q0 20 -8 36q-5 -15 -15 -43.5t-15 -42.5q-1 -3 -2.5 -9t-2.5 -9q-1 -5 -3.5 -14t-3.5 -13q-11 -41 -25 -63q0 -1 -3 -11q-13 -60 -29 -94
q-6 -12 -7 -17q-3 -25 -25 -88q-5 -16 12 -16l34 -1q34 0 34 1z" />
    <glyph glyph-name="five" unicode="5" horiz-adv-x="552" 
d="M167 1386q-6 1 -20 -1q-8 -34 -3 -60q1 -6 4 -58q1 -16 3.5 -50t3.5 -53q3 1 9.5 2.5t9.5 2.5q30 8 67 0q18 -4 29 -11q7 -4 21 -12.5t21 -13.5q22 -16 27 -25q1 -2 25 -35q27 -37 52 -104q19 -51 20 -57q4 -17 14.5 -54.5t14.5 -57.5q1 -3 2 -9.5t2 -9.5q8 -98 13 -147
q3 -30 -1 -89q-2 -39 1 -48q2 -6 0 -13q-4 -16 -7.5 -54t-10.5 -57q-1 -4 -1.5 -11.5t-0.5 -9.5q-5 -40 -10 -48q-2 -3 -2 -9q1 -21 -13 -55t-16 -41q-3 -12 -8.5 -24t-15.5 -28t-13 -22q-29 -55 -63 -77q-14 -20 -63 -35q-42 -13 -79 1q-12 4 -46 25q-33 20 -54 53
q-21 34 -2 64q9 14 17.5 17t23.5 -3q28 -12 48 -38q19 -25 51 -31q17 -3 26 2q13 8 39 26q3 1 4 4q3 5 15.5 28.5t20.5 35.5q7 12 12.5 25.5t11 31t9.5 26.5q5 12 9 35t5 27q16 65 19 153q0 4 2 13t2 14t1 17t0.5 21.5t-2.5 17.5q-1 3 -1 9q2 23 -2.5 65t-4.5 54
q-1 21 -7.5 59t-7.5 51q-3 26 -24 88q-15 44 -42 97q-10 22 -29 39q-7 5 -10 11q-4 8 -10.5 13t-18 9.5t-14.5 6.5q-3 1 -14 -1q-31 -8 -36 -10q-12 -6 -44 0q-7 2 -19.5 6.5t-15.5 5.5q-15 4 -19 19q-1 5 -7 55q-8 99 -8 110q0 17 -3 49.5t-3 46.5q0 37 6 61q8 28 31 43
t51 11q15 -2 27 1q3 1 21 1q28 1 83 1q17 0 36 1t42 2.5t36 2.5q24 1 44 -23q3 -3 3 -9q0 -29 -14 -46q-14 -18 -39 -16q-6 1 -17.5 0t-15.5 -1h-59q-4 0 -12.5 0.5t-15 0.5t-12.5 -1q-44 -7 -79 -3z" />
    <glyph glyph-name="six" unicode="6" 
d="M181 670q0 -3 2 -17q3 1 9.5 2t9.5 2q39 15 82 -1q28 -11 54 -35q18 -16 34 -51q24 -54 25 -101q0 -13 0.5 -54t1.5 -63q0 -8 -2 -12q-9 -20 -8 -42q0 -1 -0.5 -3t-0.5 -3q-14 -57 -15 -59q-2 -5 -13 -36t-15 -48q-1 -4 -17 -36q-4 -7 -11.5 -20.5t-10.5 -20.5
q-2 -3 -9 -13q-2 -2 -6 -5t-6 -5q-30 -43 -108 -37q-19 1 -37 25q-23 29 -32 49q-20 45 -21 80q-1 47 -11 98q-4 21 -6 104q-1 13 0.5 36t1.5 32v18.5v22.5v18q2 42 4 67q6 60 10 89q7 44 20 112q3 10 2 12q-2 10 -1 15.5t4 15t4 14.5q4 30 7 45l18 81q3 13 9.5 39t9.5 39
t12 43t12 46q1 3 30 97q3 11 7 20q9 25 14 34q9 14 11 26q1 6 10 22q9 13 16 39q8 30 23 50q4 6 8.5 13.5t10 17t8.5 14.5q16 26 44 26t44 -27q8 -14 2 -27q-6 -12 -10 -16q-14 -16 -36 -64q-28 -56 -31 -60q-8 -10 -11 -28q-4 -20 -13 -45q-13 -36 -24 -60
q-10 -22 -21.5 -64.5t-16.5 -55.5q-2 -6 -2 -9q1 -8 -9 -48q-5 -17 -12.5 -58t-14.5 -62q-1 -4 -1.5 -8t-1 -9t-0.5 -8l-6 -33q-1 -7 -8 -36t-9.5 -47t-2.5 -37zM159 392q7 -57 4 -72q-4 -25 3 -56q5 -25 4 -30q-4 -25 6 -55q2 -7 2 -21q0 -16 15 -44q6 -11 15.5 -11.5
t16.5 10.5q24 35 41 79q20 49 35 137q16 95 3 146q0 3 -1 9t-1 9q-3 13 -7 23q-4 12 -11 26q-2 5 -8 13q-12 16 -30 16.5t-30 -15.5q-11 -15 -22 -40q-1 -3 -9.5 -24.5t-16.5 -30.5l-6 -15q-7 -20 -3 -54z" />
    <glyph glyph-name="seven" unicode="7" horiz-adv-x="477" 
d="M110 10q-1 -1 -4 -4.5t-5 -5.5h-21q-2 2 -7 6t-7 6q-19 17 -17 42q0 20 4 36q10 35 36 160q0 4 1 6q4 8 14 59q2 10 7 29t7 28q23 107 24 115q1 7 8.5 32t8.5 39l3 24q0 2 0.5 9t1.5 10q6 14 12 44l39 171q0 1 1 3.5t1.5 4.5t0.5 4q0 17 7.5 47l8.5 34q7 39 20 97
q1 4 2.5 11.5t3 13.5t3.5 11q10 28 9 41q-1 11 7 27q8 15 10 41q1 18 6 36q8 31 21 100q2 12 4 18q6 13 10 42q1 13 11 41q4 11 -4 20q-1 0 -5.5 0.5t-6.5 0.5q-9 0 -48.5 -1.5t-61.5 -3.5q-9 -1 -26 -1.5t-26 -1.5q-25 -3 -51 3q-19 5 -31 19t-4 42q4 2 15.5 9.5t18.5 11.5
q12 6 20 6q23 0 73.5 3t77.5 2q12 0 26 0.5t30 1.5t26 1q25 0 39 -9q25 -16 31 -34t0 -54q-1 -7 -21 -106l-6 -30q-6 -26 -18.5 -78t-18.5 -78q-1 -7 -4 -19.5t-5 -18.5q-3 -13 -10.5 -55.5t-15.5 -64.5q0 -1 -1 -3.5t-1.5 -4.5t-0.5 -4q-3 -23 -21 -93q-5 -19 -7 -42
q-1 -14 -8 -39.5t-8 -38.5q-1 -9 -5 -25l-5 -20q-2 -10 -7.5 -33t-7.5 -35q-1 -10 -14 -60l-9 -39q-4 -45 -27 -116q-3 -9 -3 -19q0 -13 -2 -25.5t-7 -29.5t-7 -25q-11 -53 -17 -88q0 -2 -0.5 -7t-1.5 -8q-6 -14 -13.5 -46t-14.5 -48q-7 -15 -6 -27q4 -34 -31 -67z" />
    <glyph glyph-name="eight" unicode="8" horiz-adv-x="583" 
d="M130 619q7 17 17.5 33.5t28 39.5t23.5 32q-13 20 -17 23q-19 18 -45 73q-4 8 -7.5 16.5t-7.5 18.5t-6 16l-3 12q-7 48 -10 67q-5 31 -3 52q1 6 -1 18q-7 51 7 126q2 13 4.5 36t3.5 31q1 7 4.5 20t4.5 15q1 4 3.5 11t3.5 10q12 34 16 43q1 3 5 10.5t5 12.5q12 44 52 96
q21 28 65 45q9 4 33 8q13 3 39 -3q37 -9 72 -55q11 -14 35 -58q3 -6 5 -16.5t4 -15.5q18 -52 22 -130q0 -6 1 -20t1 -20q0 -7 -1 -28t0 -32q1 -15 -3 -42t-4 -37q-1 -17 -15 -79q-9 -41 -20 -54q-1 -1 -1.5 -4.5t-0.5 -4.5q-15 -68 -64 -117q-1 -1 -11 -16q16 -9 17 -10
q14 -10 21 -18q28 -35 33 -48q2 -5 8 -13q21 -29 30 -63q2 -10 8 -27t8 -23q4 -14 5 -21q2 -12 5 -37.5t4 -38.5q2 -7 0 -15q-3 -15 3 -30q3 -8 2 -9q-4 -18 -5 -58.5t-7 -61.5q-2 -5 -8 -32t-12 -41q-3 -8 -6.5 -23.5t-6.5 -23.5q-27 -68 -63 -112q-53 -63 -134 -66
q-11 0 -12 1q-7 3 -23 8.5t-27.5 11.5t-20.5 15q-37 38 -61 88q-20 41 -29 81q-8 39 -16 119q-2 21 -2 65q0 34 7 45q2 4 2 8q-2 23 7 80q6 34 18 52q5 8 9 29q3 17 11 35zM365 629q-29 43 -68 48q-15 -4 -19 -7t-16 -16q-5 -6 -11 -11q-18 -14 -26 -38q-1 -3 -12 -25
q-13 -28 -16 -39q-9 -37 -25 -111q-5 -23 -4 -30q2 -24 -1 -43q-4 -43 6 -95q9 -49 22 -92q12 -41 47 -78q6 -6 20 -14q8 -4 14 -4q33 0 64 37q7 8 27 51q32 69 48 178l1 4q0 5 -1 5q-4 4 -1.5 37t2.5 37v11q1 10 0 10q-7 48 -10 67q-13 76 -41 118zM356 1352q-11 33 -49 45
q-31 -22 -53 -58q-21 -36 -45 -114q-7 -22 -6 -39q1 -5 -4 -24q-10 -36 -10 -76q0 -23 2 -71q2 -52 11 -92l4 -24t6 -27q13 -40 33 -60q21 -20 42 -7q12 7 15 10q31 37 41 62t26 75t17 75q0 5 2.5 14t2.5 13q9 53 8 74q-1 24 -10 113q-4 41 -10 61q-3 9 -11.5 25.5
t-11.5 24.5z" />
    <glyph glyph-name="nine" unicode="9" horiz-adv-x="495" 
d="M141 32q-3 -2 -8 -6t-8 -6q-12 2 -30 4q-2 3 -5.5 9t-5.5 9q-17 25 -8 53q7 27 16 65q0 1 1 3t1 3q0 19 5 39t14 45.5t12 37.5q6 22 10 33q2 7 8 23t8 26q7 38 12 47q4 8 6 21q5 41 20 67q4 6 4 12q2 22 24 114l15 66q4 16 12.5 47.5t12.5 47.5l18 75q3 14 -11 20
q-13 5 -29 10q-68 25 -124 98q-4 11 -18.5 40t-17.5 47q-1 8 -6 28t-6 32q-2 12 -1 19q6 56 6 58q2 46 38 99q10 15 28 47q15 26 47 49q39 27 77 35q33 6 49 0q5 -2 20.5 -4t23.5 -7q43 -25 62 -61q2 -4 5.5 -11.5t5.5 -10.5q0 -1 2 -3.5t2 -4.5q1 -7 8.5 -37.5t6.5 -47.5
q-3 -83 -20 -155q-1 -5 -4.5 -16.5t-5 -20t-0.5 -17.5q1 -4 -0.5 -9.5t-4 -13l-3.5 -10.5q-26 -112 -31 -128q-2 -6 -7.5 -34t-13.5 -42q-2 -4 -2 -6q1 -10 -1.5 -20.5t-6.5 -23t-6 -19.5l-48 -204q-3 -12 -10 -36.5t-10 -36.5q-3 -10 -7.5 -29t-6.5 -28q-3 -10 -8.5 -28
t-9.5 -32.5t-6 -28.5q0 -3 -1 -5.5t-2.5 -6t-2.5 -5.5q-18 -45 -18 -62q0 -5 -4 -15q-4 -8 -19 -62q-11 -36 -16 -90q-3 -33 -27 -46zM182 1056q48 -65 112 -87q8 17 9 22q14 55 15 56q6 14 10 42q2 14 4 21q21 69 18 158q-1 33 -17 62q-11 20 -30 27t-45 -4
q-21 -11 -43 -33l-7.5 -7.5l-8 -8t-7 -7.5t-6.5 -9t-4 -9.5t-2 -11.5q0 -1 -1.5 -2.5t-1.5 -2.5q-13 -19 -22 -76q-7 -47 24 -125q1 -1 2 -2.5t1 -2.5z" />
    <glyph glyph-name="colon" unicode=":" horiz-adv-x="178" 
d="M70 609q-29 15 -28 47q-1 24 23 45q21 15 40.5 9.5t30.5 -23.5q11 -19 7.5 -38.5t-21.5 -32.5q-26 -19 -52 -7zM89 525q15 0 29 -14t13 -34t-16.5 -34.5t-33.5 -13.5q-46 4 -48 51q-1 20 15.5 32.5t40.5 12.5z" />
    <glyph glyph-name="semicolon" unicode=";" horiz-adv-x="196" 
d="M130 517q18 -7 21 -28q14 -70 -38 -115q-15 -13 -34.5 -12t-31.5 16q-3 4 -5 8.5t-4 10.5l-3 9q14 23 16 27q16 24 13 46v13q3 31 35 36q4 1 14 -3q3 -1 8.5 -4t8.5 -4zM151 688q1 -4 2.5 -9t2.5 -10.5t2 -8.5q-1 -8 -3 -20q-8 -43 -61 -37q-3 0 -10 7q-2 2 -4.5 6
t-4.5 6q-20 17 -14 44q6 29 30 40q25 13 52 -6q7 -5 8 -12z" />
    <glyph glyph-name="less" unicode="&#x3c;" horiz-adv-x="444" 
d="M404 400q4 -9 -4.5 -21t-19.5 -14q-50 -9 -83 9q-45 24 -81 37q-26 9 -68 30q-7 4 -20.5 11t-24.5 12.5t-21 9.5q-23 11 -44 38q-3 3 -3 8q0 3 1 11.5t1.5 13t2.5 11.5t4 11.5t6 10t10 9.5q33 25 68 53q80 66 98 84q3 3 11 7.5t11 8.5q7 8 16 15.5t20.5 16t17.5 13.5
q19 17 31.5 17t34.5 -19q29 -28 -1 -58q-3 -3 -10 -8.5t-9 -6.5q-6 -4 -16 -14q-12 -11 -36.5 -32.5t-36.5 -32.5q-16 -15 -47 -39t-37 -29q-3 -2 -18 -22q10 -10 14 -12q8 -3 22.5 -10t21.5 -10q3 -1 18.5 -9.5t25.5 -9.5q5 -5 12 -8t16.5 -5.5t13.5 -3.5q16 -5 29 -12
q17 -11 34 -15q12 -3 20 -11t11 -14.5t9 -20.5z" />
    <glyph glyph-name="equal" unicode="=" horiz-adv-x="374" 
d="M339 485q9 -15 0 -29q-13 -21 -34 -34q-6 -4 -12 -4q-16 -2 -24 -1q-26 1 -77 0t-77 1q-8 0 -22 2q-31 3 -50 21q-1 4 -4 12.5t-4 13.5q-3 17 14 28q33 21 61 15q4 -1 11.5 0t9.5 1t7 1t8 0q10 -4 54 -3t54 0q52 -2 66 -9q13 -6 19 -15zM59 599q-4 0 -8 4
q-20 22 -17.5 43t30.5 33q11 5 36 7q85 6 86 6q3 1 8 0t7 -1q18 -2 28 -2q37 2 47 0.5t46 -12.5q8 -26 8 -27q3 -20 -8.5 -34.5t-32.5 -15.5h-32.5t-32.5 -1q-14 -1 -50.5 -1.5t-56.5 -2.5q-13 -1 -58 4z" />
    <glyph glyph-name="greater" unicode="&#x3e;" horiz-adv-x="436" 
d="M384 580q21 -17 11 -45q-14 -37 -36 -49q-18 -9 -47.5 -31t-44.5 -30q-11 -6 -29 -19.5t-23 -16.5q-12 -9 -27 -15q-10 -4 -25 -17q-14 -12 -44 -28q-6 -3 -19 -8.5t-17 -7.5q-28 13 -29 13q-15 9 -17 25.5t11 29.5q34 36 55 43q10 4 23 15q16 14 35 27t43 27.5t37 23.5
q28 20 45 32l-10 12q-23 16 -84 72q-44 42 -75 64q-35 24 -28 63q1 2 1 5t1 4q2 4 3 5q17 16 31.5 16.5t33.5 -13.5q21 -16 24 -19q8 -10 14 -11q9 -2 30 -21q8 -7 24.5 -21t24.5 -21q6 -5 11 -11q15 -22 37 -37q14 -10 18 -17q8 -12 26 -25q6 -4 16 -14z" />
    <glyph glyph-name="question" unicode="?" horiz-adv-x="561" 
d="M527 1185q2 -27 2.5 -33t-4 -32.5t-5.5 -32.5t-4 -13t-7.5 -15t-6.5 -13q-1 -2 -4.5 -7.5t-4.5 -8.5q-10 -30 -55 -73q-39 -37 -73 -56q-38 -22 -63 -49q-25 -28 -35 -70q-15 -66 -19 -95q-2 -20 -2 -31q-1 -25 -5 -80q-3 -45 -3 -46q0 -12 0.5 -36.5t0.5 -36.5
q0 -26 7 -119q1 -14 2 -51.5t4 -58.5q2 -13 -3 -25q-9 -29 -30 -36q-50 -18 -59 36q-1 6 -1 52q-2 15 -4 42t-3 38t-1 99l1 8q0 7 -1 7q-4 32 -2 114q0 9 2 25q3 23 2 42q0 6 5 52q1 7 2.5 21.5t2.5 21.5q4 23 14 69q1 3 4 11t4 12q9 50 67 112q20 22 39 30q9 4 24.5 15
t24.5 15q6 3 16.5 13.5t15.5 14.5q43 30 63 103q7 22 4 48q-3 28 -10 51q-7 27 -26 49q-38 46 -96 56q-33 5 -83 -16q-40 -19 -58 -57q-21 -46 -20 -69q1 -19 -6 -46q-6 -21 -27.5 -27.5t-34.5 5.5q-26 21 -25 50q1 68 34 130q16 30 34 47q47 45 82 58q13 4 71 19q6 2 13 0
q9 -2 26.5 -4.5t31 -5.5t25.5 -9l6 -3q34 -4 75 -45q17 -16 30 -38q13 -21 35 -65q0 -1 3 -11q1 -6 3.5 -24t4.5 -28zM251 99q0 -1 3 -25q3 -18 -10 -31q-20 -18 -36 -28q-16 -11 -32 3q-28 23 -23.5 60.5t37.5 53.5q15 8 36 -2q24 -10 25 -31z" />
    <glyph glyph-name="at" unicode="@" horiz-adv-x="854" 
d="M791 874v-9q7 -61 -8 -135l-18 -93q-12 -52 -50 -136q-18 -41 -29 -50q-2 -2 -2 -6q0 -6 -3 -11t-8 -11t-7 -9q-8 -13 -19 -26t-26.5 -29t-22.5 -24q-36 -40 -72 -52q-14 -4 -28 -12q-40 -21 -86 -19q-2 0 -6 -1t-6 -1q-38 -1 -77 6q-12 2 -38 11.5t-41 11.5
q-50 31 -52 32q-10 8 -27 23.5t-21 19.5q-20 18 -26 35q-2 5 -8 13q-13 18 -26 52q-1 2 -21 80q-7 28 -1 52q2 12 1 15q-8 22 -2 73q9 81 15 107q9 44 15 56q4 10 12.5 29.5t14 31.5t14 28t17.5 29q30 42 76 85q6 6 9 8q84 49 134 59q18 4 58 8q7 0 10 -1q10 -2 30.5 -7.5
t31.5 -8.5q30 -7 46 -24q1 -1 3.5 -4t4 -4.5t3.5 -2.5q15 -7 52 -47q11 -11 18 -28q12 -32 24 -73q9 -29 9 -58q0 -10 2.5 -41t0.5 -48q-2 -24 -4 -36q-4 -29 -7 -40q-8 -39 -25 -72q-17 -34 -37 -49q-16 -14 -40 -20q-26 -8 -46 11q-30 28 -46 43q-15 -16 -39 -48
q-48 -65 -129 -54q-23 3 -48 32q-27 30 -30 73q-8 97 22 150q26 77 125 161q37 30 77 27q52 -5 75 -44q-8 -20 -13 -31q15 -32 17 -80q2 -72 10 -101l5.5 -16.5t4.5 -14.5q15 -2 19 13q10 32 12 48q1 10 1.5 29.5t0.5 25.5q0 5 2 14t2 13q2 10 1 16q-1 13 -4.5 39.5
t-5.5 39.5q-3 26 -19 52q-18 28 -25.5 36t-34.5 24q-2 2 -14 4q-1 0 -5.5 0.5t-6.5 1.5q-8 4 -18.5 5t-17 0.5t-19 -2.5t-17.5 -2q-26 -3 -83 -31q-5 -1 -8 -5l-43 -43q-8 -8 -16.5 -19t-13.5 -19t-13 -22.5t-12 -20.5q-9 -16 -28 -84q-4 -17 -8.5 -52.5t-9.5 -53.5
q-1 -3 -1 -18q2 -82 5 -105q6 -59 38 -105q9 -13 20.5 -24t30.5 -24.5t25 -18.5q10 -8 30 -15q56 -19 109 -15q39 4 80 24q52 25 83 68q48 67 56 88q3 7 10 21l9 18q14 30 24 60q23 72 26 104q0 7 5 57t4 57t-4 58q4 29 -13 94q-17 67 -57 122q-12 16 -31 30q-39 28 -72 32
q-11 1 -32 4.5t-32 4.5q-7 1 -37 -2q-71 -6 -128 -33q-7 -3 -23 -9q-16 -5 -24 -13q-2 -2 -17 -12q-22 -14 -35 -6q-28 14 -34 37q-4 16 3 24q20 22 28 28q12 8 49 30q9 5 17 8l15 3l21 6q5 2 16 7t18 7q42 10 79 14q28 3 51 2q9 -1 26.5 -3.5t22.5 -3.5q2 0 4 -0.5t4 -0.5
q23 3 63 -15q7 -4 17 -6t20 -7t22 -13t18 -11q3 -1 4 -4q8 -15 31 -40t31 -40q14 -26 19 -31t7 -23q4 -22 12 -31q6 -7 9 -16t5 -21.5t3 -18.5q3 -9 10 -54t2 -61zM403 752q12 38 12 92q-12 -5 -13 -6q-31 -28 -32 -29q-5 -4 -12 -13t-8 -10q-5 -6 -14 -24.5t-19 -26.5
q-1 -1 -1 -3t-0.5 -4.5t-0.5 -4.5t-0.5 -7t-1.5 -7q-11 -19 -15 -69q-3 -27 16 -45q14 -1 27 13q3 3 11 10.5t13 13.5t7 14q3 12 14 42t14 48q0 1 1 7t2 9z" />
    <glyph glyph-name="A" unicode="A" horiz-adv-x="559" 
d="M203 199q-23 2 -38 -3q-11 -19 -8 -43q1 -12 -1 -54v-22q3 -6 2 -17t-2 -16t-4.5 -16t-4.5 -16q-7 -4 -20.5 -10t-19.5 -9q-11 2 -32 23q-6 8 -8 20q-4 50 -2 76q1 13 1 36.5v36.5q1 20 3 62t3 62l3 60q1 11 3 38t2 38v38q-1 32 4 76q3 13 2 16q-3 25 1 71.5t3 67.5
q0 6 2 16q1 4 1 37q-1 20 4 92q1 5 1 16t1 16l3 51q4 57 5 83q0 20 5 34q3 7 3 16q2 21 6 44.5t9.5 52t8.5 44.5q5 32 21 79q2 7 6 20t7.5 23.5t7.5 19.5q27 61 69 94q19 14 41 13q29 -2 44 -16q26 -23 39 -53q2 -6 7.5 -16.5t9 -19.5t3.5 -17q1 -13 8.5 -41t7.5 -43
q0 -4 11 -62q8 -44 14 -136q2 -29 7 -81t6 -70v-38q0 -14 0.5 -41.5t0.5 -41.5v-13q4 -10 5.5 -21t1 -26.5t-0.5 -21.5q1 -16 3.5 -47.5t3.5 -47.5q1 -14 2 -41.5t2 -40.5q3 -56 5 -67q2 -10 2.5 -30t1.5 -26q1 -9 4 -59.5t7 -76.5v-5v-6v-5q0 -47 5 -79q2 -13 10 -117
q0 -16 1 -19q7 -20 -18 -37q-24 -16 -44 -6q-8 4 -10 7q-2 4 -8 13t-9 16t-3 14q-1 34 -11 104q-1 10 -1 32q0 9 -1 13q-3 16 -18 13q-13 -3 -48 -1h-9q-9 1 -9 0q-9 -2 -70 -5q-4 0 -18 -2.5t-22 -1.5zM355 303q21 0 33 9q-1 11 -2.5 31t-1.5 30q-1 16 -4.5 50t-4 49.5
t0.5 49.5q0 2 -0.5 5t-0.5 4l-9 114q-1 10 -1.5 28.5t-0.5 24.5q-1 16 -3 47.5t-3 47.5q-4 49 -5 76q-3 71 -4 79q-5 33 -7 102q-2 73 -12 129q-1 5 -5 26.5t-5 33.5q0 13 -3 27.5t-7.5 32t-6.5 26.5q-2 10 -5 15q-7 12 -19 10q-4 -4 -6.5 -8.5t-4.5 -12.5t-3 -10
q-1 -3 -3.5 -12.5t-4.5 -14.5q-10 -23 -20 -67q-3 -17 -4 -19q-5 -10 -9 -40q-3 -27 -10 -49q-8 -24 -8 -47q0 -24 -5 -54q-2 -12 -3 -40.5t-4 -43.5q-2 -9 -2 -26v-21q0 -3 -0.5 -8t-0.5 -8q-3 -30 -3 -32v-31t-1 -32q-1 -14 -4 -41t-3.5 -41t1.5 -41q1 -3 0 -8.5t-1 -7.5
q-2 -35 -2 -42q2 -19 -4 -34q-4 -13 0 -21q6 -13 1 -34q-3 -12 -3 -25q0 -18 -1.5 -54.5t-2.5 -55.5q0 -5 -0.5 -10t-1.5 -11.5t-1 -10.5q-2 -16 -2 -25t2.5 -12.5t11.5 -3.5h80q30 0 34 1q25 6 64 6z" />
    <glyph glyph-name="A" unicode="&#xc5;" horiz-adv-x="559" 
d="M203 199q-23 2 -38 -3q-11 -19 -8 -43q1 -12 -1 -54v-22q3 -6 2 -17t-2 -16t-4.5 -16t-4.5 -16q-7 -4 -20.5 -10t-19.5 -9q-11 2 -32 23q-6 8 -8 20q-4 50 -2 76q1 13 1 36.5v36.5q1 20 3 62t3 62l3 60q1 11 3 38t2 38v38q-1 32 4 76q3 13 2 16q-3 25 1 71.5t3 67.5
q0 6 2 16q1 4 1 37q-1 20 4 92q1 5 1 16t1 16l3 51q4 57 5 83q0 20 5 34q3 7 3 16q2 21 6 44.5t9.5 52t8.5 44.5q5 32 21 79q2 7 6 20t7.5 23.5t7.5 19.5q27 61 69 94q19 14 41 13q29 -2 44 -16q26 -23 39 -53q2 -6 7.5 -16.5t9 -19.5t3.5 -17q1 -13 8.5 -41t7.5 -43
q0 -4 11 -62q8 -44 14 -136q2 -29 7 -81t6 -70v-38q0 -14 0.5 -41.5t0.5 -41.5v-13q4 -10 5.5 -21t1 -26.5t-0.5 -21.5q1 -16 3.5 -47.5t3.5 -47.5q1 -14 2 -41.5t2 -40.5q3 -56 5 -67q2 -10 2.5 -30t1.5 -26q1 -9 4 -59.5t7 -76.5v-5v-6v-5q0 -47 5 -79q2 -13 10 -117
q0 -16 1 -19q7 -20 -18 -37q-24 -16 -44 -6q-8 4 -10 7q-2 4 -8 13t-9 16t-3 14q-1 34 -11 104q-1 10 -1 32q0 9 -1 13q-3 16 -18 13q-13 -3 -48 -1h-9q-9 1 -9 0q-9 -2 -70 -5q-4 0 -18 -2.5t-22 -1.5zM355 303q21 0 33 9q-1 11 -2.5 31t-1.5 30q-1 16 -4.5 50t-4 49.5
t0.5 49.5q0 2 -0.5 5t-0.5 4l-9 114q-1 10 -1.5 28.5t-0.5 24.5q-1 16 -3 47.5t-3 47.5q-4 49 -5 76q-3 71 -4 79q-5 33 -7 102q-2 73 -12 129q-1 5 -5 26.5t-5 33.5q0 13 -3 27.5t-7.5 32t-6.5 26.5q-2 10 -5 15q-7 12 -19 10q-4 -4 -6.5 -8.5t-4.5 -12.5t-3 -10
q-1 -3 -3.5 -12.5t-4.5 -14.5q-10 -23 -20 -67q-3 -17 -4 -19q-5 -10 -9 -40q-3 -27 -10 -49q-8 -24 -8 -47q0 -24 -5 -54q-2 -12 -3 -40.5t-4 -43.5q-2 -9 -2 -26v-21q0 -3 -0.5 -8t-0.5 -8q-3 -30 -3 -32v-31t-1 -32q-1 -14 -4 -41t-3.5 -41t1.5 -41q1 -3 0 -8.5t-1 -7.5
q-2 -35 -2 -42q2 -19 -4 -34q-4 -13 0 -21q6 -13 1 -34q-3 -12 -3 -25q0 -18 -1.5 -54.5t-2.5 -55.5q0 -5 -0.5 -10t-1.5 -11.5t-1 -10.5q-2 -16 -2 -25t2.5 -12.5t11.5 -3.5h80q30 0 34 1q25 6 64 6z" />
    <glyph glyph-name="A" unicode="&#xc4;" horiz-adv-x="559" 
d="M203 199q-23 2 -38 -3q-11 -19 -8 -43q1 -12 -1 -54v-22q3 -6 2 -17t-2 -16t-4.5 -16t-4.5 -16q-7 -4 -20.5 -10t-19.5 -9q-11 2 -32 23q-6 8 -8 20q-4 50 -2 76q1 13 1 36.5v36.5q1 20 3 62t3 62l3 60q1 11 3 38t2 38v38q-1 32 4 76q3 13 2 16q-3 25 1 71.5t3 67.5
q0 6 2 16q1 4 1 37q-1 20 4 92q1 5 1 16t1 16l3 51q4 57 5 83q0 20 5 34q3 7 3 16q2 21 6 44.5t9.5 52t8.5 44.5q5 32 21 79q2 7 6 20t7.5 23.5t7.5 19.5q27 61 69 94q19 14 41 13q29 -2 44 -16q26 -23 39 -53q2 -6 7.5 -16.5t9 -19.5t3.5 -17q1 -13 8.5 -41t7.5 -43
q0 -4 11 -62q8 -44 14 -136q2 -29 7 -81t6 -70v-38q0 -14 0.5 -41.5t0.5 -41.5v-13q4 -10 5.5 -21t1 -26.5t-0.5 -21.5q1 -16 3.5 -47.5t3.5 -47.5q1 -14 2 -41.5t2 -40.5q3 -56 5 -67q2 -10 2.5 -30t1.5 -26q1 -9 4 -59.5t7 -76.5v-5v-6v-5q0 -47 5 -79q2 -13 10 -117
q0 -16 1 -19q7 -20 -18 -37q-24 -16 -44 -6q-8 4 -10 7q-2 4 -8 13t-9 16t-3 14q-1 34 -11 104q-1 10 -1 32q0 9 -1 13q-3 16 -18 13q-13 -3 -48 -1h-9q-9 1 -9 0q-9 -2 -70 -5q-4 0 -18 -2.5t-22 -1.5zM355 303q21 0 33 9q-1 11 -2.5 31t-1.5 30q-1 16 -4.5 50t-4 49.5
t0.5 49.5q0 2 -0.5 5t-0.5 4l-9 114q-1 10 -1.5 28.5t-0.5 24.5q-1 16 -3 47.5t-3 47.5q-4 49 -5 76q-3 71 -4 79q-5 33 -7 102q-2 73 -12 129q-1 5 -5 26.5t-5 33.5q0 13 -3 27.5t-7.5 32t-6.5 26.5q-2 10 -5 15q-7 12 -19 10q-4 -4 -6.5 -8.5t-4.5 -12.5t-3 -10
q-1 -3 -3.5 -12.5t-4.5 -14.5q-10 -23 -20 -67q-3 -17 -4 -19q-5 -10 -9 -40q-3 -27 -10 -49q-8 -24 -8 -47q0 -24 -5 -54q-2 -12 -3 -40.5t-4 -43.5q-2 -9 -2 -26v-21q0 -3 -0.5 -8t-0.5 -8q-3 -30 -3 -32v-31t-1 -32q-1 -14 -4 -41t-3.5 -41t1.5 -41q1 -3 0 -8.5t-1 -7.5
q-2 -35 -2 -42q2 -19 -4 -34q-4 -13 0 -21q6 -13 1 -34q-3 -12 -3 -25q0 -18 -1.5 -54.5t-2.5 -55.5q0 -5 -0.5 -10t-1.5 -11.5t-1 -10.5q-2 -16 -2 -25t2.5 -12.5t11.5 -3.5h80q30 0 34 1q25 6 64 6z" />
    <glyph glyph-name="A" unicode="&#xc3;" horiz-adv-x="559" 
d="M203 199q-23 2 -38 -3q-11 -19 -8 -43q1 -12 -1 -54v-22q3 -6 2 -17t-2 -16t-4.5 -16t-4.5 -16q-7 -4 -20.5 -10t-19.5 -9q-11 2 -32 23q-6 8 -8 20q-4 50 -2 76q1 13 1 36.5v36.5q1 20 3 62t3 62l3 60q1 11 3 38t2 38v38q-1 32 4 76q3 13 2 16q-3 25 1 71.5t3 67.5
q0 6 2 16q1 4 1 37q-1 20 4 92q1 5 1 16t1 16l3 51q4 57 5 83q0 20 5 34q3 7 3 16q2 21 6 44.5t9.5 52t8.5 44.5q5 32 21 79q2 7 6 20t7.5 23.5t7.5 19.5q27 61 69 94q19 14 41 13q29 -2 44 -16q26 -23 39 -53q2 -6 7.5 -16.5t9 -19.5t3.5 -17q1 -13 8.5 -41t7.5 -43
q0 -4 11 -62q8 -44 14 -136q2 -29 7 -81t6 -70v-38q0 -14 0.5 -41.5t0.5 -41.5v-13q4 -10 5.5 -21t1 -26.5t-0.5 -21.5q1 -16 3.5 -47.5t3.5 -47.5q1 -14 2 -41.5t2 -40.5q3 -56 5 -67q2 -10 2.5 -30t1.5 -26q1 -9 4 -59.5t7 -76.5v-5v-6v-5q0 -47 5 -79q2 -13 10 -117
q0 -16 1 -19q7 -20 -18 -37q-24 -16 -44 -6q-8 4 -10 7q-2 4 -8 13t-9 16t-3 14q-1 34 -11 104q-1 10 -1 32q0 9 -1 13q-3 16 -18 13q-13 -3 -48 -1h-9q-9 1 -9 0q-9 -2 -70 -5q-4 0 -18 -2.5t-22 -1.5zM355 303q21 0 33 9q-1 11 -2.5 31t-1.5 30q-1 16 -4.5 50t-4 49.5
t0.5 49.5q0 2 -0.5 5t-0.5 4l-9 114q-1 10 -1.5 28.5t-0.5 24.5q-1 16 -3 47.5t-3 47.5q-4 49 -5 76q-3 71 -4 79q-5 33 -7 102q-2 73 -12 129q-1 5 -5 26.5t-5 33.5q0 13 -3 27.5t-7.5 32t-6.5 26.5q-2 10 -5 15q-7 12 -19 10q-4 -4 -6.5 -8.5t-4.5 -12.5t-3 -10
q-1 -3 -3.5 -12.5t-4.5 -14.5q-10 -23 -20 -67q-3 -17 -4 -19q-5 -10 -9 -40q-3 -27 -10 -49q-8 -24 -8 -47q0 -24 -5 -54q-2 -12 -3 -40.5t-4 -43.5q-2 -9 -2 -26v-21q0 -3 -0.5 -8t-0.5 -8q-3 -30 -3 -32v-31t-1 -32q-1 -14 -4 -41t-3.5 -41t1.5 -41q1 -3 0 -8.5t-1 -7.5
q-2 -35 -2 -42q2 -19 -4 -34q-4 -13 0 -21q6 -13 1 -34q-3 -12 -3 -25q0 -18 -1.5 -54.5t-2.5 -55.5q0 -5 -0.5 -10t-1.5 -11.5t-1 -10.5q-2 -16 -2 -25t2.5 -12.5t11.5 -3.5h80q30 0 34 1q25 6 64 6z" />
    <glyph glyph-name="A" unicode="&#xc2;" horiz-adv-x="559" 
d="M203 199q-23 2 -38 -3q-11 -19 -8 -43q1 -12 -1 -54v-22q3 -6 2 -17t-2 -16t-4.5 -16t-4.5 -16q-7 -4 -20.5 -10t-19.5 -9q-11 2 -32 23q-6 8 -8 20q-4 50 -2 76q1 13 1 36.5v36.5q1 20 3 62t3 62l3 60q1 11 3 38t2 38v38q-1 32 4 76q3 13 2 16q-3 25 1 71.5t3 67.5
q0 6 2 16q1 4 1 37q-1 20 4 92q1 5 1 16t1 16l3 51q4 57 5 83q0 20 5 34q3 7 3 16q2 21 6 44.5t9.5 52t8.5 44.5q5 32 21 79q2 7 6 20t7.5 23.5t7.5 19.5q27 61 69 94q19 14 41 13q29 -2 44 -16q26 -23 39 -53q2 -6 7.5 -16.5t9 -19.5t3.5 -17q1 -13 8.5 -41t7.5 -43
q0 -4 11 -62q8 -44 14 -136q2 -29 7 -81t6 -70v-38q0 -14 0.5 -41.5t0.5 -41.5v-13q4 -10 5.5 -21t1 -26.5t-0.5 -21.5q1 -16 3.5 -47.5t3.5 -47.5q1 -14 2 -41.5t2 -40.5q3 -56 5 -67q2 -10 2.5 -30t1.5 -26q1 -9 4 -59.5t7 -76.5v-5v-6v-5q0 -47 5 -79q2 -13 10 -117
q0 -16 1 -19q7 -20 -18 -37q-24 -16 -44 -6q-8 4 -10 7q-2 4 -8 13t-9 16t-3 14q-1 34 -11 104q-1 10 -1 32q0 9 -1 13q-3 16 -18 13q-13 -3 -48 -1h-9q-9 1 -9 0q-9 -2 -70 -5q-4 0 -18 -2.5t-22 -1.5zM355 303q21 0 33 9q-1 11 -2.5 31t-1.5 30q-1 16 -4.5 50t-4 49.5
t0.5 49.5q0 2 -0.5 5t-0.5 4l-9 114q-1 10 -1.5 28.5t-0.5 24.5q-1 16 -3 47.5t-3 47.5q-4 49 -5 76q-3 71 -4 79q-5 33 -7 102q-2 73 -12 129q-1 5 -5 26.5t-5 33.5q0 13 -3 27.5t-7.5 32t-6.5 26.5q-2 10 -5 15q-7 12 -19 10q-4 -4 -6.5 -8.5t-4.5 -12.5t-3 -10
q-1 -3 -3.5 -12.5t-4.5 -14.5q-10 -23 -20 -67q-3 -17 -4 -19q-5 -10 -9 -40q-3 -27 -10 -49q-8 -24 -8 -47q0 -24 -5 -54q-2 -12 -3 -40.5t-4 -43.5q-2 -9 -2 -26v-21q0 -3 -0.5 -8t-0.5 -8q-3 -30 -3 -32v-31t-1 -32q-1 -14 -4 -41t-3.5 -41t1.5 -41q1 -3 0 -8.5t-1 -7.5
q-2 -35 -2 -42q2 -19 -4 -34q-4 -13 0 -21q6 -13 1 -34q-3 -12 -3 -25q0 -18 -1.5 -54.5t-2.5 -55.5q0 -5 -0.5 -10t-1.5 -11.5t-1 -10.5q-2 -16 -2 -25t2.5 -12.5t11.5 -3.5h80q30 0 34 1q25 6 64 6z" />
    <glyph glyph-name="A" unicode="&#xc1;" horiz-adv-x="559" 
d="M203 199q-23 2 -38 -3q-11 -19 -8 -43q1 -12 -1 -54v-22q3 -6 2 -17t-2 -16t-4.5 -16t-4.5 -16q-7 -4 -20.5 -10t-19.5 -9q-11 2 -32 23q-6 8 -8 20q-4 50 -2 76q1 13 1 36.5v36.5q1 20 3 62t3 62l3 60q1 11 3 38t2 38v38q-1 32 4 76q3 13 2 16q-3 25 1 71.5t3 67.5
q0 6 2 16q1 4 1 37q-1 20 4 92q1 5 1 16t1 16l3 51q4 57 5 83q0 20 5 34q3 7 3 16q2 21 6 44.5t9.5 52t8.5 44.5q5 32 21 79q2 7 6 20t7.5 23.5t7.5 19.5q27 61 69 94q19 14 41 13q29 -2 44 -16q26 -23 39 -53q2 -6 7.5 -16.5t9 -19.5t3.5 -17q1 -13 8.5 -41t7.5 -43
q0 -4 11 -62q8 -44 14 -136q2 -29 7 -81t6 -70v-38q0 -14 0.5 -41.5t0.5 -41.5v-13q4 -10 5.5 -21t1 -26.5t-0.5 -21.5q1 -16 3.5 -47.5t3.5 -47.5q1 -14 2 -41.5t2 -40.5q3 -56 5 -67q2 -10 2.5 -30t1.5 -26q1 -9 4 -59.5t7 -76.5v-5v-6v-5q0 -47 5 -79q2 -13 10 -117
q0 -16 1 -19q7 -20 -18 -37q-24 -16 -44 -6q-8 4 -10 7q-2 4 -8 13t-9 16t-3 14q-1 34 -11 104q-1 10 -1 32q0 9 -1 13q-3 16 -18 13q-13 -3 -48 -1h-9q-9 1 -9 0q-9 -2 -70 -5q-4 0 -18 -2.5t-22 -1.5zM355 303q21 0 33 9q-1 11 -2.5 31t-1.5 30q-1 16 -4.5 50t-4 49.5
t0.5 49.5q0 2 -0.5 5t-0.5 4l-9 114q-1 10 -1.5 28.5t-0.5 24.5q-1 16 -3 47.5t-3 47.5q-4 49 -5 76q-3 71 -4 79q-5 33 -7 102q-2 73 -12 129q-1 5 -5 26.5t-5 33.5q0 13 -3 27.5t-7.5 32t-6.5 26.5q-2 10 -5 15q-7 12 -19 10q-4 -4 -6.5 -8.5t-4.5 -12.5t-3 -10
q-1 -3 -3.5 -12.5t-4.5 -14.5q-10 -23 -20 -67q-3 -17 -4 -19q-5 -10 -9 -40q-3 -27 -10 -49q-8 -24 -8 -47q0 -24 -5 -54q-2 -12 -3 -40.5t-4 -43.5q-2 -9 -2 -26v-21q0 -3 -0.5 -8t-0.5 -8q-3 -30 -3 -32v-31t-1 -32q-1 -14 -4 -41t-3.5 -41t1.5 -41q1 -3 0 -8.5t-1 -7.5
q-2 -35 -2 -42q2 -19 -4 -34q-4 -13 0 -21q6 -13 1 -34q-3 -12 -3 -25q0 -18 -1.5 -54.5t-2.5 -55.5q0 -5 -0.5 -10t-1.5 -11.5t-1 -10.5q-2 -16 -2 -25t2.5 -12.5t11.5 -3.5h80q30 0 34 1q25 6 64 6z" />
    <glyph glyph-name="A" unicode="&#xc0;" horiz-adv-x="559" 
d="M203 199q-23 2 -38 -3q-11 -19 -8 -43q1 -12 -1 -54v-22q3 -6 2 -17t-2 -16t-4.5 -16t-4.5 -16q-7 -4 -20.5 -10t-19.5 -9q-11 2 -32 23q-6 8 -8 20q-4 50 -2 76q1 13 1 36.5v36.5q1 20 3 62t3 62l3 60q1 11 3 38t2 38v38q-1 32 4 76q3 13 2 16q-3 25 1 71.5t3 67.5
q0 6 2 16q1 4 1 37q-1 20 4 92q1 5 1 16t1 16l3 51q4 57 5 83q0 20 5 34q3 7 3 16q2 21 6 44.5t9.5 52t8.5 44.5q5 32 21 79q2 7 6 20t7.5 23.5t7.5 19.5q27 61 69 94q19 14 41 13q29 -2 44 -16q26 -23 39 -53q2 -6 7.5 -16.5t9 -19.5t3.5 -17q1 -13 8.5 -41t7.5 -43
q0 -4 11 -62q8 -44 14 -136q2 -29 7 -81t6 -70v-38q0 -14 0.5 -41.5t0.5 -41.5v-13q4 -10 5.5 -21t1 -26.5t-0.5 -21.5q1 -16 3.5 -47.5t3.5 -47.5q1 -14 2 -41.5t2 -40.5q3 -56 5 -67q2 -10 2.5 -30t1.5 -26q1 -9 4 -59.5t7 -76.5v-5v-6v-5q0 -47 5 -79q2 -13 10 -117
q0 -16 1 -19q7 -20 -18 -37q-24 -16 -44 -6q-8 4 -10 7q-2 4 -8 13t-9 16t-3 14q-1 34 -11 104q-1 10 -1 32q0 9 -1 13q-3 16 -18 13q-13 -3 -48 -1h-9q-9 1 -9 0q-9 -2 -70 -5q-4 0 -18 -2.5t-22 -1.5zM355 303q21 0 33 9q-1 11 -2.5 31t-1.5 30q-1 16 -4.5 50t-4 49.5
t0.5 49.5q0 2 -0.5 5t-0.5 4l-9 114q-1 10 -1.5 28.5t-0.5 24.5q-1 16 -3 47.5t-3 47.5q-4 49 -5 76q-3 71 -4 79q-5 33 -7 102q-2 73 -12 129q-1 5 -5 26.5t-5 33.5q0 13 -3 27.5t-7.5 32t-6.5 26.5q-2 10 -5 15q-7 12 -19 10q-4 -4 -6.5 -8.5t-4.5 -12.5t-3 -10
q-1 -3 -3.5 -12.5t-4.5 -14.5q-10 -23 -20 -67q-3 -17 -4 -19q-5 -10 -9 -40q-3 -27 -10 -49q-8 -24 -8 -47q0 -24 -5 -54q-2 -12 -3 -40.5t-4 -43.5q-2 -9 -2 -26v-21q0 -3 -0.5 -8t-0.5 -8q-3 -30 -3 -32v-31t-1 -32q-1 -14 -4 -41t-3.5 -41t1.5 -41q1 -3 0 -8.5t-1 -7.5
q-2 -35 -2 -42q2 -19 -4 -34q-4 -13 0 -21q6 -13 1 -34q-3 -12 -3 -25q0 -18 -1.5 -54.5t-2.5 -55.5q0 -5 -0.5 -10t-1.5 -11.5t-1 -10.5q-2 -16 -2 -25t2.5 -12.5t11.5 -3.5h80q30 0 34 1q25 6 64 6z" />
    <glyph glyph-name="B" unicode="B" horiz-adv-x="530" 
d="M297 1094q-5 -6 -16 -24q35 -25 43 -32q19 -18 28 -26.5t20 -26.5t14 -36q1 -9 9 -23q15 -21 30 -92q3 -13 10 -40t10 -41q5 -25 5 -30q1 -29 7.5 -82t7.5 -69q1 -8 1.5 -30t2.5 -34q1 -10 1 -32t2 -32v-18v-37q1 -37 0 -37q0 -9 -2 -25t-2 -21q0 -2 -1 -7t0 -8
q5 -31 -10 -104q-6 -33 -16 -47q-2 -2 -4 -14q-29 -108 -140 -147q-9 -3 -27 -5l-24 -3q-24 -2 -42 7q-47 22 -52 25q-18 11 -24 34q-9 33 -6 67q1 8 -2 64q-3 42 -1 50q1 9 0 18q-5 21 -5 64q0 9 -2 25t-2 21q-1 21 -1 65q1 64 -8 163v31q-4 111 -5 169q0 9 -2.5 26
t-2.5 23v41q0 44 -4 57q-1 3 -1 16q3 39 -6 135q0 1 -3 74q0 15 -0.5 61t-1.5 71q-1 14 -3.5 40.5t-3.5 33.5q-5 48 24 80q13 15 31 19q38 9 98 2q83 -10 139 -60q59 -54 48 -126q-2 -14 -27 -76q-3 -7 -9 -12q-9 -6 -28 -32q-8 -11 -24.5 -28.5t-22.5 -24.5zM211 83
q0 -2 2 -6.5t2 -6.5q37 -17 67 -1l9 3q11 1 25 17q30 35 38 69q2 9 8 25t9 29.5t0 26.5q-1 2 1.5 8t2.5 7l4 20t4 20.5t2 21t-2 20.5q-3 17 -1 30q4 18 0 46q-1 8 -1.5 18t-1 22t-0.5 18q-1 13 -2 38.5t-2 38.5q0 21 -1 31q0 8 -2 24q-1 8 -3 24.5t-3 24.5t-2.5 23.5
t-2.5 22.5q-1 6 -3 19.5t-3 20.5q-5 29 -17 87q0 2 -1 4.5t-2 3.5q-1 3 -5.5 15.5t-6.5 19.5q-12 46 -41 86q-42 57 -103 36q-3 -22 -3 -23q2 -8 2.5 -17.5t0.5 -20.5v-17q1 -12 0.5 -38t1.5 -38q5 -33 4 -42q-1 -11 1 -50.5t-2 -50.5q-1 -5 1 -15q6 -24 7 -69.5t2 -55.5
l3 -89q2 -44 8 -132q3 -38 2 -43q-2 -14 0 -55q3 -54 3 -55v-47.5t1 -47.5zM163 1280q0 -108 14 -170q22 16 62 48q3 2 5 5.5t4 8.5t3 7t3.5 3.5t3.5 2.5q15 11 32 37q14 24 24 46q11 26 -9 49q-17 21 -36 27q-18 5 -32 12q-12 6 -61 8q-8 1 -13.5 -5t-5.5 -15q0 -10 3 -21
q3 -14 3 -43z" />
    <glyph glyph-name="C" unicode="C" horiz-adv-x="456" 
d="M219 175q16 -40 53 -54q18 3 25 16q4 8 13 21t15 24t8 23l2.5 7.5t2.5 8.5t1 8q1 6 1.5 17.5t1.5 17.5q5 33 37 38q12 2 26 -6.5t18 -20.5q12 -32 8 -60q-3 -21 -25 -78q-18 -49 -59 -79q-6 -4 -7 -6q-15 -25 -57 -29q-47 -3 -75 23q-12 9 -15 11q-20 10 -38 38
q-36 54 -49 128v3q-8 31 -12.5 64.5t-7.5 80.5t-5 65q-3 28 -5 80t-3 64q-1 9 -1 27v27q-1 18 -0.5 59t-1.5 59q-1 14 1 42q1 26 3.5 77.5t4.5 76.5q1 19 2.5 57.5t2.5 57.5q0 10 8 60q2 15 6 45.5t6 46.5q1 5 3.5 15t3.5 13q6 24 7 38q2 19 7 34q22 59 41 97q27 53 88 75
q3 1 41 4q6 0 12 -4q49 -37 55 -72q0 -2 0.5 -5.5t1 -6t1.5 -4.5q9 -10 10.5 -20.5t-1 -28.5t-2.5 -22q-1 -8 -3.5 -23.5t-2.5 -17.5q-3 -32 -33 -75q-5 -6 -11 -11q-14 -10 -29 -1q-41 26 -26 72q14 44 11 78q-2 26 -8 36q-2 -1 -8.5 -4t-8.5 -6t-10 -13t-12 -18t-5 -18
q-1 -11 -8 -31t-9 -27q-4 -16 -12 -46q-2 -7 0 -13q4 -12 -2 -35q-3 -10 -11 -82q-6 -54 -8 -81l-6 -105l-3 -32q-9 -30 -2 -73q3 -20 2 -35q-3 -27 -3 -163q0 -22 4.5 -64t5.5 -50t1.5 -23.5t1.5 -28t3 -24.5q2 -14 3 -41t2 -33q6 -52 10 -82q7 -42 24 -83z" />
    <glyph glyph-name="C" unicode="&#xc7;" horiz-adv-x="456" 
d="M219 175q16 -40 53 -54q18 3 25 16q4 8 13 21t15 24t8 23l2.5 7.5t2.5 8.5t1 8q1 6 1.5 17.5t1.5 17.5q5 33 37 38q12 2 26 -6.5t18 -20.5q12 -32 8 -60q-3 -21 -25 -78q-18 -49 -59 -79q-6 -4 -7 -6q-15 -25 -57 -29q-47 -3 -75 23q-12 9 -15 11q-20 10 -38 38
q-36 54 -49 128v3q-8 31 -12.5 64.5t-7.5 80.5t-5 65q-3 28 -5 80t-3 64q-1 9 -1 27v27q-1 18 -0.5 59t-1.5 59q-1 14 1 42q1 26 3.5 77.5t4.5 76.5q1 19 2.5 57.5t2.5 57.5q0 10 8 60q2 15 6 45.5t6 46.5q1 5 3.5 15t3.5 13q6 24 7 38q2 19 7 34q22 59 41 97q27 53 88 75
q3 1 41 4q6 0 12 -4q49 -37 55 -72q0 -2 0.5 -5.5t1 -6t1.5 -4.5q9 -10 10.5 -20.5t-1 -28.5t-2.5 -22q-1 -8 -3.5 -23.5t-2.5 -17.5q-3 -32 -33 -75q-5 -6 -11 -11q-14 -10 -29 -1q-41 26 -26 72q14 44 11 78q-2 26 -8 36q-2 -1 -8.5 -4t-8.5 -6t-10 -13t-12 -18t-5 -18
q-1 -11 -8 -31t-9 -27q-4 -16 -12 -46q-2 -7 0 -13q4 -12 -2 -35q-3 -10 -11 -82q-6 -54 -8 -81l-6 -105l-3 -32q-9 -30 -2 -73q3 -20 2 -35q-3 -27 -3 -163q0 -22 4.5 -64t5.5 -50t1.5 -23.5t1.5 -28t3 -24.5q2 -14 3 -41t2 -33q6 -52 10 -82q7 -42 24 -83z" />
    <glyph glyph-name="D" unicode="D" horiz-adv-x="571" 
d="M72 1366q2 56 4 87q2 6 8 10.5t9.5 6.5t13.5 5t12 4q22 8 48 -5q5 -2 15 -4q16 -2 34 -14q76 -51 110 -93q39 -48 51 -71q8 -15 24.5 -42.5t22.5 -39.5q7 -14 8 -17q51 -132 56 -147q4 -12 6.5 -25t4.5 -29.5t4 -25.5q0 -2 -0.5 -6t0.5 -6q5 -13 7 -26.5t2.5 -32
t1.5 -27.5l3 -15q1 -5 3 -17.5t2.5 -17.5t-1.5 -18q-3 -8 -1 -19q5 -35 -1 -58q-1 -3 -1 -9q3 -28 -4 -79.5t-8 -61.5q0 -3 -5 -18q-6 -18 -4 -28q0 -3 -0.5 -6t-1.5 -6.5t-1 -5.5q-6 -42 -6 -43q0 -26 -11 -46q-2 -5 -13 -42q-4 -12 -10 -34t-12 -39.5t-14 -32.5
q-2 -5 -5 -16.5t-6 -16.5q-9 -17 -47 -78q-4 -6 -12.5 -18t-12.5 -18q-6 -10 -7 -10q-10 -6 -24.5 -21.5t-18.5 -19.5q-8 -8 -37 -46q-16 -22 -40 -29q-21 -7 -33 5q-13 13 -32 18q-26 6 -31 35q-5 33 -5 41q-1 18 -1 55t-1 55q0 9 -2 38t-2 44q0 19 -3 58.5t-2 60.5
q2 23 -3 91q-3 62 -1 75q1 7 -1 21t-2 20q-2 41 -3.5 122.5t-3.5 122.5q-1 41 -5 123q-1 19 -2 56.5t-1 56.5v3q-2 22 -3 77.5t-5 85.5q0 1 -1 4.5t0 5.5q3 19 2.5 28t-3 27.5t-2.5 27.5v10zM205 141q0 -14 12 -17q5 6 16 17q3 3 10.5 9t10.5 10q7 10 22.5 30.5t27 37
t19.5 33.5q36 73 45 110q12 58 17 70q10 26 17.5 76.5t14.5 71.5q1 3 1 9q0 17 5 59t3 64q0 1 0.5 4t0.5 5q7 40 1 109q-6 79 -28 165q-19 77 -23 85q-44 100 -61 127q-40 65 -64 89q-10 10 -14 16q-18 26 -59 46l-8 -2q-2 -12 -2 -21q1 -20 1 -58.5t1 -57.5q3 -60 2 -72
q0 -32 1 -38q1 -5 0.5 -19.5t-0.5 -20.5q0 -7 2 -24.5t2 -27.5q0 -97 1 -106q1 -16 2.5 -49t3.5 -49q0 -6 1 -16.5t1.5 -19.5t0.5 -17q-1 -23 0 -46q1 -11 2.5 -52.5t4.5 -63.5q0 -6 -1 -9q-5 -16 1 -37q1 -3 1 -22q0 -16 1 -47.5t1 -46.5v-54q1 -25 3.5 -75.5t3.5 -75.5
q2 -42 2 -62q0 -13 -2 -37z" />
    <glyph glyph-name="E" unicode="E" horiz-adv-x="419" 
d="M225 1372q-11 -1 -33.5 -3.5t-33.5 -3.5q-9 -34 -3 -52q1 -2 1 -6q-3 -17 2 -51.5t1 -52.5q-1 -4 2 -34q1 -9 1 -27v-3q0 -6 4 -20.5t3 -22.5q-1 -9 1 -39q1 -14 2.5 -39.5t2.5 -46.5t1 -40q1 -32 8 -78q10 -1 72.5 0t73.5 -8q1 -2 4 -7.5t5 -9.5q7 -19 -1 -34t-27 -21
q-53 -16 -88 -14h-12q-27 -1 -24 -28q2 -24 10 -141q7 -124 8 -151q3 -70 2 -80q-1 -9 0 -20t3 -24t3 -20q2 -14 0 -21q-4 -13 3 -30q4 -11 4 -27q0 -4 -1 -18.5t0 -21.5q5 -50 5 -89q0 -13 15 -16q3 -1 9 -1q31 1 93 1q20 0 24 -1q19 -4 29 -19t7 -34q-2 -10 -8 -13
q-37 -24 -55 -24q-66 0 -99 -4q-25 -3 -52 2q-19 3 -30 19q-18 26 -18 45q0 12 -3.5 34t-3.5 27q-1 7 0 20t1 17v18q-7 28 -6 58q1 20 -4 92q-3 61 -11 172q-2 23 -5.5 97.5t-7.5 114.5q-4 34 -3 52q2 23 -2 65t-4 58q0 15 -1 32t-2.5 37.5t-2.5 31.5q0 2 -1 9t0 10
q1 5 -2 58q-2 35 -4 101q0 10 -2 28q-1 7 -2 23t-1 23q0 10 -1 15q-4 14 -6 83q-1 19 -5 52q-2 22 9 54q5 12 10 14q32 16 43 16q6 0 18 1.5t22 1.5t18 -3q13 4 39 4.5t29 0.5q37 3 67 2q15 0 26.5 -13.5t9.5 -28.5q-2 -23 -13.5 -34t-35.5 -13q-39 -4 -59 -1q-9 2 -18 0z
" />
    <glyph glyph-name="E" unicode="&#xcb;" horiz-adv-x="419" 
d="M225 1372q-11 -1 -33.5 -3.5t-33.5 -3.5q-9 -34 -3 -52q1 -2 1 -6q-3 -17 2 -51.5t1 -52.5q-1 -4 2 -34q1 -9 1 -27v-3q0 -6 4 -20.5t3 -22.5q-1 -9 1 -39q1 -14 2.5 -39.5t2.5 -46.5t1 -40q1 -32 8 -78q10 -1 72.5 0t73.5 -8q1 -2 4 -7.5t5 -9.5q7 -19 -1 -34t-27 -21
q-53 -16 -88 -14h-12q-27 -1 -24 -28q2 -24 10 -141q7 -124 8 -151q3 -70 2 -80q-1 -9 0 -20t3 -24t3 -20q2 -14 0 -21q-4 -13 3 -30q4 -11 4 -27q0 -4 -1 -18.5t0 -21.5q5 -50 5 -89q0 -13 15 -16q3 -1 9 -1q31 1 93 1q20 0 24 -1q19 -4 29 -19t7 -34q-2 -10 -8 -13
q-37 -24 -55 -24q-66 0 -99 -4q-25 -3 -52 2q-19 3 -30 19q-18 26 -18 45q0 12 -3.5 34t-3.5 27q-1 7 0 20t1 17v18q-7 28 -6 58q1 20 -4 92q-3 61 -11 172q-2 23 -5.5 97.5t-7.5 114.5q-4 34 -3 52q2 23 -2 65t-4 58q0 15 -1 32t-2.5 37.5t-2.5 31.5q0 2 -1 9t0 10
q1 5 -2 58q-2 35 -4 101q0 10 -2 28q-1 7 -2 23t-1 23q0 10 -1 15q-4 14 -6 83q-1 19 -5 52q-2 22 9 54q5 12 10 14q32 16 43 16q6 0 18 1.5t22 1.5t18 -3q13 4 39 4.5t29 0.5q37 3 67 2q15 0 26.5 -13.5t9.5 -28.5q-2 -23 -13.5 -34t-35.5 -13q-39 -4 -59 -1q-9 2 -18 0z
" />
    <glyph glyph-name="E" unicode="&#xca;" horiz-adv-x="419" 
d="M225 1372q-11 -1 -33.5 -3.5t-33.5 -3.5q-9 -34 -3 -52q1 -2 1 -6q-3 -17 2 -51.5t1 -52.5q-1 -4 2 -34q1 -9 1 -27v-3q0 -6 4 -20.5t3 -22.5q-1 -9 1 -39q1 -14 2.5 -39.5t2.5 -46.5t1 -40q1 -32 8 -78q10 -1 72.5 0t73.5 -8q1 -2 4 -7.5t5 -9.5q7 -19 -1 -34t-27 -21
q-53 -16 -88 -14h-12q-27 -1 -24 -28q2 -24 10 -141q7 -124 8 -151q3 -70 2 -80q-1 -9 0 -20t3 -24t3 -20q2 -14 0 -21q-4 -13 3 -30q4 -11 4 -27q0 -4 -1 -18.5t0 -21.5q5 -50 5 -89q0 -13 15 -16q3 -1 9 -1q31 1 93 1q20 0 24 -1q19 -4 29 -19t7 -34q-2 -10 -8 -13
q-37 -24 -55 -24q-66 0 -99 -4q-25 -3 -52 2q-19 3 -30 19q-18 26 -18 45q0 12 -3.5 34t-3.5 27q-1 7 0 20t1 17v18q-7 28 -6 58q1 20 -4 92q-3 61 -11 172q-2 23 -5.5 97.5t-7.5 114.5q-4 34 -3 52q2 23 -2 65t-4 58q0 15 -1 32t-2.5 37.5t-2.5 31.5q0 2 -1 9t0 10
q1 5 -2 58q-2 35 -4 101q0 10 -2 28q-1 7 -2 23t-1 23q0 10 -1 15q-4 14 -6 83q-1 19 -5 52q-2 22 9 54q5 12 10 14q32 16 43 16q6 0 18 1.5t22 1.5t18 -3q13 4 39 4.5t29 0.5q37 3 67 2q15 0 26.5 -13.5t9.5 -28.5q-2 -23 -13.5 -34t-35.5 -13q-39 -4 -59 -1q-9 2 -18 0z
" />
    <glyph glyph-name="E" unicode="&#xc9;" horiz-adv-x="419" 
d="M225 1372q-11 -1 -33.5 -3.5t-33.5 -3.5q-9 -34 -3 -52q1 -2 1 -6q-3 -17 2 -51.5t1 -52.5q-1 -4 2 -34q1 -9 1 -27v-3q0 -6 4 -20.5t3 -22.5q-1 -9 1 -39q1 -14 2.5 -39.5t2.5 -46.5t1 -40q1 -32 8 -78q10 -1 72.5 0t73.5 -8q1 -2 4 -7.5t5 -9.5q7 -19 -1 -34t-27 -21
q-53 -16 -88 -14h-12q-27 -1 -24 -28q2 -24 10 -141q7 -124 8 -151q3 -70 2 -80q-1 -9 0 -20t3 -24t3 -20q2 -14 0 -21q-4 -13 3 -30q4 -11 4 -27q0 -4 -1 -18.5t0 -21.5q5 -50 5 -89q0 -13 15 -16q3 -1 9 -1q31 1 93 1q20 0 24 -1q19 -4 29 -19t7 -34q-2 -10 -8 -13
q-37 -24 -55 -24q-66 0 -99 -4q-25 -3 -52 2q-19 3 -30 19q-18 26 -18 45q0 12 -3.5 34t-3.5 27q-1 7 0 20t1 17v18q-7 28 -6 58q1 20 -4 92q-3 61 -11 172q-2 23 -5.5 97.5t-7.5 114.5q-4 34 -3 52q2 23 -2 65t-4 58q0 15 -1 32t-2.5 37.5t-2.5 31.5q0 2 -1 9t0 10
q1 5 -2 58q-2 35 -4 101q0 10 -2 28q-1 7 -2 23t-1 23q0 10 -1 15q-4 14 -6 83q-1 19 -5 52q-2 22 9 54q5 12 10 14q32 16 43 16q6 0 18 1.5t22 1.5t18 -3q13 4 39 4.5t29 0.5q37 3 67 2q15 0 26.5 -13.5t9.5 -28.5q-2 -23 -13.5 -34t-35.5 -13q-39 -4 -59 -1q-9 2 -18 0z
" />
    <glyph glyph-name="E" unicode="&#xc8;" horiz-adv-x="419" 
d="M225 1372q-11 -1 -33.5 -3.5t-33.5 -3.5q-9 -34 -3 -52q1 -2 1 -6q-3 -17 2 -51.5t1 -52.5q-1 -4 2 -34q1 -9 1 -27v-3q0 -6 4 -20.5t3 -22.5q-1 -9 1 -39q1 -14 2.5 -39.5t2.5 -46.5t1 -40q1 -32 8 -78q10 -1 72.5 0t73.5 -8q1 -2 4 -7.5t5 -9.5q7 -19 -1 -34t-27 -21
q-53 -16 -88 -14h-12q-27 -1 -24 -28q2 -24 10 -141q7 -124 8 -151q3 -70 2 -80q-1 -9 0 -20t3 -24t3 -20q2 -14 0 -21q-4 -13 3 -30q4 -11 4 -27q0 -4 -1 -18.5t0 -21.5q5 -50 5 -89q0 -13 15 -16q3 -1 9 -1q31 1 93 1q20 0 24 -1q19 -4 29 -19t7 -34q-2 -10 -8 -13
q-37 -24 -55 -24q-66 0 -99 -4q-25 -3 -52 2q-19 3 -30 19q-18 26 -18 45q0 12 -3.5 34t-3.5 27q-1 7 0 20t1 17v18q-7 28 -6 58q1 20 -4 92q-3 61 -11 172q-2 23 -5.5 97.5t-7.5 114.5q-4 34 -3 52q2 23 -2 65t-4 58q0 15 -1 32t-2.5 37.5t-2.5 31.5q0 2 -1 9t0 10
q1 5 -2 58q-2 35 -4 101q0 10 -2 28q-1 7 -2 23t-1 23q0 10 -1 15q-4 14 -6 83q-1 19 -5 52q-2 22 9 54q5 12 10 14q32 16 43 16q6 0 18 1.5t22 1.5t18 -3q13 4 39 4.5t29 0.5q37 3 67 2q15 0 26.5 -13.5t9.5 -28.5q-2 -23 -13.5 -34t-35.5 -13q-39 -4 -59 -1q-9 2 -18 0z
" />
    <glyph glyph-name="F" unicode="F" horiz-adv-x="387" 
d="M106 1449q4 2 3 1q68 -2 89 -2q82 0 123 1q13 0 29 -9q17 -10 18.5 -27t-12.5 -30q-27 -25 -58 -24q-21 1 -60 0t-51 -1q-22 0 -20 -21q5 -61 4 -104q0 -61 2 -70q2 -7 1 -9q-5 -10 0 -46t2 -67q-1 -9 0 -23.5t1 -19.5q1 -28 1 -83v-15q7 -21 5 -49q0 -1 5 -19
q36 -2 53 -3h21q42 0 55 -35q1 -27 -15 -42.5t-42 -12.5q-12 1 -35 -0.5t-34 -0.5q-7 -9 -7 -35q0 -7 0.5 -23t0.5 -23q0 -16 1 -33t2.5 -38t2.5 -33q1 -6 0 -20t0 -20q1 -11 -0.5 -35.5t0.5 -34.5q7 -54 7 -162q0 -6 -1 -21.5t-0.5 -27t4.5 -21.5q-4 -10 -1.5 -46t2.5 -46
q-1 -16 4 -77q1 -20 -7 -42q-5 -13 -19.5 -20t-28.5 -1q-20 8 -29 19t-9 37q0 11 -1.5 84t0.5 85q2 31 -5 55q-3 10 -1 34q1 17 -4 128v34v34q-1 13 -0.5 44.5t-1.5 44.5q-2 18 -1 52t-1 52q-5 58 -3 73q2 20 -2 34q-2 9 -2 42q0 11 0.5 33.5t0.5 34.5q0 6 -2 18.5t-2 15.5
q-2 14 -1 21q2 9 0 45t-2 45q0 6 1 26.5t0 31.5q0 18 -1 38t-2.5 44.5t-2.5 37.5q-1 14 1 40q0 1 0.5 3t0.5 3q-4 17 -4 48.5t-2 42.5q0 3 -1 8t-1 8q-5 28 1.5 43.5t30.5 30.5z" />
    <glyph glyph-name="G" unicode="G" horiz-adv-x="626" 
d="M359 447v-2h16q50 2 62 0q11 -2 22 0q7 5 56 3t56 -2q30 0 50 -41q4 -8 -1 -20t-15 -17q-22 -11 -38 -11q-5 0 -22 -1.5t-22 1.5q-2 1 -15 -2q-11 -3 -12 -13q-1 -5 -1 -16q2 -35 1 -44q-1 -8 0.5 -21.5t1.5 -17.5q0 -64 -19 -95q-5 -7 -5 -14q0 -8 -5 -21t-6 -17
q-3 -12 -9.5 -23.5t-16 -24.5t-13.5 -20q-4 -5 -9 -9l-57 -33q-21 -9 -36 -6q-4 1 -22 1q-9 0 -12 2q-2 1 -15 8.5t-16.5 10t-14 9t-15.5 11.5l-12 12t-12 15q-3 5 -12 15.5t-13 16.5q-12 22 -34 66q-15 32 -25 71q-3 11 -10 31.5t-8 24.5q-18 60 -24 123q-1 12 -5.5 44
t-5.5 49q-1 20 -1.5 42.5t-1 50t-0.5 42.5q0 67 -1 81q-2 26 3 129q2 55 6 74q3 17 7.5 60.5t10.5 66.5q1 2 1 8t1 8q8 61 26 126l12 48q12 53 41 102q20 33 40 56q26 30 43 39q54 31 105 21q7 -1 20 -7.5t18 -8.5q16 -5 32 -18q44 -33 54 -84q2 -15 4 -18q11 -24 -11 -59
q-15 -22 -44 -19q-5 0 -8 3q-27 25 -27 45v6q-1 60 -59 67q-34 4 -59 -28q-24 -32 -35 -48q-5 -9 -8 -17t-8.5 -23t-8.5 -23q-1 -2 -2.5 -6t-1.5 -6q-2 -12 -9 -37t-9 -39q-1 -5 -15 -80q0 -2 -2 -7t-2 -8q0 -10 -11 -68q-1 -5 -0.5 -17t0.5 -17q-1 -24 -6 -70.5t-6 -69.5
q-5 -82 0 -109q1 -6 1 -19q-4 -64 3 -128q3 -21 5 -60.5t4 -55.5q1 -11 3 -22.5t5 -26t4 -22.5q2 -10 1 -15q-1 -16 7 -30q1 -1 9 -26q3 -10 9.5 -30t9.5 -30q1 -2 5 -11q2 -4 15 -34q18 -45 40 -62q4 -3 12 -11l11 -11q27 -22 52 3q34 34 46 86q6 24 7.5 69t2.5 53
q-2 6 -2.5 14t0 14.5t-0.5 14.5q-1 18 -18 18q-51 -2 -72 3q-2 1 -9 -2q-17 -6 -47 11q-22 13 -9 44q14 33 58 35h53z" />
    <glyph glyph-name="H" unicode="H" horiz-adv-x="520" 
d="M184 841v-83q51 -8 72 -9l57 -3q15 -2 24 11q0 10 -1.5 32.5t-2.5 34.5q0 14 2 44q1 10 -0.5 39.5t1.5 39.5q2 6 0 12q-4 29 -4 133q0 18 -1 52t-1 52q0 101 1 110q0 2 -0.5 6t-0.5 6t-0.5 6.5t-0.5 6.5q0 12 -1 40t0.5 49t6.5 40q30 19 32 20q19 10 34 -8q23 -28 17 -65
q-2 -18 1 -28q4 -15 4 -35q-1 -17 -3 -49t-2 -49q0 -21 1 -31q5 -50 5 -59q1 -54 0 -107q0 -27 2 -41v-57v-25v-31v-39t1 -39q3 -39 1 -66q-3 -28 0 -56q2 -28 2 -85v-75q2 -29 2 -88q0 -29 -2 -85q0 -3 0.5 -9.5t0.5 -9.5q0 -2 1.5 -15.5t1.5 -21.5q0 -48 1 -57
q3 -37 2 -66t2 -66q3 -30 -20 -75q-11 -20 -35 -18q-22 1 -30 23q-11 28 -11 55q0 23 -0.5 70.5t-0.5 71.5v44q0 14 0.5 42.5t0.5 42.5q0 29 -3 57q-1 11 -1 23t0.5 27t0.5 23q0 1 0.5 4t0.5 5q-2 18 -2.5 40t0 40t-0.5 40q0 20 -21 21q-15 1 -45.5 3.5t-45.5 3.5
q-1 0 -3 0.5t-3 0.5q-24 0 -31 -7.5t-6 -32.5v-93v-142q0 -11 1.5 -32t1 -37t-3.5 -31q-1 -6 1 -16q2 -25 0 -34v-19q0 -7 -0.5 -19t-0.5 -18q0 -44 2 -66t-6 -63q-5 -22 -36 -38q-3 -2 -12 0q-17 5 -29.5 21.5t-11.5 33.5q1 19 -1 56q-1 11 1 33t2 31q0 15 -2 47
q0 3 -0.5 8t-0.5 7q6 76 1 114q0 5 2 35q1 10 0 56.5t3 56.5q-4 27 -3 77t-1 78q-2 5 -0.5 33t1.5 33v66q0 13 1 41t1 41q0 97 -1 117q-1 14 2 82q1 37 -3 111v34q2 79 1 101q-1 12 0 34.5t1 29.5q0 15 -1 22q-4 21 19 58q8 14 23 15q10 0 12 -1q36 -18 39 -53q2 -30 2 -44
l-3 -120q0 -10 2 -28q2 -31 -2 -41q-2 -4 -2 -30q0 -6 2 -19.5t1 -21.5l3 -114q0 -25 -3 -50q-3 -31 0 -63q1 -5 0 -29.5t-1 -29.5z" />
    <glyph glyph-name="I" unicode="I" horiz-adv-x="284" 
d="M118 55l1 1h1q-2 20 -4 56q0 9 1 25.5t0 24.5q0 6 -3.5 22t-2.5 24q1 33 0 66q-1 16 -1 49t-1 49q-1 30 -3.5 89.5t-3.5 89.5q0 15 -2 61t-2 71q0 14 -2.5 39.5t-2.5 35.5q-1 20 -1 60q0 50 -2 75q-2 19 -2 67.5t-5 74.5q2 17 -1 55t0 55q1 3 0 8t-1 7q-3 78 -7 227
q0 9 2 25q3 22 39 37q10 4 22.5 -4t16.5 -20q1 -2 6 -17.5t4.5 -18t-0.5 -19.5q-3 -16 1 -60q2 -14 2.5 -39.5t1.5 -35.5q2 -22 3.5 -61.5t1.5 -48.5q1 -16 1.5 -46t0.5 -39q0 -10 2 -28q0 -4 0.5 -11t0.5 -11q-2 -39 6 -119q3 -29 -1 -69q-2 -19 1 -35q3 -7 2 -44t-1 -44
q0 -8 2 -21.5t2 -18.5q2 -16 2 -25q0 -11 1 -33t1 -33q0 -8 0.5 -22t0.5 -22q0 -45 1 -50q2 -9 1 -25t1 -25q1 -4 1 -38q0 -48 4 -62l1 -2v-2q-3 -12 2 -65q1 -19 1.5 -54t0.5 -46q1 -30 1 -91q0 -32 -24 -43q-27 -13 -50 6q-9 7 -12 17q-2 6 -3 17t-2 14z" />
    <glyph glyph-name="I" unicode="&#xcf;" horiz-adv-x="284" 
d="M118 55l1 1h1q-2 20 -4 56q0 9 1 25.5t0 24.5q0 6 -3.5 22t-2.5 24q1 33 0 66q-1 16 -1 49t-1 49q-1 30 -3.5 89.5t-3.5 89.5q0 15 -2 61t-2 71q0 14 -2.5 39.5t-2.5 35.5q-1 20 -1 60q0 50 -2 75q-2 19 -2 67.5t-5 74.5q2 17 -1 55t0 55q1 3 0 8t-1 7q-3 78 -7 227
q0 9 2 25q3 22 39 37q10 4 22.5 -4t16.5 -20q1 -2 6 -17.5t4.5 -18t-0.5 -19.5q-3 -16 1 -60q2 -14 2.5 -39.5t1.5 -35.5q2 -22 3.5 -61.5t1.5 -48.5q1 -16 1.5 -46t0.5 -39q0 -10 2 -28q0 -4 0.5 -11t0.5 -11q-2 -39 6 -119q3 -29 -1 -69q-2 -19 1 -35q3 -7 2 -44t-1 -44
q0 -8 2 -21.5t2 -18.5q2 -16 2 -25q0 -11 1 -33t1 -33q0 -8 0.5 -22t0.5 -22q0 -45 1 -50q2 -9 1 -25t1 -25q1 -4 1 -38q0 -48 4 -62l1 -2v-2q-3 -12 2 -65q1 -19 1.5 -54t0.5 -46q1 -30 1 -91q0 -32 -24 -43q-27 -13 -50 6q-9 7 -12 17q-2 6 -3 17t-2 14z" />
    <glyph glyph-name="I" unicode="&#xce;" horiz-adv-x="284" 
d="M118 55l1 1h1q-2 20 -4 56q0 9 1 25.5t0 24.5q0 6 -3.5 22t-2.5 24q1 33 0 66q-1 16 -1 49t-1 49q-1 30 -3.5 89.5t-3.5 89.5q0 15 -2 61t-2 71q0 14 -2.5 39.5t-2.5 35.5q-1 20 -1 60q0 50 -2 75q-2 19 -2 67.5t-5 74.5q2 17 -1 55t0 55q1 3 0 8t-1 7q-3 78 -7 227
q0 9 2 25q3 22 39 37q10 4 22.5 -4t16.5 -20q1 -2 6 -17.5t4.5 -18t-0.5 -19.5q-3 -16 1 -60q2 -14 2.5 -39.5t1.5 -35.5q2 -22 3.5 -61.5t1.5 -48.5q1 -16 1.5 -46t0.5 -39q0 -10 2 -28q0 -4 0.5 -11t0.5 -11q-2 -39 6 -119q3 -29 -1 -69q-2 -19 1 -35q3 -7 2 -44t-1 -44
q0 -8 2 -21.5t2 -18.5q2 -16 2 -25q0 -11 1 -33t1 -33q0 -8 0.5 -22t0.5 -22q0 -45 1 -50q2 -9 1 -25t1 -25q1 -4 1 -38q0 -48 4 -62l1 -2v-2q-3 -12 2 -65q1 -19 1.5 -54t0.5 -46q1 -30 1 -91q0 -32 -24 -43q-27 -13 -50 6q-9 7 -12 17q-2 6 -3 17t-2 14z" />
    <glyph glyph-name="I" unicode="&#xcd;" horiz-adv-x="284" 
d="M118 55l1 1h1q-2 20 -4 56q0 9 1 25.5t0 24.5q0 6 -3.5 22t-2.5 24q1 33 0 66q-1 16 -1 49t-1 49q-1 30 -3.5 89.5t-3.5 89.5q0 15 -2 61t-2 71q0 14 -2.5 39.5t-2.5 35.5q-1 20 -1 60q0 50 -2 75q-2 19 -2 67.5t-5 74.5q2 17 -1 55t0 55q1 3 0 8t-1 7q-3 78 -7 227
q0 9 2 25q3 22 39 37q10 4 22.5 -4t16.5 -20q1 -2 6 -17.5t4.5 -18t-0.5 -19.5q-3 -16 1 -60q2 -14 2.5 -39.5t1.5 -35.5q2 -22 3.5 -61.5t1.5 -48.5q1 -16 1.5 -46t0.5 -39q0 -10 2 -28q0 -4 0.5 -11t0.5 -11q-2 -39 6 -119q3 -29 -1 -69q-2 -19 1 -35q3 -7 2 -44t-1 -44
q0 -8 2 -21.5t2 -18.5q2 -16 2 -25q0 -11 1 -33t1 -33q0 -8 0.5 -22t0.5 -22q0 -45 1 -50q2 -9 1 -25t1 -25q1 -4 1 -38q0 -48 4 -62l1 -2v-2q-3 -12 2 -65q1 -19 1.5 -54t0.5 -46q1 -30 1 -91q0 -32 -24 -43q-27 -13 -50 6q-9 7 -12 17q-2 6 -3 17t-2 14z" />
    <glyph glyph-name="I" unicode="&#xcc;" horiz-adv-x="284" 
d="M118 55l1 1h1q-2 20 -4 56q0 9 1 25.5t0 24.5q0 6 -3.5 22t-2.5 24q1 33 0 66q-1 16 -1 49t-1 49q-1 30 -3.5 89.5t-3.5 89.5q0 15 -2 61t-2 71q0 14 -2.5 39.5t-2.5 35.5q-1 20 -1 60q0 50 -2 75q-2 19 -2 67.5t-5 74.5q2 17 -1 55t0 55q1 3 0 8t-1 7q-3 78 -7 227
q0 9 2 25q3 22 39 37q10 4 22.5 -4t16.5 -20q1 -2 6 -17.5t4.5 -18t-0.5 -19.5q-3 -16 1 -60q2 -14 2.5 -39.5t1.5 -35.5q2 -22 3.5 -61.5t1.5 -48.5q1 -16 1.5 -46t0.5 -39q0 -10 2 -28q0 -4 0.5 -11t0.5 -11q-2 -39 6 -119q3 -29 -1 -69q-2 -19 1 -35q3 -7 2 -44t-1 -44
q0 -8 2 -21.5t2 -18.5q2 -16 2 -25q0 -11 1 -33t1 -33q0 -8 0.5 -22t0.5 -22q0 -45 1 -50q2 -9 1 -25t1 -25q1 -4 1 -38q0 -48 4 -62l1 -2v-2q-3 -12 2 -65q1 -19 1.5 -54t0.5 -46q1 -30 1 -91q0 -32 -24 -43q-27 -13 -50 6q-9 7 -12 17q-2 6 -3 17t-2 14z" />
    <glyph glyph-name="J" unicode="J" horiz-adv-x="440" 
d="M249 1354q0 4 -6 20h-68h-5h-6h-5q-21 6 -45 -1q-27 -7 -43 6q-1 1 -12 4q-20 6 -24 10.5t-12 27.5q1 1 7.5 15.5t13.5 19.5q18 13 35 13q8 0 30.5 1.5t34.5 0.5q23 -1 66 0t62 1h6q52 6 69 -44q-15 -34 -7 -73q5 -24 -1 -71q-3 -22 4 -38q6 -13 4 -25q-4 -10 -1.5 -48
t2.5 -48q-3 -75 -1 -128q1 -10 0.5 -46.5t2.5 -46.5q2 -12 2 -15q-4 -13 -4.5 -27.5t1 -33.5t1.5 -28q0 -10 1 -40t0 -47q-1 -51 3 -102q2 -6 0.5 -50t-1.5 -50q0 -8 2 -22q4 -46 0 -64q-3 -11 -1 -13q5 -10 5 -22t-1.5 -26t-1.5 -22q0 -11 -1 -33.5t-1 -33.5q0 -49 -1 -54
q-3 -13 -6.5 -39.5t-6.5 -39.5q-1 -7 -11 -31q-14 -29 -18 -37q-2 -4 -9 -11l-8 -8q-15 -18 -70 -49q-5 -3 -22 -5q-54 -8 -93 31q-10 10 -28 32q-21 25 -24 52q-1 8 -5 21.5t-5 18.5q-6 28 -4 109q0 9 2.5 26.5t2.5 24.5q2 38 33 48q2 0 8 -2l9 -3q32 -6 39 -46
q5 -25 -1 -76q-10 -65 22 -117q2 -2 11 -12q21 -21 43 -3q39 33 42 88q3 23 3 25q4 16 4 61q0 29 0.5 88t0.5 89q0 53 -4 96q-2 20 -4 119v112q0 8 2 22.5t2 19.5q0 3 -1 9.5t-1 9.5q0 6 -1 17t-1.5 20t-0.5 17q0 12 0.5 35.5t0.5 35.5q0 9 -1.5 29.5t-2 29t1.5 28.5
q2 18 -1 53t0 53q1 5 -0.5 15.5t-1.5 15.5v25t2 30q2 4 0 25t-2 26v17.5v20.5v17z" />
    <glyph glyph-name="K" unicode="K" horiz-adv-x="514" 
d="M179 1043q1 -9 1 -49.5t5 -63.5q14 2 21 18q5 12 15 35t16 35q3 6 14.5 29.5t16.5 36.5q40 106 47 162q7 16 10.5 34t6.5 40.5t5 34.5q4 20 6 80q2 46 44 49q18 2 34 -11.5t17 -31.5q2 -26 -4 -76q-4 -35 -16 -95q-2 -9 -5 -26.5t-6 -31.5t-7 -26q-2 -6 -4 -18
q-2 -15 -5 -19q-6 -9 -10.5 -20.5t-9 -25.5t-7.5 -22q-8 -20 5 -39q11 -16 29 -71q2 -1 0.5 -7.5t-1.5 -7.5q0 -11 1 -13q8 -17 11.5 -50.5t7.5 -46.5q-3 -15 1 -42t2 -40q-1 -10 1 -27.5t2 -23.5t1.5 -43t-0.5 -43q-2 -16 1 -28q6 -22 4 -77q-1 -15 0.5 -42t1.5 -37
q0 -52 1 -79q3 -120 3 -121q0 -27 -4 -83q-1 -10 -4 -31t-3 -32q-2 -25 -29 -62q-3 -4 -15 -6q-14 -2 -29 8t-16 24q-6 49 -2 74q3 19 8 172q0 10 2 32q0 2 1.5 11t-0.5 11q-3 9 -4 20.5t-0.5 20.5t-0.5 20q-1 24 -3 73t-3 74q-4 50 0 83q0 9 -1 13q-10 43 -4 82q1 5 -2 26
q-1 19 -3.5 59t-4.5 59q-1 13 -7 37q0 4 -4 4q-8 0 -8 -3q-2 -12 -15 -30.5t-15 -29.5q-5 -7 -17 -24.5t-21 -29.5t-20 -21q-28 -23 -28 -68q0 -12 5 -70v-3l-3 -143q-1 -20 -0.5 -30t2 -29.5t1.5 -29.5q2 -73 -1 -90q-2 -12 1 -22q3 -14 3.5 -29.5t0 -35t-0.5 -30.5
q0 -6 -0.5 -19t-0.5 -19q0 -8 1 -22t1 -25.5t-2 -22.5q-1 -5 0.5 -13.5t1.5 -11.5q0 -28 -8 -37q-11 -12 -35 -27q-5 -3 -18 5q-23 15 -29 40q-3 12 -3 26q-1 20 -1 62t-1 62q0 14 -0.5 40t-0.5 40q0 4 1 12.5t1 12.5q0 47 -1 70q0 4 -1.5 14t-0.5 15q1 21 0 61t-1 57
q1 59 0 119q0 7 -2 22t-2 22q0 48 0.5 143.5t0.5 143.5q0 19 -2 53.5t-2 45.5q-1 25 0 51q3 38 -2 99q-1 4 0 12t1 10q0 40 -1 48q-3 19 0 131q0 35 37 52q15 7 27 -4q22 -19 25 -42q2 -17 4 -55v-38q2 -51 -1 -92q-1 -27 3 -54q3 -8 1.5 -35.5t-1.5 -34.5q0 -12 -1.5 -44
t0.5 -44z" />
    <glyph glyph-name="L" unicode="L" horiz-adv-x="391" 
d="M192 146q-3 -14 -3.5 -17.5t2.5 -18t4 -19.5q9 0 18.5 -0.5t21 -1.5t17.5 -1q56 -2 75 -6q29 -5 45 -20q4 -10 5 -21q3 -15 -5 -26.5t-23 -14.5q-60 -12 -109 -5q-45 5 -76 4q-25 -1 -53 16q-17 11 -16 28q3 27 3 28q1 18 1 53q0 14 -0.5 41t-0.5 40q0 16 -0.5 48
t-0.5 48q0 12 -1.5 41.5t-0.5 45.5q1 7 0 43.5t-1 43.5q0 30 -2 90v3q5 11 2.5 67t-2.5 67q0 14 -0.5 43t-0.5 44q0 7 1 22t1 22q0 2 -2.5 22.5t1.5 23.5q-4 7 -2 33t1 33q-1 13 -1.5 35.5t-0.5 29.5q-3 127 -2 143q2 52 -3 131q-1 5 0 15.5t1 13.5q0 2 3 33t-2 34
q-3 9 2 43q2 8 8 13q24 23 54 17q16 -11 20 -38q4 -32 10 -96q1 -7 -2 -28t1 -28q-5 -17 -1 -60t2 -61q-1 -12 -1 -71v-22q0 -9 1.5 -37t0.5 -43q-1 -10 2 -112v-28q-1 -30 2 -68q3 -49 -4 -84q-1 -3 2 -28q3 -35 2 -43q-2 -24 1 -59q3 -36 1 -62q-1 -15 1 -90q2 -60 1 -72
q-1 -6 2 -62v-12q-8 -41 2 -93q1 -4 -1 -10z" />
    <glyph glyph-name="M" unicode="M" horiz-adv-x="612" 
d="M520 73q2 -35 -14 -58q-26 -13 -49 -8q-25 6 -26 27q0 8 -2 27t-2 27.5t2 27.5q1 3 0 20t-1 21q0 31 1 47q0 1 1 5.5t0 6.5q-5 11 -3 42.5t0 42.5v9q5 31 1 119q-1 14 2 85v22l-3 69v75q0 1 -1 4.5t0 5.5q7 9 1.5 40t-4.5 40q-14 -72 -15 -91q-1 -9 -3.5 -24.5
t-2.5 -18.5q-9 -78 -16 -125q0 -2 -6 -25q-4 -16 -3 -24q2 -13 -2 -22q-7 -22 -8 -27q-1 -28 -26 -40q-13 -7 -15 -8q-22 1 -48 18q-20 12 -21 33q-1 19 -4.5 39.5t-9 46t-7.5 38.5q-3 23 -10 68.5t-11 68.5q-1 9 -5 26.5t-5 26.5t-4 26.5t-5 26.5q-1 8 -9 18q-5 -10 -5 -31
q2 -28 1 -41q-2 -51 1 -69q1 -7 -1.5 -21t-2.5 -19t3 -17.5t2 -19.5q-2 -17 0 -66q1 -16 0 -46t-1 -39q0 -18 0.5 -55t0.5 -55q0 -25 -1 -38q-1 -16 0.5 -70.5t-2.5 -70.5q-1 -8 4 -62q4 -38 -34 -67q-11 -9 -24 -4q-24 9 -31 37q-5 20 -5 37q-1 11 0 30.5t1 25.5v101
q0 4 -1.5 28t0.5 28q0 5 1 14t2 14v16q-4 19 -4 85q0 55 1 82q2 56 -1 84q-2 14 1 85q0 15 -1 45.5t0 45.5q0 4 -1.5 42t3.5 42q1 2 0 11t-1 11q0 70 1 79t-1.5 27t-2.5 26q1 16 0 46t-1 39q0 6 2 17t2 14v12q-3 18 -3.5 26t2 26t2.5 26q0 2 1.5 12.5t-0.5 12.5q-2 10 -5 72
q0 18 2 110q0 5 3 13.5t4 10.5q6 20 31.5 23t36.5 -13q10 -15 11 -19q8 -32 11 -49l15 -93q3 -19 9.5 -57.5t9.5 -57.5t9 -59t9 -59q2 -12 7 -33.5t6 -28.5q1 -6 3.5 -18.5t3.5 -18.5q1 -5 4 -34t7 -44q4 -13 8.5 -37t5.5 -30q2 -8 7 -50q1 -6 5.5 -22.5t3.5 -26.5
q-1 -8 2.5 -24.5t3.5 -19.5q9 4 9 5q-1 10 9 65q2 8 7 72q2 27 6 40q6 18 8 49q1 14 5 39.5t5 34.5q3 23 8.5 69t8.5 69q3 20 9.5 59t9.5 59q1 8 2 26.5t3 27.5q5 20 12 99q2 24 11 43q12 25 30 29q4 1 20 8q1 -1 4.5 -2.5t4.5 -2.5q5 -4 12 -9t9.5 -7t6.5 -4.5t4.5 -5
t2.5 -4.5t2 -6t1 -8t2 -12t2 -15q3 -16 1 -46.5t0 -46.5v-38q0 -19 -1 -22q-5 -13 -1 -37q7 -39 3 -104q-2 -63 0 -84q1 -5 -2 -50q0 -4 -1 -12t-1.5 -14.5t-0.5 -11.5q3 -11 2.5 -99t-0.5 -99v-78.5t1 -78.5q0 -16 -1.5 -52t-0.5 -55q1 -18 0.5 -66t1.5 -66q1 -12 1 -107
v-78q2 -20 -1 -37q-1 -6 -1 -35z" />
    <glyph glyph-name="N" unicode="N" horiz-adv-x="534" 
d="M203 699q-3 24 -13 41l-4 -10q0 -6 1 -19t1 -20q3 -53 2 -60t2 -64q0 -4 -0.5 -13.5t-0.5 -14.5v-12q4 -17 2 -61q-4 -52 4 -114q1 -9 1 -51q3 -107 5 -123q1 -3 0 -10t-1 -9q0 -43 1 -48q4 -22 -9 -76q-4 -16 -18 -24t-32 -1q-24 8 -29 30q-6 21 -8 92q-1 0 -1 42l1 41
q0 8 0.5 23.5t0.5 23.5v10q-6 8 -5 49t0 50q-6 68 -4 102q1 12 0 34.5t-1 29.5v79q0 11 -2 47t-2 55q0 5 -1 33t0 34q4 53 -3 79q-2 10 -2 12q5 16 1 73.5t-4 73.5q0 17 0.5 50t0.5 49q0 5 -1 13.5t-1 12.5q0 7 -1.5 55t0.5 56q3 27 -6 98q-4 33 9 69q9 25 33 26
q28 2 41 -20q9 -14 12 -33q11 -61 31 -183q2 -11 5 -33t5 -33q1 -6 5 -18q9 -35 16 -78q5 -36 8 -46q3 -12 8 -53q2 -19 6 -28q9 -20 6 -37q-2 -16 4 -28q11 -23 20 -87q1 -7 4 -20t4 -20q6 -39 6 -41q2 -14 10.5 -55t11.5 -64q0 -3 21 -109q2 -11 11 -11q0 3 -1.5 8.5
t-2.5 8.5q-2 11 -1 16q3 13 3.5 29.5t0 29.5t0.5 29q1 11 -0.5 30.5t-1.5 27.5q0 11 -1.5 39t-0.5 43q2 55 0 109q0 7 1 22.5t0.5 27.5t-2.5 23q0 1 0.5 3t0.5 3q5 22 1 67q-4 60 0 79v7q-5 5 -3 41t2 41q-2 45 -2 135q0 24 0.5 72t0.5 72q0 23 18 46q12 16 30.5 13.5
t31.5 -20.5q18 -25 15 -64q-4 -32 1 -53q2 -11 -1 -19q-5 -17 -1 -66q2 -21 0 -42q-1 -10 -0.5 -37.5t-1.5 -38.5q-1 -10 -0.5 -15t2 -16t1.5 -16q0 -2 1.5 -7.5t0.5 -8.5q-3 -16 -2 -52.5t-4 -52.5q-2 -8 0 -16q7 -48 4 -86q0 -1 1 -6t0 -7q-5 -30 1 -76q1 -7 -0.5 -19
t-1.5 -16q0 -6 -2 -44.5t3 -43.5q2 -5 1 -7q-5 -10 -5.5 -21t2 -26.5t2.5 -21.5q0 -10 1.5 -32.5t2 -32t-1.5 -31.5q-3 -6 -1 -49.5t2 -49.5q0 -9 -1.5 -54t0.5 -54q1 -10 -1.5 -59t3.5 -59q-4 -9 -4 -18.5t2 -23t2 -18.5q1 -19 -20 -70q-6 -15 -22 -16q-12 -2 -16 -4
q-25 -9 -46 18q-18 26 -27 67q-2 7 -8 45t-12 58q-3 13 -6.5 38.5t-4.5 31.5q-3 17 -10 50t-10 50q-16 80 -21 120q-3 23 -13.5 67t-13.5 64q-2 13 -7 41t-8 41z" />
    <glyph glyph-name="N" unicode="&#xd1;" horiz-adv-x="534" 
d="M203 699q-3 24 -13 41l-4 -10q0 -6 1 -19t1 -20q3 -53 2 -60t2 -64q0 -4 -0.5 -13.5t-0.5 -14.5v-12q4 -17 2 -61q-4 -52 4 -114q1 -9 1 -51q3 -107 5 -123q1 -3 0 -10t-1 -9q0 -43 1 -48q4 -22 -9 -76q-4 -16 -18 -24t-32 -1q-24 8 -29 30q-6 21 -8 92q-1 0 -1 42l1 41
q0 8 0.5 23.5t0.5 23.5v10q-6 8 -5 49t0 50q-6 68 -4 102q1 12 0 34.5t-1 29.5v79q0 11 -2 47t-2 55q0 5 -1 33t0 34q4 53 -3 79q-2 10 -2 12q5 16 1 73.5t-4 73.5q0 17 0.5 50t0.5 49q0 5 -1 13.5t-1 12.5q0 7 -1.5 55t0.5 56q3 27 -6 98q-4 33 9 69q9 25 33 26
q28 2 41 -20q9 -14 12 -33q11 -61 31 -183q2 -11 5 -33t5 -33q1 -6 5 -18q9 -35 16 -78q5 -36 8 -46q3 -12 8 -53q2 -19 6 -28q9 -20 6 -37q-2 -16 4 -28q11 -23 20 -87q1 -7 4 -20t4 -20q6 -39 6 -41q2 -14 10.5 -55t11.5 -64q0 -3 21 -109q2 -11 11 -11q0 3 -1.5 8.5
t-2.5 8.5q-2 11 -1 16q3 13 3.5 29.5t0 29.5t0.5 29q1 11 -0.5 30.5t-1.5 27.5q0 11 -1.5 39t-0.5 43q2 55 0 109q0 7 1 22.5t0.5 27.5t-2.5 23q0 1 0.5 3t0.5 3q5 22 1 67q-4 60 0 79v7q-5 5 -3 41t2 41q-2 45 -2 135q0 24 0.5 72t0.5 72q0 23 18 46q12 16 30.5 13.5
t31.5 -20.5q18 -25 15 -64q-4 -32 1 -53q2 -11 -1 -19q-5 -17 -1 -66q2 -21 0 -42q-1 -10 -0.5 -37.5t-1.5 -38.5q-1 -10 -0.5 -15t2 -16t1.5 -16q0 -2 1.5 -7.5t0.5 -8.5q-3 -16 -2 -52.5t-4 -52.5q-2 -8 0 -16q7 -48 4 -86q0 -1 1 -6t0 -7q-5 -30 1 -76q1 -7 -0.5 -19
t-1.5 -16q0 -6 -2 -44.5t3 -43.5q2 -5 1 -7q-5 -10 -5.5 -21t2 -26.5t2.5 -21.5q0 -10 1.5 -32.5t2 -32t-1.5 -31.5q-3 -6 -1 -49.5t2 -49.5q0 -9 -1.5 -54t0.5 -54q1 -10 -1.5 -59t3.5 -59q-4 -9 -4 -18.5t2 -23t2 -18.5q1 -19 -20 -70q-6 -15 -22 -16q-12 -2 -16 -4
q-25 -9 -46 18q-18 26 -27 67q-2 7 -8 45t-12 58q-3 13 -6.5 38.5t-4.5 31.5q-3 17 -10 50t-10 50q-16 80 -21 120q-3 23 -13.5 67t-13.5 64q-2 13 -7 41t-8 41z" />
    <glyph glyph-name="O" unicode="O" horiz-adv-x="464" 
d="M195 1467q2 1 31 17q46 -3 74 -27q14 -12 16 -19q4 -10 8.5 -21.5t10 -25.5t8.5 -22q1 -19 11.5 -60.5t9.5 -64.5q0 -8 2 -17.5t5.5 -21t4.5 -17.5q9 -37 6 -76q-2 -13 0 -20q6 -19 8 -41t2 -48t1 -41q1 -9 -0.5 -25.5t-1.5 -22.5q0 -8 0.5 -24t0.5 -24q2 -62 2 -92
q0 -22 -2 -32q-3 -17 -2 -47.5t-1 -47.5q-2 -18 -2.5 -51.5t-1.5 -44.5q-5 -86 -8 -109q-3 -17 -7 -65t-10 -74q-1 -5 -1.5 -14t-0.5 -12q0 -2 -6 -25q-1 -5 -3.5 -15.5t-3.5 -15.5q-14 -69 -40 -128q-14 -34 -35 -57q-14 -16 -35 -20q-3 -1 -9.5 -2.5t-9.5 -1.5
q-17 -4 -35 11q-35 28 -57 105q-8 31 -9 34q-1 8 -3.5 24t-4.5 24q-5 37 -6 40q-8 30 -12 93q-2 28 -8 76q-3 18 -3 19q2 10 0.5 38.5t-1.5 38.5v13q-5 167 -5 202q0 25 2 69t2 59q1 59 10 141l9 108q0 7 1 14t2.5 16t2.5 14l9 60q1 6 7 45t15 58l3 9q0 15 3.5 29t12 36.5
t9.5 26.5q2 7 25 45q2 3 10 7zM260 1333q-3 17 -18 32q-11 -30 -11 -31q-3 -14 -10 -42t-12 -50t-7 -43q-8 -72 -13 -108q-1 -7 -3.5 -20.5t-3.5 -20.5q-2 -18 -2 -28v-21.5t-2 -26.5q-7 -30 -4 -54q2 -15 -3 -38l-3 -35v-22q0 -7 -1 -41.5t0 -41.5q2 -25 1 -78.5t2 -78.5
q1 -15 0 -43.5t-1 -40.5q2 -115 10 -149q7 -35 4 -48q-1 -2 2 -12q8 -53 14 -76q2 -10 18 -68q1 -2 7 -8q15 34 23 74q11 60 17 98t16 114q1 7 1.5 21t0.5 18q1 13 4 36t5 42t3 36t2 48.5t2.5 57t4.5 48.5q2 13 0 25q-3 19 -1 71q1 17 0 35q0 10 -2 29t-3 28q-6 165 -6 167
l-6 51q-2 22 -7 65.5t-7 65.5q-1 10 -11 63z" />
    <glyph glyph-name="O" unicode="&#xd8;" horiz-adv-x="464" 
d="M195 1467q2 1 31 17q46 -3 74 -27q14 -12 16 -19q4 -10 8.5 -21.5t10 -25.5t8.5 -22q1 -19 11.5 -60.5t9.5 -64.5q0 -8 2 -17.5t5.5 -21t4.5 -17.5q9 -37 6 -76q-2 -13 0 -20q6 -19 8 -41t2 -48t1 -41q1 -9 -0.5 -25.5t-1.5 -22.5q0 -8 0.5 -24t0.5 -24q2 -62 2 -92
q0 -22 -2 -32q-3 -17 -2 -47.5t-1 -47.5q-2 -18 -2.5 -51.5t-1.5 -44.5q-5 -86 -8 -109q-3 -17 -7 -65t-10 -74q-1 -5 -1.5 -14t-0.5 -12q0 -2 -6 -25q-1 -5 -3.5 -15.5t-3.5 -15.5q-14 -69 -40 -128q-14 -34 -35 -57q-14 -16 -35 -20q-3 -1 -9.5 -2.5t-9.5 -1.5
q-17 -4 -35 11q-35 28 -57 105q-8 31 -9 34q-1 8 -3.5 24t-4.5 24q-5 37 -6 40q-8 30 -12 93q-2 28 -8 76q-3 18 -3 19q2 10 0.5 38.5t-1.5 38.5v13q-5 167 -5 202q0 25 2 69t2 59q1 59 10 141l9 108q0 7 1 14t2.5 16t2.5 14l9 60q1 6 7 45t15 58l3 9q0 15 3.5 29t12 36.5
t9.5 26.5q2 7 25 45q2 3 10 7zM260 1333q-3 17 -18 32q-11 -30 -11 -31q-3 -14 -10 -42t-12 -50t-7 -43q-8 -72 -13 -108q-1 -7 -3.5 -20.5t-3.5 -20.5q-2 -18 -2 -28v-21.5t-2 -26.5q-7 -30 -4 -54q2 -15 -3 -38l-3 -35v-22q0 -7 -1 -41.5t0 -41.5q2 -25 1 -78.5t2 -78.5
q1 -15 0 -43.5t-1 -40.5q2 -115 10 -149q7 -35 4 -48q-1 -2 2 -12q8 -53 14 -76q2 -10 18 -68q1 -2 7 -8q15 34 23 74q11 60 17 98t16 114q1 7 1.5 21t0.5 18q1 13 4 36t5 42t3 36t2 48.5t2.5 57t4.5 48.5q2 13 0 25q-3 19 -1 71q1 17 0 35q0 10 -2 29t-3 28q-6 165 -6 167
l-6 51q-2 22 -7 65.5t-7 65.5q-1 10 -11 63z" />
    <glyph glyph-name="O" unicode="&#xd6;" horiz-adv-x="464" 
d="M195 1467q2 1 31 17q46 -3 74 -27q14 -12 16 -19q4 -10 8.5 -21.5t10 -25.5t8.5 -22q1 -19 11.5 -60.5t9.5 -64.5q0 -8 2 -17.5t5.5 -21t4.5 -17.5q9 -37 6 -76q-2 -13 0 -20q6 -19 8 -41t2 -48t1 -41q1 -9 -0.5 -25.5t-1.5 -22.5q0 -8 0.5 -24t0.5 -24q2 -62 2 -92
q0 -22 -2 -32q-3 -17 -2 -47.5t-1 -47.5q-2 -18 -2.5 -51.5t-1.5 -44.5q-5 -86 -8 -109q-3 -17 -7 -65t-10 -74q-1 -5 -1.5 -14t-0.5 -12q0 -2 -6 -25q-1 -5 -3.5 -15.5t-3.5 -15.5q-14 -69 -40 -128q-14 -34 -35 -57q-14 -16 -35 -20q-3 -1 -9.5 -2.5t-9.5 -1.5
q-17 -4 -35 11q-35 28 -57 105q-8 31 -9 34q-1 8 -3.5 24t-4.5 24q-5 37 -6 40q-8 30 -12 93q-2 28 -8 76q-3 18 -3 19q2 10 0.5 38.5t-1.5 38.5v13q-5 167 -5 202q0 25 2 69t2 59q1 59 10 141l9 108q0 7 1 14t2.5 16t2.5 14l9 60q1 6 7 45t15 58l3 9q0 15 3.5 29t12 36.5
t9.5 26.5q2 7 25 45q2 3 10 7zM260 1333q-3 17 -18 32q-11 -30 -11 -31q-3 -14 -10 -42t-12 -50t-7 -43q-8 -72 -13 -108q-1 -7 -3.5 -20.5t-3.5 -20.5q-2 -18 -2 -28v-21.5t-2 -26.5q-7 -30 -4 -54q2 -15 -3 -38l-3 -35v-22q0 -7 -1 -41.5t0 -41.5q2 -25 1 -78.5t2 -78.5
q1 -15 0 -43.5t-1 -40.5q2 -115 10 -149q7 -35 4 -48q-1 -2 2 -12q8 -53 14 -76q2 -10 18 -68q1 -2 7 -8q15 34 23 74q11 60 17 98t16 114q1 7 1.5 21t0.5 18q1 13 4 36t5 42t3 36t2 48.5t2.5 57t4.5 48.5q2 13 0 25q-3 19 -1 71q1 17 0 35q0 10 -2 29t-3 28q-6 165 -6 167
l-6 51q-2 22 -7 65.5t-7 65.5q-1 10 -11 63z" />
    <glyph glyph-name="O" unicode="&#xd5;" horiz-adv-x="464" 
d="M195 1467q2 1 31 17q46 -3 74 -27q14 -12 16 -19q4 -10 8.5 -21.5t10 -25.5t8.5 -22q1 -19 11.5 -60.5t9.5 -64.5q0 -8 2 -17.5t5.5 -21t4.5 -17.5q9 -37 6 -76q-2 -13 0 -20q6 -19 8 -41t2 -48t1 -41q1 -9 -0.5 -25.5t-1.5 -22.5q0 -8 0.5 -24t0.5 -24q2 -62 2 -92
q0 -22 -2 -32q-3 -17 -2 -47.5t-1 -47.5q-2 -18 -2.5 -51.5t-1.5 -44.5q-5 -86 -8 -109q-3 -17 -7 -65t-10 -74q-1 -5 -1.5 -14t-0.5 -12q0 -2 -6 -25q-1 -5 -3.5 -15.5t-3.5 -15.5q-14 -69 -40 -128q-14 -34 -35 -57q-14 -16 -35 -20q-3 -1 -9.5 -2.5t-9.5 -1.5
q-17 -4 -35 11q-35 28 -57 105q-8 31 -9 34q-1 8 -3.5 24t-4.5 24q-5 37 -6 40q-8 30 -12 93q-2 28 -8 76q-3 18 -3 19q2 10 0.5 38.5t-1.5 38.5v13q-5 167 -5 202q0 25 2 69t2 59q1 59 10 141l9 108q0 7 1 14t2.5 16t2.5 14l9 60q1 6 7 45t15 58l3 9q0 15 3.5 29t12 36.5
t9.5 26.5q2 7 25 45q2 3 10 7zM260 1333q-3 17 -18 32q-11 -30 -11 -31q-3 -14 -10 -42t-12 -50t-7 -43q-8 -72 -13 -108q-1 -7 -3.5 -20.5t-3.5 -20.5q-2 -18 -2 -28v-21.5t-2 -26.5q-7 -30 -4 -54q2 -15 -3 -38l-3 -35v-22q0 -7 -1 -41.5t0 -41.5q2 -25 1 -78.5t2 -78.5
q1 -15 0 -43.5t-1 -40.5q2 -115 10 -149q7 -35 4 -48q-1 -2 2 -12q8 -53 14 -76q2 -10 18 -68q1 -2 7 -8q15 34 23 74q11 60 17 98t16 114q1 7 1.5 21t0.5 18q1 13 4 36t5 42t3 36t2 48.5t2.5 57t4.5 48.5q2 13 0 25q-3 19 -1 71q1 17 0 35q0 10 -2 29t-3 28q-6 165 -6 167
l-6 51q-2 22 -7 65.5t-7 65.5q-1 10 -11 63z" />
    <glyph glyph-name="O" unicode="&#xd4;" horiz-adv-x="464" 
d="M195 1467q2 1 31 17q46 -3 74 -27q14 -12 16 -19q4 -10 8.5 -21.5t10 -25.5t8.5 -22q1 -19 11.5 -60.5t9.5 -64.5q0 -8 2 -17.5t5.5 -21t4.5 -17.5q9 -37 6 -76q-2 -13 0 -20q6 -19 8 -41t2 -48t1 -41q1 -9 -0.5 -25.5t-1.5 -22.5q0 -8 0.5 -24t0.5 -24q2 -62 2 -92
q0 -22 -2 -32q-3 -17 -2 -47.5t-1 -47.5q-2 -18 -2.5 -51.5t-1.5 -44.5q-5 -86 -8 -109q-3 -17 -7 -65t-10 -74q-1 -5 -1.5 -14t-0.5 -12q0 -2 -6 -25q-1 -5 -3.5 -15.5t-3.5 -15.5q-14 -69 -40 -128q-14 -34 -35 -57q-14 -16 -35 -20q-3 -1 -9.5 -2.5t-9.5 -1.5
q-17 -4 -35 11q-35 28 -57 105q-8 31 -9 34q-1 8 -3.5 24t-4.5 24q-5 37 -6 40q-8 30 -12 93q-2 28 -8 76q-3 18 -3 19q2 10 0.5 38.5t-1.5 38.5v13q-5 167 -5 202q0 25 2 69t2 59q1 59 10 141l9 108q0 7 1 14t2.5 16t2.5 14l9 60q1 6 7 45t15 58l3 9q0 15 3.5 29t12 36.5
t9.5 26.5q2 7 25 45q2 3 10 7zM260 1333q-3 17 -18 32q-11 -30 -11 -31q-3 -14 -10 -42t-12 -50t-7 -43q-8 -72 -13 -108q-1 -7 -3.5 -20.5t-3.5 -20.5q-2 -18 -2 -28v-21.5t-2 -26.5q-7 -30 -4 -54q2 -15 -3 -38l-3 -35v-22q0 -7 -1 -41.5t0 -41.5q2 -25 1 -78.5t2 -78.5
q1 -15 0 -43.5t-1 -40.5q2 -115 10 -149q7 -35 4 -48q-1 -2 2 -12q8 -53 14 -76q2 -10 18 -68q1 -2 7 -8q15 34 23 74q11 60 17 98t16 114q1 7 1.5 21t0.5 18q1 13 4 36t5 42t3 36t2 48.5t2.5 57t4.5 48.5q2 13 0 25q-3 19 -1 71q1 17 0 35q0 10 -2 29t-3 28q-6 165 -6 167
l-6 51q-2 22 -7 65.5t-7 65.5q-1 10 -11 63z" />
    <glyph glyph-name="O" unicode="&#xd3;" horiz-adv-x="464" 
d="M195 1467q2 1 31 17q46 -3 74 -27q14 -12 16 -19q4 -10 8.5 -21.5t10 -25.5t8.5 -22q1 -19 11.5 -60.5t9.5 -64.5q0 -8 2 -17.5t5.5 -21t4.5 -17.5q9 -37 6 -76q-2 -13 0 -20q6 -19 8 -41t2 -48t1 -41q1 -9 -0.5 -25.5t-1.5 -22.5q0 -8 0.5 -24t0.5 -24q2 -62 2 -92
q0 -22 -2 -32q-3 -17 -2 -47.5t-1 -47.5q-2 -18 -2.5 -51.5t-1.5 -44.5q-5 -86 -8 -109q-3 -17 -7 -65t-10 -74q-1 -5 -1.5 -14t-0.5 -12q0 -2 -6 -25q-1 -5 -3.5 -15.5t-3.5 -15.5q-14 -69 -40 -128q-14 -34 -35 -57q-14 -16 -35 -20q-3 -1 -9.5 -2.5t-9.5 -1.5
q-17 -4 -35 11q-35 28 -57 105q-8 31 -9 34q-1 8 -3.5 24t-4.5 24q-5 37 -6 40q-8 30 -12 93q-2 28 -8 76q-3 18 -3 19q2 10 0.5 38.5t-1.5 38.5v13q-5 167 -5 202q0 25 2 69t2 59q1 59 10 141l9 108q0 7 1 14t2.5 16t2.5 14l9 60q1 6 7 45t15 58l3 9q0 15 3.5 29t12 36.5
t9.5 26.5q2 7 25 45q2 3 10 7zM260 1333q-3 17 -18 32q-11 -30 -11 -31q-3 -14 -10 -42t-12 -50t-7 -43q-8 -72 -13 -108q-1 -7 -3.5 -20.5t-3.5 -20.5q-2 -18 -2 -28v-21.5t-2 -26.5q-7 -30 -4 -54q2 -15 -3 -38l-3 -35v-22q0 -7 -1 -41.5t0 -41.5q2 -25 1 -78.5t2 -78.5
q1 -15 0 -43.5t-1 -40.5q2 -115 10 -149q7 -35 4 -48q-1 -2 2 -12q8 -53 14 -76q2 -10 18 -68q1 -2 7 -8q15 34 23 74q11 60 17 98t16 114q1 7 1.5 21t0.5 18q1 13 4 36t5 42t3 36t2 48.5t2.5 57t4.5 48.5q2 13 0 25q-3 19 -1 71q1 17 0 35q0 10 -2 29t-3 28q-6 165 -6 167
l-6 51q-2 22 -7 65.5t-7 65.5q-1 10 -11 63z" />
    <glyph glyph-name="O" unicode="&#xd2;" horiz-adv-x="464" 
d="M195 1467q2 1 31 17q46 -3 74 -27q14 -12 16 -19q4 -10 8.5 -21.5t10 -25.5t8.5 -22q1 -19 11.5 -60.5t9.5 -64.5q0 -8 2 -17.5t5.5 -21t4.5 -17.5q9 -37 6 -76q-2 -13 0 -20q6 -19 8 -41t2 -48t1 -41q1 -9 -0.5 -25.5t-1.5 -22.5q0 -8 0.5 -24t0.5 -24q2 -62 2 -92
q0 -22 -2 -32q-3 -17 -2 -47.5t-1 -47.5q-2 -18 -2.5 -51.5t-1.5 -44.5q-5 -86 -8 -109q-3 -17 -7 -65t-10 -74q-1 -5 -1.5 -14t-0.5 -12q0 -2 -6 -25q-1 -5 -3.5 -15.5t-3.5 -15.5q-14 -69 -40 -128q-14 -34 -35 -57q-14 -16 -35 -20q-3 -1 -9.5 -2.5t-9.5 -1.5
q-17 -4 -35 11q-35 28 -57 105q-8 31 -9 34q-1 8 -3.5 24t-4.5 24q-5 37 -6 40q-8 30 -12 93q-2 28 -8 76q-3 18 -3 19q2 10 0.5 38.5t-1.5 38.5v13q-5 167 -5 202q0 25 2 69t2 59q1 59 10 141l9 108q0 7 1 14t2.5 16t2.5 14l9 60q1 6 7 45t15 58l3 9q0 15 3.5 29t12 36.5
t9.5 26.5q2 7 25 45q2 3 10 7zM260 1333q-3 17 -18 32q-11 -30 -11 -31q-3 -14 -10 -42t-12 -50t-7 -43q-8 -72 -13 -108q-1 -7 -3.5 -20.5t-3.5 -20.5q-2 -18 -2 -28v-21.5t-2 -26.5q-7 -30 -4 -54q2 -15 -3 -38l-3 -35v-22q0 -7 -1 -41.5t0 -41.5q2 -25 1 -78.5t2 -78.5
q1 -15 0 -43.5t-1 -40.5q2 -115 10 -149q7 -35 4 -48q-1 -2 2 -12q8 -53 14 -76q2 -10 18 -68q1 -2 7 -8q15 34 23 74q11 60 17 98t16 114q1 7 1.5 21t0.5 18q1 13 4 36t5 42t3 36t2 48.5t2.5 57t4.5 48.5q2 13 0 25q-3 19 -1 71q1 17 0 35q0 10 -2 29t-3 28q-6 165 -6 167
l-6 51q-2 22 -7 65.5t-7 65.5q-1 10 -11 63z" />
    <glyph glyph-name="P" unicode="P" horiz-adv-x="466" 
d="M196 672l-8 -8q0 -4 -1 -18t0 -23.5t4 -18.5q3 -8 -1 -19q-1 -4 -1 -35q0 -5 1.5 -15t1 -18t-3.5 -15v-10q6 -46 0 -122q-1 -17 0 -35q5 -67 2 -151q0 -9 1.5 -28.5t0.5 -29.5q-1 -6 -1 -28.5t-3 -34.5q-2 -2 -0.5 -18t1.5 -18q0 -23 -22 -29q-4 -2 -6 -2q-31 -5 -43 1
t-17 35q-10 62 -3 94v22q0 7 -2 27.5t-1.5 34.5t3.5 28q2 2 0.5 17t-1.5 18q-1 15 -2 44t-2 43q0 3 1 9.5t1 9.5q2 20 2 29q0 7 -2 23t-2 22.5t3 22.5v3q-5 25 -5 54t1.5 63t1.5 54q-2 99 -1 119q2 28 2 42q0 37 -2 109v65q0 103 -2 132q-1 21 -1 67.5t-2 67.5q-1 8 2 100
v22q-3 7 -3.5 14.5t0 12.5t2.5 15t3 13q4 19 18 28.5t34 7.5q6 -1 17.5 -1h17.5q21 -2 59 -16q17 -6 44 -23.5t34 -21.5q4 -2 5 -4q62 -70 83 -119q18 -48 19 -64q0 -7 4 -19q7 -24 5 -41q-1 -15 5 -45q3 -18 -1 -34q-2 -7 -3.5 -23t-3.5 -24q-1 -4 -10 -49t-19 -67
q-7 -16 -17 -35q0 -1 -3 -3.5t-3 -4.5q-1 -14 -6.5 -25t-17.5 -27l-15 -20q-28 -44 -54 -59q-7 -4 -10 -9q-21 -33 -70 -54q-5 -1 -8 -5zM229 1348q-21 16 -43 8q-10 -15 -3 -34q7 -22 3 -52q-1 -9 -1 -106q0 -23 -2 -73v-23q3 -18 3 -19q-2 -72 0 -90q1 -3 -0.5 -8.5
t-1.5 -7.5q-1 -6 -1 -19q1 -19 3 -56.5t3 -56.5v-16q1 -4 5.5 -6t7.5 0q4 3 11 9t12.5 11t9.5 10q40 54 56 83q3 5 10.5 17t11 19t6.5 18.5t2 22.5q-1 4 3 12t4 9q6 16 7 25q2 15 3.5 48.5t4.5 50.5q-6 68 -43 155q0 1 -2 3t-2 3q-20 29 -67 63z" />
    <glyph glyph-name="Q" unicode="Q" horiz-adv-x="546" 
d="M383 62q-7 24 -30 41q-2 -2 -27 -35q-13 -18 -39.5 -30.5t-48.5 -11.5q-11 0 -15 3q-5 4 -17.5 13t-19 14.5t-15 15t-13.5 20.5q-27 62 -39 104q-3 9 -7 27.5t-7 27.5q-4 15 -14 76q-2 9 -3.5 19.5t-3 23.5t-2.5 20v1q-1 1 -1 2q2 24 -4 68.5t-6 64.5l-3 102q0 30 2 179
q1 26 5 73q1 20 3.5 59t4.5 58q1 5 2 15.5t2 16.5q3 27 3 29q0 19 6 31q5 10 7 40q1 15 10 66q2 10 5.5 30t5.5 30q1 3 9 34q2 6 8.5 28.5t9.5 35.5q3 11 25 58q2 4 5 11t5 10q9 23 31 35q8 4 21 14t18 13q30 18 76 0q10 -5 11 -7q32 -42 35 -49q36 -74 42 -130q0 -4 8 -27
q19 -61 20 -110q0 -8 2.5 -23t2.5 -21q1 -13 6 -56.5t4 -67.5q5 -12 0 -56q0 -8 0.5 -16.5t1.5 -18.5t1 -16q0 -4 0.5 -11t0.5 -11q0 -8 -1 -24t-1 -24v-95q0 -8 -1 -27.5t-1.5 -30.5t-3 -27t-6.5 -29q-3 -7 -1 -16q4 -43 -5 -104q-2 -13 -6.5 -39.5t-6.5 -39.5
q-1 -7 -2.5 -20.5t-2.5 -20.5q0 -3 -2 -9q-4 -13 -9 -41.5t-10 -42.5q-3 -8 -8 -50q-1 -8 5 -18q29 -57 38 -69q11 -16 22 -46q8 -20 20 -44q8 -15 -4 -27q-4 -5 -13 -11.5t-12 -8.5q-17 -12 -32 0q-33 27 -41 52zM211 206q15 -50 38 -78q3 3 11.5 12.5t11.5 14.5q5 8 19 44
q6 16 -2 31q-4 7 -15.5 31.5t-19.5 36.5t-19 34.5t-14 27.5q-9 17 -5 34q1 4 2.5 11.5t2.5 10.5q3 2 11 6q37 19 62 -12q20 -25 25 -36q5 -14 16 -9q2 4 2 9q-3 18 4 34q1 3 4 18q1 10 2.5 29t3 34.5t3.5 29.5q8 62 11 94q1 8 0.5 24.5t0.5 23.5q2 16 3.5 48.5t3.5 49.5
q2 10 2 16l-1 55q-2 56 1 56v13q0 8 -2 32t-2 37q0 15 -4.5 57.5t-1.5 66.5q1 2 -2 13l-18 120v6q-8 51 -10 60q-5 17 -15.5 47.5t-12.5 37.5q-6 18 -22 24q-14 -9 -23 -31q-4 -12 -13 -34.5t-14 -33.5q-14 -35 -30 -111q-5 -20 -11.5 -58t-8.5 -51q-4 -16 -4 -26
q1 -12 -7 -82q-2 -27 -5 -79t-5 -79q-2 -23 -2 -102v-19q-4 -12 -2 -44q4 -58 2 -86q-2 -21 2 -31q6 -15 2 -24q-2 -6 0 -19q1 -11 3 -32.5t3 -31.5q0 -1 4.5 -25t1.5 -37q0 -2 2 -9q6 -19 5 -38l3 -18q15 -66 23 -93z" />
    <glyph glyph-name="R" unicode="R" horiz-adv-x="468" 
d="M87 1377q-13 35 12 63q16 4 24 5q26 2 34 -1q7 -3 24 -8.5t26.5 -8.5t22 -10.5t21.5 -16.5q6 -6 10 -8q34 -19 63 -74q24 -43 29 -55q8 -20 18 -59.5t11 -44.5q2 -7 1 -10q-6 -21 4 -61q4 -17 4 -52q1 -16 -3.5 -45t-5.5 -38q0 -5 -1.5 -11t-4 -13.5t-3.5 -11.5
q0 -1 -1 -3q-2 -4 -2 -6q2 -12 -4.5 -30t-7.5 -23q-6 -37 -30 -81q0 -1 -2.5 -6t-3.5 -8q-4 -21 -19 -39q-15 -19 -15 -33q13 -14 20.5 -31.5t14.5 -44.5t11 -38q3 -8 6.5 -26t6.5 -26q6 -16 11 -46.5t6 -35.5q14 -60 20 -116q2 -15 7.5 -42.5t7.5 -39.5q3 -10 2 -12
q-4 -22 1 -62.5t5 -52.5q0 -65 -1 -73q-1 -7 0 -23t-1 -24q-5 -24 -27 -48q-11 -12 -38 -8q-19 3 -22 23q-7 52 -5 65q9 52 1 90q-3 13 -2 24q3 18 -6 70q-1 7 -1.5 20.5t-0.5 17.5q-4 55 -10 83q-3 13 -9 45.5t-10 49.5q-3 11 -7 31.5t-8 37.5t-9 31q-3 7 -5 15.5t-4 19
t-3 16.5q-6 23 -20 33q-25 -17 -34 -23q2 -66 2 -99q0 -8 -1.5 -46.5t0.5 -46.5q1 -19 -0.5 -63.5t0.5 -64.5q4 -60 -1 -86q-2 -12 0 -47q2 -19 -2 -33q-1 -6 1 -25q0 -8 1.5 -24t2.5 -25q2 -36 -23 -52q-8 -6 -13 -11q-4 0 -12.5 -1t-13.5 -1q-29 27 -29 64q0 71 -1 106
q0 8 -0.5 23t-0.5 23q0 14 -0.5 41t-0.5 40q0 7 1 27.5t0 31.5t0 32t1 27q0 43 -1 65q-2 74 0 99q1 12 1 109q0 20 -2 82t1 82q1 6 -1 18.5t-1 18.5q1 13 0.5 46.5t-0.5 46.5q1 25 -1 79.5t0 82.5q2 31 1 87.5t0 87.5q0 6 -1 29.5t2 29.5q2 9 -7 36zM185 926q0 -22 1.5 -101
t-1.5 -105q24 15 32 32q50 97 60 147q5 24 14 58q2 7 4 21q6 47 2 125q-2 46 -12 67q-2 5 -4 15q-3 18 -18 53t-26 49q-1 1 -3 3.5t-3 3.5q-5 4 -14.5 13t-14.5 14l-16 7q2 -37 0 -104.5t-1 -98.5q2 -66 0 -199z" />
    <glyph glyph-name="S" unicode="S" horiz-adv-x="452" 
d="M283 332q8 41 6 70q1 21 3.5 54t3.5 58t1 47q-1 19 0 35t-0.5 35.5t-6.5 34.5q2 6 1 22t-1.5 22.5t-3 22.5t-3.5 22q-7 48 -20 84q0 2 -2.5 6t-2.5 6q0 28 -20 51q-5 7 -15 21.5t-18.5 25.5t-18.5 19q-5 4 -34 44q-1 1 -4 6t-5 7q-17 12 -35 43.5t-22 36.5q-2 9 -13 38.5
t-9 47.5q1 8 -3 22q-6 26 -2 78q3 40 42 116q18 34 45 45q7 3 19.5 12t20.5 12q27 10 55 4q51 -13 77 -39q28 -27 36 -56q9 -34 9 -71q0 -52 -24 -98q-11 -22 -40 -17q-32 5 -34 35q0 30 2 37q8 26 2 74q-1 15 -13 27t-27 15q-7 2 -13 0q-33 -12 -43 -38q-2 -5 -8.5 -21
t-9 -23.5t-4.5 -20.5t-1 -25q-10 -51 23 -120q8 -19 41 -62q5 -7 36 -43q6 -9 11 -12q44 -40 66 -92q25 -60 26 -67q8 -34 10 -51q2 -18 6 -27q2 -6 4 -18q1 -10 8 -77.5t8 -102.5q0 -11 -2 -31q-3 -21 1 -40q3 -13 -1 -24q-5 -11 -2 -21q3 -11 -1 -18q-5 -8 -3.5 -24.5
t-2.5 -24.5q2 -16 1.5 -23t-3 -22t-3.5 -22q-3 -52 -10 -95q-1 -7 -2.5 -31t-4.5 -37q-5 -22 -25 -57q-5 -9 -15.5 -25t-12.5 -20q-26 -43 -77 -58.5t-94 5.5q-10 5 -23 16q-21 18 -36 50q-20 42 -31 71q-18 52 1 87q15 25 39 14q2 -1 8 -4.5t9 -4.5q20 -8 23 -27
q5 -24 15 -53q5 -16 19 -46q15 -32 48 -18q15 6 29 22q32 39 40 119q8 73 10 87z" />
    <glyph glyph-name="T" unicode="T" horiz-adv-x="389" 
d="M230 24q-17 -17 -39 -17q-2 2 -12 8t-15 11q-10 9 -12 36q-1 17 -1 51q0 17 -1.5 48.5t-1.5 57t3 48.5v10q-5 8 -4.5 58.5t0.5 58.5q-4 77 2 115q1 5 0 15t-1 14q0 16 -2 48t-2 48q0 8 0.5 24t0.5 24v233q0 7 -1 20t-1 19q0 16 -1.5 49t-2 49t0.5 49q1 19 0 53.5t-1 45.5
q0 15 1 22q4 28 0 83q-2 30 1 45q3 16 -6 30q-17 4 -55 2q-25 -1 -52 20q-9 8 -11 22q-2 16 12.5 33t30.5 18q146 5 188 2t83 0q18 1 39 -18q8 -8 6 -17q-1 -14 -9 -31q-2 -4 -7.5 -11t-7.5 -9q-20 -3 -58 -7q-7 -1 -18.5 0t-21.5 0.5t-19 -5.5q-3 -28 -2 -34q1 -14 0 -47
t1 -46q2 -18 0.5 -53t0.5 -52q1 -12 -1 -49.5t4 -49.5q-4 -13 -2 -57t1 -57q-4 -76 1 -108q1 -6 1 -39q0 -37 2 -44v-19q-6 -74 0 -118q5 -41 0 -53q3 -17 0 -60.5t4 -60.5v-13q0 -21 -0.5 -64t-0.5 -64q0 -49 1 -73q2 -64 -3 -96q-1 -4 2 -22q2 -12 -1 -34.5t-3 -25.5
q0 -6 -10 -16z" />
    <glyph glyph-name="U" unicode="U" horiz-adv-x="520" 
d="M76 1367q-4 33 8 79q16 12 36 15q32 4 40 -25q11 -46 10 -64q-1 -12 0.5 -34t1.5 -30q0 -24 -2 -74v-9q9 -14 4 -48q-2 -14 0.5 -45t-0.5 -45q-1 -5 0.5 -15t1.5 -14q4 -71 5 -109q2 -76 1 -114q-1 -20 1.5 -57t2.5 -53v-42q-1 -42 0 -42q0 -19 5 -44q1 -7 -2.5 -22
t-1.5 -23q6 -25 0 -47q-1 -7 -0.5 -11t2 -12t1.5 -12q0 -5 1 -15.5t2 -16.5q0 -7 0.5 -29t1.5 -33q2 -23 4 -68t4 -67q3 -31 6.5 -49t14 -43t28.5 -42q11 -1 17 12q27 61 33 105q1 10 5 38.5t5 44.5q1 15 4 94q1 19 3 56.5t3 56.5q1 13 2 53.5t3 62.5q1 14 2.5 58t4.5 68
q2 19 2 88q0 18 3 38q3 15 5 68q0 16 1 48.5t2 48.5l3 97q0 21 3 42q1 6 1 35q0 5 0.5 14.5t0.5 14.5q0 7 1.5 53.5t-0.5 53.5q-2 32 10 77q11 41 48 27q16 -6 28 -17q11 -9 11 -22q0 -4 1 -35.5t-3 -35.5q-1 -4 -1 -48q0 -3 1 -16.5t0 -15.5q-4 -10 -3 -48.5t0 -48.5
t-1.5 -34t-2.5 -37q-1 -15 -4 -97v-16q-6 -12 -6.5 -26t1 -30.5t0.5 -26.5q0 -1 1 -6t0 -7q-6 -20 -6.5 -56.5t-1.5 -46.5q-2 -8 0 -16q5 -24 -3 -54q-2 -6 -2 -19q0 -50 -1 -75q0 -7 -2 -20t-2 -18q-5 -76 -1 -100v-6q-5 -27 -6 -78.5t-2 -67.5q0 -8 -1 -17t-2.5 -20
t-2.5 -17q-4 -26 -4 -39q0 -45 -14 -89q-1 -2 -4.5 -14t-4.5 -15t-5 -13.5t-6 -14.5t-6 -13t-7 -14t-7.5 -12t-9.5 -13t-11 -11q-13 -13 -25 -19q-14 -7 -44 -11q-20 -2 -31 6q-3 3 -20 14t-25 18q-17 15 -24 30q-23 49 -26 65q-2 11 -8.5 31t-7.5 25q-3 10 -4 22t-1 26.5
t-1 22.5q-1 13 -3 37t-3 37q-1 0 -1 15l1 14q0 7 -1.5 24.5t-0.5 26.5q1 14 -1.5 48.5t1.5 48.5q1 6 -1 16q0 1 -1 3t-1 3q3 16 -1 46.5t-3 43.5q0 6 -1 17t-0.5 20t4.5 17q2 4 0 7q-9 34 -5 93l-3 84l-3 195q0 20 -3 56.5t-3 52.5v27.5v32.5v28v26q-7 29 -2 64q2 10 0 19z
" />
    <glyph glyph-name="U" unicode="&#xdc;" horiz-adv-x="520" 
d="M76 1367q-4 33 8 79q16 12 36 15q32 4 40 -25q11 -46 10 -64q-1 -12 0.5 -34t1.5 -30q0 -24 -2 -74v-9q9 -14 4 -48q-2 -14 0.5 -45t-0.5 -45q-1 -5 0.5 -15t1.5 -14q4 -71 5 -109q2 -76 1 -114q-1 -20 1.5 -57t2.5 -53v-42q-1 -42 0 -42q0 -19 5 -44q1 -7 -2.5 -22
t-1.5 -23q6 -25 0 -47q-1 -7 -0.5 -11t2 -12t1.5 -12q0 -5 1 -15.5t2 -16.5q0 -7 0.5 -29t1.5 -33q2 -23 4 -68t4 -67q3 -31 6.5 -49t14 -43t28.5 -42q11 -1 17 12q27 61 33 105q1 10 5 38.5t5 44.5q1 15 4 94q1 19 3 56.5t3 56.5q1 13 2 53.5t3 62.5q1 14 2.5 58t4.5 68
q2 19 2 88q0 18 3 38q3 15 5 68q0 16 1 48.5t2 48.5l3 97q0 21 3 42q1 6 1 35q0 5 0.5 14.5t0.5 14.5q0 7 1.5 53.5t-0.5 53.5q-2 32 10 77q11 41 48 27q16 -6 28 -17q11 -9 11 -22q0 -4 1 -35.5t-3 -35.5q-1 -4 -1 -48q0 -3 1 -16.5t0 -15.5q-4 -10 -3 -48.5t0 -48.5
t-1.5 -34t-2.5 -37q-1 -15 -4 -97v-16q-6 -12 -6.5 -26t1 -30.5t0.5 -26.5q0 -1 1 -6t0 -7q-6 -20 -6.5 -56.5t-1.5 -46.5q-2 -8 0 -16q5 -24 -3 -54q-2 -6 -2 -19q0 -50 -1 -75q0 -7 -2 -20t-2 -18q-5 -76 -1 -100v-6q-5 -27 -6 -78.5t-2 -67.5q0 -8 -1 -17t-2.5 -20
t-2.5 -17q-4 -26 -4 -39q0 -45 -14 -89q-1 -2 -4.5 -14t-4.5 -15t-5 -13.5t-6 -14.5t-6 -13t-7 -14t-7.5 -12t-9.5 -13t-11 -11q-13 -13 -25 -19q-14 -7 -44 -11q-20 -2 -31 6q-3 3 -20 14t-25 18q-17 15 -24 30q-23 49 -26 65q-2 11 -8.5 31t-7.5 25q-3 10 -4 22t-1 26.5
t-1 22.5q-1 13 -3 37t-3 37q-1 0 -1 15l1 14q0 7 -1.5 24.5t-0.5 26.5q1 14 -1.5 48.5t1.5 48.5q1 6 -1 16q0 1 -1 3t-1 3q3 16 -1 46.5t-3 43.5q0 6 -1 17t-0.5 20t4.5 17q2 4 0 7q-9 34 -5 93l-3 84l-3 195q0 20 -3 56.5t-3 52.5v27.5v32.5v28v26q-7 29 -2 64q2 10 0 19z
" />
    <glyph glyph-name="U" unicode="&#xdb;" horiz-adv-x="520" 
d="M76 1367q-4 33 8 79q16 12 36 15q32 4 40 -25q11 -46 10 -64q-1 -12 0.5 -34t1.5 -30q0 -24 -2 -74v-9q9 -14 4 -48q-2 -14 0.5 -45t-0.5 -45q-1 -5 0.5 -15t1.5 -14q4 -71 5 -109q2 -76 1 -114q-1 -20 1.5 -57t2.5 -53v-42q-1 -42 0 -42q0 -19 5 -44q1 -7 -2.5 -22
t-1.5 -23q6 -25 0 -47q-1 -7 -0.5 -11t2 -12t1.5 -12q0 -5 1 -15.5t2 -16.5q0 -7 0.5 -29t1.5 -33q2 -23 4 -68t4 -67q3 -31 6.5 -49t14 -43t28.5 -42q11 -1 17 12q27 61 33 105q1 10 5 38.5t5 44.5q1 15 4 94q1 19 3 56.5t3 56.5q1 13 2 53.5t3 62.5q1 14 2.5 58t4.5 68
q2 19 2 88q0 18 3 38q3 15 5 68q0 16 1 48.5t2 48.5l3 97q0 21 3 42q1 6 1 35q0 5 0.5 14.5t0.5 14.5q0 7 1.5 53.5t-0.5 53.5q-2 32 10 77q11 41 48 27q16 -6 28 -17q11 -9 11 -22q0 -4 1 -35.5t-3 -35.5q-1 -4 -1 -48q0 -3 1 -16.5t0 -15.5q-4 -10 -3 -48.5t0 -48.5
t-1.5 -34t-2.5 -37q-1 -15 -4 -97v-16q-6 -12 -6.5 -26t1 -30.5t0.5 -26.5q0 -1 1 -6t0 -7q-6 -20 -6.5 -56.5t-1.5 -46.5q-2 -8 0 -16q5 -24 -3 -54q-2 -6 -2 -19q0 -50 -1 -75q0 -7 -2 -20t-2 -18q-5 -76 -1 -100v-6q-5 -27 -6 -78.5t-2 -67.5q0 -8 -1 -17t-2.5 -20
t-2.5 -17q-4 -26 -4 -39q0 -45 -14 -89q-1 -2 -4.5 -14t-4.5 -15t-5 -13.5t-6 -14.5t-6 -13t-7 -14t-7.5 -12t-9.5 -13t-11 -11q-13 -13 -25 -19q-14 -7 -44 -11q-20 -2 -31 6q-3 3 -20 14t-25 18q-17 15 -24 30q-23 49 -26 65q-2 11 -8.5 31t-7.5 25q-3 10 -4 22t-1 26.5
t-1 22.5q-1 13 -3 37t-3 37q-1 0 -1 15l1 14q0 7 -1.5 24.5t-0.5 26.5q1 14 -1.5 48.5t1.5 48.5q1 6 -1 16q0 1 -1 3t-1 3q3 16 -1 46.5t-3 43.5q0 6 -1 17t-0.5 20t4.5 17q2 4 0 7q-9 34 -5 93l-3 84l-3 195q0 20 -3 56.5t-3 52.5v27.5v32.5v28v26q-7 29 -2 64q2 10 0 19z
" />
    <glyph glyph-name="U" unicode="&#xda;" horiz-adv-x="520" 
d="M76 1367q-4 33 8 79q16 12 36 15q32 4 40 -25q11 -46 10 -64q-1 -12 0.5 -34t1.5 -30q0 -24 -2 -74v-9q9 -14 4 -48q-2 -14 0.5 -45t-0.5 -45q-1 -5 0.5 -15t1.5 -14q4 -71 5 -109q2 -76 1 -114q-1 -20 1.5 -57t2.5 -53v-42q-1 -42 0 -42q0 -19 5 -44q1 -7 -2.5 -22
t-1.5 -23q6 -25 0 -47q-1 -7 -0.5 -11t2 -12t1.5 -12q0 -5 1 -15.5t2 -16.5q0 -7 0.5 -29t1.5 -33q2 -23 4 -68t4 -67q3 -31 6.5 -49t14 -43t28.5 -42q11 -1 17 12q27 61 33 105q1 10 5 38.5t5 44.5q1 15 4 94q1 19 3 56.5t3 56.5q1 13 2 53.5t3 62.5q1 14 2.5 58t4.5 68
q2 19 2 88q0 18 3 38q3 15 5 68q0 16 1 48.5t2 48.5l3 97q0 21 3 42q1 6 1 35q0 5 0.5 14.5t0.5 14.5q0 7 1.5 53.5t-0.5 53.5q-2 32 10 77q11 41 48 27q16 -6 28 -17q11 -9 11 -22q0 -4 1 -35.5t-3 -35.5q-1 -4 -1 -48q0 -3 1 -16.5t0 -15.5q-4 -10 -3 -48.5t0 -48.5
t-1.5 -34t-2.5 -37q-1 -15 -4 -97v-16q-6 -12 -6.5 -26t1 -30.5t0.5 -26.5q0 -1 1 -6t0 -7q-6 -20 -6.5 -56.5t-1.5 -46.5q-2 -8 0 -16q5 -24 -3 -54q-2 -6 -2 -19q0 -50 -1 -75q0 -7 -2 -20t-2 -18q-5 -76 -1 -100v-6q-5 -27 -6 -78.5t-2 -67.5q0 -8 -1 -17t-2.5 -20
t-2.5 -17q-4 -26 -4 -39q0 -45 -14 -89q-1 -2 -4.5 -14t-4.5 -15t-5 -13.5t-6 -14.5t-6 -13t-7 -14t-7.5 -12t-9.5 -13t-11 -11q-13 -13 -25 -19q-14 -7 -44 -11q-20 -2 -31 6q-3 3 -20 14t-25 18q-17 15 -24 30q-23 49 -26 65q-2 11 -8.5 31t-7.5 25q-3 10 -4 22t-1 26.5
t-1 22.5q-1 13 -3 37t-3 37q-1 0 -1 15l1 14q0 7 -1.5 24.5t-0.5 26.5q1 14 -1.5 48.5t1.5 48.5q1 6 -1 16q0 1 -1 3t-1 3q3 16 -1 46.5t-3 43.5q0 6 -1 17t-0.5 20t4.5 17q2 4 0 7q-9 34 -5 93l-3 84l-3 195q0 20 -3 56.5t-3 52.5v27.5v32.5v28v26q-7 29 -2 64q2 10 0 19z
" />
    <glyph glyph-name="U" unicode="&#xd9;" horiz-adv-x="520" 
d="M76 1367q-4 33 8 79q16 12 36 15q32 4 40 -25q11 -46 10 -64q-1 -12 0.5 -34t1.5 -30q0 -24 -2 -74v-9q9 -14 4 -48q-2 -14 0.5 -45t-0.5 -45q-1 -5 0.5 -15t1.5 -14q4 -71 5 -109q2 -76 1 -114q-1 -20 1.5 -57t2.5 -53v-42q-1 -42 0 -42q0 -19 5 -44q1 -7 -2.5 -22
t-1.5 -23q6 -25 0 -47q-1 -7 -0.5 -11t2 -12t1.5 -12q0 -5 1 -15.5t2 -16.5q0 -7 0.5 -29t1.5 -33q2 -23 4 -68t4 -67q3 -31 6.5 -49t14 -43t28.5 -42q11 -1 17 12q27 61 33 105q1 10 5 38.5t5 44.5q1 15 4 94q1 19 3 56.5t3 56.5q1 13 2 53.5t3 62.5q1 14 2.5 58t4.5 68
q2 19 2 88q0 18 3 38q3 15 5 68q0 16 1 48.5t2 48.5l3 97q0 21 3 42q1 6 1 35q0 5 0.5 14.5t0.5 14.5q0 7 1.5 53.5t-0.5 53.5q-2 32 10 77q11 41 48 27q16 -6 28 -17q11 -9 11 -22q0 -4 1 -35.5t-3 -35.5q-1 -4 -1 -48q0 -3 1 -16.5t0 -15.5q-4 -10 -3 -48.5t0 -48.5
t-1.5 -34t-2.5 -37q-1 -15 -4 -97v-16q-6 -12 -6.5 -26t1 -30.5t0.5 -26.5q0 -1 1 -6t0 -7q-6 -20 -6.5 -56.5t-1.5 -46.5q-2 -8 0 -16q5 -24 -3 -54q-2 -6 -2 -19q0 -50 -1 -75q0 -7 -2 -20t-2 -18q-5 -76 -1 -100v-6q-5 -27 -6 -78.5t-2 -67.5q0 -8 -1 -17t-2.5 -20
t-2.5 -17q-4 -26 -4 -39q0 -45 -14 -89q-1 -2 -4.5 -14t-4.5 -15t-5 -13.5t-6 -14.5t-6 -13t-7 -14t-7.5 -12t-9.5 -13t-11 -11q-13 -13 -25 -19q-14 -7 -44 -11q-20 -2 -31 6q-3 3 -20 14t-25 18q-17 15 -24 30q-23 49 -26 65q-2 11 -8.5 31t-7.5 25q-3 10 -4 22t-1 26.5
t-1 22.5q-1 13 -3 37t-3 37q-1 0 -1 15l1 14q0 7 -1.5 24.5t-0.5 26.5q1 14 -1.5 48.5t1.5 48.5q1 6 -1 16q0 1 -1 3t-1 3q3 16 -1 46.5t-3 43.5q0 6 -1 17t-0.5 20t4.5 17q2 4 0 7q-9 34 -5 93l-3 84l-3 195q0 20 -3 56.5t-3 52.5v27.5v32.5v28v26q-7 29 -2 64q2 10 0 19z
" />
    <glyph glyph-name="V" unicode="V" horiz-adv-x="507" 
d="M306 40q0 -49 -45 -68q-2 1 -13.5 9.5t-17.5 12.5q-12 8 -17 28q-10 36 -30 144q-10 52 -14 93q-13 123 -16 138q-3 21 -8 62.5t-9 62.5q-2 13 -3.5 27.5t-3 32t-2.5 27.5q-4 34 -8 50q-9 33 -17 105q-1 9 -3.5 25.5t-3.5 24.5q-15 149 -21 184l-3 45q-1 11 -3.5 33
t-3.5 33l-3 18q1 22 -3 61.5t-5 49.5q-6 90 -8 139q0 4 1 10.5t1 9.5q17 19 23 23.5t25 9.5q4 -3 13.5 -10.5t15.5 -11.5q9 -38 11 -99q0 -14 8 -89q1 -6 1 -19q0 -39 5 -59q4 -20 4 -30q0 -11 2 -31t2 -26q0 -8 3.5 -31.5t2.5 -36.5q-1 -20 7 -60q4 -20 8 -56.5t7 -51.5
q4 -24 4 -54q0 -8 2 -24q9 -52 9 -68q0 -8 3 -22t4 -17t2 -8.5t1 -8.5q1 -4 1 -13t1.5 -16t4.5 -13q2 -6 2 -8q-1 -9 7 -51q6 -39 4 -54q-1 -7 3 -23q8 -40 8 -60q0 -7 8 -63q4 -1 5.5 1t1.5 6q1 14 4.5 43t5.5 44q2 20 2 30q0 22 5 32q1 1 1.5 3t1 5t0.5 4q2 10 4.5 29
t3.5 28q8 62 8 93q0 6 1 13t2.5 15.5t2.5 13.5q0 5 2 14t2 13q7 85 23 185q1 6 1.5 19t1.5 20q3 18 9 53.5t9 53.5q1 3 1 9q-1 13 10 109q1 9 3.5 36t4.5 42q6 38 14 114q0 4 5 23t3 30q-1 7 11 17q14 11 40 13q1 -1 5.5 -5t7.5 -6q22 -17 19 -47q-1 -10 -2.5 -21.5
t-3.5 -25.5t-3 -22t-1 -24q2 -18 -6 -33q-5 -11 -3 -29q2 -30 -3 -42q-4 -11 -9 -44q-8 -69 -14 -107q-1 -8 -2.5 -24t-2.5 -24q0 -1 -9 -83q-3 -29 -11 -87q0 -2 -1 -5t-1 -4q0 -35 -8 -75q-4 -21 -8 -59q-8 -70 -10 -84q-3 -17 -6.5 -57.5t-9.5 -61.5q-3 -10 -2 -18
q3 -16 -4 -36q-5 -14 -4 -17q5 -32 -6 -57q2 -16 -3.5 -44t-5.5 -39q-1 -20 -5 -60q0 -2 -0.5 -8.5t-1.5 -9.5q-7 -19 -7 -50q0 -32 -7 -51q-4 -11 -4 -27z" />
    <glyph glyph-name="W" unicode="W" horiz-adv-x="714" 
d="M357 762q0 32 -8 43q-3 -12 -7 -32q-2 -7 -4 -23q-2 -8 -2 -13q2 -20 -1 -56t-3 -48q0 -3 -0.5 -10t-0.5 -10q-1 -9 -2 -27t-2 -28q-5 -62 -8 -69q-6 -15 -3 -25q2 -19 1 -28.5t-3.5 -28.5t-3.5 -28l-3 -49q3 -25 -3 -85q-8 -72 -9 -107q-2 -55 -37 -88q-23 -20 -44 -2
q-29 25 -30 52t-4.5 56.5t-9 66t-7.5 56.5q-13 111 -16 130q-13 77 -9 107q0 2 -5 32q-11 52 -10 85q1 21 -7 59q-9 47 -8 77q1 12 -6 46q-11 49 -13 117q0 4 -0.5 7.5t-1.5 8t-1 7.5q-6 47 -6 49q-2 32 -7 48q-6 17 -3 29q2 10 -3 48q-2 16 -4 34.5t-4.5 41.5t-3.5 35
q-1 3 -1 9.5t-1 9.5q-3 15 -3 16q4 10 0 51t-4 51q0 8 -2 26q-3 33 8 61q9 23 32 22q10 0 19 -3q21 -8 26 -27q14 -64 13 -120v-6q8 -19 7.5 -56t4.5 -57q-3 -13 2 -35.5t4 -32.5q-1 -14 3 -37.5t4 -27.5q1 -10 2.5 -21.5t3.5 -25t3 -21.5v-10q-3 -25 13 -100v-3
q-2 -27 -2 -32q0 -6 3 -16t3 -12q1 -5 1 -16.5t2 -16.5q5 -16 10 -84q4 -56 12 -84q2 -6 2 -18.5t1 -17.5q0 -2 10 -12q5 53 5 56q3 51 11 88q2 9 2 26q0 9 0.5 25t1 29t1.5 25q0 10 3 34t3 37q0 34 6 98q12 129 12 130q0 15 1 32t2.5 37t2.5 32q1 28 7 82q3 32 14 110
q3 19 19.5 35.5t34.5 17.5q13 0 16 -2q34 -27 33 -54q0 -11 1 -23t2.5 -26.5t2.5 -22.5q2 -22 3 -61.5t2 -52.5q0 -12 1 -13q4 -7 6 -15.5t1.5 -14.5t-1 -16t-0.5 -15q0 -34 4 -46q1 -3 1 -23q-2 -40 9 -104q5 -33 4 -42q-3 -35 1 -65q4 -29 8 -91q1 -9 2.5 -27.5t1.5 -27.5
t-1 -13q-6 -26 5 -41q3 -4 3 -15q0 -14 1.5 -44t2.5 -45q0 -18 11 -31q0 7 3.5 22t1.5 24q-1 5 1 13q4 16 6.5 34t4.5 41t4 35v1q1 1 1 2q2 16 6 48.5t6 48.5v12.5t0.5 15.5t2.5 12q4 11 5.5 24t2 28.5t1.5 24.5q8 54 11 81q2 18 10 74.5t9 88.5q0 9 3.5 27t3.5 22q1 6 2 18
t2 18q2 17 6 32q8 22 6 52l3 45l3 18t2 18q3 22 9.5 31.5t27.5 24.5q8 -1 21 -5q40 -11 37 -50q-1 -11 -4 -30.5t-4 -30.5q-1 -5 -1.5 -18.5t-2.5 -20.5q-2 -9 -3 -30.5t-5 -33.5q-7 -19 -7 -62q0 -18 -6.5 -54t-5.5 -56q1 -12 -3.5 -34t-5.5 -30q-1 -6 -18 -137v-5v-6v-5
q2 -25 -5 -45l-6 -42q-4 -46 -7 -69q-1 -4 -2 -11t-2 -11q-2 -17 -4.5 -47.5t-5 -55.5t-5.5 -47q-5 -39 -17 -117q-4 -28 -5 -42q-1 -25 -8 -57q0 -1 -6 -59q-3 -28 -10.5 -83.5t-10.5 -82.5q-1 -5 -1 -16q1 -26 -28 -69q-5 -7 -17.5 -9.5t-21.5 2.5q-42 20 -46 59
q-1 11 -3 32.5t-3 32.5q-6 72 -8 112q0 1 -3 71q0 14 -1 20t-4 25t-3 24.5t1 25.5q-3 13 -8 114q-3 56 -9 111q-1 10 -2 40.5t-6 47.5q-2 1 -0.5 11t1.5 12z" />
    <glyph glyph-name="X" unicode="X" 
d="M243 438q-4 31 -14 47q-23 -81 -30 -108q-1 -2 -1 -6q-1 -21 -11 -60t-11 -44q-2 -10 -6 -28q-3 -13 -14 -53q-10 -38 -9 -47q1 -5 -1 -13q-2 -11 -6.5 -32.5t-6.5 -31.5q-5 -24 -21 -38q-26 -23 -52 -1q-32 25 -20 66q13 41 15 70q1 11 12 40q2 6 7 35q0 2 15 73
q5 20 13 58.5t13 57.5q2 6 4 19.5t5 24t7 19.5q4 7 6 32q4 34 13 50q3 5 3 15q2 24 13 68t12 49q13 65 1 119q-14 65 -19 112q-1 8 -11 59q-1 9 -4 28.5t-5 29.5q-5 31 -14.5 92t-14.5 91q-2 10 -5.5 28t-6 33t-3.5 28q-1 17 -13 73q-7 41 11 65q21 28 48 10q30 -18 32 -48
q1 -16 8 -46.5t8 -36.5q1 -5 5 -31.5t9 -40.5q3 -10 2 -19q-2 -20 5 -35q1 -3 1.5 -6t1 -7t0.5 -6q8 -59 12 -70t4 -35q0 -31 18 -64l10 50q1 7 5.5 20t5.5 20q1 6 10 51.5t14 69.5q6 29 20 85q1 4 2.5 12.5t2.5 12.5q2 9 11 42.5t12 51.5q0 1 17 32q5 1 14.5 2.5t14.5 2.5
q18 4 38 -14q10 -8 7 -24t-7.5 -47.5t-7.5 -47.5q-1 -6 -5 -17t-5 -14q-3 -12 -3 -13q1 -12 -5.5 -34t-6.5 -32q0 -2 -8 -34q-10 -49 -13 -57q-5 -14 -9.5 -41t-6.5 -34q-1 -4 -8 -28t-8 -38q-2 -21 -12.5 -58t-13.5 -52q-2 -11 -6.5 -35t-6.5 -35q0 -1 -1 -7t-2 -9
q-14 -45 -5 -76q1 -2 0 -7t-1 -6q0 -20 2 -25q6 -19 10 -39t7.5 -52.5t4.5 -39.5q2 -12 7 -33.5t7 -29.5q15 -80 16 -96q1 -10 5 -35q14 -72 13 -108q0 -9 3 -16q4 -8 6 -17t4 -21l3 -18q3 -12 7 -35t7 -35q5 -27 2 -45q-2 -12 -2 -19q-1 -19 -14.5 -28.5t-30.5 -4.5
q-36 9 -44 43q-4 14 -8 42.5t-4 31.5q-17 97 -23 134q-2 12 -4 32q-1 3 -1 9.5t-1 9.5q-11 50 -20 118z" />
    <glyph glyph-name="Y" unicode="Y" horiz-adv-x="432" 
d="M281 64q0 -8 -2 -34q-5 -2 -19 -8.5t-21 -8.5q-14 -4 -28.5 5t-17.5 24q-9 40 -6 81q1 17 -1.5 47t-2.5 35q0 2 -1 7.5t0 8.5q5 11 1.5 52t-3.5 51q2 51 -4 72q4 21 1 61.5t0 61.5v12q-3 33 -4.5 69.5t-2.5 81.5t-2 70q-1 23 -2.5 69.5t-2.5 69.5q0 13 -7 27
q-9 19 -19 56.5t-14 48.5q-4 12 -10.5 36.5t-10.5 36.5q-6 17 -15 58t-18 61q-9 21 -14 55q-6 35 -26 84q-8 21 -12 65q-1 15 9 29.5t24 18.5q14 2 19 -1q13 -8 21 -19q26 -38 31 -62q10 -50 33 -119q2 -5 3 -13.5t2 -11.5q6 -32 17 -57q6 -14 12 -46t18 -60q1 -3 7 -9
q7 6 11 22q2 7 6.5 21t6.5 21q5 13 5 15q0 11 3 22.5t8.5 26.5t7.5 21l9 33q2 7 6.5 22t6.5 23q25 88 32 116q8 31 39 57q13 10 26.5 7t20.5 -18q18 -40 4 -71q-5 -12 -10.5 -37t-6.5 -30q-5 -23 -7 -27q-15 -30 -18 -63q0 -5 -4 -15q-1 -3 -3 -7.5t-3.5 -8.5t-2.5 -8
q-13 -49 -23 -65q-5 -8 -5 -18q-1 -23 -13.5 -61t-15.5 -52q-2 -10 -8 -30q-3 -10 -10 -29t-10 -28q-10 -29 -7 -56q1 -4 0 -12t-1 -10l-1 -9q0 -9 1 -9q8 -43 6 -114q0 -11 2 -31q0 -2 1.5 -6.5t0.5 -6.5q-3 -16 -2.5 -43.5t-0.5 -43.5q-1 -15 -0.5 -22t2 -22t1.5 -22v-16
q0 -3 -0.5 -9t-0.5 -10t1 -9t3 -9v-6l3 -101q4 -52 0 -129q3 -9 4.5 -20t1.5 -25t1 -21q1 -8 1 -25v-57z" />
    <glyph glyph-name="Y" unicode="&#x178;" horiz-adv-x="432" 
d="M281 64q0 -8 -2 -34q-5 -2 -19 -8.5t-21 -8.5q-14 -4 -28.5 5t-17.5 24q-9 40 -6 81q1 17 -1.5 47t-2.5 35q0 2 -1 7.5t0 8.5q5 11 1.5 52t-3.5 51q2 51 -4 72q4 21 1 61.5t0 61.5v12q-3 33 -4.5 69.5t-2.5 81.5t-2 70q-1 23 -2.5 69.5t-2.5 69.5q0 13 -7 27
q-9 19 -19 56.5t-14 48.5q-4 12 -10.5 36.5t-10.5 36.5q-6 17 -15 58t-18 61q-9 21 -14 55q-6 35 -26 84q-8 21 -12 65q-1 15 9 29.5t24 18.5q14 2 19 -1q13 -8 21 -19q26 -38 31 -62q10 -50 33 -119q2 -5 3 -13.5t2 -11.5q6 -32 17 -57q6 -14 12 -46t18 -60q1 -3 7 -9
q7 6 11 22q2 7 6.5 21t6.5 21q5 13 5 15q0 11 3 22.5t8.5 26.5t7.5 21l9 33q2 7 6.5 22t6.5 23q25 88 32 116q8 31 39 57q13 10 26.5 7t20.5 -18q18 -40 4 -71q-5 -12 -10.5 -37t-6.5 -30q-5 -23 -7 -27q-15 -30 -18 -63q0 -5 -4 -15q-1 -3 -3 -7.5t-3.5 -8.5t-2.5 -8
q-13 -49 -23 -65q-5 -8 -5 -18q-1 -23 -13.5 -61t-15.5 -52q-2 -10 -8 -30q-3 -10 -10 -29t-10 -28q-10 -29 -7 -56q1 -4 0 -12t-1 -10l-1 -9q0 -9 1 -9q8 -43 6 -114q0 -11 2 -31q0 -2 1.5 -6.5t0.5 -6.5q-3 -16 -2.5 -43.5t-0.5 -43.5q-1 -15 -0.5 -22t2 -22t1.5 -22v-16
q0 -3 -0.5 -9t-0.5 -10t1 -9t3 -9v-6l3 -101q4 -52 0 -129q3 -9 4.5 -20t1.5 -25t1 -21q1 -8 1 -25v-57z" />
    <glyph glyph-name="Y" unicode="&#xdd;" horiz-adv-x="432" 
d="M281 64q0 -8 -2 -34q-5 -2 -19 -8.5t-21 -8.5q-14 -4 -28.5 5t-17.5 24q-9 40 -6 81q1 17 -1.5 47t-2.5 35q0 2 -1 7.5t0 8.5q5 11 1.5 52t-3.5 51q2 51 -4 72q4 21 1 61.5t0 61.5v12q-3 33 -4.5 69.5t-2.5 81.5t-2 70q-1 23 -2.5 69.5t-2.5 69.5q0 13 -7 27
q-9 19 -19 56.5t-14 48.5q-4 12 -10.5 36.5t-10.5 36.5q-6 17 -15 58t-18 61q-9 21 -14 55q-6 35 -26 84q-8 21 -12 65q-1 15 9 29.5t24 18.5q14 2 19 -1q13 -8 21 -19q26 -38 31 -62q10 -50 33 -119q2 -5 3 -13.5t2 -11.5q6 -32 17 -57q6 -14 12 -46t18 -60q1 -3 7 -9
q7 6 11 22q2 7 6.5 21t6.5 21q5 13 5 15q0 11 3 22.5t8.5 26.5t7.5 21l9 33q2 7 6.5 22t6.5 23q25 88 32 116q8 31 39 57q13 10 26.5 7t20.5 -18q18 -40 4 -71q-5 -12 -10.5 -37t-6.5 -30q-5 -23 -7 -27q-15 -30 -18 -63q0 -5 -4 -15q-1 -3 -3 -7.5t-3.5 -8.5t-2.5 -8
q-13 -49 -23 -65q-5 -8 -5 -18q-1 -23 -13.5 -61t-15.5 -52q-2 -10 -8 -30q-3 -10 -10 -29t-10 -28q-10 -29 -7 -56q1 -4 0 -12t-1 -10l-1 -9q0 -9 1 -9q8 -43 6 -114q0 -11 2 -31q0 -2 1.5 -6.5t0.5 -6.5q-3 -16 -2.5 -43.5t-0.5 -43.5q-1 -15 -0.5 -22t2 -22t1.5 -22v-16
q0 -3 -0.5 -9t-0.5 -10t1 -9t3 -9v-6l3 -101q4 -52 0 -129q3 -9 4.5 -20t1.5 -25t1 -21q1 -8 1 -25v-57z" />
    <glyph glyph-name="Z" unicode="Z" horiz-adv-x="466" 
d="M342 1372v19q-7 -1 -32.5 0t-31.5 -3q-4 -1 -8 -1.5t-9 -1t-8 -0.5q-14 -2 -52.5 -4t-59.5 -5q-20 -3 -58 5q-26 6 -24 35q0 1 0.5 3t0.5 3q3 21 13 31t31 12l30 3q62 6 89 8q11 1 34 2.5t34 2.5q58 5 73 4q32 -2 57 -10t23 -34v-27.5t-3 -36t-11 -26.5q-3 -5 -5 -18
q-6 -43 -15 -63q-8 -20 -8 -32q0 -14 -4 -29.5t-10 -34t-9 -28.5q-4 -16 -11 -47t-11 -46q-21 -91 -32 -129q-9 -31 -23.5 -93.5t-23.5 -92.5q-3 -12 -7.5 -34t-6.5 -29q-2 -10 -8 -30q-12 -42 -13 -54q-4 -29 -18 -68q-7 -19 -8 -32q-5 -39 -11 -51q-4 -8 -6.5 -16.5
t-4.5 -19.5t-4 -17q-4 -14 -10 -42q-5 -19 -13 -57t-13 -57q-4 -17 -20 -71q-1 -5 -4 -13.5t-5 -15.5t-3 -13v-19q2 -14 15 -12q49 5 107 -1h9q16 4 34 4t40 -2t34 -2q25 0 43 -14t15 -41q0 -8 -8 -12q-41 -24 -63 -22h-17t-20.5 0.5t-17.5 2.5q-9 1 -21 -2q-8 -3 -32 -2
t-32 0q-9 -1 -19 2q-29 11 -56 -2q-4 -2 -6 -1q-12 4 -39 5t-40 7q-21 9 -24 29q-6 34 4 64q2 7 5 19.5t5 19.5q4 14 12.5 54t16.5 62q11 29 23 93q7 31 11 41q3 7 8 36q2 13 11 44.5t10 49.5q0 6 4 15.5t5 13.5q2 11 6.5 32t7.5 31q1 6 5 15.5t5 13.5q4 10 4 15q0 3 8 36
q8 31 22.5 93t21.5 93q4 19 14 55.5t15 55.5l12 51q27 116 31 129q6 20 16 62t17 63q5 14 17 79z" />
    <glyph glyph-name="bracketleft" unicode="[" horiz-adv-x="415" 
d="M298 93q39 0 57 -24q13 -18 7.5 -37t-26.5 -27q-10 -4 -15 -4q-10 -1 -30.5 -1t-30.5 -1q-46 -2 -68 -2q-6 0 -20 0.5t-20 0.5q-23 0 -41 32q-4 6 -2 17q7 34 1 92v34v9q-4 9 -3 47.5t0 47.5q-2 21 0 43q0 2 1.5 7t0.5 8q-6 36 -3 74q1 17 0.5 25.5t-2 25.5t-1.5 26
q-2 58 -2 86v58.5t-1 58.5q0 2 -1.5 29t-1.5 41q0 7 -0.5 21.5t-0.5 21.5l-3 111q1 17 -0.5 48t-1.5 41q0 74 -2 89v64q0 1 1 6t0 7q-5 5 -4.5 45.5t0.5 46.5q-5 69 4 122q6 31 37 34q8 0 23.5 1t23.5 2q8 0 24 2q2 0 6 1.5t6 0.5q6 -3 37 -2t37 1q18 -1 49 -5q16 -2 35 -21
q0 -2 1 -9t1 -11q0 -33 -35 -44q-16 -5 -48 -5q-2 0 -107 -3q-8 -13 -4 -34q4 -19 -1 -79q-2 -29 4 -39q2 -3 0 -12q-4 -18 1 -27q4 -5 2 -12q-4 -7 -2 -33.5t1 -33.5q-1 -5 0 -32t1 -32q0 -13 0.5 -53.5t1.5 -62.5q0 -8 0.5 -59.5t4.5 -78.5q1 -8 1 -71v-31v-37v-24
q0 -3 1 -9.5t1 -9.5q-1 -18 0 -58.5t-1 -58.5q-1 -17 2 -39q1 -8 1 -16.5t-0.5 -19t-0.5 -16.5q0 -2 -1.5 -13t0.5 -12q8 -29 8 -88q0 -6 0.5 -17.5t0.5 -16.5q0 -3 -1 -9t-1 -9q-2 -20 -1 -30q2 -20 0 -30q-4 -18 10 -30q15 0 45 0.5t45 1.5z" />
    <glyph glyph-name="backslash" unicode="\" horiz-adv-x="454" 
d="M407 68q1 -3 2 -9t1 -7q0 -28 -26 -56q-8 -8 -25 -4.5t-24 15.5q-16 30 -19 48q-4 27 -12 54q-3 10 -5.5 28.5t-4.5 25.5q-10 50 -16 63q-2 5 -3.5 16.5t-1.5 13.5q-3 13 -8 36t-9 42t-7 36q-5 28 -16.5 80.5t-14.5 67.5q-2 8 -4 24l-6 33q-6 17 -12 51q-4 21 -14 63
q-2 8 -5 23t-5 22q-14 72 -24 108q-3 9 -10 54q-5 26 -8 30q-4 5 -2 15q1 7 -2 18t-3 14q-1 17 -11 49.5t-11 49.5q0 1 -0.5 3t-0.5 3q-4 18 -12.5 55t-12.5 56q-2 9 -5.5 28.5t-5.5 29.5q-12 54 -19 81q-9 37 25 72q15 15 33 1q20 -14 25 -31q8 -24 16 -56q2 -9 5.5 -27.5
t5.5 -27.5q33 -163 40 -195q5 -21 13 -62.5t13 -61.5q2 -8 4 -24q2 -17 12 -48t12 -47q1 -9 5 -27q1 -5 2 -17t3 -20.5t6 -16.5q2 -5 3.5 -15t1.5 -12q25 -137 31 -160q16 -69 17 -79q0 -3 8 -29l9 -39q0 -1 0.5 -5.5t1.5 -6.5q7 -15 11 -44t6 -37q4 -16 10.5 -51.5
t11.5 -53.5q5 -15 9.5 -45t6.5 -39q2 -11 8 -32t7 -24z" />
    <glyph glyph-name="bracketright" unicode="]" horiz-adv-x="440" 
d="M352 209q4 -78 5 -117q0 -10 -5 -20q-6 -14 -19 -32q-23 -34 -59 -34q-18 0 -52 -2q-7 0 -21.5 -1t-21.5 -1q-29 -2 -43 -1q-22 2 -38 28q-6 10 0 25t18 23q22 14 45 17q15 2 22 1q18 -1 27 -0.5t26.5 3t27.5 3.5q0 3 1.5 9t2 9t-0.5 9q-4 20 -4 50.5v50.5q-4 58 -3 86
q0 17 -2 51.5t-1 52.5q1 17 -1.5 48t-2.5 45q0 32 -2 94t-2 93q0 34 -4 102q-2 18 2 27q2 6 1 9q-3 12 -2.5 33.5t-0.5 33.5l-3 68q0 12 -1 35.5t-2 35.5q-1 21 -2.5 63t-2.5 63v24q2 26 -1.5 73.5t-3.5 58.5q0 4 -4 16l-18 3q-57 2 -98 -2q-19 -2 -37 3q-26 6 -35 24.5
t1 43.5q4 8 10 11q13 6 27 8q48 5 58 3q7 -1 15 0q15 2 89 0q12 0 18 1q18 3 31 -10q8 -8 18 -28q4 -9 10.5 -26t7.5 -20q2 -7 1 -9q-3 -2 -2.5 -18t0.5 -18q-1 -20 -0.5 -30t2 -30.5t1.5 -30.5q2 -64 2 -95q0 -11 2.5 -76t1.5 -99q0 -10 0.5 -21t1.5 -25t1 -22q3 -42 5 -51
t0 -12q-9 -19 -1 -33q2 -6 1 -9q-3 -21 -3 -28.5t2.5 -28.5t3.5 -28q0 -3 -1 -9t-1 -9v-16q5 -18 1 -48q-1 -9 2 -27t3 -22q2 -12 -1 -21q-2 -5 1 -28q2 -18 2 -27q-2 -52 2 -88v-10.5v-12.5v-11v-25q2 -67 1 -86q0 -6 2 -39z" />
    <glyph glyph-name="asciicircum" unicode="^" horiz-adv-x="378" 
d="M342 1195q1 -3 -1.5 -10t-2.5 -8q-7 -39 -54 -28q-12 2 -19 19q-8 21 -10 29q-20 96 -21 103q-7 42 -30 132q0 2 -5 12q-14 -28 -20 -41l-3 -6q-1 -16 -13 -44.5t-13 -43.5q0 -5 -2 -8q-10 -15 -17.5 -48.5t-8.5 -36.5q-2 -8 -4 -12q-14 -30 -45 -25q-14 2 -24 13.5
t-12 26.5q-1 6 1 18q19 79 29 100q2 20 16.5 57.5t16.5 57.5q5 9 12.5 32.5t15.5 35.5q4 6 8.5 18.5t7.5 17.5q14 23 40.5 29t47.5 -10q25 -19 31 -41q1 -2 15 -34q10 -25 10 -32q0 -8 3 -15q7 -15 11.5 -32.5t9 -40t7.5 -33.5q1 -5 1 -16q-1 -11 0.5 -21.5t6 -26.5t5.5 -21
q2 -10 10 -67z" />
    <glyph glyph-name="underscore" unicode="_" horiz-adv-x="479" 
d="M451 75q7 -7 5 -17q-14 -58 -68 -57q-11 4 -23.5 4.5t-35.5 -1t-26 -1.5q-1 0 -43 3l-9 1q-9 1 -9 -1q-22 -7 -45 -1q-1 0 -3 1q-11 -5 -43 -3t-43 0q-3 -1 -18 2q-14 2 -21 2q-46 0 -46 44q0 9 3 15q18 31 49 30q21 -1 60 0t51 1h132q26 0 80 -2q35 -2 53 -20z" />
    <glyph glyph-name="grave" unicode="`" horiz-adv-x="155" 
d="M131 1412q8 -33 -7 -46q-26 -22 -51 -10q-4 2 -12 4l-51 81q-3 5 -7.5 10t-9.5 11.5t-8 9.5q-2 2 -6 7t-6 7q-17 22 -3 45q3 5 9.5 15t8.5 13q2 0 11 1.5t14 2.5q13 1 23 -12q6 -9 45 -55q1 -1 2 -2.5t2 -2.5q5 -15 21.5 -39t19.5 -29q4 -9 5 -11z" />
    <glyph glyph-name="a" unicode="a" horiz-adv-x="559" 
d="M203 199q-23 2 -38 -3q-11 -19 -8 -43q1 -12 -1 -54v-22q3 -6 2 -17t-2 -16t-4.5 -16t-4.5 -16q-7 -4 -20.5 -10t-19.5 -9q-11 2 -32 23q-6 8 -8 20q-4 50 -2 76q1 13 1 36.5v36.5q1 20 3 62t3 62l3 60q1 11 3 38t2 38v38q-1 32 4 76q3 13 2 16q-3 25 1 71.5t3 67.5
q0 6 2 16q1 4 1 37q-1 20 4 92q1 5 1 16t1 16l3 51q4 57 5 83q0 20 5 34q3 7 3 16q2 21 6 44.5t9.5 52t8.5 44.5q5 32 21 79q2 7 6 20t7.5 23.5t7.5 19.5q27 61 69 94q19 14 41 13q29 -2 44 -16q26 -23 39 -53q2 -6 7.5 -16.5t9 -19.5t3.5 -17q1 -13 8.5 -41t7.5 -43
q0 -4 11 -62q8 -44 14 -136q2 -29 7 -81t6 -70v-38q0 -14 0.5 -41.5t0.5 -41.5v-13q4 -10 5.5 -21t1 -26.5t-0.5 -21.5q1 -16 3.5 -47.5t3.5 -47.5q1 -14 2 -41.5t2 -40.5q3 -56 5 -67q2 -10 2.5 -30t1.5 -26q1 -9 4 -59.5t7 -76.5v-5v-6v-5q0 -47 5 -79q2 -13 10 -117
q0 -16 1 -19q7 -20 -18 -37q-24 -16 -44 -6q-8 4 -10 7q-2 4 -8 13t-9 16t-3 14q-1 34 -11 104q-1 10 -1 32q0 9 -1 13q-3 16 -18 13q-13 -3 -48 -1h-9q-9 1 -9 0q-9 -2 -70 -5q-4 0 -18 -2.5t-22 -1.5zM355 303q21 0 33 9q-1 11 -2.5 31t-1.5 30q-1 16 -4.5 50t-4 49.5
t0.5 49.5q0 2 -0.5 5t-0.5 4l-9 114q-1 10 -1.5 28.5t-0.5 24.5q-1 16 -3 47.5t-3 47.5q-4 49 -5 76q-3 71 -4 79q-5 33 -7 102q-2 73 -12 129q-1 5 -5 26.5t-5 33.5q0 13 -3 27.5t-7.5 32t-6.5 26.5q-2 10 -5 15q-7 12 -19 10q-4 -4 -6.5 -8.5t-4.5 -12.5t-3 -10
q-1 -3 -3.5 -12.5t-4.5 -14.5q-10 -23 -20 -67q-3 -17 -4 -19q-5 -10 -9 -40q-3 -27 -10 -49q-8 -24 -8 -47q0 -24 -5 -54q-2 -12 -3 -40.5t-4 -43.5q-2 -9 -2 -26v-21q0 -3 -0.5 -8t-0.5 -8q-3 -30 -3 -32v-31t-1 -32q-1 -14 -4 -41t-3.5 -41t1.5 -41q1 -3 0 -8.5t-1 -7.5
q-2 -35 -2 -42q2 -19 -4 -34q-4 -13 0 -21q6 -13 1 -34q-3 -12 -3 -25q0 -18 -1.5 -54.5t-2.5 -55.5q0 -5 -0.5 -10t-1.5 -11.5t-1 -10.5q-2 -16 -2 -25t2.5 -12.5t11.5 -3.5h80q30 0 34 1q25 6 64 6z" />
    <glyph glyph-name="a" unicode="&#xe5;" horiz-adv-x="559" 
d="M203 199q-23 2 -38 -3q-11 -19 -8 -43q1 -12 -1 -54v-22q3 -6 2 -17t-2 -16t-4.5 -16t-4.5 -16q-7 -4 -20.5 -10t-19.5 -9q-11 2 -32 23q-6 8 -8 20q-4 50 -2 76q1 13 1 36.5v36.5q1 20 3 62t3 62l3 60q1 11 3 38t2 38v38q-1 32 4 76q3 13 2 16q-3 25 1 71.5t3 67.5
q0 6 2 16q1 4 1 37q-1 20 4 92q1 5 1 16t1 16l3 51q4 57 5 83q0 20 5 34q3 7 3 16q2 21 6 44.5t9.5 52t8.5 44.5q5 32 21 79q2 7 6 20t7.5 23.5t7.5 19.5q27 61 69 94q19 14 41 13q29 -2 44 -16q26 -23 39 -53q2 -6 7.5 -16.5t9 -19.5t3.5 -17q1 -13 8.5 -41t7.5 -43
q0 -4 11 -62q8 -44 14 -136q2 -29 7 -81t6 -70v-38q0 -14 0.5 -41.5t0.5 -41.5v-13q4 -10 5.5 -21t1 -26.5t-0.5 -21.5q1 -16 3.5 -47.5t3.5 -47.5q1 -14 2 -41.5t2 -40.5q3 -56 5 -67q2 -10 2.5 -30t1.5 -26q1 -9 4 -59.5t7 -76.5v-5v-6v-5q0 -47 5 -79q2 -13 10 -117
q0 -16 1 -19q7 -20 -18 -37q-24 -16 -44 -6q-8 4 -10 7q-2 4 -8 13t-9 16t-3 14q-1 34 -11 104q-1 10 -1 32q0 9 -1 13q-3 16 -18 13q-13 -3 -48 -1h-9q-9 1 -9 0q-9 -2 -70 -5q-4 0 -18 -2.5t-22 -1.5zM355 303q21 0 33 9q-1 11 -2.5 31t-1.5 30q-1 16 -4.5 50t-4 49.5
t0.5 49.5q0 2 -0.5 5t-0.5 4l-9 114q-1 10 -1.5 28.5t-0.5 24.5q-1 16 -3 47.5t-3 47.5q-4 49 -5 76q-3 71 -4 79q-5 33 -7 102q-2 73 -12 129q-1 5 -5 26.5t-5 33.5q0 13 -3 27.5t-7.5 32t-6.5 26.5q-2 10 -5 15q-7 12 -19 10q-4 -4 -6.5 -8.5t-4.5 -12.5t-3 -10
q-1 -3 -3.5 -12.5t-4.5 -14.5q-10 -23 -20 -67q-3 -17 -4 -19q-5 -10 -9 -40q-3 -27 -10 -49q-8 -24 -8 -47q0 -24 -5 -54q-2 -12 -3 -40.5t-4 -43.5q-2 -9 -2 -26v-21q0 -3 -0.5 -8t-0.5 -8q-3 -30 -3 -32v-31t-1 -32q-1 -14 -4 -41t-3.5 -41t1.5 -41q1 -3 0 -8.5t-1 -7.5
q-2 -35 -2 -42q2 -19 -4 -34q-4 -13 0 -21q6 -13 1 -34q-3 -12 -3 -25q0 -18 -1.5 -54.5t-2.5 -55.5q0 -5 -0.5 -10t-1.5 -11.5t-1 -10.5q-2 -16 -2 -25t2.5 -12.5t11.5 -3.5h80q30 0 34 1q25 6 64 6z" />
    <glyph glyph-name="a" unicode="&#xe4;" horiz-adv-x="559" 
d="M203 199q-23 2 -38 -3q-11 -19 -8 -43q1 -12 -1 -54v-22q3 -6 2 -17t-2 -16t-4.5 -16t-4.5 -16q-7 -4 -20.5 -10t-19.5 -9q-11 2 -32 23q-6 8 -8 20q-4 50 -2 76q1 13 1 36.5v36.5q1 20 3 62t3 62l3 60q1 11 3 38t2 38v38q-1 32 4 76q3 13 2 16q-3 25 1 71.5t3 67.5
q0 6 2 16q1 4 1 37q-1 20 4 92q1 5 1 16t1 16l3 51q4 57 5 83q0 20 5 34q3 7 3 16q2 21 6 44.5t9.5 52t8.5 44.5q5 32 21 79q2 7 6 20t7.5 23.5t7.5 19.5q27 61 69 94q19 14 41 13q29 -2 44 -16q26 -23 39 -53q2 -6 7.5 -16.5t9 -19.5t3.5 -17q1 -13 8.5 -41t7.5 -43
q0 -4 11 -62q8 -44 14 -136q2 -29 7 -81t6 -70v-38q0 -14 0.5 -41.5t0.5 -41.5v-13q4 -10 5.5 -21t1 -26.5t-0.5 -21.5q1 -16 3.5 -47.5t3.5 -47.5q1 -14 2 -41.5t2 -40.5q3 -56 5 -67q2 -10 2.5 -30t1.5 -26q1 -9 4 -59.5t7 -76.5v-5v-6v-5q0 -47 5 -79q2 -13 10 -117
q0 -16 1 -19q7 -20 -18 -37q-24 -16 -44 -6q-8 4 -10 7q-2 4 -8 13t-9 16t-3 14q-1 34 -11 104q-1 10 -1 32q0 9 -1 13q-3 16 -18 13q-13 -3 -48 -1h-9q-9 1 -9 0q-9 -2 -70 -5q-4 0 -18 -2.5t-22 -1.5zM355 303q21 0 33 9q-1 11 -2.5 31t-1.5 30q-1 16 -4.5 50t-4 49.5
t0.5 49.5q0 2 -0.5 5t-0.5 4l-9 114q-1 10 -1.5 28.5t-0.5 24.5q-1 16 -3 47.5t-3 47.5q-4 49 -5 76q-3 71 -4 79q-5 33 -7 102q-2 73 -12 129q-1 5 -5 26.5t-5 33.5q0 13 -3 27.5t-7.5 32t-6.5 26.5q-2 10 -5 15q-7 12 -19 10q-4 -4 -6.5 -8.5t-4.5 -12.5t-3 -10
q-1 -3 -3.5 -12.5t-4.5 -14.5q-10 -23 -20 -67q-3 -17 -4 -19q-5 -10 -9 -40q-3 -27 -10 -49q-8 -24 -8 -47q0 -24 -5 -54q-2 -12 -3 -40.5t-4 -43.5q-2 -9 -2 -26v-21q0 -3 -0.5 -8t-0.5 -8q-3 -30 -3 -32v-31t-1 -32q-1 -14 -4 -41t-3.5 -41t1.5 -41q1 -3 0 -8.5t-1 -7.5
q-2 -35 -2 -42q2 -19 -4 -34q-4 -13 0 -21q6 -13 1 -34q-3 -12 -3 -25q0 -18 -1.5 -54.5t-2.5 -55.5q0 -5 -0.5 -10t-1.5 -11.5t-1 -10.5q-2 -16 -2 -25t2.5 -12.5t11.5 -3.5h80q30 0 34 1q25 6 64 6z" />
    <glyph glyph-name="a" unicode="&#xe3;" horiz-adv-x="559" 
d="M203 199q-23 2 -38 -3q-11 -19 -8 -43q1 -12 -1 -54v-22q3 -6 2 -17t-2 -16t-4.5 -16t-4.5 -16q-7 -4 -20.5 -10t-19.5 -9q-11 2 -32 23q-6 8 -8 20q-4 50 -2 76q1 13 1 36.5v36.5q1 20 3 62t3 62l3 60q1 11 3 38t2 38v38q-1 32 4 76q3 13 2 16q-3 25 1 71.5t3 67.5
q0 6 2 16q1 4 1 37q-1 20 4 92q1 5 1 16t1 16l3 51q4 57 5 83q0 20 5 34q3 7 3 16q2 21 6 44.5t9.5 52t8.5 44.5q5 32 21 79q2 7 6 20t7.5 23.5t7.5 19.5q27 61 69 94q19 14 41 13q29 -2 44 -16q26 -23 39 -53q2 -6 7.5 -16.5t9 -19.5t3.5 -17q1 -13 8.5 -41t7.5 -43
q0 -4 11 -62q8 -44 14 -136q2 -29 7 -81t6 -70v-38q0 -14 0.5 -41.5t0.5 -41.5v-13q4 -10 5.5 -21t1 -26.5t-0.5 -21.5q1 -16 3.5 -47.5t3.5 -47.5q1 -14 2 -41.5t2 -40.5q3 -56 5 -67q2 -10 2.5 -30t1.5 -26q1 -9 4 -59.5t7 -76.5v-5v-6v-5q0 -47 5 -79q2 -13 10 -117
q0 -16 1 -19q7 -20 -18 -37q-24 -16 -44 -6q-8 4 -10 7q-2 4 -8 13t-9 16t-3 14q-1 34 -11 104q-1 10 -1 32q0 9 -1 13q-3 16 -18 13q-13 -3 -48 -1h-9q-9 1 -9 0q-9 -2 -70 -5q-4 0 -18 -2.5t-22 -1.5zM355 303q21 0 33 9q-1 11 -2.5 31t-1.5 30q-1 16 -4.5 50t-4 49.5
t0.5 49.5q0 2 -0.5 5t-0.5 4l-9 114q-1 10 -1.5 28.5t-0.5 24.5q-1 16 -3 47.5t-3 47.5q-4 49 -5 76q-3 71 -4 79q-5 33 -7 102q-2 73 -12 129q-1 5 -5 26.5t-5 33.5q0 13 -3 27.5t-7.5 32t-6.5 26.5q-2 10 -5 15q-7 12 -19 10q-4 -4 -6.5 -8.5t-4.5 -12.5t-3 -10
q-1 -3 -3.5 -12.5t-4.5 -14.5q-10 -23 -20 -67q-3 -17 -4 -19q-5 -10 -9 -40q-3 -27 -10 -49q-8 -24 -8 -47q0 -24 -5 -54q-2 -12 -3 -40.5t-4 -43.5q-2 -9 -2 -26v-21q0 -3 -0.5 -8t-0.5 -8q-3 -30 -3 -32v-31t-1 -32q-1 -14 -4 -41t-3.5 -41t1.5 -41q1 -3 0 -8.5t-1 -7.5
q-2 -35 -2 -42q2 -19 -4 -34q-4 -13 0 -21q6 -13 1 -34q-3 -12 -3 -25q0 -18 -1.5 -54.5t-2.5 -55.5q0 -5 -0.5 -10t-1.5 -11.5t-1 -10.5q-2 -16 -2 -25t2.5 -12.5t11.5 -3.5h80q30 0 34 1q25 6 64 6z" />
    <glyph glyph-name="a" unicode="&#xe2;" horiz-adv-x="559" 
d="M203 199q-23 2 -38 -3q-11 -19 -8 -43q1 -12 -1 -54v-22q3 -6 2 -17t-2 -16t-4.5 -16t-4.5 -16q-7 -4 -20.5 -10t-19.5 -9q-11 2 -32 23q-6 8 -8 20q-4 50 -2 76q1 13 1 36.5v36.5q1 20 3 62t3 62l3 60q1 11 3 38t2 38v38q-1 32 4 76q3 13 2 16q-3 25 1 71.5t3 67.5
q0 6 2 16q1 4 1 37q-1 20 4 92q1 5 1 16t1 16l3 51q4 57 5 83q0 20 5 34q3 7 3 16q2 21 6 44.5t9.5 52t8.5 44.5q5 32 21 79q2 7 6 20t7.5 23.5t7.5 19.5q27 61 69 94q19 14 41 13q29 -2 44 -16q26 -23 39 -53q2 -6 7.5 -16.5t9 -19.5t3.5 -17q1 -13 8.5 -41t7.5 -43
q0 -4 11 -62q8 -44 14 -136q2 -29 7 -81t6 -70v-38q0 -14 0.5 -41.5t0.5 -41.5v-13q4 -10 5.5 -21t1 -26.5t-0.5 -21.5q1 -16 3.5 -47.5t3.5 -47.5q1 -14 2 -41.5t2 -40.5q3 -56 5 -67q2 -10 2.5 -30t1.5 -26q1 -9 4 -59.5t7 -76.5v-5v-6v-5q0 -47 5 -79q2 -13 10 -117
q0 -16 1 -19q7 -20 -18 -37q-24 -16 -44 -6q-8 4 -10 7q-2 4 -8 13t-9 16t-3 14q-1 34 -11 104q-1 10 -1 32q0 9 -1 13q-3 16 -18 13q-13 -3 -48 -1h-9q-9 1 -9 0q-9 -2 -70 -5q-4 0 -18 -2.5t-22 -1.5zM355 303q21 0 33 9q-1 11 -2.5 31t-1.5 30q-1 16 -4.5 50t-4 49.5
t0.5 49.5q0 2 -0.5 5t-0.5 4l-9 114q-1 10 -1.5 28.5t-0.5 24.5q-1 16 -3 47.5t-3 47.5q-4 49 -5 76q-3 71 -4 79q-5 33 -7 102q-2 73 -12 129q-1 5 -5 26.5t-5 33.5q0 13 -3 27.5t-7.5 32t-6.5 26.5q-2 10 -5 15q-7 12 -19 10q-4 -4 -6.5 -8.5t-4.5 -12.5t-3 -10
q-1 -3 -3.5 -12.5t-4.5 -14.5q-10 -23 -20 -67q-3 -17 -4 -19q-5 -10 -9 -40q-3 -27 -10 -49q-8 -24 -8 -47q0 -24 -5 -54q-2 -12 -3 -40.5t-4 -43.5q-2 -9 -2 -26v-21q0 -3 -0.5 -8t-0.5 -8q-3 -30 -3 -32v-31t-1 -32q-1 -14 -4 -41t-3.5 -41t1.5 -41q1 -3 0 -8.5t-1 -7.5
q-2 -35 -2 -42q2 -19 -4 -34q-4 -13 0 -21q6 -13 1 -34q-3 -12 -3 -25q0 -18 -1.5 -54.5t-2.5 -55.5q0 -5 -0.5 -10t-1.5 -11.5t-1 -10.5q-2 -16 -2 -25t2.5 -12.5t11.5 -3.5h80q30 0 34 1q25 6 64 6z" />
    <glyph glyph-name="a" unicode="&#xe1;" horiz-adv-x="559" 
d="M203 199q-23 2 -38 -3q-11 -19 -8 -43q1 -12 -1 -54v-22q3 -6 2 -17t-2 -16t-4.5 -16t-4.5 -16q-7 -4 -20.5 -10t-19.5 -9q-11 2 -32 23q-6 8 -8 20q-4 50 -2 76q1 13 1 36.5v36.5q1 20 3 62t3 62l3 60q1 11 3 38t2 38v38q-1 32 4 76q3 13 2 16q-3 25 1 71.5t3 67.5
q0 6 2 16q1 4 1 37q-1 20 4 92q1 5 1 16t1 16l3 51q4 57 5 83q0 20 5 34q3 7 3 16q2 21 6 44.5t9.5 52t8.5 44.5q5 32 21 79q2 7 6 20t7.5 23.5t7.5 19.5q27 61 69 94q19 14 41 13q29 -2 44 -16q26 -23 39 -53q2 -6 7.5 -16.5t9 -19.5t3.5 -17q1 -13 8.5 -41t7.5 -43
q0 -4 11 -62q8 -44 14 -136q2 -29 7 -81t6 -70v-38q0 -14 0.5 -41.5t0.5 -41.5v-13q4 -10 5.5 -21t1 -26.5t-0.5 -21.5q1 -16 3.5 -47.5t3.5 -47.5q1 -14 2 -41.5t2 -40.5q3 -56 5 -67q2 -10 2.5 -30t1.5 -26q1 -9 4 -59.5t7 -76.5v-5v-6v-5q0 -47 5 -79q2 -13 10 -117
q0 -16 1 -19q7 -20 -18 -37q-24 -16 -44 -6q-8 4 -10 7q-2 4 -8 13t-9 16t-3 14q-1 34 -11 104q-1 10 -1 32q0 9 -1 13q-3 16 -18 13q-13 -3 -48 -1h-9q-9 1 -9 0q-9 -2 -70 -5q-4 0 -18 -2.5t-22 -1.5zM355 303q21 0 33 9q-1 11 -2.5 31t-1.5 30q-1 16 -4.5 50t-4 49.5
t0.5 49.5q0 2 -0.5 5t-0.5 4l-9 114q-1 10 -1.5 28.5t-0.5 24.5q-1 16 -3 47.5t-3 47.5q-4 49 -5 76q-3 71 -4 79q-5 33 -7 102q-2 73 -12 129q-1 5 -5 26.5t-5 33.5q0 13 -3 27.5t-7.5 32t-6.5 26.5q-2 10 -5 15q-7 12 -19 10q-4 -4 -6.5 -8.5t-4.5 -12.5t-3 -10
q-1 -3 -3.5 -12.5t-4.5 -14.5q-10 -23 -20 -67q-3 -17 -4 -19q-5 -10 -9 -40q-3 -27 -10 -49q-8 -24 -8 -47q0 -24 -5 -54q-2 -12 -3 -40.5t-4 -43.5q-2 -9 -2 -26v-21q0 -3 -0.5 -8t-0.5 -8q-3 -30 -3 -32v-31t-1 -32q-1 -14 -4 -41t-3.5 -41t1.5 -41q1 -3 0 -8.5t-1 -7.5
q-2 -35 -2 -42q2 -19 -4 -34q-4 -13 0 -21q6 -13 1 -34q-3 -12 -3 -25q0 -18 -1.5 -54.5t-2.5 -55.5q0 -5 -0.5 -10t-1.5 -11.5t-1 -10.5q-2 -16 -2 -25t2.5 -12.5t11.5 -3.5h80q30 0 34 1q25 6 64 6z" />
    <glyph glyph-name="a" unicode="&#xe0;" horiz-adv-x="559" 
d="M203 199q-23 2 -38 -3q-11 -19 -8 -43q1 -12 -1 -54v-22q3 -6 2 -17t-2 -16t-4.5 -16t-4.5 -16q-7 -4 -20.5 -10t-19.5 -9q-11 2 -32 23q-6 8 -8 20q-4 50 -2 76q1 13 1 36.5v36.5q1 20 3 62t3 62l3 60q1 11 3 38t2 38v38q-1 32 4 76q3 13 2 16q-3 25 1 71.5t3 67.5
q0 6 2 16q1 4 1 37q-1 20 4 92q1 5 1 16t1 16l3 51q4 57 5 83q0 20 5 34q3 7 3 16q2 21 6 44.5t9.5 52t8.5 44.5q5 32 21 79q2 7 6 20t7.5 23.5t7.5 19.5q27 61 69 94q19 14 41 13q29 -2 44 -16q26 -23 39 -53q2 -6 7.5 -16.5t9 -19.5t3.5 -17q1 -13 8.5 -41t7.5 -43
q0 -4 11 -62q8 -44 14 -136q2 -29 7 -81t6 -70v-38q0 -14 0.5 -41.5t0.5 -41.5v-13q4 -10 5.5 -21t1 -26.5t-0.5 -21.5q1 -16 3.5 -47.5t3.5 -47.5q1 -14 2 -41.5t2 -40.5q3 -56 5 -67q2 -10 2.5 -30t1.5 -26q1 -9 4 -59.5t7 -76.5v-5v-6v-5q0 -47 5 -79q2 -13 10 -117
q0 -16 1 -19q7 -20 -18 -37q-24 -16 -44 -6q-8 4 -10 7q-2 4 -8 13t-9 16t-3 14q-1 34 -11 104q-1 10 -1 32q0 9 -1 13q-3 16 -18 13q-13 -3 -48 -1h-9q-9 1 -9 0q-9 -2 -70 -5q-4 0 -18 -2.5t-22 -1.5zM355 303q21 0 33 9q-1 11 -2.5 31t-1.5 30q-1 16 -4.5 50t-4 49.5
t0.5 49.5q0 2 -0.5 5t-0.5 4l-9 114q-1 10 -1.5 28.5t-0.5 24.5q-1 16 -3 47.5t-3 47.5q-4 49 -5 76q-3 71 -4 79q-5 33 -7 102q-2 73 -12 129q-1 5 -5 26.5t-5 33.5q0 13 -3 27.5t-7.5 32t-6.5 26.5q-2 10 -5 15q-7 12 -19 10q-4 -4 -6.5 -8.5t-4.5 -12.5t-3 -10
q-1 -3 -3.5 -12.5t-4.5 -14.5q-10 -23 -20 -67q-3 -17 -4 -19q-5 -10 -9 -40q-3 -27 -10 -49q-8 -24 -8 -47q0 -24 -5 -54q-2 -12 -3 -40.5t-4 -43.5q-2 -9 -2 -26v-21q0 -3 -0.5 -8t-0.5 -8q-3 -30 -3 -32v-31t-1 -32q-1 -14 -4 -41t-3.5 -41t1.5 -41q1 -3 0 -8.5t-1 -7.5
q-2 -35 -2 -42q2 -19 -4 -34q-4 -13 0 -21q6 -13 1 -34q-3 -12 -3 -25q0 -18 -1.5 -54.5t-2.5 -55.5q0 -5 -0.5 -10t-1.5 -11.5t-1 -10.5q-2 -16 -2 -25t2.5 -12.5t11.5 -3.5h80q30 0 34 1q25 6 64 6z" />
    <glyph glyph-name="b" unicode="b" horiz-adv-x="530" 
d="M297 1094q-5 -6 -16 -24q35 -25 43 -32q19 -18 28 -26.5t20 -26.5t14 -36q1 -9 9 -23q15 -21 30 -92q3 -13 10 -40t10 -41q5 -25 5 -30q1 -29 7.5 -82t7.5 -69q1 -8 1.5 -30t2.5 -34q1 -10 1 -32t2 -32v-18v-37q1 -37 0 -37q0 -9 -2 -25t-2 -21q0 -2 -1 -7t0 -8
q5 -31 -10 -104q-6 -33 -16 -47q-2 -2 -4 -14q-29 -108 -140 -147q-9 -3 -27 -5l-24 -3q-24 -2 -42 7q-47 22 -52 25q-18 11 -24 34q-9 33 -6 67q1 8 -2 64q-3 42 -1 50q1 9 0 18q-5 21 -5 64q0 9 -2 25t-2 21q-1 21 -1 65q1 64 -8 163v31q-4 111 -5 169q0 9 -2.5 26
t-2.5 23v41q0 44 -4 57q-1 3 -1 16q3 39 -6 135q0 1 -3 74q0 15 -0.5 61t-1.5 71q-1 14 -3.5 40.5t-3.5 33.5q-5 48 24 80q13 15 31 19q38 9 98 2q83 -10 139 -60q59 -54 48 -126q-2 -14 -27 -76q-3 -7 -9 -12q-9 -6 -28 -32q-8 -11 -24.5 -28.5t-22.5 -24.5zM211 83
q0 -2 2 -6.5t2 -6.5q37 -17 67 -1l9 3q11 1 25 17q30 35 38 69q2 9 8 25t9 29.5t0 26.5q-1 2 1.5 8t2.5 7l4 20t4 20.5t2 21t-2 20.5q-3 17 -1 30q4 18 0 46q-1 8 -1.5 18t-1 22t-0.5 18q-1 13 -2 38.5t-2 38.5q0 21 -1 31q0 8 -2 24q-1 8 -3 24.5t-3 24.5t-2.5 23.5
t-2.5 22.5q-1 6 -3 19.5t-3 20.5q-5 29 -17 87q0 2 -1 4.5t-2 3.5q-1 3 -5.5 15.5t-6.5 19.5q-12 46 -41 86q-42 57 -103 36q-3 -22 -3 -23q2 -8 2.5 -17.5t0.5 -20.5v-17q1 -12 0.5 -38t1.5 -38q5 -33 4 -42q-1 -11 1 -50.5t-2 -50.5q-1 -5 1 -15q6 -24 7 -69.5t2 -55.5
l3 -89q2 -44 8 -132q3 -38 2 -43q-2 -14 0 -55q3 -54 3 -55v-47.5t1 -47.5zM163 1280q0 -108 14 -170q22 16 62 48q3 2 5 5.5t4 8.5t3 7t3.5 3.5t3.5 2.5q15 11 32 37q14 24 24 46q11 26 -9 49q-17 21 -36 27q-18 5 -32 12q-12 6 -61 8q-8 1 -13.5 -5t-5.5 -15q0 -10 3 -21
q3 -14 3 -43z" />
    <glyph glyph-name="c" unicode="c" horiz-adv-x="456" 
d="M219 175q16 -40 53 -54q18 3 25 16q4 8 13 21t15 24t8 23l2.5 7.5t2.5 8.5t1 8q1 6 1.5 17.5t1.5 17.5q5 33 37 38q12 2 26 -6.5t18 -20.5q12 -32 8 -60q-3 -21 -25 -78q-18 -49 -59 -79q-6 -4 -7 -6q-15 -25 -57 -29q-47 -3 -75 23q-12 9 -15 11q-20 10 -38 38
q-36 54 -49 128v3q-8 31 -12.5 64.5t-7.5 80.5t-5 65q-3 28 -5 80t-3 64q-1 9 -1 27v27q-1 18 -0.5 59t-1.5 59q-1 14 1 42q1 26 3.5 77.5t4.5 76.5q1 19 2.5 57.5t2.5 57.5q0 10 8 60q2 15 6 45.5t6 46.5q1 5 3.5 15t3.5 13q6 24 7 38q2 19 7 34q22 59 41 97q27 53 88 75
q3 1 41 4q6 0 12 -4q49 -37 55 -72q0 -2 0.5 -5.5t1 -6t1.5 -4.5q9 -10 10.5 -20.5t-1 -28.5t-2.5 -22q-1 -8 -3.5 -23.5t-2.5 -17.5q-3 -32 -33 -75q-5 -6 -11 -11q-14 -10 -29 -1q-41 26 -26 72q14 44 11 78q-2 26 -8 36q-2 -1 -8.5 -4t-8.5 -6t-10 -13t-12 -18t-5 -18
q-1 -11 -8 -31t-9 -27q-4 -16 -12 -46q-2 -7 0 -13q4 -12 -2 -35q-3 -10 -11 -82q-6 -54 -8 -81l-6 -105l-3 -32q-9 -30 -2 -73q3 -20 2 -35q-3 -27 -3 -163q0 -22 4.5 -64t5.5 -50t1.5 -23.5t1.5 -28t3 -24.5q2 -14 3 -41t2 -33q6 -52 10 -82q7 -42 24 -83z" />
    <glyph glyph-name="c" unicode="&#xe7;" horiz-adv-x="456" 
d="M219 175q16 -40 53 -54q18 3 25 16q4 8 13 21t15 24t8 23l2.5 7.5t2.5 8.5t1 8q1 6 1.5 17.5t1.5 17.5q5 33 37 38q12 2 26 -6.5t18 -20.5q12 -32 8 -60q-3 -21 -25 -78q-18 -49 -59 -79q-6 -4 -7 -6q-15 -25 -57 -29q-47 -3 -75 23q-12 9 -15 11q-20 10 -38 38
q-36 54 -49 128v3q-8 31 -12.5 64.5t-7.5 80.5t-5 65q-3 28 -5 80t-3 64q-1 9 -1 27v27q-1 18 -0.5 59t-1.5 59q-1 14 1 42q1 26 3.5 77.5t4.5 76.5q1 19 2.5 57.5t2.5 57.5q0 10 8 60q2 15 6 45.5t6 46.5q1 5 3.5 15t3.5 13q6 24 7 38q2 19 7 34q22 59 41 97q27 53 88 75
q3 1 41 4q6 0 12 -4q49 -37 55 -72q0 -2 0.5 -5.5t1 -6t1.5 -4.5q9 -10 10.5 -20.5t-1 -28.5t-2.5 -22q-1 -8 -3.5 -23.5t-2.5 -17.5q-3 -32 -33 -75q-5 -6 -11 -11q-14 -10 -29 -1q-41 26 -26 72q14 44 11 78q-2 26 -8 36q-2 -1 -8.5 -4t-8.5 -6t-10 -13t-12 -18t-5 -18
q-1 -11 -8 -31t-9 -27q-4 -16 -12 -46q-2 -7 0 -13q4 -12 -2 -35q-3 -10 -11 -82q-6 -54 -8 -81l-6 -105l-3 -32q-9 -30 -2 -73q3 -20 2 -35q-3 -27 -3 -163q0 -22 4.5 -64t5.5 -50t1.5 -23.5t1.5 -28t3 -24.5q2 -14 3 -41t2 -33q6 -52 10 -82q7 -42 24 -83z" />
    <glyph glyph-name="d" unicode="d" horiz-adv-x="571" 
d="M72 1366q2 56 4 87q2 6 8 10.5t9.5 6.5t13.5 5t12 4q22 8 48 -5q5 -2 15 -4q16 -2 34 -14q76 -51 110 -93q39 -48 51 -71q8 -15 24.5 -42.5t22.5 -39.5q7 -14 8 -17q51 -132 56 -147q4 -12 6.5 -25t4.5 -29.5t4 -25.5q0 -2 -0.5 -6t0.5 -6q5 -13 7 -26.5t2.5 -32
t1.5 -27.5l3 -15q1 -5 3 -17.5t2.5 -17.5t-1.5 -18q-3 -8 -1 -19q5 -35 -1 -58q-1 -3 -1 -9q3 -28 -4 -79.5t-8 -61.5q0 -3 -5 -18q-6 -18 -4 -28q0 -3 -0.5 -6t-1.5 -6.5t-1 -5.5q-6 -42 -6 -43q0 -26 -11 -46q-2 -5 -13 -42q-4 -12 -10 -34t-12 -39.5t-14 -32.5
q-2 -5 -5 -16.5t-6 -16.5q-9 -17 -47 -78q-4 -6 -12.5 -18t-12.5 -18q-6 -10 -7 -10q-10 -6 -24.5 -21.5t-18.5 -19.5q-8 -8 -37 -46q-16 -22 -40 -29q-21 -7 -33 5q-13 13 -32 18q-26 6 -31 35q-5 33 -5 41q-1 18 -1 55t-1 55q0 9 -2 38t-2 44q0 19 -3 58.5t-2 60.5
q2 23 -3 91q-3 62 -1 75q1 7 -1 21t-2 20q-2 41 -3.5 122.5t-3.5 122.5q-1 41 -5 123q-1 19 -2 56.5t-1 56.5v3q-2 22 -3 77.5t-5 85.5q0 1 -1 4.5t0 5.5q3 19 2.5 28t-3 27.5t-2.5 27.5v10zM205 141q0 -14 12 -17q5 6 16 17q3 3 10.5 9t10.5 10q7 10 22.5 30.5t27 37
t19.5 33.5q36 73 45 110q12 58 17 70q10 26 17.5 76.5t14.5 71.5q1 3 1 9q0 17 5 59t3 64q0 1 0.5 4t0.5 5q7 40 1 109q-6 79 -28 165q-19 77 -23 85q-44 100 -61 127q-40 65 -64 89q-10 10 -14 16q-18 26 -59 46l-8 -2q-2 -12 -2 -21q1 -20 1 -58.5t1 -57.5q3 -60 2 -72
q0 -32 1 -38q1 -5 0.5 -19.5t-0.5 -20.5q0 -7 2 -24.5t2 -27.5q0 -97 1 -106q1 -16 2.5 -49t3.5 -49q0 -6 1 -16.5t1.5 -19.5t0.5 -17q-1 -23 0 -46q1 -11 2.5 -52.5t4.5 -63.5q0 -6 -1 -9q-5 -16 1 -37q1 -3 1 -22q0 -16 1 -47.5t1 -46.5v-54q1 -25 3.5 -75.5t3.5 -75.5
q2 -42 2 -62q0 -13 -2 -37z" />
    <glyph glyph-name="e" unicode="e" horiz-adv-x="419" 
d="M225 1372q-11 -1 -33.5 -3.5t-33.5 -3.5q-9 -34 -3 -52q1 -2 1 -6q-3 -17 2 -51.5t1 -52.5q-1 -4 2 -34q1 -9 1 -27v-3q0 -6 4 -20.5t3 -22.5q-1 -9 1 -39q1 -14 2.5 -39.5t2.5 -46.5t1 -40q1 -32 8 -78q10 -1 72.5 0t73.5 -8q1 -2 4 -7.5t5 -9.5q7 -19 -1 -34t-27 -21
q-53 -16 -88 -14h-12q-27 -1 -24 -28q2 -24 10 -141q7 -124 8 -151q3 -70 2 -80q-1 -9 0 -20t3 -24t3 -20q2 -14 0 -21q-4 -13 3 -30q4 -11 4 -27q0 -4 -1 -18.5t0 -21.5q5 -50 5 -89q0 -13 15 -16q3 -1 9 -1q31 1 93 1q20 0 24 -1q19 -4 29 -19t7 -34q-2 -10 -8 -13
q-37 -24 -55 -24q-66 0 -99 -4q-25 -3 -52 2q-19 3 -30 19q-18 26 -18 45q0 12 -3.5 34t-3.5 27q-1 7 0 20t1 17v18q-7 28 -6 58q1 20 -4 92q-3 61 -11 172q-2 23 -5.5 97.5t-7.5 114.5q-4 34 -3 52q2 23 -2 65t-4 58q0 15 -1 32t-2.5 37.5t-2.5 31.5q0 2 -1 9t0 10
q1 5 -2 58q-2 35 -4 101q0 10 -2 28q-1 7 -2 23t-1 23q0 10 -1 15q-4 14 -6 83q-1 19 -5 52q-2 22 9 54q5 12 10 14q32 16 43 16q6 0 18 1.5t22 1.5t18 -3q13 4 39 4.5t29 0.5q37 3 67 2q15 0 26.5 -13.5t9.5 -28.5q-2 -23 -13.5 -34t-35.5 -13q-39 -4 -59 -1q-9 2 -18 0z
" />
    <glyph glyph-name="e" unicode="&#xeb;" horiz-adv-x="419" 
d="M225 1372q-11 -1 -33.5 -3.5t-33.5 -3.5q-9 -34 -3 -52q1 -2 1 -6q-3 -17 2 -51.5t1 -52.5q-1 -4 2 -34q1 -9 1 -27v-3q0 -6 4 -20.5t3 -22.5q-1 -9 1 -39q1 -14 2.5 -39.5t2.5 -46.5t1 -40q1 -32 8 -78q10 -1 72.5 0t73.5 -8q1 -2 4 -7.5t5 -9.5q7 -19 -1 -34t-27 -21
q-53 -16 -88 -14h-12q-27 -1 -24 -28q2 -24 10 -141q7 -124 8 -151q3 -70 2 -80q-1 -9 0 -20t3 -24t3 -20q2 -14 0 -21q-4 -13 3 -30q4 -11 4 -27q0 -4 -1 -18.5t0 -21.5q5 -50 5 -89q0 -13 15 -16q3 -1 9 -1q31 1 93 1q20 0 24 -1q19 -4 29 -19t7 -34q-2 -10 -8 -13
q-37 -24 -55 -24q-66 0 -99 -4q-25 -3 -52 2q-19 3 -30 19q-18 26 -18 45q0 12 -3.5 34t-3.5 27q-1 7 0 20t1 17v18q-7 28 -6 58q1 20 -4 92q-3 61 -11 172q-2 23 -5.5 97.5t-7.5 114.5q-4 34 -3 52q2 23 -2 65t-4 58q0 15 -1 32t-2.5 37.5t-2.5 31.5q0 2 -1 9t0 10
q1 5 -2 58q-2 35 -4 101q0 10 -2 28q-1 7 -2 23t-1 23q0 10 -1 15q-4 14 -6 83q-1 19 -5 52q-2 22 9 54q5 12 10 14q32 16 43 16q6 0 18 1.5t22 1.5t18 -3q13 4 39 4.5t29 0.5q37 3 67 2q15 0 26.5 -13.5t9.5 -28.5q-2 -23 -13.5 -34t-35.5 -13q-39 -4 -59 -1q-9 2 -18 0z
" />
    <glyph glyph-name="e" unicode="&#xea;" horiz-adv-x="419" 
d="M225 1372q-11 -1 -33.5 -3.5t-33.5 -3.5q-9 -34 -3 -52q1 -2 1 -6q-3 -17 2 -51.5t1 -52.5q-1 -4 2 -34q1 -9 1 -27v-3q0 -6 4 -20.5t3 -22.5q-1 -9 1 -39q1 -14 2.5 -39.5t2.5 -46.5t1 -40q1 -32 8 -78q10 -1 72.5 0t73.5 -8q1 -2 4 -7.5t5 -9.5q7 -19 -1 -34t-27 -21
q-53 -16 -88 -14h-12q-27 -1 -24 -28q2 -24 10 -141q7 -124 8 -151q3 -70 2 -80q-1 -9 0 -20t3 -24t3 -20q2 -14 0 -21q-4 -13 3 -30q4 -11 4 -27q0 -4 -1 -18.5t0 -21.5q5 -50 5 -89q0 -13 15 -16q3 -1 9 -1q31 1 93 1q20 0 24 -1q19 -4 29 -19t7 -34q-2 -10 -8 -13
q-37 -24 -55 -24q-66 0 -99 -4q-25 -3 -52 2q-19 3 -30 19q-18 26 -18 45q0 12 -3.5 34t-3.5 27q-1 7 0 20t1 17v18q-7 28 -6 58q1 20 -4 92q-3 61 -11 172q-2 23 -5.5 97.5t-7.5 114.5q-4 34 -3 52q2 23 -2 65t-4 58q0 15 -1 32t-2.5 37.5t-2.5 31.5q0 2 -1 9t0 10
q1 5 -2 58q-2 35 -4 101q0 10 -2 28q-1 7 -2 23t-1 23q0 10 -1 15q-4 14 -6 83q-1 19 -5 52q-2 22 9 54q5 12 10 14q32 16 43 16q6 0 18 1.5t22 1.5t18 -3q13 4 39 4.5t29 0.5q37 3 67 2q15 0 26.5 -13.5t9.5 -28.5q-2 -23 -13.5 -34t-35.5 -13q-39 -4 -59 -1q-9 2 -18 0z
" />
    <glyph glyph-name="e" unicode="&#xe9;" horiz-adv-x="419" 
d="M225 1372q-11 -1 -33.5 -3.5t-33.5 -3.5q-9 -34 -3 -52q1 -2 1 -6q-3 -17 2 -51.5t1 -52.5q-1 -4 2 -34q1 -9 1 -27v-3q0 -6 4 -20.5t3 -22.5q-1 -9 1 -39q1 -14 2.5 -39.5t2.5 -46.5t1 -40q1 -32 8 -78q10 -1 72.5 0t73.5 -8q1 -2 4 -7.5t5 -9.5q7 -19 -1 -34t-27 -21
q-53 -16 -88 -14h-12q-27 -1 -24 -28q2 -24 10 -141q7 -124 8 -151q3 -70 2 -80q-1 -9 0 -20t3 -24t3 -20q2 -14 0 -21q-4 -13 3 -30q4 -11 4 -27q0 -4 -1 -18.5t0 -21.5q5 -50 5 -89q0 -13 15 -16q3 -1 9 -1q31 1 93 1q20 0 24 -1q19 -4 29 -19t7 -34q-2 -10 -8 -13
q-37 -24 -55 -24q-66 0 -99 -4q-25 -3 -52 2q-19 3 -30 19q-18 26 -18 45q0 12 -3.5 34t-3.5 27q-1 7 0 20t1 17v18q-7 28 -6 58q1 20 -4 92q-3 61 -11 172q-2 23 -5.5 97.5t-7.5 114.5q-4 34 -3 52q2 23 -2 65t-4 58q0 15 -1 32t-2.5 37.5t-2.5 31.5q0 2 -1 9t0 10
q1 5 -2 58q-2 35 -4 101q0 10 -2 28q-1 7 -2 23t-1 23q0 10 -1 15q-4 14 -6 83q-1 19 -5 52q-2 22 9 54q5 12 10 14q32 16 43 16q6 0 18 1.5t22 1.5t18 -3q13 4 39 4.5t29 0.5q37 3 67 2q15 0 26.5 -13.5t9.5 -28.5q-2 -23 -13.5 -34t-35.5 -13q-39 -4 -59 -1q-9 2 -18 0z
" />
    <glyph glyph-name="e" unicode="&#xe8;" horiz-adv-x="419" 
d="M225 1372q-11 -1 -33.5 -3.5t-33.5 -3.5q-9 -34 -3 -52q1 -2 1 -6q-3 -17 2 -51.5t1 -52.5q-1 -4 2 -34q1 -9 1 -27v-3q0 -6 4 -20.5t3 -22.5q-1 -9 1 -39q1 -14 2.5 -39.5t2.5 -46.5t1 -40q1 -32 8 -78q10 -1 72.5 0t73.5 -8q1 -2 4 -7.5t5 -9.5q7 -19 -1 -34t-27 -21
q-53 -16 -88 -14h-12q-27 -1 -24 -28q2 -24 10 -141q7 -124 8 -151q3 -70 2 -80q-1 -9 0 -20t3 -24t3 -20q2 -14 0 -21q-4 -13 3 -30q4 -11 4 -27q0 -4 -1 -18.5t0 -21.5q5 -50 5 -89q0 -13 15 -16q3 -1 9 -1q31 1 93 1q20 0 24 -1q19 -4 29 -19t7 -34q-2 -10 -8 -13
q-37 -24 -55 -24q-66 0 -99 -4q-25 -3 -52 2q-19 3 -30 19q-18 26 -18 45q0 12 -3.5 34t-3.5 27q-1 7 0 20t1 17v18q-7 28 -6 58q1 20 -4 92q-3 61 -11 172q-2 23 -5.5 97.5t-7.5 114.5q-4 34 -3 52q2 23 -2 65t-4 58q0 15 -1 32t-2.5 37.5t-2.5 31.5q0 2 -1 9t0 10
q1 5 -2 58q-2 35 -4 101q0 10 -2 28q-1 7 -2 23t-1 23q0 10 -1 15q-4 14 -6 83q-1 19 -5 52q-2 22 9 54q5 12 10 14q32 16 43 16q6 0 18 1.5t22 1.5t18 -3q13 4 39 4.5t29 0.5q37 3 67 2q15 0 26.5 -13.5t9.5 -28.5q-2 -23 -13.5 -34t-35.5 -13q-39 -4 -59 -1q-9 2 -18 0z
" />
    <glyph glyph-name="f" unicode="f" horiz-adv-x="387" 
d="M106 1449q4 2 3 1q68 -2 89 -2q82 0 123 1q13 0 29 -9q17 -10 18.5 -27t-12.5 -30q-27 -25 -58 -24q-21 1 -60 0t-51 -1q-22 0 -20 -21q5 -61 4 -104q0 -61 2 -70q2 -7 1 -9q-5 -10 0 -46t2 -67q-1 -9 0 -23.5t1 -19.5q1 -28 1 -83v-15q7 -21 5 -49q0 -1 5 -19
q36 -2 53 -3h21q42 0 55 -35q1 -27 -15 -42.5t-42 -12.5q-12 1 -35 -0.5t-34 -0.5q-7 -9 -7 -35q0 -7 0.5 -23t0.5 -23q0 -16 1 -33t2.5 -38t2.5 -33q1 -6 0 -20t0 -20q1 -11 -0.5 -35.5t0.5 -34.5q7 -54 7 -162q0 -6 -1 -21.5t-0.5 -27t4.5 -21.5q-4 -10 -1.5 -46t2.5 -46
q-1 -16 4 -77q1 -20 -7 -42q-5 -13 -19.5 -20t-28.5 -1q-20 8 -29 19t-9 37q0 11 -1.5 84t0.5 85q2 31 -5 55q-3 10 -1 34q1 17 -4 128v34v34q-1 13 -0.5 44.5t-1.5 44.5q-2 18 -1 52t-1 52q-5 58 -3 73q2 20 -2 34q-2 9 -2 42q0 11 0.5 33.5t0.5 34.5q0 6 -2 18.5t-2 15.5
q-2 14 -1 21q2 9 0 45t-2 45q0 6 1 26.5t0 31.5q0 18 -1 38t-2.5 44.5t-2.5 37.5q-1 14 1 40q0 1 0.5 3t0.5 3q-4 17 -4 48.5t-2 42.5q0 3 -1 8t-1 8q-5 28 1.5 43.5t30.5 30.5z" />
    <glyph glyph-name="g" unicode="g" horiz-adv-x="626" 
d="M359 447v-2h16q50 2 62 0q11 -2 22 0q7 5 56 3t56 -2q30 0 50 -41q4 -8 -1 -20t-15 -17q-22 -11 -38 -11q-5 0 -22 -1.5t-22 1.5q-2 1 -15 -2q-11 -3 -12 -13q-1 -5 -1 -16q2 -35 1 -44q-1 -8 0.5 -21.5t1.5 -17.5q0 -64 -19 -95q-5 -7 -5 -14q0 -8 -5 -21t-6 -17
q-3 -12 -9.5 -23.5t-16 -24.5t-13.5 -20q-4 -5 -9 -9l-57 -33q-21 -9 -36 -6q-4 1 -22 1q-9 0 -12 2q-2 1 -15 8.5t-16.5 10t-14 9t-15.5 11.5l-12 12t-12 15q-3 5 -12 15.5t-13 16.5q-12 22 -34 66q-15 32 -25 71q-3 11 -10 31.5t-8 24.5q-18 60 -24 123q-1 12 -5.5 44
t-5.5 49q-1 20 -1.5 42.5t-1 50t-0.5 42.5q0 67 -1 81q-2 26 3 129q2 55 6 74q3 17 7.5 60.5t10.5 66.5q1 2 1 8t1 8q8 61 26 126l12 48q12 53 41 102q20 33 40 56q26 30 43 39q54 31 105 21q7 -1 20 -7.5t18 -8.5q16 -5 32 -18q44 -33 54 -84q2 -15 4 -18q11 -24 -11 -59
q-15 -22 -44 -19q-5 0 -8 3q-27 25 -27 45v6q-1 60 -59 67q-34 4 -59 -28q-24 -32 -35 -48q-5 -9 -8 -17t-8.5 -23t-8.5 -23q-1 -2 -2.5 -6t-1.5 -6q-2 -12 -9 -37t-9 -39q-1 -5 -15 -80q0 -2 -2 -7t-2 -8q0 -10 -11 -68q-1 -5 -0.5 -17t0.5 -17q-1 -24 -6 -70.5t-6 -69.5
q-5 -82 0 -109q1 -6 1 -19q-4 -64 3 -128q3 -21 5 -60.5t4 -55.5q1 -11 3 -22.5t5 -26t4 -22.5q2 -10 1 -15q-1 -16 7 -30q1 -1 9 -26q3 -10 9.5 -30t9.5 -30q1 -2 5 -11q2 -4 15 -34q18 -45 40 -62q4 -3 12 -11l11 -11q27 -22 52 3q34 34 46 86q6 24 7.5 69t2.5 53
q-2 6 -2.5 14t0 14.5t-0.5 14.5q-1 18 -18 18q-51 -2 -72 3q-2 1 -9 -2q-17 -6 -47 11q-22 13 -9 44q14 33 58 35h53z" />
    <glyph glyph-name="h" unicode="h" horiz-adv-x="520" 
d="M184 841v-83q51 -8 72 -9l57 -3q15 -2 24 11q0 10 -1.5 32.5t-2.5 34.5q0 14 2 44q1 10 -0.5 39.5t1.5 39.5q2 6 0 12q-4 29 -4 133q0 18 -1 52t-1 52q0 101 1 110q0 2 -0.5 6t-0.5 6t-0.5 6.5t-0.5 6.5q0 12 -1 40t0.5 49t6.5 40q30 19 32 20q19 10 34 -8q23 -28 17 -65
q-2 -18 1 -28q4 -15 4 -35q-1 -17 -3 -49t-2 -49q0 -21 1 -31q5 -50 5 -59q1 -54 0 -107q0 -27 2 -41v-57v-25v-31v-39t1 -39q3 -39 1 -66q-3 -28 0 -56q2 -28 2 -85v-75q2 -29 2 -88q0 -29 -2 -85q0 -3 0.5 -9.5t0.5 -9.5q0 -2 1.5 -15.5t1.5 -21.5q0 -48 1 -57
q3 -37 2 -66t2 -66q3 -30 -20 -75q-11 -20 -35 -18q-22 1 -30 23q-11 28 -11 55q0 23 -0.5 70.5t-0.5 71.5v44q0 14 0.5 42.5t0.5 42.5q0 29 -3 57q-1 11 -1 23t0.5 27t0.5 23q0 1 0.5 4t0.5 5q-2 18 -2.5 40t0 40t-0.5 40q0 20 -21 21q-15 1 -45.5 3.5t-45.5 3.5
q-1 0 -3 0.5t-3 0.5q-24 0 -31 -7.5t-6 -32.5v-93v-142q0 -11 1.5 -32t1 -37t-3.5 -31q-1 -6 1 -16q2 -25 0 -34v-19q0 -7 -0.5 -19t-0.5 -18q0 -44 2 -66t-6 -63q-5 -22 -36 -38q-3 -2 -12 0q-17 5 -29.5 21.5t-11.5 33.5q1 19 -1 56q-1 11 1 33t2 31q0 15 -2 47
q0 3 -0.5 8t-0.5 7q6 76 1 114q0 5 2 35q1 10 0 56.5t3 56.5q-4 27 -3 77t-1 78q-2 5 -0.5 33t1.5 33v66q0 13 1 41t1 41q0 97 -1 117q-1 14 2 82q1 37 -3 111v34q2 79 1 101q-1 12 0 34.5t1 29.5q0 15 -1 22q-4 21 19 58q8 14 23 15q10 0 12 -1q36 -18 39 -53q2 -30 2 -44
l-3 -120q0 -10 2 -28q2 -31 -2 -41q-2 -4 -2 -30q0 -6 2 -19.5t1 -21.5l3 -114q0 -25 -3 -50q-3 -31 0 -63q1 -5 0 -29.5t-1 -29.5z" />
    <glyph glyph-name="i" unicode="i" horiz-adv-x="284" 
d="M118 55l1 1h1q-2 20 -4 56q0 9 1 25.5t0 24.5q0 6 -3.5 22t-2.5 24q1 33 0 66q-1 16 -1 49t-1 49q-1 30 -3.5 89.5t-3.5 89.5q0 15 -2 61t-2 71q0 14 -2.5 39.5t-2.5 35.5q-1 20 -1 60q0 50 -2 75q-2 19 -2 67.5t-5 74.5q2 17 -1 55t0 55q1 3 0 8t-1 7q-3 78 -7 227
q0 9 2 25q3 22 39 37q10 4 22.5 -4t16.5 -20q1 -2 6 -17.5t4.5 -18t-0.5 -19.5q-3 -16 1 -60q2 -14 2.5 -39.5t1.5 -35.5q2 -22 3.5 -61.5t1.5 -48.5q1 -16 1.5 -46t0.5 -39q0 -10 2 -28q0 -4 0.5 -11t0.5 -11q-2 -39 6 -119q3 -29 -1 -69q-2 -19 1 -35q3 -7 2 -44t-1 -44
q0 -8 2 -21.5t2 -18.5q2 -16 2 -25q0 -11 1 -33t1 -33q0 -8 0.5 -22t0.5 -22q0 -45 1 -50q2 -9 1 -25t1 -25q1 -4 1 -38q0 -48 4 -62l1 -2v-2q-3 -12 2 -65q1 -19 1.5 -54t0.5 -46q1 -30 1 -91q0 -32 -24 -43q-27 -13 -50 6q-9 7 -12 17q-2 6 -3 17t-2 14z" />
    <glyph glyph-name="i" unicode="&#xef;" horiz-adv-x="284" 
d="M118 55l1 1h1q-2 20 -4 56q0 9 1 25.5t0 24.5q0 6 -3.5 22t-2.5 24q1 33 0 66q-1 16 -1 49t-1 49q-1 30 -3.5 89.5t-3.5 89.5q0 15 -2 61t-2 71q0 14 -2.5 39.5t-2.5 35.5q-1 20 -1 60q0 50 -2 75q-2 19 -2 67.5t-5 74.5q2 17 -1 55t0 55q1 3 0 8t-1 7q-3 78 -7 227
q0 9 2 25q3 22 39 37q10 4 22.5 -4t16.5 -20q1 -2 6 -17.5t4.5 -18t-0.5 -19.5q-3 -16 1 -60q2 -14 2.5 -39.5t1.5 -35.5q2 -22 3.5 -61.5t1.5 -48.5q1 -16 1.5 -46t0.5 -39q0 -10 2 -28q0 -4 0.5 -11t0.5 -11q-2 -39 6 -119q3 -29 -1 -69q-2 -19 1 -35q3 -7 2 -44t-1 -44
q0 -8 2 -21.5t2 -18.5q2 -16 2 -25q0 -11 1 -33t1 -33q0 -8 0.5 -22t0.5 -22q0 -45 1 -50q2 -9 1 -25t1 -25q1 -4 1 -38q0 -48 4 -62l1 -2v-2q-3 -12 2 -65q1 -19 1.5 -54t0.5 -46q1 -30 1 -91q0 -32 -24 -43q-27 -13 -50 6q-9 7 -12 17q-2 6 -3 17t-2 14z" />
    <glyph glyph-name="i" unicode="&#xee;" horiz-adv-x="284" 
d="M118 55l1 1h1q-2 20 -4 56q0 9 1 25.5t0 24.5q0 6 -3.5 22t-2.5 24q1 33 0 66q-1 16 -1 49t-1 49q-1 30 -3.5 89.5t-3.5 89.5q0 15 -2 61t-2 71q0 14 -2.5 39.5t-2.5 35.5q-1 20 -1 60q0 50 -2 75q-2 19 -2 67.5t-5 74.5q2 17 -1 55t0 55q1 3 0 8t-1 7q-3 78 -7 227
q0 9 2 25q3 22 39 37q10 4 22.5 -4t16.5 -20q1 -2 6 -17.5t4.5 -18t-0.5 -19.5q-3 -16 1 -60q2 -14 2.5 -39.5t1.5 -35.5q2 -22 3.5 -61.5t1.5 -48.5q1 -16 1.5 -46t0.5 -39q0 -10 2 -28q0 -4 0.5 -11t0.5 -11q-2 -39 6 -119q3 -29 -1 -69q-2 -19 1 -35q3 -7 2 -44t-1 -44
q0 -8 2 -21.5t2 -18.5q2 -16 2 -25q0 -11 1 -33t1 -33q0 -8 0.5 -22t0.5 -22q0 -45 1 -50q2 -9 1 -25t1 -25q1 -4 1 -38q0 -48 4 -62l1 -2v-2q-3 -12 2 -65q1 -19 1.5 -54t0.5 -46q1 -30 1 -91q0 -32 -24 -43q-27 -13 -50 6q-9 7 -12 17q-2 6 -3 17t-2 14z" />
    <glyph glyph-name="i" unicode="&#xed;" horiz-adv-x="284" 
d="M118 55l1 1h1q-2 20 -4 56q0 9 1 25.5t0 24.5q0 6 -3.5 22t-2.5 24q1 33 0 66q-1 16 -1 49t-1 49q-1 30 -3.5 89.5t-3.5 89.5q0 15 -2 61t-2 71q0 14 -2.5 39.5t-2.5 35.5q-1 20 -1 60q0 50 -2 75q-2 19 -2 67.5t-5 74.5q2 17 -1 55t0 55q1 3 0 8t-1 7q-3 78 -7 227
q0 9 2 25q3 22 39 37q10 4 22.5 -4t16.5 -20q1 -2 6 -17.5t4.5 -18t-0.5 -19.5q-3 -16 1 -60q2 -14 2.5 -39.5t1.5 -35.5q2 -22 3.5 -61.5t1.5 -48.5q1 -16 1.5 -46t0.5 -39q0 -10 2 -28q0 -4 0.5 -11t0.5 -11q-2 -39 6 -119q3 -29 -1 -69q-2 -19 1 -35q3 -7 2 -44t-1 -44
q0 -8 2 -21.5t2 -18.5q2 -16 2 -25q0 -11 1 -33t1 -33q0 -8 0.5 -22t0.5 -22q0 -45 1 -50q2 -9 1 -25t1 -25q1 -4 1 -38q0 -48 4 -62l1 -2v-2q-3 -12 2 -65q1 -19 1.5 -54t0.5 -46q1 -30 1 -91q0 -32 -24 -43q-27 -13 -50 6q-9 7 -12 17q-2 6 -3 17t-2 14z" />
    <glyph glyph-name="i" unicode="&#xec;" horiz-adv-x="284" 
d="M118 55l1 1h1q-2 20 -4 56q0 9 1 25.5t0 24.5q0 6 -3.5 22t-2.5 24q1 33 0 66q-1 16 -1 49t-1 49q-1 30 -3.5 89.5t-3.5 89.5q0 15 -2 61t-2 71q0 14 -2.5 39.5t-2.5 35.5q-1 20 -1 60q0 50 -2 75q-2 19 -2 67.5t-5 74.5q2 17 -1 55t0 55q1 3 0 8t-1 7q-3 78 -7 227
q0 9 2 25q3 22 39 37q10 4 22.5 -4t16.5 -20q1 -2 6 -17.5t4.5 -18t-0.5 -19.5q-3 -16 1 -60q2 -14 2.5 -39.5t1.5 -35.5q2 -22 3.5 -61.5t1.5 -48.5q1 -16 1.5 -46t0.5 -39q0 -10 2 -28q0 -4 0.5 -11t0.5 -11q-2 -39 6 -119q3 -29 -1 -69q-2 -19 1 -35q3 -7 2 -44t-1 -44
q0 -8 2 -21.5t2 -18.5q2 -16 2 -25q0 -11 1 -33t1 -33q0 -8 0.5 -22t0.5 -22q0 -45 1 -50q2 -9 1 -25t1 -25q1 -4 1 -38q0 -48 4 -62l1 -2v-2q-3 -12 2 -65q1 -19 1.5 -54t0.5 -46q1 -30 1 -91q0 -32 -24 -43q-27 -13 -50 6q-9 7 -12 17q-2 6 -3 17t-2 14z" />
    <glyph glyph-name="j" unicode="j" horiz-adv-x="440" 
d="M249 1354q0 4 -6 20h-68h-5h-6h-5q-21 6 -45 -1q-27 -7 -43 6q-1 1 -12 4q-20 6 -24 10.5t-12 27.5q1 1 7.5 15.5t13.5 19.5q18 13 35 13q8 0 30.5 1.5t34.5 0.5q23 -1 66 0t62 1h6q52 6 69 -44q-15 -34 -7 -73q5 -24 -1 -71q-3 -22 4 -38q6 -13 4 -25q-4 -10 -1.5 -48
t2.5 -48q-3 -75 -1 -128q1 -10 0.5 -46.5t2.5 -46.5q2 -12 2 -15q-4 -13 -4.5 -27.5t1 -33.5t1.5 -28q0 -10 1 -40t0 -47q-1 -51 3 -102q2 -6 0.5 -50t-1.5 -50q0 -8 2 -22q4 -46 0 -64q-3 -11 -1 -13q5 -10 5 -22t-1.5 -26t-1.5 -22q0 -11 -1 -33.5t-1 -33.5q0 -49 -1 -54
q-3 -13 -6.5 -39.5t-6.5 -39.5q-1 -7 -11 -31q-14 -29 -18 -37q-2 -4 -9 -11l-8 -8q-15 -18 -70 -49q-5 -3 -22 -5q-54 -8 -93 31q-10 10 -28 32q-21 25 -24 52q-1 8 -5 21.5t-5 18.5q-6 28 -4 109q0 9 2.5 26.5t2.5 24.5q2 38 33 48q2 0 8 -2l9 -3q32 -6 39 -46
q5 -25 -1 -76q-10 -65 22 -117q2 -2 11 -12q21 -21 43 -3q39 33 42 88q3 23 3 25q4 16 4 61q0 29 0.5 88t0.5 89q0 53 -4 96q-2 20 -4 119v112q0 8 2 22.5t2 19.5q0 3 -1 9.5t-1 9.5q0 6 -1 17t-1.5 20t-0.5 17q0 12 0.5 35.5t0.5 35.5q0 9 -1.5 29.5t-2 29t1.5 28.5
q2 18 -1 53t0 53q1 5 -0.5 15.5t-1.5 15.5v25t2 30q2 4 0 25t-2 26v17.5v20.5v17z" />
    <glyph glyph-name="k" unicode="k" horiz-adv-x="514" 
d="M179 1043q1 -9 1 -49.5t5 -63.5q14 2 21 18q5 12 15 35t16 35q3 6 14.5 29.5t16.5 36.5q40 106 47 162q7 16 10.5 34t6.5 40.5t5 34.5q4 20 6 80q2 46 44 49q18 2 34 -11.5t17 -31.5q2 -26 -4 -76q-4 -35 -16 -95q-2 -9 -5 -26.5t-6 -31.5t-7 -26q-2 -6 -4 -18
q-2 -15 -5 -19q-6 -9 -10.5 -20.5t-9 -25.5t-7.5 -22q-8 -20 5 -39q11 -16 29 -71q2 -1 0.5 -7.5t-1.5 -7.5q0 -11 1 -13q8 -17 11.5 -50.5t7.5 -46.5q-3 -15 1 -42t2 -40q-1 -10 1 -27.5t2 -23.5t1.5 -43t-0.5 -43q-2 -16 1 -28q6 -22 4 -77q-1 -15 0.5 -42t1.5 -37
q0 -52 1 -79q3 -120 3 -121q0 -27 -4 -83q-1 -10 -4 -31t-3 -32q-2 -25 -29 -62q-3 -4 -15 -6q-14 -2 -29 8t-16 24q-6 49 -2 74q3 19 8 172q0 10 2 32q0 2 1.5 11t-0.5 11q-3 9 -4 20.5t-0.5 20.5t-0.5 20q-1 24 -3 73t-3 74q-4 50 0 83q0 9 -1 13q-10 43 -4 82q1 5 -2 26
q-1 19 -3.5 59t-4.5 59q-1 13 -7 37q0 4 -4 4q-8 0 -8 -3q-2 -12 -15 -30.5t-15 -29.5q-5 -7 -17 -24.5t-21 -29.5t-20 -21q-28 -23 -28 -68q0 -12 5 -70v-3l-3 -143q-1 -20 -0.5 -30t2 -29.5t1.5 -29.5q2 -73 -1 -90q-2 -12 1 -22q3 -14 3.5 -29.5t0 -35t-0.5 -30.5
q0 -6 -0.5 -19t-0.5 -19q0 -8 1 -22t1 -25.5t-2 -22.5q-1 -5 0.5 -13.5t1.5 -11.5q0 -28 -8 -37q-11 -12 -35 -27q-5 -3 -18 5q-23 15 -29 40q-3 12 -3 26q-1 20 -1 62t-1 62q0 14 -0.5 40t-0.5 40q0 4 1 12.5t1 12.5q0 47 -1 70q0 4 -1.5 14t-0.5 15q1 21 0 61t-1 57
q1 59 0 119q0 7 -2 22t-2 22q0 48 0.5 143.5t0.5 143.5q0 19 -2 53.5t-2 45.5q-1 25 0 51q3 38 -2 99q-1 4 0 12t1 10q0 40 -1 48q-3 19 0 131q0 35 37 52q15 7 27 -4q22 -19 25 -42q2 -17 4 -55v-38q2 -51 -1 -92q-1 -27 3 -54q3 -8 1.5 -35.5t-1.5 -34.5q0 -12 -1.5 -44
t0.5 -44z" />
    <glyph glyph-name="l" unicode="l" horiz-adv-x="391" 
d="M192 146q-3 -14 -3.5 -17.5t2.5 -18t4 -19.5q9 0 18.5 -0.5t21 -1.5t17.5 -1q56 -2 75 -6q29 -5 45 -20q4 -10 5 -21q3 -15 -5 -26.5t-23 -14.5q-60 -12 -109 -5q-45 5 -76 4q-25 -1 -53 16q-17 11 -16 28q3 27 3 28q1 18 1 53q0 14 -0.5 41t-0.5 40q0 16 -0.5 48
t-0.5 48q0 12 -1.5 41.5t-0.5 45.5q1 7 0 43.5t-1 43.5q0 30 -2 90v3q5 11 2.5 67t-2.5 67q0 14 -0.5 43t-0.5 44q0 7 1 22t1 22q0 2 -2.5 22.5t1.5 23.5q-4 7 -2 33t1 33q-1 13 -1.5 35.5t-0.5 29.5q-3 127 -2 143q2 52 -3 131q-1 5 0 15.5t1 13.5q0 2 3 33t-2 34
q-3 9 2 43q2 8 8 13q24 23 54 17q16 -11 20 -38q4 -32 10 -96q1 -7 -2 -28t1 -28q-5 -17 -1 -60t2 -61q-1 -12 -1 -71v-22q0 -9 1.5 -37t0.5 -43q-1 -10 2 -112v-28q-1 -30 2 -68q3 -49 -4 -84q-1 -3 2 -28q3 -35 2 -43q-2 -24 1 -59q3 -36 1 -62q-1 -15 1 -90q2 -60 1 -72
q-1 -6 2 -62v-12q-8 -41 2 -93q1 -4 -1 -10z" />
    <glyph glyph-name="m" unicode="m" horiz-adv-x="612" 
d="M520 73q2 -35 -14 -58q-26 -13 -49 -8q-25 6 -26 27q0 8 -2 27t-2 27.5t2 27.5q1 3 0 20t-1 21q0 31 1 47q0 1 1 5.5t0 6.5q-5 11 -3 42.5t0 42.5v9q5 31 1 119q-1 14 2 85v22l-3 69v75q0 1 -1 4.5t0 5.5q7 9 1.5 40t-4.5 40q-14 -72 -15 -91q-1 -9 -3.5 -24.5
t-2.5 -18.5q-9 -78 -16 -125q0 -2 -6 -25q-4 -16 -3 -24q2 -13 -2 -22q-7 -22 -8 -27q-1 -28 -26 -40q-13 -7 -15 -8q-22 1 -48 18q-20 12 -21 33q-1 19 -4.5 39.5t-9 46t-7.5 38.5q-3 23 -10 68.5t-11 68.5q-1 9 -5 26.5t-5 26.5t-4 26.5t-5 26.5q-1 8 -9 18q-5 -10 -5 -31
q2 -28 1 -41q-2 -51 1 -69q1 -7 -1.5 -21t-2.5 -19t3 -17.5t2 -19.5q-2 -17 0 -66q1 -16 0 -46t-1 -39q0 -18 0.5 -55t0.5 -55q0 -25 -1 -38q-1 -16 0.5 -70.5t-2.5 -70.5q-1 -8 4 -62q4 -38 -34 -67q-11 -9 -24 -4q-24 9 -31 37q-5 20 -5 37q-1 11 0 30.5t1 25.5v101
q0 4 -1.5 28t0.5 28q0 5 1 14t2 14v16q-4 19 -4 85q0 55 1 82q2 56 -1 84q-2 14 1 85q0 15 -1 45.5t0 45.5q0 4 -1.5 42t3.5 42q1 2 0 11t-1 11q0 70 1 79t-1.5 27t-2.5 26q1 16 0 46t-1 39q0 6 2 17t2 14v12q-3 18 -3.5 26t2 26t2.5 26q0 2 1.5 12.5t-0.5 12.5q-2 10 -5 72
q0 18 2 110q0 5 3 13.5t4 10.5q6 20 31.5 23t36.5 -13q10 -15 11 -19q8 -32 11 -49l15 -93q3 -19 9.5 -57.5t9.5 -57.5t9 -59t9 -59q2 -12 7 -33.5t6 -28.5q1 -6 3.5 -18.5t3.5 -18.5q1 -5 4 -34t7 -44q4 -13 8.5 -37t5.5 -30q2 -8 7 -50q1 -6 5.5 -22.5t3.5 -26.5
q-1 -8 2.5 -24.5t3.5 -19.5q9 4 9 5q-1 10 9 65q2 8 7 72q2 27 6 40q6 18 8 49q1 14 5 39.5t5 34.5q3 23 8.5 69t8.5 69q3 20 9.5 59t9.5 59q1 8 2 26.5t3 27.5q5 20 12 99q2 24 11 43q12 25 30 29q4 1 20 8q1 -1 4.5 -2.5t4.5 -2.5q5 -4 12 -9t9.5 -7t6.5 -4.5t4.5 -5
t2.5 -4.5t2 -6t1 -8t2 -12t2 -15q3 -16 1 -46.5t0 -46.5v-38q0 -19 -1 -22q-5 -13 -1 -37q7 -39 3 -104q-2 -63 0 -84q1 -5 -2 -50q0 -4 -1 -12t-1.5 -14.5t-0.5 -11.5q3 -11 2.5 -99t-0.5 -99v-78.5t1 -78.5q0 -16 -1.5 -52t-0.5 -55q1 -18 0.5 -66t1.5 -66q1 -12 1 -107
v-78q2 -20 -1 -37q-1 -6 -1 -35z" />
    <glyph glyph-name="n" unicode="n" horiz-adv-x="534" 
d="M203 699q-3 24 -13 41l-4 -10q0 -6 1 -19t1 -20q3 -53 2 -60t2 -64q0 -4 -0.5 -13.5t-0.5 -14.5v-12q4 -17 2 -61q-4 -52 4 -114q1 -9 1 -51q3 -107 5 -123q1 -3 0 -10t-1 -9q0 -43 1 -48q4 -22 -9 -76q-4 -16 -18 -24t-32 -1q-24 8 -29 30q-6 21 -8 92q-1 0 -1 42l1 41
q0 8 0.5 23.5t0.5 23.5v10q-6 8 -5 49t0 50q-6 68 -4 102q1 12 0 34.5t-1 29.5v79q0 11 -2 47t-2 55q0 5 -1 33t0 34q4 53 -3 79q-2 10 -2 12q5 16 1 73.5t-4 73.5q0 17 0.5 50t0.5 49q0 5 -1 13.5t-1 12.5q0 7 -1.5 55t0.5 56q3 27 -6 98q-4 33 9 69q9 25 33 26
q28 2 41 -20q9 -14 12 -33q11 -61 31 -183q2 -11 5 -33t5 -33q1 -6 5 -18q9 -35 16 -78q5 -36 8 -46q3 -12 8 -53q2 -19 6 -28q9 -20 6 -37q-2 -16 4 -28q11 -23 20 -87q1 -7 4 -20t4 -20q6 -39 6 -41q2 -14 10.5 -55t11.5 -64q0 -3 21 -109q2 -11 11 -11q0 3 -1.5 8.5
t-2.5 8.5q-2 11 -1 16q3 13 3.5 29.5t0 29.5t0.5 29q1 11 -0.5 30.5t-1.5 27.5q0 11 -1.5 39t-0.5 43q2 55 0 109q0 7 1 22.5t0.5 27.5t-2.5 23q0 1 0.5 3t0.5 3q5 22 1 67q-4 60 0 79v7q-5 5 -3 41t2 41q-2 45 -2 135q0 24 0.5 72t0.5 72q0 23 18 46q12 16 30.5 13.5
t31.5 -20.5q18 -25 15 -64q-4 -32 1 -53q2 -11 -1 -19q-5 -17 -1 -66q2 -21 0 -42q-1 -10 -0.5 -37.5t-1.5 -38.5q-1 -10 -0.5 -15t2 -16t1.5 -16q0 -2 1.5 -7.5t0.5 -8.5q-3 -16 -2 -52.5t-4 -52.5q-2 -8 0 -16q7 -48 4 -86q0 -1 1 -6t0 -7q-5 -30 1 -76q1 -7 -0.5 -19
t-1.5 -16q0 -6 -2 -44.5t3 -43.5q2 -5 1 -7q-5 -10 -5.5 -21t2 -26.5t2.5 -21.5q0 -10 1.5 -32.5t2 -32t-1.5 -31.5q-3 -6 -1 -49.5t2 -49.5q0 -9 -1.5 -54t0.5 -54q1 -10 -1.5 -59t3.5 -59q-4 -9 -4 -18.5t2 -23t2 -18.5q1 -19 -20 -70q-6 -15 -22 -16q-12 -2 -16 -4
q-25 -9 -46 18q-18 26 -27 67q-2 7 -8 45t-12 58q-3 13 -6.5 38.5t-4.5 31.5q-3 17 -10 50t-10 50q-16 80 -21 120q-3 23 -13.5 67t-13.5 64q-2 13 -7 41t-8 41z" />
    <glyph glyph-name="n" unicode="&#xf1;" horiz-adv-x="534" 
d="M203 699q-3 24 -13 41l-4 -10q0 -6 1 -19t1 -20q3 -53 2 -60t2 -64q0 -4 -0.5 -13.5t-0.5 -14.5v-12q4 -17 2 -61q-4 -52 4 -114q1 -9 1 -51q3 -107 5 -123q1 -3 0 -10t-1 -9q0 -43 1 -48q4 -22 -9 -76q-4 -16 -18 -24t-32 -1q-24 8 -29 30q-6 21 -8 92q-1 0 -1 42l1 41
q0 8 0.5 23.5t0.5 23.5v10q-6 8 -5 49t0 50q-6 68 -4 102q1 12 0 34.5t-1 29.5v79q0 11 -2 47t-2 55q0 5 -1 33t0 34q4 53 -3 79q-2 10 -2 12q5 16 1 73.5t-4 73.5q0 17 0.5 50t0.5 49q0 5 -1 13.5t-1 12.5q0 7 -1.5 55t0.5 56q3 27 -6 98q-4 33 9 69q9 25 33 26
q28 2 41 -20q9 -14 12 -33q11 -61 31 -183q2 -11 5 -33t5 -33q1 -6 5 -18q9 -35 16 -78q5 -36 8 -46q3 -12 8 -53q2 -19 6 -28q9 -20 6 -37q-2 -16 4 -28q11 -23 20 -87q1 -7 4 -20t4 -20q6 -39 6 -41q2 -14 10.5 -55t11.5 -64q0 -3 21 -109q2 -11 11 -11q0 3 -1.5 8.5
t-2.5 8.5q-2 11 -1 16q3 13 3.5 29.5t0 29.5t0.5 29q1 11 -0.5 30.5t-1.5 27.5q0 11 -1.5 39t-0.5 43q2 55 0 109q0 7 1 22.5t0.5 27.5t-2.5 23q0 1 0.5 3t0.5 3q5 22 1 67q-4 60 0 79v7q-5 5 -3 41t2 41q-2 45 -2 135q0 24 0.5 72t0.5 72q0 23 18 46q12 16 30.5 13.5
t31.5 -20.5q18 -25 15 -64q-4 -32 1 -53q2 -11 -1 -19q-5 -17 -1 -66q2 -21 0 -42q-1 -10 -0.5 -37.5t-1.5 -38.5q-1 -10 -0.5 -15t2 -16t1.5 -16q0 -2 1.5 -7.5t0.5 -8.5q-3 -16 -2 -52.5t-4 -52.5q-2 -8 0 -16q7 -48 4 -86q0 -1 1 -6t0 -7q-5 -30 1 -76q1 -7 -0.5 -19
t-1.5 -16q0 -6 -2 -44.5t3 -43.5q2 -5 1 -7q-5 -10 -5.5 -21t2 -26.5t2.5 -21.5q0 -10 1.5 -32.5t2 -32t-1.5 -31.5q-3 -6 -1 -49.5t2 -49.5q0 -9 -1.5 -54t0.5 -54q1 -10 -1.5 -59t3.5 -59q-4 -9 -4 -18.5t2 -23t2 -18.5q1 -19 -20 -70q-6 -15 -22 -16q-12 -2 -16 -4
q-25 -9 -46 18q-18 26 -27 67q-2 7 -8 45t-12 58q-3 13 -6.5 38.5t-4.5 31.5q-3 17 -10 50t-10 50q-16 80 -21 120q-3 23 -13.5 67t-13.5 64q-2 13 -7 41t-8 41z" />
    <glyph glyph-name="o" unicode="o" horiz-adv-x="464" 
d="M195 1467q2 1 31 17q46 -3 74 -27q14 -12 16 -19q4 -10 8.5 -21.5t10 -25.5t8.5 -22q1 -19 11.5 -60.5t9.5 -64.5q0 -8 2 -17.5t5.5 -21t4.5 -17.5q9 -37 6 -76q-2 -13 0 -20q6 -19 8 -41t2 -48t1 -41q1 -9 -0.5 -25.5t-1.5 -22.5q0 -8 0.5 -24t0.5 -24q2 -62 2 -92
q0 -22 -2 -32q-3 -17 -2 -47.5t-1 -47.5q-2 -18 -2.5 -51.5t-1.5 -44.5q-5 -86 -8 -109q-3 -17 -7 -65t-10 -74q-1 -5 -1.5 -14t-0.5 -12q0 -2 -6 -25q-1 -5 -3.5 -15.5t-3.5 -15.5q-14 -69 -40 -128q-14 -34 -35 -57q-14 -16 -35 -20q-3 -1 -9.5 -2.5t-9.5 -1.5
q-17 -4 -35 11q-35 28 -57 105q-8 31 -9 34q-1 8 -3.5 24t-4.5 24q-5 37 -6 40q-8 30 -12 93q-2 28 -8 76q-3 18 -3 19q2 10 0.5 38.5t-1.5 38.5v13q-5 167 -5 202q0 25 2 69t2 59q1 59 10 141l9 108q0 7 1 14t2.5 16t2.5 14l9 60q1 6 7 45t15 58l3 9q0 15 3.5 29t12 36.5
t9.5 26.5q2 7 25 45q2 3 10 7zM260 1333q-3 17 -18 32q-11 -30 -11 -31q-3 -14 -10 -42t-12 -50t-7 -43q-8 -72 -13 -108q-1 -7 -3.5 -20.5t-3.5 -20.5q-2 -18 -2 -28v-21.5t-2 -26.5q-7 -30 -4 -54q2 -15 -3 -38l-3 -35v-22q0 -7 -1 -41.5t0 -41.5q2 -25 1 -78.5t2 -78.5
q1 -15 0 -43.5t-1 -40.5q2 -115 10 -149q7 -35 4 -48q-1 -2 2 -12q8 -53 14 -76q2 -10 18 -68q1 -2 7 -8q15 34 23 74q11 60 17 98t16 114q1 7 1.5 21t0.5 18q1 13 4 36t5 42t3 36t2 48.5t2.5 57t4.5 48.5q2 13 0 25q-3 19 -1 71q1 17 0 35q0 10 -2 29t-3 28q-6 165 -6 167
l-6 51q-2 22 -7 65.5t-7 65.5q-1 10 -11 63z" />
    <glyph glyph-name="o" unicode="&#xf8;" horiz-adv-x="464" 
d="M195 1467q2 1 31 17q46 -3 74 -27q14 -12 16 -19q4 -10 8.5 -21.5t10 -25.5t8.5 -22q1 -19 11.5 -60.5t9.5 -64.5q0 -8 2 -17.5t5.5 -21t4.5 -17.5q9 -37 6 -76q-2 -13 0 -20q6 -19 8 -41t2 -48t1 -41q1 -9 -0.5 -25.5t-1.5 -22.5q0 -8 0.5 -24t0.5 -24q2 -62 2 -92
q0 -22 -2 -32q-3 -17 -2 -47.5t-1 -47.5q-2 -18 -2.5 -51.5t-1.5 -44.5q-5 -86 -8 -109q-3 -17 -7 -65t-10 -74q-1 -5 -1.5 -14t-0.5 -12q0 -2 -6 -25q-1 -5 -3.5 -15.5t-3.5 -15.5q-14 -69 -40 -128q-14 -34 -35 -57q-14 -16 -35 -20q-3 -1 -9.5 -2.5t-9.5 -1.5
q-17 -4 -35 11q-35 28 -57 105q-8 31 -9 34q-1 8 -3.5 24t-4.5 24q-5 37 -6 40q-8 30 -12 93q-2 28 -8 76q-3 18 -3 19q2 10 0.5 38.5t-1.5 38.5v13q-5 167 -5 202q0 25 2 69t2 59q1 59 10 141l9 108q0 7 1 14t2.5 16t2.5 14l9 60q1 6 7 45t15 58l3 9q0 15 3.5 29t12 36.5
t9.5 26.5q2 7 25 45q2 3 10 7zM260 1333q-3 17 -18 32q-11 -30 -11 -31q-3 -14 -10 -42t-12 -50t-7 -43q-8 -72 -13 -108q-1 -7 -3.5 -20.5t-3.5 -20.5q-2 -18 -2 -28v-21.5t-2 -26.5q-7 -30 -4 -54q2 -15 -3 -38l-3 -35v-22q0 -7 -1 -41.5t0 -41.5q2 -25 1 -78.5t2 -78.5
q1 -15 0 -43.5t-1 -40.5q2 -115 10 -149q7 -35 4 -48q-1 -2 2 -12q8 -53 14 -76q2 -10 18 -68q1 -2 7 -8q15 34 23 74q11 60 17 98t16 114q1 7 1.5 21t0.5 18q1 13 4 36t5 42t3 36t2 48.5t2.5 57t4.5 48.5q2 13 0 25q-3 19 -1 71q1 17 0 35q0 10 -2 29t-3 28q-6 165 -6 167
l-6 51q-2 22 -7 65.5t-7 65.5q-1 10 -11 63z" />
    <glyph glyph-name="o" unicode="&#xf6;" horiz-adv-x="464" 
d="M195 1467q2 1 31 17q46 -3 74 -27q14 -12 16 -19q4 -10 8.5 -21.5t10 -25.5t8.5 -22q1 -19 11.5 -60.5t9.5 -64.5q0 -8 2 -17.5t5.5 -21t4.5 -17.5q9 -37 6 -76q-2 -13 0 -20q6 -19 8 -41t2 -48t1 -41q1 -9 -0.5 -25.5t-1.5 -22.5q0 -8 0.5 -24t0.5 -24q2 -62 2 -92
q0 -22 -2 -32q-3 -17 -2 -47.5t-1 -47.5q-2 -18 -2.5 -51.5t-1.5 -44.5q-5 -86 -8 -109q-3 -17 -7 -65t-10 -74q-1 -5 -1.5 -14t-0.5 -12q0 -2 -6 -25q-1 -5 -3.5 -15.5t-3.5 -15.5q-14 -69 -40 -128q-14 -34 -35 -57q-14 -16 -35 -20q-3 -1 -9.5 -2.5t-9.5 -1.5
q-17 -4 -35 11q-35 28 -57 105q-8 31 -9 34q-1 8 -3.5 24t-4.5 24q-5 37 -6 40q-8 30 -12 93q-2 28 -8 76q-3 18 -3 19q2 10 0.5 38.5t-1.5 38.5v13q-5 167 -5 202q0 25 2 69t2 59q1 59 10 141l9 108q0 7 1 14t2.5 16t2.5 14l9 60q1 6 7 45t15 58l3 9q0 15 3.5 29t12 36.5
t9.5 26.5q2 7 25 45q2 3 10 7zM260 1333q-3 17 -18 32q-11 -30 -11 -31q-3 -14 -10 -42t-12 -50t-7 -43q-8 -72 -13 -108q-1 -7 -3.5 -20.5t-3.5 -20.5q-2 -18 -2 -28v-21.5t-2 -26.5q-7 -30 -4 -54q2 -15 -3 -38l-3 -35v-22q0 -7 -1 -41.5t0 -41.5q2 -25 1 -78.5t2 -78.5
q1 -15 0 -43.5t-1 -40.5q2 -115 10 -149q7 -35 4 -48q-1 -2 2 -12q8 -53 14 -76q2 -10 18 -68q1 -2 7 -8q15 34 23 74q11 60 17 98t16 114q1 7 1.5 21t0.5 18q1 13 4 36t5 42t3 36t2 48.5t2.5 57t4.5 48.5q2 13 0 25q-3 19 -1 71q1 17 0 35q0 10 -2 29t-3 28q-6 165 -6 167
l-6 51q-2 22 -7 65.5t-7 65.5q-1 10 -11 63z" />
    <glyph glyph-name="o" unicode="&#xf5;" horiz-adv-x="464" 
d="M195 1467q2 1 31 17q46 -3 74 -27q14 -12 16 -19q4 -10 8.5 -21.5t10 -25.5t8.5 -22q1 -19 11.5 -60.5t9.5 -64.5q0 -8 2 -17.5t5.5 -21t4.5 -17.5q9 -37 6 -76q-2 -13 0 -20q6 -19 8 -41t2 -48t1 -41q1 -9 -0.5 -25.5t-1.5 -22.5q0 -8 0.5 -24t0.5 -24q2 -62 2 -92
q0 -22 -2 -32q-3 -17 -2 -47.5t-1 -47.5q-2 -18 -2.5 -51.5t-1.5 -44.5q-5 -86 -8 -109q-3 -17 -7 -65t-10 -74q-1 -5 -1.5 -14t-0.5 -12q0 -2 -6 -25q-1 -5 -3.5 -15.5t-3.5 -15.5q-14 -69 -40 -128q-14 -34 -35 -57q-14 -16 -35 -20q-3 -1 -9.5 -2.5t-9.5 -1.5
q-17 -4 -35 11q-35 28 -57 105q-8 31 -9 34q-1 8 -3.5 24t-4.5 24q-5 37 -6 40q-8 30 -12 93q-2 28 -8 76q-3 18 -3 19q2 10 0.5 38.5t-1.5 38.5v13q-5 167 -5 202q0 25 2 69t2 59q1 59 10 141l9 108q0 7 1 14t2.5 16t2.5 14l9 60q1 6 7 45t15 58l3 9q0 15 3.5 29t12 36.5
t9.5 26.5q2 7 25 45q2 3 10 7zM260 1333q-3 17 -18 32q-11 -30 -11 -31q-3 -14 -10 -42t-12 -50t-7 -43q-8 -72 -13 -108q-1 -7 -3.5 -20.5t-3.5 -20.5q-2 -18 -2 -28v-21.5t-2 -26.5q-7 -30 -4 -54q2 -15 -3 -38l-3 -35v-22q0 -7 -1 -41.5t0 -41.5q2 -25 1 -78.5t2 -78.5
q1 -15 0 -43.5t-1 -40.5q2 -115 10 -149q7 -35 4 -48q-1 -2 2 -12q8 -53 14 -76q2 -10 18 -68q1 -2 7 -8q15 34 23 74q11 60 17 98t16 114q1 7 1.5 21t0.5 18q1 13 4 36t5 42t3 36t2 48.5t2.5 57t4.5 48.5q2 13 0 25q-3 19 -1 71q1 17 0 35q0 10 -2 29t-3 28q-6 165 -6 167
l-6 51q-2 22 -7 65.5t-7 65.5q-1 10 -11 63z" />
    <glyph glyph-name="o" unicode="&#xf4;" horiz-adv-x="464" 
d="M195 1467q2 1 31 17q46 -3 74 -27q14 -12 16 -19q4 -10 8.5 -21.5t10 -25.5t8.5 -22q1 -19 11.5 -60.5t9.5 -64.5q0 -8 2 -17.5t5.5 -21t4.5 -17.5q9 -37 6 -76q-2 -13 0 -20q6 -19 8 -41t2 -48t1 -41q1 -9 -0.5 -25.5t-1.5 -22.5q0 -8 0.5 -24t0.5 -24q2 -62 2 -92
q0 -22 -2 -32q-3 -17 -2 -47.5t-1 -47.5q-2 -18 -2.5 -51.5t-1.5 -44.5q-5 -86 -8 -109q-3 -17 -7 -65t-10 -74q-1 -5 -1.5 -14t-0.5 -12q0 -2 -6 -25q-1 -5 -3.5 -15.5t-3.5 -15.5q-14 -69 -40 -128q-14 -34 -35 -57q-14 -16 -35 -20q-3 -1 -9.5 -2.5t-9.5 -1.5
q-17 -4 -35 11q-35 28 -57 105q-8 31 -9 34q-1 8 -3.5 24t-4.5 24q-5 37 -6 40q-8 30 -12 93q-2 28 -8 76q-3 18 -3 19q2 10 0.5 38.5t-1.5 38.5v13q-5 167 -5 202q0 25 2 69t2 59q1 59 10 141l9 108q0 7 1 14t2.5 16t2.5 14l9 60q1 6 7 45t15 58l3 9q0 15 3.5 29t12 36.5
t9.5 26.5q2 7 25 45q2 3 10 7zM260 1333q-3 17 -18 32q-11 -30 -11 -31q-3 -14 -10 -42t-12 -50t-7 -43q-8 -72 -13 -108q-1 -7 -3.5 -20.5t-3.5 -20.5q-2 -18 -2 -28v-21.5t-2 -26.5q-7 -30 -4 -54q2 -15 -3 -38l-3 -35v-22q0 -7 -1 -41.5t0 -41.5q2 -25 1 -78.5t2 -78.5
q1 -15 0 -43.5t-1 -40.5q2 -115 10 -149q7 -35 4 -48q-1 -2 2 -12q8 -53 14 -76q2 -10 18 -68q1 -2 7 -8q15 34 23 74q11 60 17 98t16 114q1 7 1.5 21t0.5 18q1 13 4 36t5 42t3 36t2 48.5t2.5 57t4.5 48.5q2 13 0 25q-3 19 -1 71q1 17 0 35q0 10 -2 29t-3 28q-6 165 -6 167
l-6 51q-2 22 -7 65.5t-7 65.5q-1 10 -11 63z" />
    <glyph glyph-name="o" unicode="&#xf3;" horiz-adv-x="464" 
d="M195 1467q2 1 31 17q46 -3 74 -27q14 -12 16 -19q4 -10 8.5 -21.5t10 -25.5t8.5 -22q1 -19 11.5 -60.5t9.5 -64.5q0 -8 2 -17.5t5.5 -21t4.5 -17.5q9 -37 6 -76q-2 -13 0 -20q6 -19 8 -41t2 -48t1 -41q1 -9 -0.5 -25.5t-1.5 -22.5q0 -8 0.5 -24t0.5 -24q2 -62 2 -92
q0 -22 -2 -32q-3 -17 -2 -47.5t-1 -47.5q-2 -18 -2.5 -51.5t-1.5 -44.5q-5 -86 -8 -109q-3 -17 -7 -65t-10 -74q-1 -5 -1.5 -14t-0.5 -12q0 -2 -6 -25q-1 -5 -3.5 -15.5t-3.5 -15.5q-14 -69 -40 -128q-14 -34 -35 -57q-14 -16 -35 -20q-3 -1 -9.5 -2.5t-9.5 -1.5
q-17 -4 -35 11q-35 28 -57 105q-8 31 -9 34q-1 8 -3.5 24t-4.5 24q-5 37 -6 40q-8 30 -12 93q-2 28 -8 76q-3 18 -3 19q2 10 0.5 38.5t-1.5 38.5v13q-5 167 -5 202q0 25 2 69t2 59q1 59 10 141l9 108q0 7 1 14t2.5 16t2.5 14l9 60q1 6 7 45t15 58l3 9q0 15 3.5 29t12 36.5
t9.5 26.5q2 7 25 45q2 3 10 7zM260 1333q-3 17 -18 32q-11 -30 -11 -31q-3 -14 -10 -42t-12 -50t-7 -43q-8 -72 -13 -108q-1 -7 -3.5 -20.5t-3.5 -20.5q-2 -18 -2 -28v-21.5t-2 -26.5q-7 -30 -4 -54q2 -15 -3 -38l-3 -35v-22q0 -7 -1 -41.5t0 -41.5q2 -25 1 -78.5t2 -78.5
q1 -15 0 -43.5t-1 -40.5q2 -115 10 -149q7 -35 4 -48q-1 -2 2 -12q8 -53 14 -76q2 -10 18 -68q1 -2 7 -8q15 34 23 74q11 60 17 98t16 114q1 7 1.5 21t0.5 18q1 13 4 36t5 42t3 36t2 48.5t2.5 57t4.5 48.5q2 13 0 25q-3 19 -1 71q1 17 0 35q0 10 -2 29t-3 28q-6 165 -6 167
l-6 51q-2 22 -7 65.5t-7 65.5q-1 10 -11 63z" />
    <glyph glyph-name="o" unicode="&#xf2;" horiz-adv-x="464" 
d="M195 1467q2 1 31 17q46 -3 74 -27q14 -12 16 -19q4 -10 8.5 -21.5t10 -25.5t8.5 -22q1 -19 11.5 -60.5t9.5 -64.5q0 -8 2 -17.5t5.5 -21t4.5 -17.5q9 -37 6 -76q-2 -13 0 -20q6 -19 8 -41t2 -48t1 -41q1 -9 -0.5 -25.5t-1.5 -22.5q0 -8 0.5 -24t0.5 -24q2 -62 2 -92
q0 -22 -2 -32q-3 -17 -2 -47.5t-1 -47.5q-2 -18 -2.5 -51.5t-1.5 -44.5q-5 -86 -8 -109q-3 -17 -7 -65t-10 -74q-1 -5 -1.5 -14t-0.5 -12q0 -2 -6 -25q-1 -5 -3.5 -15.5t-3.5 -15.5q-14 -69 -40 -128q-14 -34 -35 -57q-14 -16 -35 -20q-3 -1 -9.5 -2.5t-9.5 -1.5
q-17 -4 -35 11q-35 28 -57 105q-8 31 -9 34q-1 8 -3.5 24t-4.5 24q-5 37 -6 40q-8 30 -12 93q-2 28 -8 76q-3 18 -3 19q2 10 0.5 38.5t-1.5 38.5v13q-5 167 -5 202q0 25 2 69t2 59q1 59 10 141l9 108q0 7 1 14t2.5 16t2.5 14l9 60q1 6 7 45t15 58l3 9q0 15 3.5 29t12 36.5
t9.5 26.5q2 7 25 45q2 3 10 7zM260 1333q-3 17 -18 32q-11 -30 -11 -31q-3 -14 -10 -42t-12 -50t-7 -43q-8 -72 -13 -108q-1 -7 -3.5 -20.5t-3.5 -20.5q-2 -18 -2 -28v-21.5t-2 -26.5q-7 -30 -4 -54q2 -15 -3 -38l-3 -35v-22q0 -7 -1 -41.5t0 -41.5q2 -25 1 -78.5t2 -78.5
q1 -15 0 -43.5t-1 -40.5q2 -115 10 -149q7 -35 4 -48q-1 -2 2 -12q8 -53 14 -76q2 -10 18 -68q1 -2 7 -8q15 34 23 74q11 60 17 98t16 114q1 7 1.5 21t0.5 18q1 13 4 36t5 42t3 36t2 48.5t2.5 57t4.5 48.5q2 13 0 25q-3 19 -1 71q1 17 0 35q0 10 -2 29t-3 28q-6 165 -6 167
l-6 51q-2 22 -7 65.5t-7 65.5q-1 10 -11 63z" />
    <glyph glyph-name="p" unicode="p" horiz-adv-x="466" 
d="M196 672l-8 -8q0 -4 -1 -18t0 -23.5t4 -18.5q3 -8 -1 -19q-1 -4 -1 -35q0 -5 1.5 -15t1 -18t-3.5 -15v-10q6 -46 0 -122q-1 -17 0 -35q5 -67 2 -151q0 -9 1.5 -28.5t0.5 -29.5q-1 -6 -1 -28.5t-3 -34.5q-2 -2 -0.5 -18t1.5 -18q0 -23 -22 -29q-4 -2 -6 -2q-31 -5 -43 1
t-17 35q-10 62 -3 94v22q0 7 -2 27.5t-1.5 34.5t3.5 28q2 2 0.5 17t-1.5 18q-1 15 -2 44t-2 43q0 3 1 9.5t1 9.5q2 20 2 29q0 7 -2 23t-2 22.5t3 22.5v3q-5 25 -5 54t1.5 63t1.5 54q-2 99 -1 119q2 28 2 42q0 37 -2 109v65q0 103 -2 132q-1 21 -1 67.5t-2 67.5q-1 8 2 100
v22q-3 7 -3.5 14.5t0 12.5t2.5 15t3 13q4 19 18 28.5t34 7.5q6 -1 17.5 -1h17.5q21 -2 59 -16q17 -6 44 -23.5t34 -21.5q4 -2 5 -4q62 -70 83 -119q18 -48 19 -64q0 -7 4 -19q7 -24 5 -41q-1 -15 5 -45q3 -18 -1 -34q-2 -7 -3.5 -23t-3.5 -24q-1 -4 -10 -49t-19 -67
q-7 -16 -17 -35q0 -1 -3 -3.5t-3 -4.5q-1 -14 -6.5 -25t-17.5 -27l-15 -20q-28 -44 -54 -59q-7 -4 -10 -9q-21 -33 -70 -54q-5 -1 -8 -5zM229 1348q-21 16 -43 8q-10 -15 -3 -34q7 -22 3 -52q-1 -9 -1 -106q0 -23 -2 -73v-23q3 -18 3 -19q-2 -72 0 -90q1 -3 -0.5 -8.5
t-1.5 -7.5q-1 -6 -1 -19q1 -19 3 -56.5t3 -56.5v-16q1 -4 5.5 -6t7.5 0q4 3 11 9t12.5 11t9.5 10q40 54 56 83q3 5 10.5 17t11 19t6.5 18.5t2 22.5q-1 4 3 12t4 9q6 16 7 25q2 15 3.5 48.5t4.5 50.5q-6 68 -43 155q0 1 -2 3t-2 3q-20 29 -67 63z" />
    <glyph glyph-name="q" unicode="q" horiz-adv-x="546" 
d="M383 62q-7 24 -30 41q-2 -2 -27 -35q-13 -18 -39.5 -30.5t-48.5 -11.5q-11 0 -15 3q-5 4 -17.5 13t-19 14.5t-15 15t-13.5 20.5q-27 62 -39 104q-3 9 -7 27.5t-7 27.5q-4 15 -14 76q-2 9 -3.5 19.5t-3 23.5t-2.5 20v1q-1 1 -1 2q2 24 -4 68.5t-6 64.5l-3 102q0 30 2 179
q1 26 5 73q1 20 3.5 59t4.5 58q1 5 2 15.5t2 16.5q3 27 3 29q0 19 6 31q5 10 7 40q1 15 10 66q2 10 5.5 30t5.5 30q1 3 9 34q2 6 8.5 28.5t9.5 35.5q3 11 25 58q2 4 5 11t5 10q9 23 31 35q8 4 21 14t18 13q30 18 76 0q10 -5 11 -7q32 -42 35 -49q36 -74 42 -130q0 -4 8 -27
q19 -61 20 -110q0 -8 2.5 -23t2.5 -21q1 -13 6 -56.5t4 -67.5q5 -12 0 -56q0 -8 0.5 -16.5t1.5 -18.5t1 -16q0 -4 0.5 -11t0.5 -11q0 -8 -1 -24t-1 -24v-95q0 -8 -1 -27.5t-1.5 -30.5t-3 -27t-6.5 -29q-3 -7 -1 -16q4 -43 -5 -104q-2 -13 -6.5 -39.5t-6.5 -39.5
q-1 -7 -2.5 -20.5t-2.5 -20.5q0 -3 -2 -9q-4 -13 -9 -41.5t-10 -42.5q-3 -8 -8 -50q-1 -8 5 -18q29 -57 38 -69q11 -16 22 -46q8 -20 20 -44q8 -15 -4 -27q-4 -5 -13 -11.5t-12 -8.5q-17 -12 -32 0q-33 27 -41 52zM211 206q15 -50 38 -78q3 3 11.5 12.5t11.5 14.5q5 8 19 44
q6 16 -2 31q-4 7 -15.5 31.5t-19.5 36.5t-19 34.5t-14 27.5q-9 17 -5 34q1 4 2.5 11.5t2.5 10.5q3 2 11 6q37 19 62 -12q20 -25 25 -36q5 -14 16 -9q2 4 2 9q-3 18 4 34q1 3 4 18q1 10 2.5 29t3 34.5t3.5 29.5q8 62 11 94q1 8 0.5 24.5t0.5 23.5q2 16 3.5 48.5t3.5 49.5
q2 10 2 16l-1 55q-2 56 1 56v13q0 8 -2 32t-2 37q0 15 -4.5 57.5t-1.5 66.5q1 2 -2 13l-18 120v6q-8 51 -10 60q-5 17 -15.5 47.5t-12.5 37.5q-6 18 -22 24q-14 -9 -23 -31q-4 -12 -13 -34.5t-14 -33.5q-14 -35 -30 -111q-5 -20 -11.5 -58t-8.5 -51q-4 -16 -4 -26
q1 -12 -7 -82q-2 -27 -5 -79t-5 -79q-2 -23 -2 -102v-19q-4 -12 -2 -44q4 -58 2 -86q-2 -21 2 -31q6 -15 2 -24q-2 -6 0 -19q1 -11 3 -32.5t3 -31.5q0 -1 4.5 -25t1.5 -37q0 -2 2 -9q6 -19 5 -38l3 -18q15 -66 23 -93z" />
    <glyph glyph-name="r" unicode="r" horiz-adv-x="468" 
d="M87 1377q-13 35 12 63q16 4 24 5q26 2 34 -1q7 -3 24 -8.5t26.5 -8.5t22 -10.5t21.5 -16.5q6 -6 10 -8q34 -19 63 -74q24 -43 29 -55q8 -20 18 -59.5t11 -44.5q2 -7 1 -10q-6 -21 4 -61q4 -17 4 -52q1 -16 -3.5 -45t-5.5 -38q0 -5 -1.5 -11t-4 -13.5t-3.5 -11.5
q0 -1 -1 -3q-2 -4 -2 -6q2 -12 -4.5 -30t-7.5 -23q-6 -37 -30 -81q0 -1 -2.5 -6t-3.5 -8q-4 -21 -19 -39q-15 -19 -15 -33q13 -14 20.5 -31.5t14.5 -44.5t11 -38q3 -8 6.5 -26t6.5 -26q6 -16 11 -46.5t6 -35.5q14 -60 20 -116q2 -15 7.5 -42.5t7.5 -39.5q3 -10 2 -12
q-4 -22 1 -62.5t5 -52.5q0 -65 -1 -73q-1 -7 0 -23t-1 -24q-5 -24 -27 -48q-11 -12 -38 -8q-19 3 -22 23q-7 52 -5 65q9 52 1 90q-3 13 -2 24q3 18 -6 70q-1 7 -1.5 20.5t-0.5 17.5q-4 55 -10 83q-3 13 -9 45.5t-10 49.5q-3 11 -7 31.5t-8 37.5t-9 31q-3 7 -5 15.5t-4 19
t-3 16.5q-6 23 -20 33q-25 -17 -34 -23q2 -66 2 -99q0 -8 -1.5 -46.5t0.5 -46.5q1 -19 -0.5 -63.5t0.5 -64.5q4 -60 -1 -86q-2 -12 0 -47q2 -19 -2 -33q-1 -6 1 -25q0 -8 1.5 -24t2.5 -25q2 -36 -23 -52q-8 -6 -13 -11q-4 0 -12.5 -1t-13.5 -1q-29 27 -29 64q0 71 -1 106
q0 8 -0.5 23t-0.5 23q0 14 -0.5 41t-0.5 40q0 7 1 27.5t0 31.5t0 32t1 27q0 43 -1 65q-2 74 0 99q1 12 1 109q0 20 -2 82t1 82q1 6 -1 18.5t-1 18.5q1 13 0.5 46.5t-0.5 46.5q1 25 -1 79.5t0 82.5q2 31 1 87.5t0 87.5q0 6 -1 29.5t2 29.5q2 9 -7 36zM185 926q0 -22 1.5 -101
t-1.5 -105q24 15 32 32q50 97 60 147q5 24 14 58q2 7 4 21q6 47 2 125q-2 46 -12 67q-2 5 -4 15q-3 18 -18 53t-26 49q-1 1 -3 3.5t-3 3.5q-5 4 -14.5 13t-14.5 14l-16 7q2 -37 0 -104.5t-1 -98.5q2 -66 0 -199z" />
    <glyph glyph-name="s" unicode="s" horiz-adv-x="452" 
d="M283 332q8 41 6 70q1 21 3.5 54t3.5 58t1 47q-1 19 0 35t-0.5 35.5t-6.5 34.5q2 6 1 22t-1.5 22.5t-3 22.5t-3.5 22q-7 48 -20 84q0 2 -2.5 6t-2.5 6q0 28 -20 51q-5 7 -15 21.5t-18.5 25.5t-18.5 19q-5 4 -34 44q-1 1 -4 6t-5 7q-17 12 -35 43.5t-22 36.5q-2 9 -13 38.5
t-9 47.5q1 8 -3 22q-6 26 -2 78q3 40 42 116q18 34 45 45q7 3 19.5 12t20.5 12q27 10 55 4q51 -13 77 -39q28 -27 36 -56q9 -34 9 -71q0 -52 -24 -98q-11 -22 -40 -17q-32 5 -34 35q0 30 2 37q8 26 2 74q-1 15 -13 27t-27 15q-7 2 -13 0q-33 -12 -43 -38q-2 -5 -8.5 -21
t-9 -23.5t-4.5 -20.5t-1 -25q-10 -51 23 -120q8 -19 41 -62q5 -7 36 -43q6 -9 11 -12q44 -40 66 -92q25 -60 26 -67q8 -34 10 -51q2 -18 6 -27q2 -6 4 -18q1 -10 8 -77.5t8 -102.5q0 -11 -2 -31q-3 -21 1 -40q3 -13 -1 -24q-5 -11 -2 -21q3 -11 -1 -18q-5 -8 -3.5 -24.5
t-2.5 -24.5q2 -16 1.5 -23t-3 -22t-3.5 -22q-3 -52 -10 -95q-1 -7 -2.5 -31t-4.5 -37q-5 -22 -25 -57q-5 -9 -15.5 -25t-12.5 -20q-26 -43 -77 -58.5t-94 5.5q-10 5 -23 16q-21 18 -36 50q-20 42 -31 71q-18 52 1 87q15 25 39 14q2 -1 8 -4.5t9 -4.5q20 -8 23 -27
q5 -24 15 -53q5 -16 19 -46q15 -32 48 -18q15 6 29 22q32 39 40 119q8 73 10 87z" />
    <glyph glyph-name="t" unicode="t" horiz-adv-x="389" 
d="M230 24q-17 -17 -39 -17q-2 2 -12 8t-15 11q-10 9 -12 36q-1 17 -1 51q0 17 -1.5 48.5t-1.5 57t3 48.5v10q-5 8 -4.5 58.5t0.5 58.5q-4 77 2 115q1 5 0 15t-1 14q0 16 -2 48t-2 48q0 8 0.5 24t0.5 24v233q0 7 -1 20t-1 19q0 16 -1.5 49t-2 49t0.5 49q1 19 0 53.5t-1 45.5
q0 15 1 22q4 28 0 83q-2 30 1 45q3 16 -6 30q-17 4 -55 2q-25 -1 -52 20q-9 8 -11 22q-2 16 12.5 33t30.5 18q146 5 188 2t83 0q18 1 39 -18q8 -8 6 -17q-1 -14 -9 -31q-2 -4 -7.5 -11t-7.5 -9q-20 -3 -58 -7q-7 -1 -18.5 0t-21.5 0.5t-19 -5.5q-3 -28 -2 -34q1 -14 0 -47
t1 -46q2 -18 0.5 -53t0.5 -52q1 -12 -1 -49.5t4 -49.5q-4 -13 -2 -57t1 -57q-4 -76 1 -108q1 -6 1 -39q0 -37 2 -44v-19q-6 -74 0 -118q5 -41 0 -53q3 -17 0 -60.5t4 -60.5v-13q0 -21 -0.5 -64t-0.5 -64q0 -49 1 -73q2 -64 -3 -96q-1 -4 2 -22q2 -12 -1 -34.5t-3 -25.5
q0 -6 -10 -16z" />
    <glyph glyph-name="u" unicode="u" horiz-adv-x="520" 
d="M76 1367q-4 33 8 79q16 12 36 15q32 4 40 -25q11 -46 10 -64q-1 -12 0.5 -34t1.5 -30q0 -24 -2 -74v-9q9 -14 4 -48q-2 -14 0.5 -45t-0.5 -45q-1 -5 0.5 -15t1.5 -14q4 -71 5 -109q2 -76 1 -114q-1 -20 1.5 -57t2.5 -53v-42q-1 -42 0 -42q0 -19 5 -44q1 -7 -2.5 -22
t-1.5 -23q6 -25 0 -47q-1 -7 -0.5 -11t2 -12t1.5 -12q0 -5 1 -15.5t2 -16.5q0 -7 0.5 -29t1.5 -33q2 -23 4 -68t4 -67q3 -31 6.5 -49t14 -43t28.5 -42q11 -1 17 12q27 61 33 105q1 10 5 38.5t5 44.5q1 15 4 94q1 19 3 56.5t3 56.5q1 13 2 53.5t3 62.5q1 14 2.5 58t4.5 68
q2 19 2 88q0 18 3 38q3 15 5 68q0 16 1 48.5t2 48.5l3 97q0 21 3 42q1 6 1 35q0 5 0.5 14.5t0.5 14.5q0 7 1.5 53.5t-0.5 53.5q-2 32 10 77q11 41 48 27q16 -6 28 -17q11 -9 11 -22q0 -4 1 -35.5t-3 -35.5q-1 -4 -1 -48q0 -3 1 -16.5t0 -15.5q-4 -10 -3 -48.5t0 -48.5
t-1.5 -34t-2.5 -37q-1 -15 -4 -97v-16q-6 -12 -6.5 -26t1 -30.5t0.5 -26.5q0 -1 1 -6t0 -7q-6 -20 -6.5 -56.5t-1.5 -46.5q-2 -8 0 -16q5 -24 -3 -54q-2 -6 -2 -19q0 -50 -1 -75q0 -7 -2 -20t-2 -18q-5 -76 -1 -100v-6q-5 -27 -6 -78.5t-2 -67.5q0 -8 -1 -17t-2.5 -20
t-2.5 -17q-4 -26 -4 -39q0 -45 -14 -89q-1 -2 -4.5 -14t-4.5 -15t-5 -13.5t-6 -14.5t-6 -13t-7 -14t-7.5 -12t-9.5 -13t-11 -11q-13 -13 -25 -19q-14 -7 -44 -11q-20 -2 -31 6q-3 3 -20 14t-25 18q-17 15 -24 30q-23 49 -26 65q-2 11 -8.5 31t-7.5 25q-3 10 -4 22t-1 26.5
t-1 22.5q-1 13 -3 37t-3 37q-1 0 -1 15l1 14q0 7 -1.5 24.5t-0.5 26.5q1 14 -1.5 48.5t1.5 48.5q1 6 -1 16q0 1 -1 3t-1 3q3 16 -1 46.5t-3 43.5q0 6 -1 17t-0.5 20t4.5 17q2 4 0 7q-9 34 -5 93l-3 84l-3 195q0 20 -3 56.5t-3 52.5v27.5v32.5v28v26q-7 29 -2 64q2 10 0 19z
" />
    <glyph glyph-name="u" unicode="&#xfc;" horiz-adv-x="520" 
d="M76 1367q-4 33 8 79q16 12 36 15q32 4 40 -25q11 -46 10 -64q-1 -12 0.5 -34t1.5 -30q0 -24 -2 -74v-9q9 -14 4 -48q-2 -14 0.5 -45t-0.5 -45q-1 -5 0.5 -15t1.5 -14q4 -71 5 -109q2 -76 1 -114q-1 -20 1.5 -57t2.5 -53v-42q-1 -42 0 -42q0 -19 5 -44q1 -7 -2.5 -22
t-1.5 -23q6 -25 0 -47q-1 -7 -0.5 -11t2 -12t1.5 -12q0 -5 1 -15.5t2 -16.5q0 -7 0.5 -29t1.5 -33q2 -23 4 -68t4 -67q3 -31 6.5 -49t14 -43t28.5 -42q11 -1 17 12q27 61 33 105q1 10 5 38.5t5 44.5q1 15 4 94q1 19 3 56.5t3 56.5q1 13 2 53.5t3 62.5q1 14 2.5 58t4.5 68
q2 19 2 88q0 18 3 38q3 15 5 68q0 16 1 48.5t2 48.5l3 97q0 21 3 42q1 6 1 35q0 5 0.5 14.5t0.5 14.5q0 7 1.5 53.5t-0.5 53.5q-2 32 10 77q11 41 48 27q16 -6 28 -17q11 -9 11 -22q0 -4 1 -35.5t-3 -35.5q-1 -4 -1 -48q0 -3 1 -16.5t0 -15.5q-4 -10 -3 -48.5t0 -48.5
t-1.5 -34t-2.5 -37q-1 -15 -4 -97v-16q-6 -12 -6.5 -26t1 -30.5t0.5 -26.5q0 -1 1 -6t0 -7q-6 -20 -6.5 -56.5t-1.5 -46.5q-2 -8 0 -16q5 -24 -3 -54q-2 -6 -2 -19q0 -50 -1 -75q0 -7 -2 -20t-2 -18q-5 -76 -1 -100v-6q-5 -27 -6 -78.5t-2 -67.5q0 -8 -1 -17t-2.5 -20
t-2.5 -17q-4 -26 -4 -39q0 -45 -14 -89q-1 -2 -4.5 -14t-4.5 -15t-5 -13.5t-6 -14.5t-6 -13t-7 -14t-7.5 -12t-9.5 -13t-11 -11q-13 -13 -25 -19q-14 -7 -44 -11q-20 -2 -31 6q-3 3 -20 14t-25 18q-17 15 -24 30q-23 49 -26 65q-2 11 -8.5 31t-7.5 25q-3 10 -4 22t-1 26.5
t-1 22.5q-1 13 -3 37t-3 37q-1 0 -1 15l1 14q0 7 -1.5 24.5t-0.5 26.5q1 14 -1.5 48.5t1.5 48.5q1 6 -1 16q0 1 -1 3t-1 3q3 16 -1 46.5t-3 43.5q0 6 -1 17t-0.5 20t4.5 17q2 4 0 7q-9 34 -5 93l-3 84l-3 195q0 20 -3 56.5t-3 52.5v27.5v32.5v28v26q-7 29 -2 64q2 10 0 19z
" />
    <glyph glyph-name="u" unicode="&#xfb;" horiz-adv-x="520" 
d="M76 1367q-4 33 8 79q16 12 36 15q32 4 40 -25q11 -46 10 -64q-1 -12 0.5 -34t1.5 -30q0 -24 -2 -74v-9q9 -14 4 -48q-2 -14 0.5 -45t-0.5 -45q-1 -5 0.5 -15t1.5 -14q4 -71 5 -109q2 -76 1 -114q-1 -20 1.5 -57t2.5 -53v-42q-1 -42 0 -42q0 -19 5 -44q1 -7 -2.5 -22
t-1.5 -23q6 -25 0 -47q-1 -7 -0.5 -11t2 -12t1.5 -12q0 -5 1 -15.5t2 -16.5q0 -7 0.5 -29t1.5 -33q2 -23 4 -68t4 -67q3 -31 6.5 -49t14 -43t28.5 -42q11 -1 17 12q27 61 33 105q1 10 5 38.5t5 44.5q1 15 4 94q1 19 3 56.5t3 56.5q1 13 2 53.5t3 62.5q1 14 2.5 58t4.5 68
q2 19 2 88q0 18 3 38q3 15 5 68q0 16 1 48.5t2 48.5l3 97q0 21 3 42q1 6 1 35q0 5 0.5 14.5t0.5 14.5q0 7 1.5 53.5t-0.5 53.5q-2 32 10 77q11 41 48 27q16 -6 28 -17q11 -9 11 -22q0 -4 1 -35.5t-3 -35.5q-1 -4 -1 -48q0 -3 1 -16.5t0 -15.5q-4 -10 -3 -48.5t0 -48.5
t-1.5 -34t-2.5 -37q-1 -15 -4 -97v-16q-6 -12 -6.5 -26t1 -30.5t0.5 -26.5q0 -1 1 -6t0 -7q-6 -20 -6.5 -56.5t-1.5 -46.5q-2 -8 0 -16q5 -24 -3 -54q-2 -6 -2 -19q0 -50 -1 -75q0 -7 -2 -20t-2 -18q-5 -76 -1 -100v-6q-5 -27 -6 -78.5t-2 -67.5q0 -8 -1 -17t-2.5 -20
t-2.5 -17q-4 -26 -4 -39q0 -45 -14 -89q-1 -2 -4.5 -14t-4.5 -15t-5 -13.5t-6 -14.5t-6 -13t-7 -14t-7.5 -12t-9.5 -13t-11 -11q-13 -13 -25 -19q-14 -7 -44 -11q-20 -2 -31 6q-3 3 -20 14t-25 18q-17 15 -24 30q-23 49 -26 65q-2 11 -8.5 31t-7.5 25q-3 10 -4 22t-1 26.5
t-1 22.5q-1 13 -3 37t-3 37q-1 0 -1 15l1 14q0 7 -1.5 24.5t-0.5 26.5q1 14 -1.5 48.5t1.5 48.5q1 6 -1 16q0 1 -1 3t-1 3q3 16 -1 46.5t-3 43.5q0 6 -1 17t-0.5 20t4.5 17q2 4 0 7q-9 34 -5 93l-3 84l-3 195q0 20 -3 56.5t-3 52.5v27.5v32.5v28v26q-7 29 -2 64q2 10 0 19z
" />
    <glyph glyph-name="u" unicode="&#xfa;" horiz-adv-x="520" 
d="M76 1367q-4 33 8 79q16 12 36 15q32 4 40 -25q11 -46 10 -64q-1 -12 0.5 -34t1.5 -30q0 -24 -2 -74v-9q9 -14 4 -48q-2 -14 0.5 -45t-0.5 -45q-1 -5 0.5 -15t1.5 -14q4 -71 5 -109q2 -76 1 -114q-1 -20 1.5 -57t2.5 -53v-42q-1 -42 0 -42q0 -19 5 -44q1 -7 -2.5 -22
t-1.5 -23q6 -25 0 -47q-1 -7 -0.5 -11t2 -12t1.5 -12q0 -5 1 -15.5t2 -16.5q0 -7 0.5 -29t1.5 -33q2 -23 4 -68t4 -67q3 -31 6.5 -49t14 -43t28.5 -42q11 -1 17 12q27 61 33 105q1 10 5 38.5t5 44.5q1 15 4 94q1 19 3 56.5t3 56.5q1 13 2 53.5t3 62.5q1 14 2.5 58t4.5 68
q2 19 2 88q0 18 3 38q3 15 5 68q0 16 1 48.5t2 48.5l3 97q0 21 3 42q1 6 1 35q0 5 0.5 14.5t0.5 14.5q0 7 1.5 53.5t-0.5 53.5q-2 32 10 77q11 41 48 27q16 -6 28 -17q11 -9 11 -22q0 -4 1 -35.5t-3 -35.5q-1 -4 -1 -48q0 -3 1 -16.5t0 -15.5q-4 -10 -3 -48.5t0 -48.5
t-1.5 -34t-2.5 -37q-1 -15 -4 -97v-16q-6 -12 -6.5 -26t1 -30.5t0.5 -26.5q0 -1 1 -6t0 -7q-6 -20 -6.5 -56.5t-1.5 -46.5q-2 -8 0 -16q5 -24 -3 -54q-2 -6 -2 -19q0 -50 -1 -75q0 -7 -2 -20t-2 -18q-5 -76 -1 -100v-6q-5 -27 -6 -78.5t-2 -67.5q0 -8 -1 -17t-2.5 -20
t-2.5 -17q-4 -26 -4 -39q0 -45 -14 -89q-1 -2 -4.5 -14t-4.5 -15t-5 -13.5t-6 -14.5t-6 -13t-7 -14t-7.5 -12t-9.5 -13t-11 -11q-13 -13 -25 -19q-14 -7 -44 -11q-20 -2 -31 6q-3 3 -20 14t-25 18q-17 15 -24 30q-23 49 -26 65q-2 11 -8.5 31t-7.5 25q-3 10 -4 22t-1 26.5
t-1 22.5q-1 13 -3 37t-3 37q-1 0 -1 15l1 14q0 7 -1.5 24.5t-0.5 26.5q1 14 -1.5 48.5t1.5 48.5q1 6 -1 16q0 1 -1 3t-1 3q3 16 -1 46.5t-3 43.5q0 6 -1 17t-0.5 20t4.5 17q2 4 0 7q-9 34 -5 93l-3 84l-3 195q0 20 -3 56.5t-3 52.5v27.5v32.5v28v26q-7 29 -2 64q2 10 0 19z
" />
    <glyph glyph-name="u" unicode="&#xf9;" horiz-adv-x="520" 
d="M76 1367q-4 33 8 79q16 12 36 15q32 4 40 -25q11 -46 10 -64q-1 -12 0.5 -34t1.5 -30q0 -24 -2 -74v-9q9 -14 4 -48q-2 -14 0.5 -45t-0.5 -45q-1 -5 0.5 -15t1.5 -14q4 -71 5 -109q2 -76 1 -114q-1 -20 1.5 -57t2.5 -53v-42q-1 -42 0 -42q0 -19 5 -44q1 -7 -2.5 -22
t-1.5 -23q6 -25 0 -47q-1 -7 -0.5 -11t2 -12t1.5 -12q0 -5 1 -15.5t2 -16.5q0 -7 0.5 -29t1.5 -33q2 -23 4 -68t4 -67q3 -31 6.5 -49t14 -43t28.5 -42q11 -1 17 12q27 61 33 105q1 10 5 38.5t5 44.5q1 15 4 94q1 19 3 56.5t3 56.5q1 13 2 53.5t3 62.5q1 14 2.5 58t4.5 68
q2 19 2 88q0 18 3 38q3 15 5 68q0 16 1 48.5t2 48.5l3 97q0 21 3 42q1 6 1 35q0 5 0.5 14.5t0.5 14.5q0 7 1.5 53.5t-0.5 53.5q-2 32 10 77q11 41 48 27q16 -6 28 -17q11 -9 11 -22q0 -4 1 -35.5t-3 -35.5q-1 -4 -1 -48q0 -3 1 -16.5t0 -15.5q-4 -10 -3 -48.5t0 -48.5
t-1.5 -34t-2.5 -37q-1 -15 -4 -97v-16q-6 -12 -6.5 -26t1 -30.5t0.5 -26.5q0 -1 1 -6t0 -7q-6 -20 -6.5 -56.5t-1.5 -46.5q-2 -8 0 -16q5 -24 -3 -54q-2 -6 -2 -19q0 -50 -1 -75q0 -7 -2 -20t-2 -18q-5 -76 -1 -100v-6q-5 -27 -6 -78.5t-2 -67.5q0 -8 -1 -17t-2.5 -20
t-2.5 -17q-4 -26 -4 -39q0 -45 -14 -89q-1 -2 -4.5 -14t-4.5 -15t-5 -13.5t-6 -14.5t-6 -13t-7 -14t-7.5 -12t-9.5 -13t-11 -11q-13 -13 -25 -19q-14 -7 -44 -11q-20 -2 -31 6q-3 3 -20 14t-25 18q-17 15 -24 30q-23 49 -26 65q-2 11 -8.5 31t-7.5 25q-3 10 -4 22t-1 26.5
t-1 22.5q-1 13 -3 37t-3 37q-1 0 -1 15l1 14q0 7 -1.5 24.5t-0.5 26.5q1 14 -1.5 48.5t1.5 48.5q1 6 -1 16q0 1 -1 3t-1 3q3 16 -1 46.5t-3 43.5q0 6 -1 17t-0.5 20t4.5 17q2 4 0 7q-9 34 -5 93l-3 84l-3 195q0 20 -3 56.5t-3 52.5v27.5v32.5v28v26q-7 29 -2 64q2 10 0 19z
" />
    <glyph glyph-name="v" unicode="v" horiz-adv-x="507" 
d="M306 40q0 -49 -45 -68q-2 1 -13.5 9.5t-17.5 12.5q-12 8 -17 28q-10 36 -30 144q-10 52 -14 93q-13 123 -16 138q-3 21 -8 62.5t-9 62.5q-2 13 -3.5 27.5t-3 32t-2.5 27.5q-4 34 -8 50q-9 33 -17 105q-1 9 -3.5 25.5t-3.5 24.5q-15 149 -21 184l-3 45q-1 11 -3.5 33
t-3.5 33l-3 18q1 22 -3 61.5t-5 49.5q-6 90 -8 139q0 4 1 10.5t1 9.5q17 19 23 23.5t25 9.5q4 -3 13.5 -10.5t15.5 -11.5q9 -38 11 -99q0 -14 8 -89q1 -6 1 -19q0 -39 5 -59q4 -20 4 -30q0 -11 2 -31t2 -26q0 -8 3.5 -31.5t2.5 -36.5q-1 -20 7 -60q4 -20 8 -56.5t7 -51.5
q4 -24 4 -54q0 -8 2 -24q9 -52 9 -68q0 -8 3 -22t4 -17t2 -8.5t1 -8.5q1 -4 1 -13t1.5 -16t4.5 -13q2 -6 2 -8q-1 -9 7 -51q6 -39 4 -54q-1 -7 3 -23q8 -40 8 -60q0 -7 8 -63q4 -1 5.5 1t1.5 6q1 14 4.5 43t5.5 44q2 20 2 30q0 22 5 32q1 1 1.5 3t1 5t0.5 4q2 10 4.5 29
t3.5 28q8 62 8 93q0 6 1 13t2.5 15.5t2.5 13.5q0 5 2 14t2 13q7 85 23 185q1 6 1.5 19t1.5 20q3 18 9 53.5t9 53.5q1 3 1 9q-1 13 10 109q1 9 3.5 36t4.5 42q6 38 14 114q0 4 5 23t3 30q-1 7 11 17q14 11 40 13q1 -1 5.5 -5t7.5 -6q22 -17 19 -47q-1 -10 -2.5 -21.5
t-3.5 -25.5t-3 -22t-1 -24q2 -18 -6 -33q-5 -11 -3 -29q2 -30 -3 -42q-4 -11 -9 -44q-8 -69 -14 -107q-1 -8 -2.5 -24t-2.5 -24q0 -1 -9 -83q-3 -29 -11 -87q0 -2 -1 -5t-1 -4q0 -35 -8 -75q-4 -21 -8 -59q-8 -70 -10 -84q-3 -17 -6.5 -57.5t-9.5 -61.5q-3 -10 -2 -18
q3 -16 -4 -36q-5 -14 -4 -17q5 -32 -6 -57q2 -16 -3.5 -44t-5.5 -39q-1 -20 -5 -60q0 -2 -0.5 -8.5t-1.5 -9.5q-7 -19 -7 -50q0 -32 -7 -51q-4 -11 -4 -27z" />
    <glyph glyph-name="w" unicode="w" horiz-adv-x="714" 
d="M357 762q0 32 -8 43q-3 -12 -7 -32q-2 -7 -4 -23q-2 -8 -2 -13q2 -20 -1 -56t-3 -48q0 -3 -0.5 -10t-0.5 -10q-1 -9 -2 -27t-2 -28q-5 -62 -8 -69q-6 -15 -3 -25q2 -19 1 -28.5t-3.5 -28.5t-3.5 -28l-3 -49q3 -25 -3 -85q-8 -72 -9 -107q-2 -55 -37 -88q-23 -20 -44 -2
q-29 25 -30 52t-4.5 56.5t-9 66t-7.5 56.5q-13 111 -16 130q-13 77 -9 107q0 2 -5 32q-11 52 -10 85q1 21 -7 59q-9 47 -8 77q1 12 -6 46q-11 49 -13 117q0 4 -0.5 7.5t-1.5 8t-1 7.5q-6 47 -6 49q-2 32 -7 48q-6 17 -3 29q2 10 -3 48q-2 16 -4 34.5t-4.5 41.5t-3.5 35
q-1 3 -1 9.5t-1 9.5q-3 15 -3 16q4 10 0 51t-4 51q0 8 -2 26q-3 33 8 61q9 23 32 22q10 0 19 -3q21 -8 26 -27q14 -64 13 -120v-6q8 -19 7.5 -56t4.5 -57q-3 -13 2 -35.5t4 -32.5q-1 -14 3 -37.5t4 -27.5q1 -10 2.5 -21.5t3.5 -25t3 -21.5v-10q-3 -25 13 -100v-3
q-2 -27 -2 -32q0 -6 3 -16t3 -12q1 -5 1 -16.5t2 -16.5q5 -16 10 -84q4 -56 12 -84q2 -6 2 -18.5t1 -17.5q0 -2 10 -12q5 53 5 56q3 51 11 88q2 9 2 26q0 9 0.5 25t1 29t1.5 25q0 10 3 34t3 37q0 34 6 98q12 129 12 130q0 15 1 32t2.5 37t2.5 32q1 28 7 82q3 32 14 110
q3 19 19.5 35.5t34.5 17.5q13 0 16 -2q34 -27 33 -54q0 -11 1 -23t2.5 -26.5t2.5 -22.5q2 -22 3 -61.5t2 -52.5q0 -12 1 -13q4 -7 6 -15.5t1.5 -14.5t-1 -16t-0.5 -15q0 -34 4 -46q1 -3 1 -23q-2 -40 9 -104q5 -33 4 -42q-3 -35 1 -65q4 -29 8 -91q1 -9 2.5 -27.5t1.5 -27.5
t-1 -13q-6 -26 5 -41q3 -4 3 -15q0 -14 1.5 -44t2.5 -45q0 -18 11 -31q0 7 3.5 22t1.5 24q-1 5 1 13q4 16 6.5 34t4.5 41t4 35v1q1 1 1 2q2 16 6 48.5t6 48.5v12.5t0.5 15.5t2.5 12q4 11 5.5 24t2 28.5t1.5 24.5q8 54 11 81q2 18 10 74.5t9 88.5q0 9 3.5 27t3.5 22q1 6 2 18
t2 18q2 17 6 32q8 22 6 52l3 45l3 18t2 18q3 22 9.5 31.5t27.5 24.5q8 -1 21 -5q40 -11 37 -50q-1 -11 -4 -30.5t-4 -30.5q-1 -5 -1.5 -18.5t-2.5 -20.5q-2 -9 -3 -30.5t-5 -33.5q-7 -19 -7 -62q0 -18 -6.5 -54t-5.5 -56q1 -12 -3.5 -34t-5.5 -30q-1 -6 -18 -137v-5v-6v-5
q2 -25 -5 -45l-6 -42q-4 -46 -7 -69q-1 -4 -2 -11t-2 -11q-2 -17 -4.5 -47.5t-5 -55.5t-5.5 -47q-5 -39 -17 -117q-4 -28 -5 -42q-1 -25 -8 -57q0 -1 -6 -59q-3 -28 -10.5 -83.5t-10.5 -82.5q-1 -5 -1 -16q1 -26 -28 -69q-5 -7 -17.5 -9.5t-21.5 2.5q-42 20 -46 59
q-1 11 -3 32.5t-3 32.5q-6 72 -8 112q0 1 -3 71q0 14 -1 20t-4 25t-3 24.5t1 25.5q-3 13 -8 114q-3 56 -9 111q-1 10 -2 40.5t-6 47.5q-2 1 -0.5 11t1.5 12z" />
    <glyph glyph-name="x" unicode="x" 
d="M243 438q-4 31 -14 47q-23 -81 -30 -108q-1 -2 -1 -6q-1 -21 -11 -60t-11 -44q-2 -10 -6 -28q-3 -13 -14 -53q-10 -38 -9 -47q1 -5 -1 -13q-2 -11 -6.5 -32.5t-6.5 -31.5q-5 -24 -21 -38q-26 -23 -52 -1q-32 25 -20 66q13 41 15 70q1 11 12 40q2 6 7 35q0 2 15 73
q5 20 13 58.5t13 57.5q2 6 4 19.5t5 24t7 19.5q4 7 6 32q4 34 13 50q3 5 3 15q2 24 13 68t12 49q13 65 1 119q-14 65 -19 112q-1 8 -11 59q-1 9 -4 28.5t-5 29.5q-5 31 -14.5 92t-14.5 91q-2 10 -5.5 28t-6 33t-3.5 28q-1 17 -13 73q-7 41 11 65q21 28 48 10q30 -18 32 -48
q1 -16 8 -46.5t8 -36.5q1 -5 5 -31.5t9 -40.5q3 -10 2 -19q-2 -20 5 -35q1 -3 1.5 -6t1 -7t0.5 -6q8 -59 12 -70t4 -35q0 -31 18 -64l10 50q1 7 5.5 20t5.5 20q1 6 10 51.5t14 69.5q6 29 20 85q1 4 2.5 12.5t2.5 12.5q2 9 11 42.5t12 51.5q0 1 17 32q5 1 14.5 2.5t14.5 2.5
q18 4 38 -14q10 -8 7 -24t-7.5 -47.5t-7.5 -47.5q-1 -6 -5 -17t-5 -14q-3 -12 -3 -13q1 -12 -5.5 -34t-6.5 -32q0 -2 -8 -34q-10 -49 -13 -57q-5 -14 -9.5 -41t-6.5 -34q-1 -4 -8 -28t-8 -38q-2 -21 -12.5 -58t-13.5 -52q-2 -11 -6.5 -35t-6.5 -35q0 -1 -1 -7t-2 -9
q-14 -45 -5 -76q1 -2 0 -7t-1 -6q0 -20 2 -25q6 -19 10 -39t7.5 -52.5t4.5 -39.5q2 -12 7 -33.5t7 -29.5q15 -80 16 -96q1 -10 5 -35q14 -72 13 -108q0 -9 3 -16q4 -8 6 -17t4 -21l3 -18q3 -12 7 -35t7 -35q5 -27 2 -45q-2 -12 -2 -19q-1 -19 -14.5 -28.5t-30.5 -4.5
q-36 9 -44 43q-4 14 -8 42.5t-4 31.5q-17 97 -23 134q-2 12 -4 32q-1 3 -1 9.5t-1 9.5q-11 50 -20 118z" />
    <glyph glyph-name="y" unicode="y" horiz-adv-x="432" 
d="M281 64q0 -8 -2 -34q-5 -2 -19 -8.5t-21 -8.5q-14 -4 -28.5 5t-17.5 24q-9 40 -6 81q1 17 -1.5 47t-2.5 35q0 2 -1 7.5t0 8.5q5 11 1.5 52t-3.5 51q2 51 -4 72q4 21 1 61.5t0 61.5v12q-3 33 -4.5 69.5t-2.5 81.5t-2 70q-1 23 -2.5 69.5t-2.5 69.5q0 13 -7 27
q-9 19 -19 56.5t-14 48.5q-4 12 -10.5 36.5t-10.5 36.5q-6 17 -15 58t-18 61q-9 21 -14 55q-6 35 -26 84q-8 21 -12 65q-1 15 9 29.5t24 18.5q14 2 19 -1q13 -8 21 -19q26 -38 31 -62q10 -50 33 -119q2 -5 3 -13.5t2 -11.5q6 -32 17 -57q6 -14 12 -46t18 -60q1 -3 7 -9
q7 6 11 22q2 7 6.5 21t6.5 21q5 13 5 15q0 11 3 22.5t8.5 26.5t7.5 21l9 33q2 7 6.5 22t6.5 23q25 88 32 116q8 31 39 57q13 10 26.5 7t20.5 -18q18 -40 4 -71q-5 -12 -10.5 -37t-6.5 -30q-5 -23 -7 -27q-15 -30 -18 -63q0 -5 -4 -15q-1 -3 -3 -7.5t-3.5 -8.5t-2.5 -8
q-13 -49 -23 -65q-5 -8 -5 -18q-1 -23 -13.5 -61t-15.5 -52q-2 -10 -8 -30q-3 -10 -10 -29t-10 -28q-10 -29 -7 -56q1 -4 0 -12t-1 -10l-1 -9q0 -9 1 -9q8 -43 6 -114q0 -11 2 -31q0 -2 1.5 -6.5t0.5 -6.5q-3 -16 -2.5 -43.5t-0.5 -43.5q-1 -15 -0.5 -22t2 -22t1.5 -22v-16
q0 -3 -0.5 -9t-0.5 -10t1 -9t3 -9v-6l3 -101q4 -52 0 -129q3 -9 4.5 -20t1.5 -25t1 -21q1 -8 1 -25v-57z" />
    <glyph glyph-name="y" unicode="&#xff;" horiz-adv-x="432" 
d="M281 64q0 -8 -2 -34q-5 -2 -19 -8.5t-21 -8.5q-14 -4 -28.5 5t-17.5 24q-9 40 -6 81q1 17 -1.5 47t-2.5 35q0 2 -1 7.5t0 8.5q5 11 1.5 52t-3.5 51q2 51 -4 72q4 21 1 61.5t0 61.5v12q-3 33 -4.5 69.5t-2.5 81.5t-2 70q-1 23 -2.5 69.5t-2.5 69.5q0 13 -7 27
q-9 19 -19 56.5t-14 48.5q-4 12 -10.5 36.5t-10.5 36.5q-6 17 -15 58t-18 61q-9 21 -14 55q-6 35 -26 84q-8 21 -12 65q-1 15 9 29.5t24 18.5q14 2 19 -1q13 -8 21 -19q26 -38 31 -62q10 -50 33 -119q2 -5 3 -13.5t2 -11.5q6 -32 17 -57q6 -14 12 -46t18 -60q1 -3 7 -9
q7 6 11 22q2 7 6.5 21t6.5 21q5 13 5 15q0 11 3 22.5t8.5 26.5t7.5 21l9 33q2 7 6.5 22t6.5 23q25 88 32 116q8 31 39 57q13 10 26.5 7t20.5 -18q18 -40 4 -71q-5 -12 -10.5 -37t-6.5 -30q-5 -23 -7 -27q-15 -30 -18 -63q0 -5 -4 -15q-1 -3 -3 -7.5t-3.5 -8.5t-2.5 -8
q-13 -49 -23 -65q-5 -8 -5 -18q-1 -23 -13.5 -61t-15.5 -52q-2 -10 -8 -30q-3 -10 -10 -29t-10 -28q-10 -29 -7 -56q1 -4 0 -12t-1 -10l-1 -9q0 -9 1 -9q8 -43 6 -114q0 -11 2 -31q0 -2 1.5 -6.5t0.5 -6.5q-3 -16 -2.5 -43.5t-0.5 -43.5q-1 -15 -0.5 -22t2 -22t1.5 -22v-16
q0 -3 -0.5 -9t-0.5 -10t1 -9t3 -9v-6l3 -101q4 -52 0 -129q3 -9 4.5 -20t1.5 -25t1 -21q1 -8 1 -25v-57z" />
    <glyph glyph-name="y" unicode="&#xfd;" horiz-adv-x="432" 
d="M281 64q0 -8 -2 -34q-5 -2 -19 -8.5t-21 -8.5q-14 -4 -28.5 5t-17.5 24q-9 40 -6 81q1 17 -1.5 47t-2.5 35q0 2 -1 7.5t0 8.5q5 11 1.5 52t-3.5 51q2 51 -4 72q4 21 1 61.5t0 61.5v12q-3 33 -4.5 69.5t-2.5 81.5t-2 70q-1 23 -2.5 69.5t-2.5 69.5q0 13 -7 27
q-9 19 -19 56.5t-14 48.5q-4 12 -10.5 36.5t-10.5 36.5q-6 17 -15 58t-18 61q-9 21 -14 55q-6 35 -26 84q-8 21 -12 65q-1 15 9 29.5t24 18.5q14 2 19 -1q13 -8 21 -19q26 -38 31 -62q10 -50 33 -119q2 -5 3 -13.5t2 -11.5q6 -32 17 -57q6 -14 12 -46t18 -60q1 -3 7 -9
q7 6 11 22q2 7 6.5 21t6.5 21q5 13 5 15q0 11 3 22.5t8.5 26.5t7.5 21l9 33q2 7 6.5 22t6.5 23q25 88 32 116q8 31 39 57q13 10 26.5 7t20.5 -18q18 -40 4 -71q-5 -12 -10.5 -37t-6.5 -30q-5 -23 -7 -27q-15 -30 -18 -63q0 -5 -4 -15q-1 -3 -3 -7.5t-3.5 -8.5t-2.5 -8
q-13 -49 -23 -65q-5 -8 -5 -18q-1 -23 -13.5 -61t-15.5 -52q-2 -10 -8 -30q-3 -10 -10 -29t-10 -28q-10 -29 -7 -56q1 -4 0 -12t-1 -10l-1 -9q0 -9 1 -9q8 -43 6 -114q0 -11 2 -31q0 -2 1.5 -6.5t0.5 -6.5q-3 -16 -2.5 -43.5t-0.5 -43.5q-1 -15 -0.5 -22t2 -22t1.5 -22v-16
q0 -3 -0.5 -9t-0.5 -10t1 -9t3 -9v-6l3 -101q4 -52 0 -129q3 -9 4.5 -20t1.5 -25t1 -21q1 -8 1 -25v-57z" />
    <glyph glyph-name="z" unicode="z" horiz-adv-x="466" 
d="M342 1372v19q-7 -1 -32.5 0t-31.5 -3q-4 -1 -8 -1.5t-9 -1t-8 -0.5q-14 -2 -52.5 -4t-59.5 -5q-20 -3 -58 5q-26 6 -24 35q0 1 0.5 3t0.5 3q3 21 13 31t31 12l30 3q62 6 89 8q11 1 34 2.5t34 2.5q58 5 73 4q32 -2 57 -10t23 -34v-27.5t-3 -36t-11 -26.5q-3 -5 -5 -18
q-6 -43 -15 -63q-8 -20 -8 -32q0 -14 -4 -29.5t-10 -34t-9 -28.5q-4 -16 -11 -47t-11 -46q-21 -91 -32 -129q-9 -31 -23.5 -93.5t-23.5 -92.5q-3 -12 -7.5 -34t-6.5 -29q-2 -10 -8 -30q-12 -42 -13 -54q-4 -29 -18 -68q-7 -19 -8 -32q-5 -39 -11 -51q-4 -8 -6.5 -16.5
t-4.5 -19.5t-4 -17q-4 -14 -10 -42q-5 -19 -13 -57t-13 -57q-4 -17 -20 -71q-1 -5 -4 -13.5t-5 -15.5t-3 -13v-19q2 -14 15 -12q49 5 107 -1h9q16 4 34 4t40 -2t34 -2q25 0 43 -14t15 -41q0 -8 -8 -12q-41 -24 -63 -22h-17t-20.5 0.5t-17.5 2.5q-9 1 -21 -2q-8 -3 -32 -2
t-32 0q-9 -1 -19 2q-29 11 -56 -2q-4 -2 -6 -1q-12 4 -39 5t-40 7q-21 9 -24 29q-6 34 4 64q2 7 5 19.5t5 19.5q4 14 12.5 54t16.5 62q11 29 23 93q7 31 11 41q3 7 8 36q2 13 11 44.5t10 49.5q0 6 4 15.5t5 13.5q2 11 6.5 32t7.5 31q1 6 5 15.5t5 13.5q4 10 4 15q0 3 8 36
q8 31 22.5 93t21.5 93q4 19 14 55.5t15 55.5l12 51q27 116 31 129q6 20 16 62t17 63q5 14 17 79z" />
    <glyph glyph-name="braceleft" unicode="{" horiz-adv-x="520" 
d="M496 100q3 -6 -1 -15q-18 -30 -35 -36q-14 -4 -43 -17t-46 -17q-14 -4 -21 -2t-34.5 7t-41.5 10q-39 12 -63 46q-16 23 -29 44q-2 2 -4 14q-16 61 -15 113q0 38 3 58q2 6 1 27t-1 28q1 36 1 108q0 4 -0.5 12.5t-0.5 12.5q0 67 2 86v34q-25 14 -48 10q-15 -3 -48 10
q-23 9 -23 36q0 15 12 35q5 8 19 14q51 22 73 24q1 0 3.5 3t3.5 4q-8 34 -11 51q-6 25 -2 39q2 10 1 15q-4 16 -5.5 34.5t-2 41.5t-1.5 35q0 1 -3 86q0 8 1 12q6 45 6 46q1 31 23 111q13 48 45 83q39 42 92 59q31 10 59 -1q3 -1 35 -12q20 -6 38 -38q8 -13 4 -27
q-8 -26 -26 -33.5t-43 5.5q-9 5 -25 17q-14 -2 -19 -2q-27 0 -52 -34q-31 -44 -36 -103q0 -9 -3 -15q-5 -8 -5 -33q1 -10 -2 -58q-2 -39 -1 -58q2 -52 5 -80q1 -6 1 -18t1 -22t5 -18l1 -1v-2q-4 -5 -1.5 -17.5t3 -16t6 -15.5t6.5 -16q4 -10 8 -36q4 -24 -9 -37
q-10 -10 -5 -23q6 -18 8 -38t2.5 -45t1.5 -39v-6q-6 -19 -1 -80q2 -22 -3 -33q-2 -4 -2 -12q2 -21 -2 -79q-1 -15 1 -45t2 -44q-1 -24 7 -70q9 -45 53 -63q36 -14 65 -1q4 1 8 4q43 26 87 19q10 -6 21 -36z" />
    <glyph glyph-name="verticalbar" unicode="|" horiz-adv-x="296" 
d="M213 128q1 -29 1 -88q0 -32 -23 -43q-26 -13 -49 6q-9 7 -12 17t-5 30h3q-4 35 -5 55q-1 8 0 24.5t1 24.5q0 5 -3 20.5t-2 24.5q1 21 -1 65q0 16 -1 47.5t-1 47.5q-1 29 -3.5 87.5t-3.5 87.5q0 14 -2 59t-2 70q0 14 -2 39.5t-2 34.5q-1 20 -1 58q0 50 -2 74
q-2 19 -2.5 66t-4.5 72q2 17 -1 54t0 54q1 3 0 8t-1 7q-1 37 -3.5 110.5t-3.5 110.5q0 8 2 24q3 22 38 36q9 4 22 -3.5t17 -19.5q12 -40 9 -54q-3 -16 1 -58q2 -14 2.5 -38.5t1.5 -34.5q2 -21 3 -58.5t2 -49.5q1 -16 1.5 -45t0.5 -38t2 -27q0 -3 0.5 -10.5t0.5 -11.5
q-2 -45 5 -116q3 -34 0 -68q-2 -22 0 -33q3 -7 2 -43t-1 -43t2 -21.5t2 -18.5q2 -16 2 -24q1 -11 1 -32.5t1 -32.5q0 -7 0.5 -21.5t0.5 -21.5q0 -43 1 -48q1 -7 0.5 -24.5t1.5 -24.5q1 -4 1 -37q0 -48 4 -61v-1l1 -2q-3 -13 2 -64q1 -19 1.5 -53t0.5 -45z" />
    <glyph glyph-name="braceright" unicode="}" horiz-adv-x="434" 
d="M281 691q-39 -7 -55 -26t-10 -40q3 -10 14 -44q14 -42 47 -107q2 -5 6.5 -15t7.5 -15q3 -6 9.5 -15t8.5 -13q9 -16 10 -23q2 -17 17 -39q2 -3 4 -11q9 -67 6 -95q-1 -9 -3.5 -19.5t-6 -23.5t-5.5 -20q-15 -22 -25.5 -34.5t-29 -25t-40.5 -16.5q-15 -8 -47 -13.5
t-47 -12.5q-3 0 -26 -1.5t-26 0.5q-30 5 -37 44v9q4 3 14.5 11t15.5 13q9 9 22 9q15 0 31 3.5t37.5 10t30.5 8.5q25 6 37 30q20 40 14 73q-4 24 -20 68q-3 8 -12.5 22t-12.5 23q-2 7 -8.5 19.5t-7.5 14.5q-5 13 -6 14q-11 14 -19 30t-18.5 44t-12.5 34q-6 14 -6 21
q-2 21 -6 42q-11 55 28 97q30 34 52 43v1q0 2 1 3l-40 40q-28 28 -35 56q-14 52 -14 57q0 3 -1 11t-0.5 14t3.5 11q2 3 2 12q-2 24 10 38q0 1 1 2.5t2 2.5q5 18 13 35t22.5 42.5t18.5 32.5q34 64 34 105q0 12 -4 21q-21 49 -78 63q-4 1 -13 4t-14 4q-28 7 -30 37
q-2 29 27 40q29 13 60 2q87 -31 129 -101q11 -18 15 -59q4 -47 -7 -73q-9 -22 -42 -84q-3 -5 -12.5 -23t-13.5 -25.5t-11 -22.5t-11 -27.5t-7 -25.5q-10 -47 21 -85q14 -17 61 -45q44 -26 59 -39q26 -24 16.5 -52.5t-36.5 -34.5q-34 -8 -51 -11z" />
    <glyph glyph-name="asciitilde" unicode="~" horiz-adv-x="530" 
d="M493 840q19 -49 -20 -74q-7 -4 -19.5 -13t-23 -15.5t-20.5 -10.5q-50 -22 -90 -10q-28 7 -43 15q-27 14 -49 32q-12 10 -38 24.5t-30 17.5q-1 1 -14 6q-13 4 -21 -8q-2 -3 -4.5 -9.5t-4.5 -9.5q-8 -11 -15 -15q-18 -10 -38 -1.5t-28 28.5q-13 33 11 67q21 31 54 38l18 3
q3 0 7.5 -1t5.5 -1q46 5 77 -21q3 -3 11.5 -6.5t10.5 -4.5q33 -17 70 -44q2 -2 8 -6.5t9 -6.5q31 -16 57 -2q9 5 24.5 14.5t19.5 12.5q3 2 13 8.5t16 9.5q13 7 27 1.5t19 -18.5z" />
    <glyph glyph-name="nonbreakingspace" unicode="&#xa0;" horiz-adv-x="288" 
 />
    <glyph glyph-name="exclamdown" unicode="&#xa1;" horiz-adv-x="292" 
d="M197 1015h2v-135q0 -12 -3 -22q-4 -13 0 -22q3 -10 2 -13q-5 -37 -3 -92q0 -7 0.5 -21t0.5 -21q0 -14 -0.5 -41.5t-0.5 -41.5v-55q-1 -31 -5 -98q0 -2 -1 -9t0 -10q6 -39 1 -93v-26q0 -10 -0.5 -30.5t-0.5 -30.5v-106q0 -61 3 -92q1 -12 -5 -35q-10 -41 -53 -42
q-24 0 -30 20q-6 23 -9 46q-3 26 -1 45q2 17 1.5 50t0.5 50q0 6 1 19t1 19q0 3 0.5 9t0.5 11t-1 9q-3 15 1 28q2 7 1 10q-6 26 1 98q1 7 -1 20q-5 23 -1 60v64q0 30 1 45q2 35 -1 48q-2 8 -1 12q4 6 3 32t0 32q3 23 1 77t-1 77q1 26 1.5 74t0.5 63q1 65 0 131q0 17 1 26
q1 15 14 28q25 25 48 17q13 -4 22 -18.5t9 -30.5v-135zM112 1280q-37 34 -28 81q5 24 23 33q9 5 49 12h3q21 -5 36.5 -28t14.5 -49q-1 -6 0.5 -8.5t-1.5 -8t-3 -7t-4.5 -6.5t-5.5 -6.5t-6 -5.5t-6.5 -5.5t-7 -5.5t-7.5 -5q-9 -6 -28.5 -3t-28.5 12z" />
    <glyph glyph-name="cent" unicode="&#xa2;" horiz-adv-x="489" 
d="M420 404q20 -32 12 -62q-8 -28 -7 -42q0 -5 -4 -15q-27 -52 -50 -68q-6 -4 -7 -6q-9 -18 -43 -28q-13 -13 -10 -39q2 -12 5 -36.5t5 -37.5q3 -30 -19 -47.5t-45 -8.5q-19 8 -24 24q-13 45 -11 73q1 13 -6 59q-1 13 -18 26q-57 44 -85 108q-22 49 -22 91q-4 9 -6.5 20.5
t-3.5 18t-2 22.5t-1 19q-7 96 -6 120q1 9 -2 49v42v52q0 16 2 23q3 9 8 58q4 40 4 61q0 1 9 58q17 100 22 122q24 113 54 167q16 29 20 33q14 14 14 39q2 73 -3 97q-5 22 11 50q10 17 30 17q26 -2 45 -18q4 -2 4 -5q8 -41 8 -44q-1 -7 2 -73q2 -1 6.5 -5t7.5 -5
q8 -2 17 -6.5t14.5 -8.5t15 -11.5t13.5 -10.5q25 -18 38 -67q6 -27 3 -38q-8 -29 -48 -40q-12 -3 -23 8q-15 15 -19 33q-4 24 -28 43q-10 9 -21 -1l-4 -4q-4 -3 -5 -5q-31 -54 -37 -83q-12 -51 -18 -66q-12 -30 -18 -85q-7 -79 -17 -106q-2 -4 -2 -6q2 -16 1.5 -23t-3 -22
t-3.5 -22q-3 -35 -3 -68q0 -24 2 -68q0 -11 -1 -16q-6 -41 4 -133q1 -12 3 -35.5t3 -35.5q3 -52 25 -97q1 -3 7 -25q15 -15 23 -22q13 -10 25 -15q35 -16 56 17q26 39 30 85q3 27 30 38q30 11 46 -13z" />
    <glyph glyph-name="sterling" unicode="&#xa3;" horiz-adv-x="571" 
d="M523 54q6 -14 0.5 -28t-20.5 -20q-27 -11 -52 -5q-17 4 -57 2q-7 -1 -21 -1t-25 -1t-21 -5q-3 -1 -15 1q-20 3 -43 -2q-40 -7 -78 13q-36 19 -31 65q8 48 6 58q-2 14 0.5 44.5t-0.5 44.5q-1 5 2 46q0 11 1.5 32t2.5 32q0 1 1 4t0 5q-5 4 -3 37t2 37q-1 19 1.5 53.5
t2.5 50.5q0 1 -3 31q-7 5 -8 5q-10 -2 -33.5 -0.5t-33.5 -1.5q-28 -7 -50 22q-12 16 -7.5 33t23.5 24q20 7 50 11q8 1 24 1.5t23 1.5q3 1 8.5 3t8.5 3q0 35 0.5 105t1.5 105q0 1 3 43q1 6 1 18.5v18.5v30.5t1 30.5q2 27 1.5 78.5t0.5 78.5q2 47 7 70q2 8 2 24t1 22
q11 76 42 118q23 32 64 40q12 3 45 -4q58 -11 83 -58q5 -9 17 -25q21 -26 31 -93q1 -9 -4 -64q0 -2 -1.5 -7t-1.5 -8q-1 -18 -23 -42q-16 -16 -37 -9.5t-25 28.5q-2 12 -2 55q0 9 2 25q6 42 -29 88q-9 12 -23 20q-7 5 -16 2.5t-11 -9.5q-1 -2 -8 -15.5t-6 -21.5q0 -6 -1 -9
q-6 -13 -8.5 -26t-3 -36t-0.5 -26q-1 -5 -2 -14t-2 -13q-2 -32 -1 -49q1 -18 -0.5 -51t-1.5 -44q0 -7 -1 -21t-0.5 -25.5t2.5 -21.5q3 -14 -1 -45q-1 -9 -1 -30.5t-3 -33.5v-43q0 -20 -1 -60t-1 -60q0 -21 7 -39q12 0 24.5 0.5t27.5 1.5t23 1h24.5t30.5 2q16 2 39 -23
q8 -8 2 -29q-8 -35 -48 -38q-65 -4 -88 -2q-5 0 -42 -5q-11 -46 -6 -71q1 -7 -0.5 -20t-1.5 -17q0 -79 1 -95q1 -17 -0.5 -48t-1.5 -41q0 -68 -3 -85q-2 -15 0 -22q3 -14 -2 -23t-3 -40q20 -10 61 -6q70 8 82 7q12 0 18 1q19 4 67 -7q12 -3 26 -14t18 -20z" />
    <glyph glyph-name="yen" unicode="&#xa5;" horiz-adv-x="538" 
d="M487 1389q4 -21 1 -31q-18 -53 -22 -70q-1 -3 -8 -13q-9 -9 -7 -25q1 -10 -5 -24q-10 -22 -17 -52q-1 -4 -3.5 -11.5t-3.5 -9.5q0 -1 -2.5 -7t-3.5 -10q-2 -19 -11.5 -52.5t-11.5 -40.5q0 -2 -5.5 -22t-6.5 -31q-1 -10 -7 -27.5t-7 -25.5q-1 -6 -3 -12t-5 -13.5t-4 -12.5
q0 -1 -1 -3q-6 -49 -23 -89q1 -10 -1.5 -20t-7.5 -22.5t-7 -19.5q-2 -6 -4.5 -19t-3.5 -20q0 -2 -2.5 -12.5t-3.5 -14t-3.5 -11.5t-6.5 -13t-9 -10q-6 -5 -4 -17q5 -24 2 -46q-1 -6 2.5 -19t3.5 -16q65 -5 74 -6q17 -2 33 -8q34 -15 17 -51l-10 -20q-40 -13 -72 -8
q-14 2 -28 0q-13 -1 -15.5 -5t-2.5 -22q12 -3 14 -3q27 -1 80 -1q21 0 32 -15q2 -3 7.5 -9t8.5 -11t4 -12q-2 -4 -6 -16q-11 -30 -47 -26h-43q-5 0 -18.5 -1.5t-20.5 -0.5q-4 0 -14 -5v-84q0 -6 0.5 -53.5t-2.5 -53.5q-3 -17 1 -40q1 -5 0 -13.5t-1 -11.5q-1 -34 -30 -63
q-2 0 -12 -1t-15 0q-24 1 -30 26q-8 30 -4 92q3 43 2 52q-1 14 1 57t-2 57q-1 3 1.5 10t2.5 8q3 20 -17 23q-5 0 -14 1t-14 2q-4 0 -19.5 2t-23.5 2q-13 0 -35 18q-5 22 2 38q14 27 47 30q20 2 40 0q14 -1 31 5q0 4 0.5 10t0.5 10q-1 0 -3.5 3t-4.5 3q-13 2 -43 4
q-31 4 -44 13q-27 18 -21 41q8 29 40 32q9 0 27.5 1t27.5 2q3 0 9.5 1.5t8.5 1.5q0 2 1.5 6.5t1.5 6.5q2 84 9 104q1 4 -1 18q-4 20 -11.5 60.5t-11.5 60.5q-2 6 -2 9q0 17 -5 46.5t-6 38.5q0 4 -14 50q-6 20 -6 40q0 5 -5 30q-3 16 -10 47t-10 46q-2 10 -5 30.5t-5 30.5
q-18 92 -26 139q-8 46 -10 70q-2 19 20 38q18 2 26 4q15 4 26 -11q19 -25 26 -69q15 -78 17 -97q1 -10 6.5 -33t6.5 -36q1 -10 6 -28.5t6 -25.5q4 -21 10.5 -62t7.5 -48q2 -13 7.5 -37t7.5 -37q2 -10 4 -30.5t4 -30.5q8 -4 11 7q5 20 14 60t14 60q4 14 12 40t9 31q1 2 2 7
t2 7q3 25 16.5 69.5t15.5 53.5q12 54 27 74q4 7 6 18q2 12 26 85q4 16 12 20q2 1 8 4.5t11 5t10 1.5q32 -2 40 -36z" />
    <glyph glyph-name="section" unicode="&#xa7;" horiz-adv-x="528" 
d="M357 1219q-7 14 0 36q10 34 -2 68q-13 35 -44 13q-53 -39 -63 -101q-1 -7 -2 -14.5t-2 -17t-2 -14.5q-5 -50 23 -105q23 -44 64 -82q18 -17 44 -57q16 -25 36 -66q16 -33 11 -64q-2 -14 0 -42q0 -20 -8 -32q-3 -5 -14.5 -22.5t-18.5 -26.5q-5 -7 -12.5 -12t-18.5 -9.5
t-16 -7.5q-2 -1 -23 -10q-4 -11 9 -24q23 -26 29 -51q1 -6 8 -15t9 -13q19 -40 38 -90q4 -12 11 -42.5t15 -45.5q3 -6 3 -19.5t1 -16.5q7 -40 3 -107q-2 -40 -27 -91q-2 -4 -4.5 -11t-3.5 -10q-14 -30 -29 -40q-5 -4 -14 -13q-1 -1 -2.5 -4t-3.5 -4q-4 -3 -15.5 -10.5
t-17 -10.5t-15.5 -8t-19 -8t-18 -4q-47 -6 -88 10q-37 13 -64 45q-2 2 -31 43l-15 21q-17 26 -14 56q1 18 22 39q6 6 11 6q32 0 45 -10q10 -7 10 -13q1 -11 11.5 -26.5t12.5 -19.5q19 -42 72 -57q13 -3 22 2q40 25 54 47q25 40 26 71q7 103 -25 178q-5 13 -13 37t-12 34
t-13.5 27.5t-12.5 25.5q-14 31 -42 63q-30 32 -46 47q-10 9 -18.5 20t-19.5 27t-16 23q-6 9 -8 22q-13 75 -13 87q0 46 13 74q3 7 9 26t12 29q21 34 38 49q2 2 6 6.5t7 7.5q-9 24 -25 70q-28 80 -6 172q5 25 6 26q10 29 13 37q1 2 5 8t5 9q28 73 129 107q35 12 61 -6
q1 -1 5 -3l6 -3q29 -6 51 -49q19 -37 22 -68q1 -14 -3 -40.5t-4 -30.5q-4 -48 -57 -61q-21 7 -37 39zM272 919q-9 11 -22.5 9.5t-21.5 -14.5q-3 -5 -7.5 -14t-6.5 -12q-28 -51 -10 -114l6 -12q4 0 13 0.5t16 -0.5t12 -5q10 -8 38 -6q23 2 29 23q12 38 2 67q-10 30 -48 78z
" />
    <glyph glyph-name="copyright" unicode="&#xa9;" horiz-adv-x="929" 
d="M872 774q-2 -1 -0.5 -8.5t1.5 -9.5q0 -46 -15 -77q-3 -7 -13 -41q0 -1 -0.5 -5.5t-1.5 -6.5q-10 -12 -26 -41t-27 -42q-6 -7 -16.5 -19t-19 -22t-17.5 -18q-24 -22 -62 -44q-51 -31 -72 -34q-8 -1 -35 -10t-43 -8q-12 -6 -36 -6.5t-33 -2.5q-5 1 -15.5 2.5t-15.5 2.5
q-7 1 -21.5 3.5t-21.5 3.5q-42 7 -55 17q-2 2 -12 4q-69 24 -122 74q-33 31 -48 48q-25 29 -45 72q-24 49 -26 69q-15 30 -19 102q0 11 -1 16q-5 16 4 57l9 39q1 18 13.5 47t15.5 40q8 8 16.5 26.5t12.5 24.5q7 10 34 39l5.5 5.5l5.5 5.5q21 26 83 67q18 13 82 40
q36 16 66 16q3 0 6 0.5t6.5 1.5t5.5 1q1 0 3.5 1t4.5 1.5t4 0.5q8 -1 54 -1t71 -8q105 -35 145 -64q32 -24 55 -44q1 -1 19 -25q44 -63 51 -73q6 -10 15.5 -35t17.5 -37q2 -13 6 -40.5t6 -41.5q0 -6 1 -9q12 -24 0 -54zM788 770q0 4 1.5 16t0.5 18q-2 17 -17 85q-2 12 -4 14
q-2 3 -16 37q-2 6 -6 11.5t-9.5 12.5t-8.5 11q-23 36 -89 88q-10 7 -29.5 15t-27.5 13q-23 14 -58 16q-14 1 -37.5 3.5t-33.5 3.5q-4 -1 -35 -2.5t-45 -12.5q-1 -1 -6 -1q-11 1 -34 -12q-10 -6 -30 -16q-51 -23 -87 -74q-2 -2 -5 -6t-5 -6q-24 -27 -36 -60q-10 -26 -14 -40
q-10 -34 -11 -51q-2 -22 0 -66q3 -48 4 -52q1 -5 29 -71q2 -5 8 -13q21 -25 27 -37q3 -7 15 -16.5t15 -17.5q38 -26 55 -44q1 -1 3 -1q6 -3 17 -8t16 -8q1 0 11 -5.5t13.5 -7t11.5 -3t15 -0.5q2 0 15 -5q10 -4 14 -4q14 1 39 1t45.5 1t38.5 4q15 2 30 8t33.5 14.5t27.5 12.5
q7 6 28.5 21t29.5 26q2 3 7.5 6.5t6.5 4.5q10 8 12 10q4 5 28 43q10 15 33 73q12 28 14 71zM533 717q19 15 43 9.5t35 -27.5q8 -16 -4 -35q-3 -5 -17 -17q-6 -5 -18 -14t-18 -14q-18 -16 -29 -15q-6 0 -9 -3q-28 -19 -80 -12q-8 2 -12 2q-35 0 -70 39q-32 36 -37 59
q-16 69 -3 118q8 30 23 67q10 22 21 30q3 2 6.5 8t4.5 7l18 24q4 5 36 29.5t37 25.5q32 6 34 6q6 1 18.5 1.5t19.5 0.5q24 8 61 -27q29 -28 -8 -57q-17 -14 -35 -8q-8 2 -15.5 2.5t-16 -1t-13.5 -3t-15 -5.5t-14 -5q-2 0 -3 -1q-5 -6 -17 -16t-20 -19t-13 -19
q-22 -42 -25 -94q-2 -23 8 -38q2 -3 6.5 -10t7.5 -11q13 -20 41 -15q35 6 50 20q4 3 11.5 9t10.5 9z" />
    <glyph glyph-name="softhyphen" unicode="&#xad;" horiz-adv-x="0" 
 />
    <glyph glyph-name="registered" unicode="&#xae;" horiz-adv-x="526" 
d="M484 1373q2 -35 0 -44q-1 -5 -1 -13.5v-13.5q-5 -40 -24 -73q-10 -16 -14 -24q-5 -9 -17.5 -21.5t-15.5 -16.5q-1 -2 -5 -4q-8 -4 -12 -8q-7 -7 -15.5 -12t-23 -10.5t-18.5 -7.5l-4 -2q-19 -13 -63 -13h-18q-18 -1 -18 0q-22 2 -37 9q-5 3 -15 6.5t-13 4.5q-45 18 -77 56
q-13 15 -16 25q-1 5 -4 7q-17 22 -25 54t-8 35v43q1 4 1 14t2 16q1 2 3.5 8.5t3.5 10.5q0 1 1.5 3.5t1.5 4.5q1 6 5.5 16.5t5.5 14.5q0 3 2 5q24 36 40 52q5 5 8 7q4 3 11.5 8.5t10.5 8.5q1 1 2.5 3t2.5 2q6 2 17 8t16 8q3 1 8.5 3.5t8.5 4.5q4 2 7 2q6 -2 15.5 2t12.5 4
l30 3q6 1 16 -1.5t13 -2.5q5 -1 15 -1q12 0 24 -3q7 -1 19.5 -7.5t19.5 -7.5q3 0 5 -2q37 -23 49 -38q3 -4 9.5 -11t9.5 -10q16 -18 23 -37q2 -6 5 -9q8 -8 8 -22q0 -9 7 -18q5 -6 5 -16zM439 1328v8l-3 21q0 2 -1 6t-1 6l-6 21q-1 14 -10 26q-29 41 -53 57q-11 8 -35 20
q-13 6 -53 15q-5 2 -9 0q-5 -1 -16 -1t-18 -2l-27 -6q-16 -5 -27 -11q-4 -2 -8.5 -5t-10 -7t-8.5 -6q-19 -14 -22 -24q0 -1 -1 -1l-2 -1q-9 -6 -26 -41q-11 -25 -12 -45q0 -11 -1 -17q-4 -33 5 -48q2 -2 2 -5q2 -25 27 -59q22 -28 51 -44q41 -21 57 -20q1 0 4 -1t5 -1l24 -3
q12 2 38 6h7.5t6.5 1q33 16 56 31q26 18 44 53q13 23 23 77zM307 1298q9 -4 27 -27q17 -21 -2 -42q-5 -5 -15 -5.5t-15 4.5q-1 1 -7 10q-11 14 -26 23q0 -23 1 -33t-8 -18l-2 -1q-2 -1 -2 -2q-22 -20 -35 7q-6 14 -6 21q0 10 -1 21t-2.5 24.5t-2.5 20.5q-1 8 -2.5 23
t-2.5 22q-2 18 -2 27q0 13 -5 26q-5 15 -5 18q0 29 24 42q2 1 6.5 3t6.5 3q26 16 61 -4l18 -15l4 -4q3 -9 3 -10q0 -5 5.5 -16t4.5 -17v-8q4 -36 -14 -56q-3 -4 -9 -12.5t-9 -12.5q5 -9 12 -12zM260 1353q16 10 16.5 31.5t-11.5 32.5l-2 2q-5 3 -8 -2t-3 -10q1 -16 5 -55z
" />
    <glyph glyph-name="paragraph" unicode="&#xb6;" horiz-adv-x="647" 
d="M402 1093q3 -33 -4 -61q-5 -22 0 -39q5 -16 1 -29q-4 -12 -2 -51v-42v-16q6 -33 -1 -81q-2 -11 0 -22q5 -38 2 -72q-1 -10 0 -29.5t1 -25.5q0 -2 -0.5 -6.5t-0.5 -6.5q0 -13 -2 -51t-2 -59q0 -48 -1 -57q-1 -7 2 -23.5t2 -25.5q-5 -42 -4 -55q2 -23 2 -66.5v-53.5
q2 -103 -5 -154q-4 -21 -13 -33q-15 -19 -37 -13l-1 1q-1 1 -2 1q-4 2 -12 5.5t-12 5.5q-22 39 -13 111q2 13 2 15q-7 36 -1 97q1 9 1 19t-0.5 22.5t-0.5 19.5q0 20 0.5 59t0.5 58q0 14 -1 20q-4 25 1 38q1 3 1 17v78q0 10 -0.5 31t-0.5 31q0 28 2 96q-7 8 -27 12
q-101 25 -169 98q-52 57 -63 123q-1 7 -4 20.5t-4 20.5q-5 30 3 91q8 62 22 88q2 3 3 10t2 9q1 4 3 11t4 12.5t5 9.5q6 9 16.5 26t19.5 30.5t18 24.5q38 44 61 58q10 6 27 18t24 17q25 16 46 12q6 -1 16 1q29 5 47 -16q3 -4 13 -10q33 -17 35 -67q0 -7 -1.5 -51.5t2.5 -51.5
q1 -3 -2 -16t-2 -16q2 -9 2.5 -19.5t-0.5 -23.5t-1 -19q0 -37 2 -55zM555 136q0 -28 3 -55q3 -35 -34 -71q-5 -5 -18 -3q-16 3 -31 22t-15 36q0 5 1 16t1 16v157q-1 31 -3 135v13q5 3 2 42t-3 42q0 8 1 23t1 22l-3 216q0 25 0.5 74.5t0.5 74.5q0 57 -2 85q-2 29 0 117
q0 2 1 7.5t0 8.5q-3 24 -2.5 66.5t-0.5 66.5q-1 12 -1 26.5t0.5 32t0.5 26.5q0 16 3 32q3 21 23 32t45 1q17 -7 18 -22q1 -11 3 -32.5t3 -32.5q2 -24 4 -72q0 -15 -1 -22q-4 -9 -2.5 -60.5t1.5 -60.5q0 -1 1 -4t0 -5q-5 -14 -5 -29.5t2 -34t2 -29.5q-1 -30 -1 -91
q0 -75 6 -100q1 -2 1 -7q1 -9 -3.5 -28.5t-1.5 -29.5q5 -21 1 -54q-1 -6 0 -18t1 -18q-3 -17 -1.5 -64.5t0.5 -64.5q-1 -12 2 -116v-20q-3 -28 -3 -35.5t2.5 -35.5t2.5 -36q2 -70 0 -87t-2 -52z" />
    <glyph glyph-name="questiondown" unicode="&#xbf;" horiz-adv-x="565" 
d="M483 316q24 -20 23 -51q-3 -66 -37 -128q-15 -29 -35 -47q-48 -44 -84 -56q-9 -3 -71 -16q-7 -2 -13 0q-7 1 -26 4.5t-32 7t-25 9.5q-1 0 -2.5 1.5t-2.5 1.5q-34 6 -74 47q-20 22 -30 39q-7 12 -18.5 36t-13.5 29q-4 8 -4 12q-1 6 -2 24t-3 28q-1 29 -1.5 32.5t5 32.5
t5.5 32q1 6 19 42q1 2 3 4.5t3.5 5t2.5 5.5q11 30 57 72q38 34 75 53t64 48q28 29 37 69q16 60 21 95q3 15 3 30q1 15 3.5 43t3.5 37q0 8 2 23.5t3 22.5q1 12 1 36.5v36.5q1 26 -4 119q-1 12 -1.5 50.5t-2.5 59.5q-1 11 4 25q12 30 31 36q51 17 58 -38q1 -4 0 -26t-1 -26
q2 -15 3 -43t2 -37q1 -22 -1 -99q0 -2 -0.5 -7t-0.5 -8q3 -32 -1 -114q0 -17 -2 -25q-3 -14 -3 -43q0 -11 -7 -51q0 -1 -2 -18t-4 -25q-10 -46 -16 -69q-1 -4 -4 -11.5t-4 -11.5q-11 -49 -70 -110q-17 -18 -39 -28q-9 -4 -25.5 -14.5t-25.5 -14.5q-6 -3 -17 -13.5t-16 -14.5
q-43 -28 -65 -100q-8 -25 -5 -49q3 -25 9 -51q7 -25 24 -49q36 -46 95 -58q35 -7 83 13q40 16 60 55q21 42 21 69q0 20 7 46q6 21 28 26.5t35 -6.5zM337 1336l-3 24q-3 18 12 31q16 15 36 27q16 10 31 -4q27 -24 22 -61t-38 -52q-14 -7 -36 3q-23 10 -24 32z" />
    <glyph glyph-name="divide" unicode="&#xf7;" horiz-adv-x="485" 
d="M453 835q7 -7 5 -16q-14 -58 -68 -57q-11 4 -23.5 4.5t-35.5 -1t-26 -1.5q-1 0 -43 3h-18q-22 -7 -45 -1h-1l-2 1q-11 -5 -43 -3t-43 0q-6 -1 -18 1q-14 2 -21 2q-46 0 -46 45q0 9 3 15q18 31 49 30q0 -1 55 -1l56 1q22 0 66 0.5t66 0.5q26 0 80 -2q34 -2 53 -21z
M224 939q-20 -1 -40 20t-20 43q0 18 20 44q11 13 36 13q23 1 42 -17t20 -40q1 -25 -16.5 -43t-41.5 -20zM239 687q23 1 41.5 -17t19.5 -40q1 -25 -16.5 -43t-41.5 -20q-20 -1 -40 20t-20 43q0 18 20 44q11 13 37 13z" />
    <glyph glyph-name="quotedblright" unicode="&#x201d;" horiz-adv-x="223" 
d="M97 1496q-1 -10 0.5 -29t1.5 -26q1 -15 -9 -27.5t-25 -13.5q-11 -1 -25 2q-15 3 -21 9t-7 22q-2 21 -4.5 62t-3.5 49q5 4 13 10q27 24 52 1q30 -29 28 -59zM202 1552q21 -37 16 -81l-3 -27q-2 -17 -15 -30.5t-29 -14.5q-11 -2 -23.5 8t-14.5 22q-2 9 -7 64q-1 11 9 52
q4 22 28 25q28 5 39 -18z" />
    </font>
</defs>
</svg>
