<?xml version="1.0" standalone="no"?>
<!DOCTYPE svg PUBLIC "-//W3C//DTD SVG 1.1//EN" "http://www.w3.org/Graphics/SVG/1.1/DTD/svg11.dtd" >
<svg xmlns="http://www.w3.org/2000/svg" xmlns:xlink="http://www.w3.org/1999/xlink" version="1.1">
<metadata>
Created by FontForge 20170731 at Mon Apr 13 09:50:24 2020
 By Aleksey,,,
</metadata>
<defs>
<font id="Winkle-Regular" horiz-adv-x="230" >
  <font-face 
    font-family="Winkle"
    font-weight="400"
    font-stretch="normal"
    units-per-em="1000"
    panose-1="2 0 5 3 0 0 0 0 0 0"
    ascent="800"
    descent="-200"
    x-height="479"
    cap-height="610"
    bbox="33 -78 679 710"
    underline-thickness="50"
    underline-position="-200"
    unicode-range="U+000D-0317"
  />
<missing-glyph horiz-adv-x="364" 
d="M33 0v666h265v-666h-265zM66 33h199v600h-199v-600z" />
    <glyph glyph-name=".notdef" horiz-adv-x="364" 
d="M33 0v666h265v-666h-265zM66 33h199v600h-199v-600z" />
    <glyph glyph-name=".null" 
 />
    <glyph glyph-name=".null" 
 />
    <glyph glyph-name="nonmarkingreturn" horiz-adv-x="333" 
 />
    <glyph glyph-name="CR" unicode="&#xd;" 
 />
    <glyph glyph-name="space" unicode=" " 
 />
    <glyph glyph-name="exclam" unicode="!" horiz-adv-x="208" 
d="M51 157q0 48 30 48q16 0 37 -12q40 -22 40 -43q0 -27 -61 -33q-6 -1 -14 -1q-10 0 -21 10q-11 11 -11 31zM89 610q11 15 29 15q11 0 20 -9t9 -29q0 -26 -10.5 -169t-13.5 -156q-5 -23 -30 -23q-21 0 -30 17q-2 6 -2 17q0 15 3 53q7 82 13 170q7 104 12 114z" />
    <glyph glyph-name="quotesingle" unicode="'" horiz-adv-x="164" 
d="M68 613q14 9 29 0q13 -7 15 -19t2 -74q0 -57 -1 -69t-7 -18q-9 -9 -23 -9t-23 9q-7 6 -8 17t-1 69q0 60 2.5 73.5t14.5 20.5z" />
    <glyph glyph-name="asterisk" unicode="*" horiz-adv-x="412" 
d="M189 627q10 10 22 10q11 0 22 -8q10 -7 10 -24q0 -15 -6 -43q-4 -20 -4 -29q5 0 57.5 -7t54.5 -8q15 -8 15 -26q0 -17 -14 -28q-6 -5 -16 -5q-1 0 -31 2q-24 2 -30 2l-8 -1q0 -2 41 -50q39 -46 39 -56q0 -29 -24 -34q-1 0 -3 -0.5t-3 -0.5q-16 0 -41 29q-4 5 -18 21
t-21 23l-21 23l-8 -36q-9 -38 -12 -44.5t-13 -11.5q-7 -3 -13 -3q-15 0 -27 15l-8 10l13 61q10 50 10 63q0 5 -35 7q-30 2 -42.5 7.5t-17.5 17.5q-3 6 -3 13q0 14 15 25q9 6 18 6q8 0 35 -3t40 -3h4q3 3 8 39q6 37 15 47z" />
    <glyph glyph-name="plus" unicode="+" horiz-adv-x="432" 
d="M190 538q9 9 25 9q9 0 14 -2q14 -6 18 -59q1 -11 3 -36t2 -31l2 -29l51 2q19 1 39 1q15 0 22 -7q10 -10 10 -22q0 -11 -8 -22q-5 -7 -13 -8.5t-47 -3.5l-52 -3l3 -66q2 -42 2 -46q0 -19 -8 -27q-10 -11 -24 -11q-8 0 -12 2q-12 5 -16.5 16t-5.5 44q-1 30 -4 65l-2 24
q-19 0 -57.5 1t-57.5 1l-9 10q-9 10 -9 23t10 23l10 10l56 -3l55 -2l-3 58q-2 30 -2 61q0 20 8 28z" />
    <glyph glyph-name="comma" unicode="," horiz-adv-x="210" 
d="M106 210q9 8 22 8q20 0 27 -19q2 -8 2 -12q0 -10 -8 -41q-8 -34 -24 -78t-21 -47q-4 -3 -14 -3q-18 0 -25 6q-11 8 -11 25q0 10 4 18q7 12 23 73q16 62 25 70z" />
    <glyph glyph-name="hyphen" unicode="-" horiz-adv-x="402" 
d="M62 329l8 9l103 -2q103 -2 131 -5t37 -12q8 -10 8 -20q0 -20 -17 -29q-4 -3 -46 -3q-58 0 -136 4.5t-85 8.5q-14 9 -14 24q0 12 11 25z" />
    <glyph glyph-name="period" unicode="." horiz-adv-x="216" 
d="M62 201q10 10 18 10q1 0 15 -2q30 -4 49 -18.5t20 -34.5q0 -31 -35 -31q-26 0 -52 16.5t-26 36.5q0 12 11 23z" />
    <glyph glyph-name="zero" unicode="0" horiz-adv-x="518" 
d="M280 503q-18 8 -38 8q-19 0 -30 -7q-48 -29 -48 -131q0 -13 2 -39q8 -79 34.5 -134.5t57.5 -55.5q25 0 49 30q29 37 44 85q5 18 5 57q0 48 -6 74q-10 41 -29 71.5t-41 41.5zM191 613q12 5 50 5q39 0 56 -5q84 -22 131 -117q23 -46 29.5 -77.5t6.5 -92.5q0 -57 -5 -82.5
t-23 -64.5q-20 -41 -53.5 -80t-63.5 -55q-28 -15 -66 -15q-11 0 -16 1q-58 11 -106 77t-70 167q-8 38 -8 92q0 62 9 95q17 61 47.5 97t81.5 55z" />
    <glyph glyph-name="one" unicode="1" horiz-adv-x="339" 
d="M208 663q19 7 24 7t19 -18.5t23 -37.5q14 -28 14 -62q0 -24 -6 -69q-16 -132 -21 -283q-2 -68 -7.5 -86t-25.5 -28q-18 -8 -24 -8q-11 0 -25.5 8t-20.5 18q-7 12 -7 46q0 16 7 156q4 78 7 144l3 44l-16 -15q-21 -21 -42 -21q-8 0 -12 1q-43 9 -43 50q0 20 10 35t46 50
q56 54 97 69z" />
    <glyph glyph-name="two" unicode="2" horiz-adv-x="506" 
d="M191 618q12 1 33 1q98 0 126 -50q9 -16 9 -58t-14 -83q-27 -80 -96 -195l-27 -47h2q11 0 51 6t52 10q19 5 27 15q5 7 24 15q9 4 16 4t16 -3q40 -12 40 -52q0 -24 -18.5 -45.5t-49.5 -31.5q-79 -28 -210 -36q-10 -1 -25 -1q-16 0 -36 5q-23 7 -31 16t-8 28q0 34 71 145
q79 123 105 185q12 30 12 42q0 9 -6 16q-5 7 -10 8t-26 1q-20 0 -69 -9q-27 -6 -43 -6q-29 0 -45 25q-7 11 -7 27q0 32 23 46q25 16 114 22z" />
    <glyph glyph-name="three" unicode="3" horiz-adv-x="461" 
d="M172 626q16 2 34 2q42 0 60 -5q43 -12 66 -52q15 -27 15 -61t-15 -64l-10 -21l21 -13q62 -39 62 -108q0 -54 -35.5 -108.5t-83.5 -81.5q-30 -18 -94 -18q-34 0 -58 8q-65 25 -81 100q-2 14 -2 19q0 18 10 32q15 22 42 22q20 0 36 -12.5t20 -33.5q4 -25 31 -25q8 0 13 1
q5 0 12.5 1t12.5 1.5t7 0.5q18 2 49 63q10 19 10 31q0 16 -21 25t-73 17q-77 12 -77 56q0 48 52 62q29 9 47.5 21.5t18.5 22.5q0 13 -28 13q-25 0 -73 -21q-18 -9 -36 -9q-28 0 -43 21q-8 9 -8 31t8 34t30 22q45 20 81 27z" />
    <glyph glyph-name="four" unicode="4" horiz-adv-x="421" 
d="M260 390q0 61 -1 61q-3 0 -64 -115q-6 -13 -5 -14h3q12 0 33 3l34 4v61zM256 640q13 7 28 7q29 0 43 -22q6 -10 6 -25v-10q-1 -23 -17 -47l-15 -24l18 -2q30 -4 41 -23q5 -9 6.5 -39.5t1.5 -163.5q0 -134 -1.5 -164.5t-6.5 -39.5q-13 -23 -46 -23q-32 0 -46 26
q-8 15 -8 72v57l-16 -2q-24 -3 -53 -7q-53 -8 -78 -8q-21 0 -31 5q-27 13 -27 54q0 42 28 105q25 59 90.5 162t82.5 112z" />
    <glyph glyph-name="five" unicode="5" horiz-adv-x="463" 
d="M75 582q12 32 49 32q13 0 23 -5q15 -6 112 -6q81 0 100 -3t32 -19q11 -13 11 -31q0 -36 -28 -50q-13 -7 -104 -8l-92 -1v-63h20q62 0 112 -18q71 -25 93 -82q8 -24 8 -59q0 -65 -18 -99q-14 -28 -49 -49t-78 -29q-10 -2 -43 -2q-49 0 -66 5q-76 19 -99 63q-6 12 -6 25
q0 9 1 15q3 34 18.5 54t40.5 22h7q24 0 38 -14.5t14 -40.5v-17l23 -2q8 -1 24 -1q42 0 61 11q22 11 22 39q0 10 -1 15q-4 31 -31 46q-14 8 -85 10q-61 1 -76 6.5t-28 31.5l-10 20v96q0 96 5 108z" />
    <glyph glyph-name="six" unicode="6" horiz-adv-x="457" 
d="M293 286q-4 11 -18 11q-12 0 -25 -8t-19 -21q-5 -13 -21 -21l-15 -8l11 -4q7 -3 19 -3q25 0 44 10q26 14 26 35q0 3 -2 9zM236 632q15 3 38 3q42 0 59 -7q31 -13 32 -49v-10q0 -13 -10 -26q-18 -20 -44 -20q-5 0 -17 2t-17 2q-42 0 -73.5 -38.5t-41.5 -103.5l-2 -20
q8 6 16 13q43 34 89 34q31 0 52 -11q40 -20 62.5 -57.5t22.5 -79.5q0 -52 -33 -85q-26 -26 -66.5 -40.5t-81.5 -14.5q-42 0 -69 14q-71 35 -93 136q-7 35 -7 75t7 77q23 106 85 160q45 39 92 46z" />
    <glyph glyph-name="seven" unicode="7" horiz-adv-x="477" 
d="M91 636q7 3 84 3h31q104 -1 132 -9q49 -14 70 -36q13 -14 14 -35v-10q0 -19 -3 -26q-7 -18 -44 -79q-34 -55 -97 -186q-48 -102 -62 -120t-41 -18q-19 0 -31 10q-22 19 -22 44q0 10 62.5 142t85.5 171q19 30 19 36q0 2 -5 4q-8 2 -101 2q-67 1 -82 2.5t-25 8.5
q-21 14 -21 40q0 45 36 56z" />
    <glyph glyph-name="eight" unicode="8" horiz-adv-x="406" 
d="M227 271q-13 15 -32 30l-18 16l-8 -21q-13 -33 -13 -56t17 -29q2 -1 7 -1q31 0 54 19q9 7 9 15q0 10 -16 27zM205 530q-6 14 -15 14q-5 0 -11 -6q-9 -9 -9 -26q0 -24 16 -50q8 -12 10 -12q4 0 10 36q3 18 3 26q0 10 -4 18zM170 651q14 2 22 2q31 0 58 -13q33 -16 52 -56
q10 -21 10 -67q0 -60 -26 -123l-9 -21l19 -21q41 -45 52 -81q4 -13 4 -33q0 -27 -8 -46q-7 -16 -24 -34.5t-34 -28.5q-42 -25 -100 -25q-37 0 -58 8q-78 30 -78 122q0 56 28 125l16 41l-9 13q-8 12 -19 33q-10 20 -10 57q0 35 11 59q16 34 44 58t59 31z" />
    <glyph glyph-name="nine" unicode="9" horiz-adv-x="427" 
d="M245 523q-10 10 -25 10q-16 0 -32 -9q-30 -16 -30 -47q0 -12 6 -24q12 -25 33 -25q20 0 45 25q5 5 17 14q6 4 6 7t-5 19q-8 23 -15 30zM173 633q23 7 54 7q32 0 53 -9q43 -20 67 -70q19 -38 23.5 -66t4.5 -102q0 -84 -9 -117q-39 -136 -115 -174q-20 -10 -56 -10
q-37 0 -62 12q-39 19 -50 48q-14 36 -14 75q0 21 5 30q14 28 45 28q15 0 25 -5q18 -8 23 -16q4 -5 8.5 -25.5t4.5 -30.5q0 -3 7 -3q15 0 27 7q15 9 30.5 39.5t19.5 62.5q1 5 1 11t-3 6q-5 0 -17 -6q-15 -6 -48 -6q-36 0 -56 10q-50 26 -75 79q-10 22 -12 31.5t-2 42.5
q0 45 10 66q27 58 111 85z" />
    <glyph glyph-name="colon" unicode=":" horiz-adv-x="229" 
d="M82 232q13 7 31 7q41 0 57 -27q7 -11 7 -26q0 -34 -25 -48q-13 -8 -38 -8t-38 8q-23 14 -23 44q0 35 29 50zM79 499q13 7 35 7q19 0 31 -6q30 -14 30 -49q0 -13 -6 -25q-13 -27 -56 -27q-62 0 -62 51q0 34 28 49z" />
    <glyph glyph-name="semicolon" unicode=";" horiz-adv-x="248" 
d="M118 233q12 5 22 5q22 0 38 -15.5t16 -38.5q0 -32 -31 -100q-19 -43 -52 -43q-1 0 -4 0.5t-5 0.5q-20 1 -33 15q-15 17 -15 34q0 13 10 40q13 33 19 52q12 40 35 50zM94 496q14 7 35 7t35 -7q27 -14 27 -48q0 -13 -7 -27q-15 -26 -54 -26q-62 0 -62 54q0 33 26 47z" />
    <glyph glyph-name="question" unicode="?" horiz-adv-x="464" 
d="M173 130q7 8 27 8q33 0 56 -26q13 -14 13 -27q0 -30 -63 -35q-8 -1 -18 -1q-11 0 -20 11q-10 11 -10 31q0 23 15 39zM205 640q21 3 43 3q25 0 53 -5q53 -10 81 -35t28 -61q0 -25 -15 -55q-20 -40 -81 -100q-35 -34 -43 -52.5t-11 -72.5q-2 -41 -7.5 -55.5t-21.5 -22.5
q-12 -6 -26 -6q-32 0 -48 27q-6 12 -6 29q0 15 1 27q5 89 19 127q13 33 55 66q22 18 45.5 41t23.5 28q0 4 -17.5 8t-37.5 4h-11q-48 -3 -76 -29q-12 -12 -24 -17q-13 -5 -23 -5q-22 0 -37 16t-15 39q0 9 1 13q5 25 52 53t98 35z" />
    <glyph glyph-name="A" unicode="A" horiz-adv-x="552" 
d="M305 381q2 6 2 9q0 8 -10 39l-13 38l-15 -45q-16 -44 -16 -48q0 -2 24 -2q16 0 20.5 1.5t7.5 7.5zM262 674q8 6 23 6h10q15 -1 21.5 -2.5t16 -17.5t17 -37.5t24.5 -75.5q35 -109 80 -240q43 -124 43 -142v-6q-3 -17 -15 -29.5t-28 -15.5h-7q-32 0 -47 22q-6 11 -24 60
q-13 38 -17.5 45t-14.5 11q-33 12 -85 12h-13l-43 -1l-20 -45q-20 -46 -22 -61q-3 -36 -26 -51q-13 -9 -30 -9q-30 0 -46 25q-6 9 -6 25q0 46 100 298q53 137 58 150q8 22 17 31q10 10 10 14q0 7 8 18t16 16z" />
    <glyph glyph-name="B" unicode="B" horiz-adv-x="515" 
d="M195 346q-7 2 -31 10h-2q-4 0 -4 -39q0 -41 5.5 -56t23.5 -26q59 -35 105 -35q38 0 54 22q6 9 6 24q0 12 -5 24q-12 23 -42 42.5t-61 23.5q-30 5 -49 10zM295 535q-11 13 -31 14h-5q-27 0 -66 -26q-26 -17 -30 -17t-4 -13q0 -15 5 -20q6 -5 53 -16.5t62 -11.5h4
q5 2 14 18.5t10 26.5v12q0 20 -12 33zM91 690q1 0 4 0.5t4 0.5q22 0 40.5 -15t18.5 -35q0 -7 9 -4l15 6q41 19 82 19q55 0 93 -34q28 -24 43.5 -64t15.5 -82q0 -43 -14 -72l-9 -20l18 -21q33 -38 42 -69q9 -27 9 -54q0 -65 -44 -109q-47 -47 -121 -47q-62 0 -131 31
q-3 1 -5.5 -2t-6.5 -12q-14 -33 -52 -33q-32 0 -46 27q-6 12 -6 281q0 268 6 280q5 9 15 17.5t20 10.5z" />
    <glyph glyph-name="C" unicode="C" horiz-adv-x="540" 
d="M238 631q18 5 47 5q35 0 59 -6q27 -6 55 -21q31 -15 39 -32q8 -18 8 -29q0 -10 -6 -22q-12 -27 -45 -27q-21 0 -45 12q-25 12 -54 12t-49 -11q-60 -34 -83 -135q-3 -15 -3 -35q0 -44 12 -70q8 -19 15.5 -28t23.5 -19q35 -23 82 -23q24 0 52 6l28 6l2 24q1 16 9 34
q14 26 45 26q36 0 51 -30q5 -10 5 -25v-17q-6 -82 -56 -106q-54 -26 -150 -26q-22 0 -38 3q-5 1 -40 6q-16 2 -43 18t-44 35q-62 67 -62 174q0 60 21 123q24 69 77 122q44 44 87 56z" />
    <glyph glyph-name="D" unicode="D" horiz-adv-x="497" 
d="M210 491q-6 1 -14.5 3.5t-12.5 3.5t-7 1q-7 0 -8.5 -4.5t-2.5 -20.5q0 -2 -0.5 -3t-0.5 -2.5v-3.5q-4 -78 -5 -120q-2 -91 -3 -97l-2 -11h44q32 0 40.5 1.5t20.5 8.5q34 20 54 52q22 37 22 71q0 42 -32.5 73.5t-92.5 47.5zM79 641q13 13 33 13q14 0 27 -7q15 -8 23 -22
q7 -14 28 -18q136 -26 203 -97q48 -50 53 -116q0 -2 0.5 -7t0.5 -7q0 -62 -37 -131t-86 -98q-46 -26 -105 -26q-20 0 -38 3l-26 5l-6 -10q-13 -22 -44 -22q-10 0 -25 7.5t-19 14.5q-11 20 -11 190q0 118 5 200q4 78 8 97.5t16 30.5z" />
    <glyph glyph-name="E" unicode="E" horiz-adv-x="417" 
d="M106 647q27 15 42 15q11 0 19 -1q43 -3 89 -4q53 -2 72 -11q28 -15 28 -47q0 -37 -32 -49q-9 -4 -38 -4q-18 0 -54 2t-46 2q-13 0 -15 -2t-4 -55l-2 -53q20 0 60.5 -1t60.5 -1l11 -11q18 -17 18 -41q0 -17 -11 -33q-10 -13 -25.5 -17t-60.5 -4h-54v-18q0 -17 3.5 -54
t5.5 -44t77 -7q61 0 78 -3.5t27 -17.5q6 -9 8 -29v-6q0 -28 -25 -44q-14 -8 -107 -8q-78 0 -96 3.5t-35 20.5q-38 39 -48 170q-2 32 -2 62q0 77 6.5 163.5t13.5 99.5q7 12 36 27z" />
    <glyph glyph-name="F" unicode="F" horiz-adv-x="408" 
d="M67 664q10 7 71 7h58q97 -1 117 -4.5t32 -22.5q9 -14 9 -29q0 -32 -26 -46q-13 -7 -94 -7h-82l2 -34q0 -9 2 -34.5t3 -34.5l3 -34l34 -2q4 0 12 -0.5t11 -0.5q21 0 33 3q8 2 22 2q46 0 55 -47v-6q0 -28 -22 -45q-22 -16 -78 -16q-15 0 -24 1l-44 2l2 -90q1 -30 1 -65
q0 -28 -4 -36q-14 -28 -44 -31h-7q-30 0 -45 24q-5 8 -6.5 35.5t-4.5 167.5q-3 118 -3 204q0 106 4 124q2 8 13 15z" />
    <glyph glyph-name="G" unicode="G" horiz-adv-x="574" 
d="M253 627q23 5 64 5q70 0 90 -9q32 -15 32 -51q0 -26 -21 -42q-9 -7 -75 -7q-46 0 -59 -1.5t-31 -9.5q-38 -16 -61.5 -47.5t-25.5 -69.5q-1 -11 -2.5 -22t-1.5 -14q0 -32 19 -70q35 -71 105 -75h11q65 0 102 35q10 9 10 14q0 8 -40 8h-17h-15q-24 0 -34 4.5t-21 19.5
q-7 8 -7 25q0 30 18 46q15 14 72 14q125 0 150 -80q5 -17 5 -31q0 -33 -19.5 -65.5t-53.5 -55.5q-65 -43 -152 -43q-45 0 -81 13q-108 36 -148 153q-11 33 -13 83v18q0 68 27 122q13 28 13 31t28 31q51 52 132 71z" />
    <glyph glyph-name="H" unicode="H" horiz-adv-x="506" 
d="M366 649q12 12 34 12q20 0 34 -10q17 -11 19.5 -42t2.5 -211q0 -219 -7 -233q-15 -30 -48 -30q-29 0 -45 25q-6 9 -7 21.5t-1 72.5v81l-68 2q-27 1 -74 1h-18l-24 -1v-96q0 -97 -7 -108q-17 -24 -47 -24q-31 0 -46 25q-5 9 -7 43.5t-5 185.5q-2 66 -2 168q0 56 1 59
q5 16 20.5 27.5t32.5 11.5q13 0 27 -9t20 -22q7 -15 7 -84v-67l44 1h16q33 0 79 -2l51 -4v90q0 71 2.5 88.5t15.5 28.5z" />
    <glyph glyph-name="I" unicode="I" horiz-adv-x="321" 
d="M80 604q10 6 74 6q65 0 75 -7q22 -13 22 -43v-8q-1 -20 -15 -33l-14 -13v-161l1 -160l15 -7q29 -13 29 -48q0 -44 -51 -57q-18 -5 -37 -5q-21 0 -49 5q-30 5 -41 10.5t-18 18.5q-6 12 -6 26q0 35 30 49l15 8l1 158v159l-12 2q-19 4 -31.5 19.5t-12.5 35.5q0 11 7.5 25
t17.5 20z" />
    <glyph glyph-name="J" unicode="J" horiz-adv-x="379" 
d="M238 626q9 5 25 5q19 0 30 -8q13 -10 18 -25t8 -53q10 -127 10 -204q0 -328 -132 -328q-9 0 -14 1q-35 4 -71 24t-49 42q-9 15 -9 51q0 34 9 49q14 25 45 25q14 0 26 -6q25 -12 29 -46q3 -20 9 -21q1 0 3 -0.5t3 -0.5q47 0 47 171q0 93 -11 204q-6 64 -6 73q0 32 30 47z
" />
    <glyph glyph-name="K" unicode="K" horiz-adv-x="496" 
d="M82 662q13 7 24 7t25 -7q19 -9 24.5 -23.5t7.5 -61.5q8 -138 11 -138q4 0 54 51t65 71q45 59 61 73t38 14q19 0 33.5 -13.5t16.5 -33.5v-8q0 -12 -8.5 -25.5t-44.5 -57.5q-75 -93 -105 -118l-18 -16l19 -22q49 -53 83 -96q47 -61 47 -74q0 -28 -20 -46q-9 -9 -35 -9h-8
q-16 0 -23 4t-16 18q-6 9 -46 55.5t-67 76.5l-23 24l3 -24q3 -39 3 -85v-59l-14 -14q-14 -14 -33 -15h-9q-15 0 -24 5q-17 10 -22 30.5t-9 109.5q-2 33 -7 121.5t-7 116.5l-7 130l7 16q8 14 24 23z" />
    <glyph glyph-name="L" unicode="L" horiz-adv-x="420" 
d="M80 648q10 7 27 7q25 0 37 -12q15 -13 17.5 -31t2.5 -105q0 -173 10 -245l2 -16l77 -1q56 -1 68 -2t21 -7q23 -16 23 -46t-25 -47q-10 -7 -107 -8h-56q-43 0 -57 8q-70 37 -70 288q0 26 2 88q3 80 7 99t21 30z" />
    <glyph glyph-name="M" unicode="M" horiz-adv-x="587" 
d="M436 654q12 8 33 8q15 0 20.5 -2.5t21.5 -18.5q22 -19 25 -34q1 -2 1 -17q0 -12 -1.5 -47t-1.5 -52q-3 -63 -3 -113q0 -24 2 -76q3 -72 3 -92q0 -24 -10 -35q-16 -20 -42 -20q-23 0 -39 16l-11 11l-7 109q-1 26 -3 55t-3 45t-1 18t-1 2q-4 0 -27 -38q-27 -46 -30 -47
q-4 -2 -4 -15q0 -19 -25 -36.5t-52 -17.5q-19 0 -36 13.5t-17 28.5q0 9 -16 34q-9 15 -23 41.5t-20 36.5l-8 12l2 -125q1 -42 1 -89q0 -37 -6 -47q-15 -25 -47 -25q-36 0 -49 29q-5 11 -9 201q-3 130 -3 178q0 43 2.5 56t9.5 20q15 15 51 23q12 3 22 3q21 0 37 -14
q22 -22 97 -172q20 -40 22 -40t20 34q26 51 70.5 121.5t54.5 77.5z" />
    <glyph glyph-name="N" unicode="N" horiz-adv-x="525" 
d="M393 693q10 7 27 7q25 0 37 -12q8 -8 11 -14.5t5 -31.5t2 -80q0 -15 -0.5 -63.5t-0.5 -83.5q-1 -170 -3 -207.5t-7 -46.5q-16 -26 -47 -26q-10 0 -23 5q-24 10 -33 50q-3 18 -8.5 27t-31.5 35q-35 35 -91 104q-51 63 -62 74q-2 2 -3 2q-3 0 -3 -51v-84l1 -139l-11 -12
q-16 -18 -42 -18q-36 0 -48 31q-5 11 -9 233q-3 139 -3 180q0 42 5 54q14 29 49 29q28 0 48 -28q17 -23 46 -56q117 -136 149 -180l17 -23l1 146q1 120 5 143.5t23 35.5z" />
    <glyph glyph-name="O" unicode="O" horiz-adv-x="588" 
d="M301 544q-27 10 -34 10q-25 -2 -55 -28q-23 -21 -37.5 -57t-14.5 -74q0 -8 2 -24q14 -110 95 -131q12 -3 26 -3q23 0 54 9q20 6 43.5 17.5t26.5 16.5q11 20 15 87q0 3 0.5 10t0.5 10q0 61 -28.5 97t-93.5 60zM219 655q27 7 54 7q34 0 60 -11q92 -37 137 -92
q68 -83 68 -189q0 -120 -82 -190q-72 -60 -169 -60q-50 0 -90 20q-67 34 -110 121q-34 73 -34 154q0 49 14 93q39 118 152 147z" />
    <glyph glyph-name="P" unicode="P" horiz-adv-x="449" 
d="M258 516q-23 11 -59 12h-16q-23 0 -25 -2q-3 -2 -3 -65v-62l10 -6q6 -5 23 -5h11q45 3 71 29q24 24 24 49q0 32 -36 50zM57 624q16 23 45 23q10 0 23 -5q18 -6 49 -6h13h7q116 0 167 -55q20 -22 28 -46q8 -26 8 -55q0 -28 -6 -50q-15 -58 -59 -104q-56 -57 -129 -57h-12
l-34 2l1 -71l2 -72l-12 -13q-17 -20 -45 -20q-37 0 -48 33q-2 8 -4 249q0 44 -0.5 99t-0.5 67q0 71 7 81z" />
    <glyph glyph-name="Q" unicode="Q" horiz-adv-x="562" 
d="M338 492l-20 22h-65l-15 -18q-79 -94 -79 -181q0 -35 17 -63q31 -48 73 -48q15 0 38.5 7.5t23.5 12.5q0 3 -20 25q-20 21 -23 36q-1 5 -1 14q0 23 14.5 37t37.5 14q9 0 13 -1q13 -3 35 -23l21 -21l5 14q5 13 5 44q0 65 -60 129zM204 619q17 10 35 10q17 0 31 -1
q86 -4 129 -33q106 -72 106 -205q0 -17 -1 -25q-6 -81 -35 -130l-7 -10l23 -27q25 -28 26 -41v-6q0 -20 -13.5 -36.5t-30.5 -17.5q-3 0 -7 -0.5t-6 -0.5q-19 0 -40 22l-20 20l-19 -13q-53 -35 -113 -35q-63 0 -117 37t-80 102q-9 21 -10.5 32.5t-1.5 49.5q0 53 10 87
q21 70 65 134q8 11 19.5 32t22.5 32t34 23z" />
    <glyph glyph-name="R" unicode="R" horiz-adv-x="463" 
d="M161 506q0 -78 11 -78q7 0 21 -9q11 -8 16 -8q6 0 15 4q19 6 36 21t19 28q1 3 1 8q0 25 -27.5 40.5t-66.5 17.5l-25 3v-27zM89 638q12 2 29 2q86 0 140 -14q113 -27 127 -136q2 -11 2 -26q0 -14 -4 -30q-11 -45 -53 -83l-21 -18l15 -23q4 -6 49 -69q33 -48 35 -58
q1 -3 1 -10q0 -18 -12 -33.5t-30 -19.5q-3 -1 -11 -1q-26 0 -42 18q-20 23 -57 75.5t-43 65.5q-7 14 -10.5 17.5t-15.5 4.5q-9 1 -12.5 1.5t-5.5 -0.5v-7q0 -8 2 -64q2 -40 2 -53q0 -21 -2 -29q-5 -17 -20 -27.5t-33 -10.5q-5 0 -13 2q-13 4 -25 16.5t-14 25.5
q-8 54 -16 379q-1 15 -1 36q0 26 3 35q4 11 15 21.5t21 12.5z" />
    <glyph glyph-name="S" unicode="S" horiz-adv-x="454" 
d="M181 631q20 5 47 5q56 0 99 -12q40 -12 44 -14q7 -5 11 -5q5 0 11.5 -14t6.5 -26q0 -37 -29 -51q-13 -7 -25 -7q-14 0 -45 10q-47 14 -69 14t-22 -13q0 -22 100 -136q43 -49 56.5 -69t15.5 -42q1 -5 1 -16q0 -37 -13 -61q-14 -28 -51 -45t-81 -17q-9 0 -29 2
q-67 9 -111 41.5t-44 73.5q0 31 25 54.5t54 23.5q13 0 25 -6q27 -14 28 -46v-20l20 -10q18 -10 29 -10q9 0 19.5 6t12.5 11q2 6 2 9q0 11 -24 32q-55 49 -92 104q-49 73 -49 135q0 28 12 49q20 37 65 50z" />
    <glyph glyph-name="T" unicode="T" horiz-adv-x="525" 
d="M86 654q8 4 32 4l222 -5q76 -2 93.5 -6t28.5 -21q8 -11 8 -29q0 -32 -25 -48q-10 -6 -76 -6l-65 1v-190q0 -190 -6 -203q-14 -28 -49 -28q-31 0 -46 24q-5 9 -6 36.5t-1 168.5v194l-51 3q-42 2 -56.5 6.5t-24.5 18.5q-8 11 -8 28q0 39 30 52z" />
    <glyph glyph-name="U" unicode="U" horiz-adv-x="477" 
d="M77 635q12 8 29 8q33 0 47 -25q7 -11 7 -47q0 -32 -4 -76q-4 -40 -4 -95q0 -58 5 -85q19 -90 92 -91h16l18 49q16 44 20.5 76t10.5 142q5 87 9 106t22 31q11 8 27 8q32 0 49 -29q6 -10 6 -29q0 -18 -3 -73q-16 -329 -88 -374q-14 -8 -45 -15q-28 -7 -59 -7q-40 0 -67 12
q-70 31 -96 140q-12 46 -15.5 88.5t-3.5 135.5q1 96 4.5 116.5t22.5 33.5z" />
    <glyph glyph-name="V" unicode="V" horiz-adv-x="534" 
d="M394 666q11 7 31 7q17 0 28 -6q9 -5 19 -22l8 -16l-6 -34q-18 -89 -73 -237q-54 -149 -62 -187q-2 -13 -14 -25q-9 -9 -14 -11t-21 -2q-58 1 -78 10.5t-27 39.5q-5 24 -28 87q-102 295 -102 309q0 10 7 24q15 29 47 29q22 0 37 -14q9 -7 18 -31.5t45 -131.5
q50 -150 54 -154l2 5q2 4 6 12.5t8 20t10 26.5t11 31q53 145 68 221q5 24 10 33t16 16z" />
    <glyph glyph-name="W" unicode="W" horiz-adv-x="733" 
d="M81 617q13 8 27 8q26 0 42 -19q5 -6 35 -75t50 -121l12 -31l22 88q18 73 26.5 90.5t30.5 23.5q10 2 14 2q18 0 35 -13q3 -2 22 -10t25 -14q11 -13 84 -197q3 -10 6 -10q1 0 7 16.5t14 39.5t12 39q12 44 23 114q7 43 13 53q15 24 48 24q32 0 45 -25q5 -12 5 -28
q0 -22 -9 -72q-11 -60 -43 -160q-21 -66 -31 -114q-11 -52 -15 -63.5t-15 -19.5q-15 -12 -31 -12q-12 0 -35 10q-24 11 -33 30q-12 22 -44 94.5t-43 100.5l-14 36l-12 -47q-7 -31 -31 -100q-19 -53 -19 -61q0 -9 -6.5 -21t-7.5 -17q-11 -34 -51 -34q-28 0 -39 14.5t-20 62.5
q-13 69 -30.5 122.5t-59.5 153.5q-35 84 -35 95q0 30 26 47z" />
    <glyph glyph-name="X" unicode="X" horiz-adv-x="474" 
d="M73 617q13 11 25 11h12q36 -1 46 -25q6 -12 39 -67.5t35 -55.5t9 11q8 14 33.5 44t44.5 48q25 23 38 26q3 1 9 1q19 0 34.5 -12t19.5 -29q2 -10 2 -14q0 -21 -32 -54q-44 -48 -78 -107l-13 -22l29 -47q3 -6 39 -72q12 -25 25 -31q30 -16 30 -49q0 -17 -10 -31
q-15 -22 -44 -22q-8 0 -16 6.5t-34 35.5q-44 49 -57 65q-18 23 -21 23q-2 0 -19 -27q-28 -48 -73 -83q-21 -17 -37 -17q-25 0 -41 14.5t-16 37.5q0 28 25 47q23 17 67 96q20 35 20 42q0 4 -3 8q-23 35 -74 133q-31 59 -31 76v7q1 14 4 19t13 14z" />
    <glyph glyph-name="Y" unicode="Y" horiz-adv-x="540" 
d="M403 683q7 5 25 5q27 0 38 -11q19 -18 19 -40v-7q-1 -14 -11.5 -30.5t-64.5 -92.5q-71 -99 -89 -147.5t-25 -160.5q-5 -67 -12 -77q-17 -24 -46 -24q-28 0 -43 22q-9 13 -9 51q0 83 13 156q3 22 3 41v9q-4 22 -90 140q-48 64 -53 80q-2 8 -2 13q0 18 10.5 33t27.5 19
q10 2 15 2q30 0 54 -34q5 -8 49 -64t48 -63l6 -8l8 12q65 90 103 147q17 24 26 29z" />
    <glyph glyph-name="Z" unicode="Z" horiz-adv-x="506" 
d="M81 663q10 6 38 6q34 0 65 -1q195 -4 239 -40q12 -10 13 -26q0 -2 0.5 -5t0.5 -5q0 -20 -18.5 -48t-86.5 -112q-8 -10 -28 -34.5t-30.5 -37.5t-24 -30.5t-19.5 -28t-6 -15.5q0 -2 22 -2q36 0 69 1q62 2 67 2q29 0 41 -6q29 -14 29 -50q0 -33 -25 -46q-11 -5 -130 -10
q-130 -5 -149 -5q-32 0 -46 8q-22 13 -22 41q0 67 154 261q58 72 58 77q0 3 -104 5l-104 2l-14 14q-14 14 -15 33v6q0 29 26 46z" />
    <glyph glyph-name="a" unicode="a" horiz-adv-x="469" 
d="M256 378q-24 7 -45 7q-45 0 -55 -36q-2 -8 -2 -12q0 -19 13 -34t29 -18h5q24 0 56 32q13 13 15.5 18.5t2.5 18.5v18zM333 487q29 19 47 19h1q5 0 16 -9.5t15 -18.5q6 -12 6 -68q0 -38 -3 -59.5t-18 -87.5q-20 -86 -23 -108q-3 -19 -17.5 -30t-33.5 -11q-25 0 -43 19
q-12 14 -12 33v20l-17 -8q-19 -9 -52 -9q-34 0 -52 9q-39 18 -64.5 61t-28.5 97v16q0 96 76 132q19 9 73 9q53 0 82 -9l31 -10z" />
    <glyph glyph-name="b" unicode="b" horiz-adv-x="482" 
d="M273 387l-16 8q-5 0 -8 -66l-2 -53l26 13q44 23 48 41l1 2v2q0 25 -49 53zM55 662q5 17 19 28t33 11q18 0 31 -8t19 -28.5t11 -80.5q4 -49 8 -88l2 -16l8 7q23 22 59 22q19 0 45 -8q63 -22 101.5 -70t38.5 -103v-11q-3 -43 -28.5 -71.5t-88.5 -58.5q-55 -27 -64 -28
q-10 -1 -20 -16q-17 -27 -50 -27q-13 0 -29 16q-39 39 -67 200q-10 62 -19.5 162.5t-9.5 147.5q0 16 1 20z" />
    <glyph glyph-name="c" unicode="c" horiz-adv-x="407" 
d="M163 540q20 10 37 10h16q48 -1 92 -39q36 -30 39 -57v-6q0 -23 -14 -38t-36 -15q-13 0 -27.5 5.5t-16.5 11.5q-2 7 -15.5 13.5t-23.5 6.5q-20 0 -37.5 -29.5t-20.5 -67.5q0 -3 -0.5 -7t-0.5 -7q0 -39 18 -64.5t47 -29.5h4q5 0 9 5t13 23q16 30 32 39q13 7 27 7
q21 0 36 -16t15 -40q0 -25 -26 -66.5t-49 -53.5q-11 -5 -41 -9q-20 -2 -30 -2q-57 0 -95.5 31t-54.5 90q-7 28 -7 69q0 39 7 74q29 125 103 162z" />
    <glyph glyph-name="d" unicode="d" horiz-adv-x="440" 
d="M252 364q-16 3 -30 3q-57 0 -57 -66v-14q2 -30 4 -32q1 -1 2 -1q8 0 36 18.5t43 33.5q17 16 21 23t4 17v14zM294 678q12 6 27 6q16 0 29 -8q15 -10 19 -24q6 -22 14 -224q7 -186 7 -236q0 -39 -8 -50q-16 -25 -46 -25q-32 0 -47 29q-6 11 -6 27q0 18 -14 7
q-13 -9 -40.5 -20t-45.5 -14q-16 -2 -22 -2q-52 0 -82 44q-26 40 -26 97q0 53 21 96q45 92 158 92l39 1l-2 88q-1 24 -1 55q0 33 7 44q8 12 19 17z" />
    <glyph glyph-name="e" unicode="e" horiz-adv-x="457" 
d="M248 391q-14 7 -29 7q-39 0 -49 -38q-2 -8 -0.5 -9t13.5 -1q46 0 82 12l14 4l-7 9q-10 10 -24 16zM185 509q9 4 30 4q34 0 61 -10q19 -8 43.5 -26t40.5 -36q37 -43 37 -83q0 -20 -11 -37q-35 -52 -166 -74q-38 -6 -38 -11q0 -2 1 -4q4 -12 30.5 -21t50.5 -9q21 0 29 7
q5 3 5 15q0 10 11.5 23t24.5 18q7 3 16 3q17 0 32 -10t20 -25q3 -9 3 -20q0 -22 -11 -46t-28 -39q-22 -19 -43.5 -25.5t-63.5 -6.5q-41 0 -65.5 6t-53.5 24q-23 14 -33.5 24.5t-21.5 32.5q-32 62 -32 128q0 94 60 154q27 28 72 44z" />
    <glyph glyph-name="f" unicode="f" horiz-adv-x="470" 
d="M249 662q15 3 36 3q34 0 68 -8t46 -20q17 -17 17 -40q0 -26 -20 -41q-12 -10 -34 -10q-11 0 -38 5.5t-40 5.5q-18 0 -27 -8q-19 -17 -24 -58l-2 -22h34q30 0 44 -5t23 -19q8 -13 8 -30t-8 -30q-8 -14 -21.5 -19t-42.5 -5h-34l3 -28q3 -49 6 -130q3 -63 3 -82
q0 -20 -5 -32q-14 -29 -49 -29t-48 25q-4 8 -12 108.5t-8 141.5v26h-17q-22 0 -37.5 15.5t-15.5 36.5v7q7 49 58 49h5q8 0 10.5 5.5t7.5 35.5q23 130 114 152z" />
    <glyph glyph-name="g" unicode="g" horiz-adv-x="462" 
d="M230 378q-8 2 -22 2q-22 0 -36.5 -8.5t-14.5 -21.5q0 -12 11 -23q12 -11 23 -9q23 5 42 40l9 17zM312 488q28 34 54 34q12 0 20 -7q9 -7 17 -21q6 -11 7 -24t1 -70q-1 -112 -19 -215t-45 -146q-17 -26 -46.5 -42t-63.5 -16q-38 0 -67 22q-17 13 -30 41t-13 50q0 1 0.5 4
t0.5 5q4 19 19.5 31t35.5 12q19 0 35.5 -15t16.5 -32q0 -7 1.5 -8t6.5 1q16 5 28 46q18 68 18 108q0 4 -7.5 0t-19 -12.5t-14.5 -10.5q-36 -21 -73 -21q-50 0 -83.5 42t-37.5 114v23q0 20 6 36q26 71 129 71q30 0 72 -8l38 -8z" />
    <glyph glyph-name="h" unicode="h" horiz-adv-x="429" 
d="M74 650q14 9 30 9q28 0 45 -23q9 -12 12 -84q2 -72 5 -75q1 -1 6 2q16 13 59 20q16 2 23 2q59 0 91 -44q20 -27 26 -60t7 -125q0 -12 0.5 -30.5t0.5 -25.5q0 -44 -4.5 -57t-20.5 -23q-11 -8 -29 -8q-33 0 -46 22q-9 16 -9 47q0 7 2 59q2 46 2 59q0 44 -7 60t-24 16
q-7 0 -28 -12t-36 -25l-9 -8l5 -60q1 -15 2.5 -32.5t2.5 -33.5t1 -20v-15q0 -15 -5 -24q-15 -29 -48 -29q-28 0 -45 24q-8 12 -10 35q-11 107 -19 298q-4 73 -4 105q0 23 5 35q9 15 19 21z" />
    <glyph glyph-name="i" unicode="i" horiz-adv-x="234" 
d="M96 451q12 6 26 6q31 0 45 -25q7 -12 7 -31q0 -11 -8 -147q-7 -102 -11 -122t-20 -32q-9 -8 -30 -8q-31 0 -48 28q-6 10 -6 28q0 16 3 67q1 15 4 70.5t5 75.5q4 52 9 66.5t24 23.5zM118 622q1 0 4.5 0.5t5.5 0.5q25 0 40.5 -16.5t15.5 -42.5q0 -8 -4 -26
q-6 -20 -20.5 -31t-32.5 -11q-26 0 -44 21q-12 13 -12 36q0 25 14 46t33 23z" />
    <glyph glyph-name="j" unicode="j" horiz-adv-x="337" 
d="M187 510q16 21 43 21h5q29 -3 45 -29q5 -9 6 -31t1 -132q0 -158 -6 -195q-14 -97 -37 -140t-61 -44q-27 0 -63.5 29t-51.5 63q-12 27 -12 57q0 17 5 29q16 30 50 30q21 0 36.5 -13.5t15.5 -36.5q0 -13 2 -13q4 0 9 46q6 56 6 196q0 113 1 135t6 28zM191 678q11 7 25 7
q32 0 48 -30q6 -12 6 -29v-8q-4 -63 -57 -63q-26 0 -41.5 16.5t-15.5 41.5q0 11 5 28q9 24 30 37z" />
    <glyph glyph-name="k" unicode="k" horiz-adv-x="408" 
d="M85 708q4 2 17 2q23 0 34 -7q17 -10 20 -29.5t3 -121.5q0 -117 4 -117l1 1q18 24 81 69q29 20 46 20q25 0 39 -14t14 -38v-7q-2 -17 -9 -25.5t-37 -30.5q-11 -8 -39 -31l-21 -18l19 -19q20 -20 42 -62q19 -37 36 -56q19 -21 19 -42q0 -12 -7 -29q-4 -10 -19 -17.5
t-31 -7.5q-13 0 -24 6q-31 18 -60 76q-26 51 -43 60l-11 6l2 -33q1 -24 6 -66q1 -9 1 -23q0 -31 -20 -47q-15 -12 -33 -12q-25 0 -41 19q-10 10 -13 24.5t-7 75.5q-4 48 -4 227q0 216 5 233q3 10 12.5 20.5t17.5 13.5z" />
    <glyph glyph-name="l" unicode="l" horiz-adv-x="333" 
d="M80 651q18 7 24 7q8 0 25 -7q15 -8 23 -23q8 -16 8 -112q0 -156 11 -247l4 -34l15 13q15 13 33 13q56 0 56 -60q0 -74 -59 -101q-25 -11 -45 -11q-80 0 -110 146q-10 48 -12.5 91t-2.5 151q0 104 1 125t6 30q8 12 23 19z" />
    <glyph glyph-name="m" unicode="m" horiz-adv-x="632" 
d="M395 542q15 5 33 5q21 0 34 -5q97 -41 115 -291q3 -39 3 -62q0 -34 -7.5 -48t-27.5 -22q-13 -5 -22 -5q-19 0 -35 15q-13 11 -17 29t-4 65q0 87 -13 145q-5 20 -13.5 40t-13.5 21h-1q-7 0 -15.5 -26.5t-11.5 -54.5q-4 -38 -7 -44q-6 -11 -8 -21q-4 -15 -22 -22
q-19 -7 -21 -7t-21 7q-13 5 -17 9.5t-9 19.5q-3 8 -10 38q-3 21 -14 41t-20 20q-17 0 -26 -147q-4 -73 -9 -90.5t-23 -29.5q-14 -9 -27 -9t-26 11q-26 24 -47 101q-14 48 -26.5 121t-12.5 105q0 3 0.5 6.5t0.5 4.5q5 30 39 40q8 2 13 2q29 0 47 -24l7 -11l11 8q26 20 63 20
q38 0 79 -19q5 -2 20 16q30 37 62 48z" />
    <glyph glyph-name="n" unicode="n" horiz-adv-x="469" 
d="M78 535q14 9 29 9q33 0 47 -27q7 -13 10 -58l2 -45l12 21q24 42 52 56q16 7 28 7q2 0 6 -0.5t7 -0.5q42 -3 75.5 -35t50.5 -87q17 -53 20 -174q1 -28 1 -60q0 -29 -7 -44q-15 -31 -50 -31q-26 0 -46 26q-7 8 -7 33v18v11q0 117 -13 171q-4 19 -12 37.5t-12 18.5
q-14 0 -32 -109q-14 -82 -26.5 -113t-37.5 -45q-14 -8 -29 -8q-21 0 -33 12q-29 28 -45 113.5t-16 211.5q0 49 4.5 65t21.5 27z" />
    <glyph glyph-name="o" unicode="o" horiz-adv-x="458" 
d="M262 356q-13 13 -18 15.5t-23 2.5h-25l-10 -22q-21 -48 -21 -82t21 -50q14 -11 33 -11q29 0 53.5 22.5t24.5 52.5q0 34 -35 72zM135 476q11 6 43 6h28q60 -1 80 -10q41 -18 69 -52q51 -62 51 -141t-49 -127q-48 -47 -137 -48h-3q-80 0 -122.5 38t-42.5 110q0 18 3 39
q7 52 33.5 113t46.5 72z" />
    <glyph glyph-name="p" unicode="p" horiz-adv-x="448" 
d="M284 349q-8 8 -26 8q-25 0 -67 -18l-20 -9v-18q0 -18 7 -18t24 -15q23 -20 35 -20q3 0 9 2q18 7 31.5 28t13.5 40q0 13 -7 20zM88 484q12 2 15 2q8 0 26 -8q24 -12 29 -32l19 7q43 18 98 18q2 0 6 -0.5t5 -0.5q104 -12 110 -123v-13q0 -59 -28 -110.5t-72 -71.5
q-22 -10 -50 -10q-29 0 -45 7l-17 5q0 -23 4 -84q4 -66 4 -82q0 -11 -1 -13q-4 -19 -19 -30.5t-34 -11.5q-14 0 -27 6q-20 11 -25 31.5t-10 114.5q-10 153 -17 232q-9 101 -9 122v5l1 3q2 10 15 22.5t22 14.5z" />
    <glyph glyph-name="q" unicode="q" horiz-adv-x="448" 
d="M247 390q-27 7 -54 12q-19 2 -22 -4t-5 -60l-2 -51l36 -17q38 -17 41 -17q15 0 26 25t13 64l3 38zM141 506q14 2 29 2q48 0 98 -10q29 -6 38 -6q5 0 11 2q14 4 22 4q32 0 48 -25q6 -9 7 -67q0 -44 3 -77q1 -5 1 -13q0 -13 -4 -22q-8 -21 -21 -268q-3 -58 -8 -73t-25 -25
q-14 -6 -26 -6q-32 0 -48 31q-6 12 -6 28q0 15 3 60q4 82 4 90v15l-21 -2h-9q-77 0 -139 51q-30 23 -38 40t-8 60q0 29 1 47q2 63 10 88q20 61 78 76z" />
    <glyph glyph-name="r" unicode="r" horiz-adv-x="417" 
d="M77 506q11 7 30 7q20 0 31 -7q9 -6 16.5 -19t7.5 -23q0 -6 2 -5q2 0 12 9q32 28 81 28q31 0 51 -10q51 -27 57 -112q1 -10 1 -22q0 -13 -9 -23q-18 -22 -44 -22h-7q-22 2 -35.5 18.5t-13.5 40.5q0 13 -2 13q-1 1 -4 -2q-18 -14 -25 -51q-3 -16 -7 -92q-2 -59 -6 -76
t-19 -30q-19 -17 -35 -17q-43 0 -72 108q-19 73 -29 162q-5 48 -5 68q0 43 24 57z" />
    <glyph glyph-name="s" unicode="s" horiz-adv-x="387" 
d="M150 519q18 5 45 5q39 0 64 -9t45.5 -23t26.5 -25q5 -9 5 -26q0 -25 -12 -37q-16 -17 -42 -17q-21 0 -35 11q-21 17 -45 17q-11 0 -21.5 -4t-12.5 -9q-1 -1 6 -7.5t16 -13.5q22 -16 54.5 -47.5t46.5 -51.5q44 -59 44 -108q0 -43 -34 -77q-45 -43 -111 -43q-20 0 -30 2
q-52 7 -80.5 33.5t-28.5 66.5q0 12 3 25q13 64 60 64q23 0 38.5 -15.5t15.5 -40.5v-18l15 -3q3 -1 10 -1q26 0 26 21q0 8 -4 15q-7 13 -26.5 33t-38.5 33q-72 48 -91 104q-5 17 -5 31q0 37 26 69t70 46z" />
    <glyph glyph-name="t" unicode="t" horiz-adv-x="447" 
d="M136 603q13 9 30 9q30 0 47 -24q9 -12 10 -62l1 -50l14 -2q16 -2 46 -2q50 0 67 -26q8 -12 8 -29q0 -33 -26 -49q-11 -6 -38 -6h-22l-47 1l3 -37q4 -49 14.5 -102.5t17.5 -53.5q11 0 19 28q4 16 4 40q0 25 9 38q17 26 46 26t46 -26q8 -11 8 -45q0 -112 -77 -161
q-35 -22 -64 -22q-35 0 -59 29q-55 67 -73 264l-3 29h-14q-13 0 -25.5 8t-18.5 19q-5 10 -5 24q0 26 12 38q18 20 37 20q5 0 6 6.5t1 38.5q0 39 5 54t21 25z" />
    <glyph glyph-name="u" unicode="u" horiz-adv-x="439" 
d="M284 530q12 5 25 5q22 0 34 -9q15 -11 20 -39t15 -155q10 -122 10 -163v-6l-1 -3q-3 -13 -16 -24t-27 -13h-7q-16 0 -30.5 8t-20.5 20q-7 13 -9 13q-4 0 -26 -9q-23 -9 -47 -9q-25 0 -43 9q-73 35 -101 199q-7 42 -7 67q0 24 10 36q18 22 43 22q13 0 25 -6
q16 -8 23 -21.5t11 -46.5q18 -128 48 -146q2 -1 5 -1q12 0 21.5 25.5t9.5 38.5q0 10 7 24q5 10 5 29q0 25 -2 48q-2 20 -2 49q0 27 5.5 38.5t21.5 19.5z" />
    <glyph glyph-name="v" unicode="v" horiz-adv-x="445" 
d="M311 491q12 6 26 6q22 0 39 -13t17 -35q0 -1 -0.5 -3.5t-0.5 -4.5q-4 -33 -38.5 -149t-53.5 -157q-20 -45 -61 -45h-1q-62 0 -121 137q-21 50 -42 119.5t-21 91.5q0 20 17 36.5t38 16.5q30 0 45 -24q4 -5 31 -79.5t38 -110.5q1 -4 3 -4q3 0 20 50q23 64 30 96q9 37 16 51
t19 21z" />
    <glyph glyph-name="w" unicode="w" horiz-adv-x="608" 
d="M472 479q13 8 28 8q28 0 46 -21q10 -13 10 -26q0 -14 -15 -71q-28 -106 -48 -155t-45 -74q-26 -26 -50 -26q-36 0 -71 63l-15 27l-14 -31q-33 -71 -70 -71q-1 0 -3.5 0.5t-3.5 0.5q-64 12 -152 268q-15 45 -15 61q0 13 11 29q16 22 44 22q17 0 33 -11q10 -7 16 -21.5
t34 -95.5q23 -66 26 -66l12 30q9 28 23 57q27 56 57 56q10 0 21 -6q15 -6 23 -17q6 -8 27 -66q17 -51 21 -51l2 2q1 2 4 13t9 31.5t11 36.5q18 64 25 80.5t19 23.5z" />
    <glyph glyph-name="x" unicode="x" horiz-adv-x="419" 
d="M278 477q8 2 15 2q16 0 26 -5q27 -14 30 -45q0 -1 0.5 -4t0.5 -5q0 -12 -30 -75l-31 -62l23 -32q54 -76 54 -113q0 -25 -16.5 -39.5t-38.5 -14.5q-38 0 -51 36q-6 15 -22 40t-20 25h-1q-1 -2 -30 -33q-27 -26 -34 -39q-13 -21 -47 -21h-7q-18 2 -31 16q-16 18 -16 41
q0 9 2 13q3 7 20.5 29.5t38 46.5t22.5 27l11 13l-44 54q-43 54 -47 69q-3 7 -3 16q0 21 13 37t33 17q2 0 4 0.5t4 0.5q30 0 48 -26q11 -16 32.5 -42.5t23.5 -26.5t22 42q22 48 46 58z" />
    <glyph glyph-name="y" unicode="y" horiz-adv-x="433" 
d="M257 154q4 20 4 21q0 6 -5 6t-16 -4q-20 -9 -42 -9h-22l10 -10q10 -10 12 -24q5 -27 7.5 -34.5t9.5 -8.5h3q26 0 39 63zM298 480q8 7 25 7q20 0 31 -10q21 -16 27 -54q1 -4 1 -24q0 -130 -14 -220q-12 -79 -37.5 -130.5t-60.5 -67.5q-18 -8 -41 -8q-50 0 -88 27
q-21 15 -35.5 49.5t-14.5 69.5q0 44 39 55h2l10 5q0 1 -5 3q-25 14 -49 61q-14 27 -24.5 77.5t-10.5 87.5q0 38 30 53q14 7 25 7q10 0 24 -7q16 -8 22.5 -22.5t10.5 -50.5q7 -73 22 -94q9 -14 20 -14q9 0 18 11q16 19 29.5 59.5t13.5 69.5q0 39 30 60z" />
    <glyph glyph-name="z" unicode="z" horiz-adv-x="444" 
d="M81 479q13 8 80 8q206 0 219 -45q1 -2 1 -7q0 -25 -63 -95q-10 -11 -24.5 -27.5t-25 -28.5t-15.5 -17l-19 -22l60 3q16 1 37 1q22 0 35 -7q27 -16 27 -47q0 -24 -20 -44q-16 -15 -151 -16q-78 0 -101 8q-24 8 -32.5 17.5t-8.5 29.5q0 48 94 149l35 38l-62 1
q-44 1 -54 2.5t-18 8.5q-21 19 -21 44q0 29 27 46z" />
    <glyph glyph-name="nbsp" unicode="&#xa0;" 
 />
    <glyph glyph-name="uni030b" unicode="&#x30b;" horiz-adv-x="323" 
d="M211 612q13 10 29 10q13 0 21.5 -8t8.5 -23q0 -11 -2.5 -16t-12.5 -13q-13 -10 -21 -33q-6 -19 -13 -27t-20 -10q-14 -2 -25 9t-11 23q0 10 9 36q8 21 14.5 30.5t22.5 21.5zM82 603q11 34 35 34q7 0 17 -5q15 -8 15 -28q0 -34 -31 -78q-15 -21 -35 -21q-12 0 -21 10
q-9 9 -9 23q0 15 12 33q11 15 17 32z" />
    <glyph glyph-name="uni030f" unicode="&#x30f;" horiz-adv-x="236" 
d="M54 555q0 29 5 29q3 0 11 -15q4 -8 4 -17q0 -14 -12 -23l-8 -5v31zM101 631q3 1 9 1q16 0 38 -23q36 -39 36 -67q0 -16 -12 -25q-8 -7 -20 -7q-20 0 -32 22q-5 10 -23 32q-17 20 -18 36q0 26 22 31z" />
    <glyph glyph-name="uni0317" unicode="&#x317;" horiz-adv-x="221" 
d="M116 102q8 7 22 7q13 0 20 -8q11 -13 11 -24q0 -9 -6 -26q-12 -34 -46 -71q-17 -18 -31 -18q-24 0 -31 25q0 1 -0.5 3t-0.5 3q0 16 23 45q16 18 23 37q7 20 16 27z" />
  </font>
</defs>
</svg>
